<svg width="150" height="149" viewBox="0 0 150 149" fill="none" xmlns="http://www.w3.org/2000/svg">
<ellipse cx="75" cy="74.5" rx="75" ry="74.5" fill="#0E1F74"/>
<ellipse cx="75" cy="74.5" rx="71" ry="70.5" fill="#EBEBF2"/>
<path d="M65.9288 106.283C65.0563 106.285 64.192 106.112 63.3856 105.776C62.5791 105.44 61.8463 104.946 61.2294 104.322L33.0326 75.8369C32.3973 75.218 31.8904 74.4776 31.5415 73.6587C31.1926 72.8399 31.0086 71.9591 31.0003 71.0677C30.992 70.1763 31.1596 69.2921 31.4932 68.4668C31.8269 67.6415 32.3199 66.8916 32.9436 66.2608C33.5672 65.63 34.309 65.131 35.1257 64.7928C35.9423 64.4547 36.8175 64.2842 37.7001 64.2913C38.5826 64.2984 39.455 64.483 40.2662 64.8342C41.0774 65.1855 41.8112 65.6964 42.4249 66.3372L65.9222 90.0696L108.231 47.3512C109.477 46.0915 111.168 45.3834 112.931 45.3828C114.694 45.3822 116.386 46.089 117.633 47.3479C118.88 48.6067 119.581 50.3144 119.582 52.0954C119.582 53.8763 118.883 55.5845 117.636 56.8442L70.6283 104.322C70.0113 104.946 69.2786 105.44 68.4721 105.776C67.6656 106.112 66.8014 106.285 65.9288 106.283Z" fill="#0E1F74"/>
</svg>
