<svg width="62" height="26" viewBox="0 0 62 26" fill="none" xmlns="http://www.w3.org/2000/svg">
  <path d="M25.832 9.90186H29.9652V11.9689H25.832V9.90186Z" fill="#0E1F74" />
  <path
    d="M61.1132 6.81233L54.094 5.80994C52.8141 5.02367 51.4859 4.31982 50.1164 3.70215C45.5939 1.65365 40.6854 0.596606 35.7201 0.602072H34.5008C28.6412 0.606276 22.8754 2.07664 17.7289 4.87903L14.1865 6.81149C10.0398 6.85816 5.97312 7.96104 2.37058 10.0146C0.906521 10.8542 0.00252279 12.4121 0 14.0994V20.2352C0 20.8062 0.462511 21.2687 1.0335 21.2687H4.50317C5.6317 24.4882 9.15645 26.1835 12.3759 25.055C14.1482 24.434 15.5412 23.0406 16.1622 21.2687H43.7699C44.8984 24.4882 48.4232 26.1835 51.6427 25.055C53.4145 24.434 54.8079 23.0406 55.429 21.2687H55.7998C55.9314 21.2687 56.0618 21.2439 56.1841 21.1951L59.531 19.8522C61.0262 19.2602 62.0054 17.8129 62 16.2055V7.83532C62 7.32151 61.622 6.88549 61.1132 6.81233ZM14.3828 20.0288C13.9258 22.2652 11.7423 23.7078 9.50586 23.2508C7.26899 22.7937 5.82637 20.6103 6.28342 18.3734C6.74088 16.137 8.92435 14.6943 11.1608 15.1514C13.0853 15.5445 14.4669 17.2377 14.4665 19.2021C14.4665 19.4796 14.4383 19.7567 14.3828 20.0288ZM33.0666 19.2021H16.5331C16.5331 15.7779 13.7576 13.002 10.3333 13.002C6.90907 13.002 4.13316 15.7779 4.13316 19.2021H2.06658V14.0994C2.06784 13.1529 2.57492 12.2788 3.39651 11.8087C6.76863 9.8834 10.5839 8.87008 14.4665 8.86882H33.0666V19.2021ZM33.0666 6.80224H18.5194L18.7186 6.69334C23.1365 4.29249 28.0437 2.93144 33.0666 2.71406V6.80224ZM35.1332 2.66865H35.718C39.8823 2.66403 44.0087 3.4545 47.8766 4.99802L46.0724 6.80224H35.1332V2.66865ZM53.6496 20.0288C53.1925 22.2652 51.009 23.7078 48.7722 23.2508C46.5357 22.7937 45.0931 20.6103 45.5502 18.3734C46.0072 16.137 48.1911 14.6943 50.4275 15.1514C52.352 15.5445 53.7337 17.2377 53.7332 19.2021C53.7332 19.4796 53.7051 19.7567 53.6496 20.0288ZM59.9334 9.9019H56.8333V11.9689H59.9334V16.2055C59.9359 16.967 59.4717 17.6523 58.7637 17.9319L55.7998 19.1223C55.7998 19.0272 55.7876 18.933 55.7813 18.838C55.775 18.743 55.7729 18.6316 55.7628 18.5281C55.7523 18.4247 55.7317 18.3213 55.7153 18.2183C55.6985 18.1148 55.6863 18.0114 55.6657 17.9176C55.6451 17.8234 55.6148 17.7192 55.5879 17.6208C55.561 17.5228 55.5404 17.4236 55.5093 17.3273C55.4786 17.2314 55.4412 17.1393 55.4063 17.0452C55.3709 16.9514 55.339 16.8543 55.3028 16.7609C55.2667 16.668 55.2179 16.5835 55.1746 16.4956C55.1313 16.4077 55.0888 16.3115 55.0405 16.2227C54.9917 16.134 54.937 16.0583 54.8904 15.9759C54.8441 15.8931 54.7873 15.7989 54.7285 15.7144C54.6692 15.6295 54.6145 15.5626 54.5578 15.4861C54.501 15.4096 54.4367 15.3196 54.3707 15.2401C54.3046 15.1606 54.2428 15.0984 54.1785 15.0332C54.1146 14.9685 54.0431 14.8806 53.9721 14.8083C53.9006 14.736 53.8304 14.6788 53.7593 14.6149C53.6878 14.551 53.6113 14.4753 53.5327 14.408C53.4545 14.3412 53.3746 14.2894 53.2964 14.2306C53.2177 14.1717 53.1391 14.1086 53.0567 14.0536C52.9739 13.9989 52.881 13.9505 52.7922 13.8925C52.7031 13.8345 52.6308 13.7891 52.5471 13.7449C52.4634 13.7004 52.3592 13.6537 52.2641 13.6083C52.1691 13.5629 52.0947 13.5225 52.0068 13.4855C51.9189 13.4481 51.7999 13.409 51.6969 13.372C51.5935 13.3346 51.5262 13.3056 51.4383 13.2778C51.3206 13.2416 51.1999 13.2156 51.0797 13.1857C51.0011 13.1672 50.9258 13.1424 50.8463 13.126C50.7193 13.0999 50.589 13.0857 50.4599 13.0667C50.3834 13.0566 50.3102 13.0398 50.2337 13.0327C50.0268 13.0121 49.8204 13.0007 49.6034 13.0007C46.1804 13.0041 43.4066 15.7779 43.4033 19.2009H35.1336V8.8684H46.5C46.7741 8.8684 47.0369 8.7595 47.2303 8.56566L49.91 5.88604C51.0347 6.4213 52.1283 7.01962 53.1858 7.67806C53.3077 7.75417 53.444 7.8042 53.5865 7.8248L59.9334 8.7309V9.9019Z"
    fill="#0E1F74" />
</svg>