<svg width="40" height="40" viewBox="0 0 40 40" fill="none" xmlns="http://www.w3.org/2000/svg">
  <path
    d="M35.8333 35H4.16667C1.87 35 0 33.13 0 30.8333V9.16667C0 6.87 1.87 5 4.16667 5H35.8333C38.13 5 40 6.87 40 9.16667V30.8333C40 33.13 38.13 35 35.8333 35ZM4.16667 6.66667C2.78833 6.66667 1.66667 7.78833 1.66667 9.16667V30.8333C1.66667 32.2117 2.78833 33.3333 4.16667 33.3333H35.8333C37.2117 33.3333 38.3333 32.2117 38.3333 30.8333V9.16667C38.3333 7.78833 37.2117 6.66667 35.8333 6.66667H4.16667Z"
    fill="#001166" />
  <path
    d="M12.4987 19.9998C10.202 19.9998 8.33203 18.1298 8.33203 15.8332C8.33203 13.5365 10.202 11.6665 12.4987 11.6665C14.7954 11.6665 16.6654 13.5365 16.6654 15.8332C16.6654 18.1298 14.7954 19.9998 12.4987 19.9998ZM12.4987 13.3332C11.1204 13.3332 9.9987 14.4548 9.9987 15.8332C9.9987 17.2115 11.1204 18.3332 12.4987 18.3332C13.877 18.3332 14.9987 17.2115 14.9987 15.8332C14.9987 14.4548 13.877 13.3332 12.4987 13.3332Z"
    fill="#001166" />
  <path
    d="M19.1667 28.3337C18.7067 28.3337 18.3333 27.9603 18.3333 27.5003V25.8337C18.3333 24.4553 17.2117 23.3337 15.8333 23.3337H9.16667C7.78833 23.3337 6.66667 24.4553 6.66667 25.8337V27.5003C6.66667 27.9603 6.29333 28.3337 5.83333 28.3337C5.37333 28.3337 5 27.9603 5 27.5003V25.8337C5 23.537 6.87 21.667 9.16667 21.667H15.8333C18.13 21.667 20 23.537 20 25.8337V27.5003C20 27.9603 19.6267 28.3337 19.1667 28.3337Z"
    fill="#001166" />
  <path
    d="M34.1654 15.0002H24.1654C23.7054 15.0002 23.332 14.6268 23.332 14.1668C23.332 13.7068 23.7054 13.3335 24.1654 13.3335H34.1654C34.6254 13.3335 34.9987 13.7068 34.9987 14.1668C34.9987 14.6268 34.6254 15.0002 34.1654 15.0002Z"
    fill="#001166" />
  <path
    d="M34.1654 21.6667H24.1654C23.7054 21.6667 23.332 21.2933 23.332 20.8333C23.332 20.3733 23.7054 20 24.1654 20H34.1654C34.6254 20 34.9987 20.3733 34.9987 20.8333C34.9987 21.2933 34.6254 21.6667 34.1654 21.6667Z"
    fill="#001166" />
  <path
    d="M34.1654 28.3332H24.1654C23.7054 28.3332 23.332 27.9598 23.332 27.4998C23.332 27.0398 23.7054 26.6665 24.1654 26.6665H34.1654C34.6254 26.6665 34.9987 27.0398 34.9987 27.4998C34.9987 27.9598 34.6254 28.3332 34.1654 28.3332Z"
    fill="#001166" />
</svg>