<svg width="22" height="22" viewBox="0 0 22 22" fill="none" xmlns="http://www.w3.org/2000/svg">
<path d="M18.0713 10.9988C17.6374 10.9988 17.2856 11.3506 17.2856 11.7846V19.6416C17.2856 20.0756 16.9338 20.4274 16.4999 20.4274H2.35713C1.92318 20.4274 1.57141 20.0756 1.57141 19.6416V3.92744C1.57141 3.49349 1.92318 3.14172 2.35713 3.14172H11.7857C12.2196 3.14172 12.5714 2.78994 12.5714 2.35599C12.5714 1.92204 12.2196 1.57031 11.7857 1.57031H2.35713C1.05532 1.57031 0 2.62564 0 3.92744V19.6416C0 20.9435 1.05532 21.9988 2.35713 21.9988H16.4999C17.8017 21.9988 18.8571 20.9435 18.8571 19.6416V11.7845C18.8571 11.3506 18.5053 10.9988 18.0713 10.9988Z" fill="#0E2B3D"/>
<path d="M18.0713 10.9988C17.6374 10.9988 17.2856 11.3506 17.2856 11.7846V19.6416C17.2856 20.0756 16.9338 20.4274 16.4999 20.4274H2.35713C1.92318 20.4274 1.57141 20.0756 1.57141 19.6416V3.92744C1.57141 3.49349 1.92318 3.14172 2.35713 3.14172H11.7857C12.2196 3.14172 12.5714 2.78994 12.5714 2.35599C12.5714 1.92204 12.2196 1.57031 11.7857 1.57031H2.35713C1.05532 1.57031 0 2.62564 0 3.92744V19.6416C0 20.9435 1.05532 21.9988 2.35713 21.9988H16.4999C17.8017 21.9988 18.8571 20.9435 18.8571 19.6416V11.7845C18.8571 11.3506 18.5053 10.9988 18.0713 10.9988Z" fill="black"/>
<path d="M21.1196 0.881083C20.5555 0.316844 19.7903 -7.96448e-05 18.9924 1.24307e-05C18.1941 -0.00228946 17.4281 0.315187 16.8655 0.881589L6.51609 11.2301C6.43023 11.3166 6.36545 11.4218 6.32673 11.5373L4.75533 16.2516C4.61818 16.6633 4.84077 17.1082 5.25249 17.2453C5.33236 17.2719 5.41602 17.2855 5.50017 17.2856C5.58451 17.2855 5.66835 17.2719 5.74845 17.2456L10.4627 15.6742C10.5785 15.6355 10.6837 15.5704 10.7699 15.484L21.1193 5.13465C22.294 3.96013 22.2941 2.05574 21.1196 0.881083ZM20.0083 4.0244L9.79407 14.2387L6.74236 15.2577L7.75828 12.2099L17.9764 1.9957C18.5382 1.43506 19.4481 1.43598 20.0088 1.99773C20.2766 2.26608 20.4275 2.62937 20.4286 3.00849C20.4296 3.38963 20.2783 3.75536 20.0083 4.0244Z" fill="#0E2B3D"/>
<path d="M21.1196 0.881083C20.5555 0.316844 19.7903 -7.96448e-05 18.9924 1.24307e-05C18.1941 -0.00228946 17.4281 0.315187 16.8655 0.881589L6.51609 11.2301C6.43023 11.3166 6.36545 11.4218 6.32673 11.5373L4.75533 16.2516C4.61818 16.6633 4.84077 17.1082 5.25249 17.2453C5.33236 17.2719 5.41602 17.2855 5.50017 17.2856C5.58451 17.2855 5.66835 17.2719 5.74845 17.2456L10.4627 15.6742C10.5785 15.6355 10.6837 15.5704 10.7699 15.484L21.1193 5.13465C22.294 3.96013 22.2941 2.05574 21.1196 0.881083ZM20.0083 4.0244L9.79407 14.2387L6.74236 15.2577L7.75828 12.2099L17.9764 1.9957C18.5382 1.43506 19.4481 1.43598 20.0088 1.99773C20.2766 2.26608 20.4275 2.62937 20.4286 3.00849C20.4296 3.38963 20.2783 3.75536 20.0083 4.0244Z" fill="black"/>
</svg>
