<svg width="41" height="43" viewBox="0 0 41 43" fill="none" xmlns="http://www.w3.org/2000/svg">
  <path
    d="M24.6306 8.41744H22.5641V6.35094C22.5641 6.16825 22.4915 5.99304 22.3623 5.86386C22.2332 5.73468 22.058 5.66211 21.8753 5.66211H19.1199C18.9373 5.66211 18.762 5.73468 18.6329 5.86386C18.5037 5.99304 18.4311 6.16825 18.4311 6.35094V8.41744H16.3646C16.1819 8.41744 16.0067 8.49001 15.8775 8.61919C15.7484 8.74837 15.6758 8.92358 15.6758 9.10627V11.8616C15.6758 12.0443 15.7484 12.2195 15.8775 12.3487C16.0067 12.4779 16.1819 12.5504 16.3646 12.5504H18.4311V14.6169C18.4311 14.7996 18.5037 14.9748 18.6329 15.104C18.762 15.2332 18.9373 15.3058 19.1199 15.3058H21.8753C22.058 15.3058 22.2332 15.2332 22.3623 15.104C22.4915 14.9748 22.5641 14.7996 22.5641 14.6169V12.5504H24.6306C24.8133 12.5504 24.9885 12.4779 25.1177 12.3487C25.2469 12.2195 25.3194 12.0443 25.3194 11.8616V9.10627C25.3194 8.92358 25.2469 8.74837 25.1177 8.61919C24.9885 8.49001 24.8133 8.41744 24.6306 8.41744ZM23.9418 11.1728H21.8753C21.6926 11.1728 21.5174 11.2453 21.3882 11.3745C21.259 11.5037 21.1864 11.6789 21.1864 11.8616V13.9281H19.8088V11.8616C19.8088 11.6789 19.7362 11.5037 19.607 11.3745C19.4778 11.2453 19.3026 11.1728 19.1199 11.1728H17.0534V9.7951H19.1199C19.3026 9.7951 19.4778 9.72253 19.607 9.59335C19.7362 9.46417 19.8088 9.28896 19.8088 9.10627V7.03977H21.1864V9.10627C21.1864 9.28896 21.259 9.46417 21.3882 9.59335C21.5174 9.72253 21.6926 9.7951 21.8753 9.7951H23.9418V11.1728Z"
    fill="#001166" />
  <path
    d="M39.6 12.1094C39.6139 11.9882 39.6208 11.8663 39.6206 11.7443C39.6173 11.1129 39.3983 10.5016 38.9999 10.0117C38.6015 9.52185 38.0476 9.18286 37.4302 9.05094C36.7317 8.91799 36.0088 9.05531 35.4078 9.43512C34.8067 9.81493 34.3724 10.4089 34.1926 11.0968L31.1618 19.8174C31.1169 19.8352 31.0732 19.8559 31.0309 19.8794L24.9416 23.4475C24.0098 23.9949 23.237 24.7758 22.6994 25.7133C22.1618 26.6507 21.8781 27.7122 21.8763 28.7929V35.2817C21.6936 35.2817 21.5184 35.3542 21.3893 35.4834C21.2601 35.6126 21.1875 35.7878 21.1875 35.9705V41.4811C21.1875 41.6638 21.2601 41.839 21.3893 41.9682C21.5184 42.0974 21.6936 42.17 21.8763 42.17H31.52C31.7027 42.17 31.8779 42.0974 32.0071 41.9682C32.1362 41.839 32.2088 41.6638 32.2088 41.4811V35.9705C32.2088 35.7878 32.1362 35.6126 32.0071 35.4834C31.8779 35.3542 31.7027 35.2817 31.52 35.2817V33.7662C31.5213 33.4753 31.5832 33.1878 31.7018 32.9221C31.8204 32.6565 31.9931 32.4184 32.2088 32.2232L36.8653 28.0834C37.3747 27.6377 37.7393 27.05 37.9123 26.3957L40.9019 15.216C40.9657 14.9825 40.9981 14.7416 40.9983 14.4996C40.9956 14.0135 40.865 13.5367 40.6195 13.1171C40.374 12.6975 40.0224 12.3499 39.6 12.1094ZM35.5083 11.5032C35.5929 11.1469 35.8086 10.8357 36.1124 10.6314C36.4163 10.4271 36.7859 10.3449 37.1477 10.401C37.4565 10.4657 37.7337 10.6344 37.933 10.8789C38.1324 11.1233 38.2418 11.4288 38.243 11.7443V11.758C37.6277 11.7695 37.033 11.9815 36.5493 12.362C36.0656 12.7425 35.7194 13.2706 35.5634 13.8659L33.6416 19.7967C33.3506 19.6587 33.0387 19.5702 32.7185 19.535L35.5083 11.5032ZM30.8311 40.7923H22.5652V36.6593H30.8311V40.7923ZM39.5724 14.8578L36.576 26.0444C36.4723 26.4331 36.2568 26.7829 35.9561 27.0501L31.2927 31.19C30.9318 31.5154 30.643 31.9127 30.4449 32.3564C30.2468 32.8001 30.1437 33.2803 30.1423 33.7662V35.2817H23.254V28.7929C23.2574 27.9524 23.4788 27.1273 23.8966 26.398C24.3143 25.6688 24.9141 25.0604 25.6374 24.6323L31.7197 21.0711C31.8766 20.9797 32.0499 20.9202 32.2298 20.896C32.4097 20.8718 32.5926 20.8835 32.768 20.9302C32.9433 20.9769 33.1078 21.0578 33.2518 21.1683C33.3958 21.2788 33.5166 21.4166 33.6071 21.5739C33.7861 21.8922 33.8354 22.2672 33.7449 22.6209C33.6971 22.7956 33.6152 22.9591 33.5041 23.1021C33.393 23.2452 33.2548 23.3649 33.0974 23.4544L29.1504 25.7344C29.0005 25.8298 28.8932 25.9793 28.8509 26.1519C28.8086 26.3244 28.8347 26.5067 28.9236 26.6605C29.0125 26.8143 29.1574 26.9278 29.328 26.9773C29.4986 27.0268 29.6818 27.0085 29.8392 26.9261L33.7862 24.6461C34.1017 24.4671 34.3782 24.2268 34.5994 23.9393C34.8207 23.6519 34.9821 23.323 35.0744 22.9722C35.2619 22.2674 35.1628 21.5171 34.7988 20.8851L34.7575 20.8231L36.886 14.2585C36.9705 13.9023 37.1862 13.591 37.4901 13.3867C37.7939 13.1825 38.1636 13.1002 38.5254 13.1564C38.8342 13.221 39.1114 13.3897 39.3107 13.6342C39.51 13.8787 39.6195 14.1841 39.6206 14.4996C39.623 14.6208 39.6067 14.7416 39.5724 14.8578Z"
    fill="#001166" />
  <path
    d="M19.122 35.2817V28.7929C19.1202 27.7123 18.8365 26.6508 18.2989 25.7134C17.7613 24.7759 16.9885 23.9949 16.0567 23.4476L9.9674 19.8726C9.92607 19.8519 9.87785 19.8381 9.83652 19.8175L6.82633 11.1451C6.65137 10.4471 6.21706 9.84209 5.61176 9.45306C5.00647 9.06404 4.2757 8.92027 3.56815 9.05101C2.95068 9.18294 2.39683 9.52193 1.99843 10.0118C1.60003 10.5016 1.381 11.1129 1.37766 11.7443C1.37748 11.8663 1.38438 11.9882 1.39833 12.1094C0.975913 12.35 0.62429 12.6976 0.378824 13.1171C0.133358 13.5367 0.00270297 14.0136 0 14.4997C0.00133789 14.7412 0.0313984 14.9817 0.0895481 15.2161L3.08597 26.3889C3.2572 27.046 3.62199 27.6363 4.13299 28.0834L8.78261 32.2233C9.00051 32.4172 9.17509 32.6548 9.29497 32.9206C9.41484 33.1865 9.47732 33.4747 9.47833 33.7663V35.2817C9.29564 35.2817 9.12043 35.3543 8.99125 35.4835C8.86207 35.6127 8.7895 35.7879 8.7895 35.9706V41.4812C8.7895 41.6639 8.86207 41.8391 8.99125 41.9683C9.12043 42.0975 9.29564 42.1701 9.47833 42.1701H19.122C19.3047 42.1701 19.4799 42.0975 19.6091 41.9683C19.7382 41.8391 19.8108 41.6639 19.8108 41.4812V35.9706C19.8108 35.7879 19.7382 35.6127 19.6091 35.4835C19.4799 35.3543 19.3047 35.2817 19.122 35.2817ZM2.75533 11.7443C2.75618 11.4299 2.8646 11.1251 3.06259 10.8808C3.26057 10.6364 3.5362 10.4672 3.84368 10.4011C4.21542 10.3472 4.59381 10.4357 4.90297 10.6491C5.21213 10.8624 5.4292 11.1848 5.51066 11.5515L8.27976 19.535C7.95966 19.5703 7.64769 19.6588 7.35673 19.7968L5.44866 13.9004C5.29338 13.2992 4.94653 12.7649 4.46059 12.3784C3.97464 11.9919 3.37604 11.7742 2.75533 11.7581V11.7443ZM9.69876 31.1901L5.04225 27.0502C4.73989 26.7815 4.52412 26.4291 4.4223 26.0376L1.41899 14.8579C1.39048 14.7406 1.3766 14.6203 1.37766 14.4997C1.37851 14.1852 1.48694 13.8804 1.68492 13.6361C1.88291 13.3917 2.15854 13.2225 2.46602 13.1564C2.83514 13.1011 3.21154 13.1875 3.51953 13.3983C3.82752 13.6092 4.04424 13.9289 4.1261 14.293L6.24082 20.8232L6.19949 20.8851C5.83551 21.5171 5.73645 22.2675 5.92396 22.9723C6.01618 23.3231 6.17766 23.6519 6.39888 23.9394C6.62009 24.2269 6.89658 24.4672 7.21207 24.6462L11.1591 26.9262C11.3165 27.0086 11.4997 27.0269 11.6703 26.9774C11.8409 26.9279 11.9858 26.8144 12.0747 26.6606C12.1637 26.5067 12.1897 26.3245 12.1474 26.152C12.1052 25.9794 11.9978 25.8298 11.8479 25.7345L7.9009 23.4545C7.74349 23.3649 7.60528 23.2452 7.49417 23.1022C7.38306 22.9592 7.30125 22.7957 7.2534 22.621C7.16291 22.2673 7.21225 21.8923 7.39117 21.574C7.48117 21.417 7.60121 21.2793 7.74442 21.1688C7.88764 21.0582 8.05123 20.977 8.22585 20.9296C8.40047 20.8823 8.58271 20.8698 8.76215 20.8929C8.9416 20.916 9.11473 20.9742 9.27168 21.0642L15.361 24.6324C16.0842 25.0605 16.684 25.6689 17.1017 26.3981C17.5195 27.1274 17.7409 27.9525 17.7443 28.7929V35.2817H10.856V33.7663C10.8548 33.2797 10.7512 32.7988 10.5518 32.3549C10.3524 31.9111 10.0617 31.5142 9.69876 31.1901ZM18.4331 40.7924H10.1672V36.6594H18.4331V40.7924Z"
    fill="#001166" />
  <path
    d="M30.2446 2.99764C29.6052 2.35705 28.8456 1.84886 28.0095 1.50214C27.1734 1.15542 26.2772 0.976987 25.372 0.977051C24.4669 0.977115 23.5707 1.15567 22.7346 1.50251C21.8986 1.84935 21.1391 2.35765 20.4997 2.99833C19.8604 2.35763 19.101 1.84933 18.265 1.50251C17.4289 1.15569 16.5327 0.977168 15.6276 0.977168C14.7225 0.977168 13.8263 1.15569 12.9903 1.50251C12.1542 1.84933 11.3948 2.35763 10.7555 2.99833C9.46625 4.29036 8.74219 6.04106 8.74219 7.8663C8.74219 9.69155 9.46625 11.4423 10.7555 12.7343L20.0134 21.9922C20.1426 22.1213 20.3178 22.1939 20.5004 22.1939C20.6831 22.1939 20.8582 22.1213 20.9874 21.9922L30.2453 12.7343C31.5345 11.442 32.2585 9.69118 32.2584 7.86582C32.2582 6.04046 31.534 4.28969 30.2446 2.99764ZM20.4997 20.5312L11.7288 11.7603C10.9588 10.9892 10.4347 10.0071 10.2227 8.93823C10.0107 7.86933 10.1204 6.76157 10.5379 5.755C10.9554 4.74844 11.662 3.88825 12.5683 3.28318C13.4746 2.67812 14.54 2.35534 15.6297 2.35565C16.3536 2.35316 17.0707 2.49484 17.7392 2.7724C18.4078 3.04997 19.0144 3.45788 19.5237 3.97234L20.0127 4.46141C20.1419 4.59054 20.3171 4.66309 20.4997 4.66309C20.6824 4.66309 20.8576 4.59054 20.9867 4.46141L21.4772 3.97096C21.9886 3.45864 22.596 3.0522 23.2646 2.77488C23.9333 2.49757 24.65 2.35483 25.3739 2.35483C26.0978 2.35483 26.8145 2.49757 27.4832 2.77488C28.1518 3.0522 28.7592 3.45864 29.2706 3.97096C30.3025 5.00419 30.882 6.40471 30.882 7.86493C30.882 9.32514 30.3025 10.7257 29.2706 11.7589L20.4997 20.5312Z"
    fill="#001166" />
</svg>