<svg width="52" height="38" viewBox="0 0 52 38" fill="none" xmlns="http://www.w3.org/2000/svg">
  <path
    d="M50.1554 17.8988H45.8384C47.6331 13.8243 47.4391 10.5259 46.76 8.29457C45.5959 4.31705 41.6669 0 35.8461 0C34.2939 0 32.7417 0.291037 31.141 0.873112C28.3761 1.89174 26.5329 3.00739 25.7083 3.58946C24.8837 3.00739 23.089 1.89174 20.2756 0.873112C18.6749 0.291037 17.0742 0 15.5705 0C9.74975 0 5.82075 4.31705 4.6566 8.29457C3.97751 10.6714 3.73498 14.2608 6.01477 18.7719H0.7761C0.339544 18.7719 0 19.1115 0 19.548C0 19.9846 0.339544 20.3241 0.7761 20.3241H6.93639C7.17892 20.7607 7.46996 21.1972 7.8095 21.6338C12.8542 28.9097 23.8166 36.8162 25.8053 37.3013V37.3498C25.8053 37.3498 25.8538 37.3498 25.9023 37.3013C25.9508 37.3013 25.9993 37.3013 26.0478 37.3013V37.2528C27.7456 36.4282 38.2714 29.6373 43.8011 21.5853C44.3347 20.8577 44.7712 20.1301 45.1593 19.4025H50.2525C50.689 19.4025 51.0286 19.0629 51.0286 18.6264C51.0286 18.1898 50.592 17.8988 50.1554 17.8988ZM42.3944 20.7607C37.2528 28.2791 27.7941 34.3424 25.7568 35.6521C23.671 34.3424 14.2608 28.2306 9.07067 20.7607C8.97365 20.6151 8.87664 20.4696 8.77963 20.3241H15.91C16.2011 20.3241 16.4921 20.1786 16.6376 19.8876L19.8876 13.4847L24.9807 26.5329C25.0777 26.8239 25.4173 27.018 25.7083 27.018C25.7083 27.018 25.7083 27.018 25.7568 27.018C26.0964 27.018 26.3874 26.7754 26.4844 26.4359L30.947 11.1564L33.3238 18.8689C33.4208 19.16 33.6633 19.354 33.9544 19.4025C34.2454 19.451 34.5364 19.3055 34.7305 19.063L36.6222 16.2981L38.2229 19.0144C38.3684 19.257 38.611 19.4025 38.902 19.4025H43.2676C42.9765 19.8876 42.6855 20.3241 42.3944 20.7607ZM44.1407 17.8988H39.3871L37.3983 14.5034C37.2528 14.2608 37.0103 14.1153 36.7192 14.1153C36.4282 14.1153 36.1856 14.2123 36.0401 14.4549L34.3909 16.8802L31.7231 8.19755C31.6261 7.85801 31.2865 7.66398 30.947 7.61548C30.6074 7.61548 30.2679 7.85801 30.1709 8.19755L25.6598 23.7681L20.7607 11.2534C20.6637 10.9624 20.3726 10.7684 20.0816 10.7684C19.742 10.7684 19.4995 10.9139 19.354 11.2049L15.522 18.7234H7.8095C5.86925 15.1824 5.33569 11.787 6.2088 8.73112C7.22743 5.28718 10.5744 1.60071 15.619 1.60071C16.9772 1.60071 18.3839 1.89174 19.7905 2.37681C23.3315 3.68647 25.2232 5.19017 25.2717 5.19017C25.5628 5.4327 25.9508 5.4327 26.2419 5.19017C26.2419 5.19017 28.1336 3.68647 31.7231 2.37681C33.1298 1.84324 34.5364 1.60071 35.8946 1.60071C40.8908 1.60071 44.2862 5.28718 45.3048 8.73112C46.1294 11.5445 45.6929 14.6489 44.1407 17.8988Z"
    fill="#001166" />
</svg>