<svg width="42" height="42" viewBox="0 0 42 42" fill="none" xmlns="http://www.w3.org/2000/svg">
  <path
    d="M28.0875 22.6346C26.1976 19.6862 22.9788 17.9258 19.4771 17.9258C15.9757 17.9258 12.7566 19.6862 10.867 22.6346L6.31301 29.7389C5.55742 30.9178 5.20879 32.2793 5.3046 33.6761C5.40041 35.0732 5.93201 36.3742 6.84172 37.439C7.75208 38.5034 8.95499 39.2308 10.3204 39.5429C11.6857 39.8547 13.0854 39.7217 14.3678 39.1581L14.4514 39.1209C17.6785 37.7299 21.367 37.7424 24.5861 39.1581C25.4164 39.5231 26.2959 39.7076 27.1836 39.7076C27.6661 39.7076 28.1516 39.6528 28.6326 39.5433C29.9979 39.2315 31.2008 38.5041 32.1115 37.4396C33.0216 36.3751 33.5535 35.0738 33.6496 33.6767C33.7457 32.2793 33.3971 30.9178 32.6415 29.7386L28.0875 22.6346ZM30.2405 35.8394C29.0821 37.1935 27.2082 37.6216 25.5772 36.9045C23.6386 36.0518 21.5577 35.6256 19.4761 35.6256C17.3965 35.6256 15.3159 36.0515 13.3786 36.9032L13.3235 36.9276C11.705 37.612 9.85862 37.1785 8.71306 35.8394C7.55597 34.4849 7.42428 32.5674 8.38558 31.0674L12.9399 23.9631C14.3748 21.7245 16.8185 20.388 19.4771 20.388C22.1357 20.388 24.5797 21.7245 26.0149 23.9631L30.5686 31.0671C31.5302 32.5677 31.3982 34.4855 30.2405 35.8394Z"
    fill="#001166" />
  <path
    d="M7.53826 22.6249C8.89305 22.1045 9.92229 21.0127 10.4366 19.5506C10.9256 18.1593 10.8855 16.5885 10.3232 15.1273C9.76047 13.6671 8.737 12.4751 7.44149 11.7705C6.07996 11.0306 4.58449 10.9101 3.23194 11.4314C0.510807 12.4777 -0.737926 15.8403 0.448643 18.929C1.39649 21.3873 3.60717 22.9392 5.8422 22.9392C6.41289 22.9392 6.98519 22.8379 7.53826 22.6249ZM2.74616 18.0446C2.04697 16.2245 2.66124 14.2884 4.11634 13.7289C4.37909 13.6277 4.65691 13.5774 4.94049 13.5774C5.37821 13.5774 5.83034 13.6969 6.26549 13.9337C7.04799 14.3589 7.67316 15.0972 8.02564 16.012C8.3778 16.9275 8.4092 17.894 8.11376 18.7338C7.84299 19.5035 7.32485 20.0694 6.65514 20.3267L6.65386 20.3273C5.20069 20.8875 3.44759 19.863 2.74616 18.0446Z"
    fill="#001166" />
  <path
    d="M16.3757 17.0591C19.7775 17.0591 22.545 13.906 22.545 10.0303C22.545 6.15372 19.7775 3 16.3757 3C12.9743 3 10.207 6.15372 10.207 10.0303C10.207 13.906 12.9743 17.0591 16.3757 17.0591ZM16.3757 5.4619C18.4198 5.4619 20.0831 7.5114 20.0831 10.0303C20.0831 12.5483 18.4198 14.5972 16.3757 14.5972C14.3317 14.5972 12.6689 12.5483 12.6689 10.0303C12.6689 7.5114 14.3317 5.4619 16.3757 5.4619Z"
    fill="#001166" />
  <path
    d="M27.0286 18.7856H27.029C27.5522 18.9592 28.0861 19.0422 28.6177 19.0422C31.0985 19.0422 33.5162 17.2366 34.4387 14.4616C34.97 12.8643 34.9351 11.1752 34.3403 9.70605C33.718 8.16829 32.5648 7.05189 31.0927 6.56227C29.6206 6.07329 28.0278 6.27708 26.6086 7.13649C25.2528 7.95776 24.214 9.28949 23.6836 10.8869C22.5637 14.2565 24.0643 17.7999 27.0286 18.7856ZM26.0199 11.6633C26.3663 10.6203 27.0283 9.76085 27.8842 9.24238C28.676 8.76269 29.5399 8.64061 30.3163 8.89856C31.0924 9.15683 31.7108 9.77142 32.0582 10.6295C32.4334 11.5569 32.4494 12.6419 32.1024 13.6849C31.4106 15.7664 29.4829 17.0065 27.8054 16.4493C26.1292 15.8917 25.3281 13.7448 26.0199 11.6633Z"
    fill="#001166" />
  <path
    d="M40.0193 17.9656L40.0183 17.9646C37.6724 16.2317 34.164 16.9828 32.1968 19.6398C30.2316 22.2981 30.5389 25.872 32.8813 27.6061C33.7356 28.239 34.7449 28.5415 35.778 28.5415C37.5785 28.5415 39.4518 27.6225 40.7037 25.9325C42.669 23.2742 42.362 19.7004 40.0193 17.9656ZM38.725 24.4678C37.5635 26.0357 35.5995 26.5558 34.3463 25.6275C33.094 24.7004 33.0178 22.6708 34.1762 21.1039C34.9462 20.0638 36.0709 19.4851 37.1075 19.4851C37.6317 19.4851 38.1335 19.6331 38.5552 19.9449C39.8065 20.8729 39.8825 22.9018 38.725 24.4678Z"
    fill="#001166" />
</svg>