<svg width="24" height="24" viewBox="0 0 24 24" fill="none" xmlns="http://www.w3.org/2000/svg">
<g clip-path="url(#clip0)">
<path d="M23.9372 9.33858C23.7792 8.85262 23.3482 8.50855 22.8402 8.46259L15.9121 7.83362L13.1741 1.42335C12.972 0.952398 12.512 0.648438 12 0.648438C11.4881 0.648438 11.0279 0.952398 10.827 1.42335L8.08902 7.83362L1.15982 8.46259C0.651881 8.50947 0.221759 8.85353 0.0628208 9.33858C-0.0952019 9.82456 0.0507355 10.3576 0.434897 10.6945L5.67198 15.2867L4.12783 22.0877C4.01485 22.5878 4.20895 23.1049 4.62387 23.4048C4.8469 23.5669 5.10893 23.6478 5.37187 23.6478C5.59783 23.6478 5.82396 23.5877 6.02593 23.4669L12 19.8948L17.973 23.4669C18.4112 23.7287 18.9622 23.7047 19.3762 23.4048C19.7911 23.1049 19.9852 22.5878 19.8722 22.0877L18.3281 15.2867L23.5652 10.6945C23.9491 10.3576 24.0953 9.82565 23.9372 9.33858Z" fill="#FFC550"/>
</g>
<defs>
<clipPath id="clip0">
<rect width="24" height="24" fill="white"/>
</clipPath>
</defs>
</svg>
