<svg width="196" height="48" viewBox="0 0 196 48" fill="none" xmlns="http://www.w3.org/2000/svg">
  <g clip-path="url(#clip0)">
    <path
      d="M50.7717 25.6414C49.6136 24.5486 48.2888 24.1908 46.7318 24.1908C44.8122 24.1908 43.7509 24.7855 43.7509 25.813C43.7509 26.8405 44.7179 27.4691 46.7995 27.6021C49.8796 27.8003 53.7865 28.4942 53.7865 32.8338C53.7865 35.7157 51.4341 38.1986 46.7753 38.1986C44.1909 38.1986 41.6089 37.7682 39.2227 35.2974L41.2027 32.3963C42.3607 33.6873 45.0105 34.6471 46.831 34.6809C48.3541 34.7148 49.7805 33.9194 49.7805 32.7275C49.7805 31.6009 48.8521 31.1367 46.5336 31.0061C43.4535 30.7644 39.7763 29.6474 39.7763 25.9291C39.7763 22.1527 43.6856 20.8279 46.6666 20.8279C49.2172 20.8279 51.1368 21.3114 53.0249 22.9796L50.7717 25.6414Z"
      fill="white" />
    <path
      d="M58.6046 30.9072C58.8705 32.9283 60.6257 34.3861 63.4737 34.3861C64.9654 34.3861 66.9188 33.8228 67.8472 32.863L70.4292 35.4112C68.7079 37.2003 65.8913 38.0706 63.4181 38.0706C57.7874 38.0706 54.4414 34.5941 54.4414 29.3671C54.4414 24.3989 57.8261 20.8208 63.1183 20.8208C68.5846 20.8208 71.9958 24.2055 71.3673 30.9217L58.6046 30.9072ZM67.4821 27.5612C67.2162 25.4409 65.5601 24.382 63.2416 24.382C61.0657 24.382 59.267 25.4409 58.6723 27.5612H67.4821Z"
      fill="white" />
    <path
      d="M86.4171 19.6479L89.398 21.8988L87.5751 24.2173C88.8347 25.6413 89.2989 27.2659 89.2989 29.0525C89.2989 31.0737 88.5373 33.9217 85.8538 35.1474C88.5688 36.5061 89.2385 38.4596 89.2385 40.546C89.2385 45.05 85.7957 47.8327 81.0596 47.8327C76.3235 47.8327 72.7695 44.9509 72.7695 40.546H76.7756C76.7756 42.6662 78.7314 44.0564 81.0499 44.0564C83.3684 44.0564 85.1889 42.7968 85.1889 40.546C85.1889 38.2952 83.0687 37.2677 81.0499 37.2677C75.9487 37.2677 72.7695 34.1538 72.7695 29.0477C72.7695 23.9417 76.4782 20.7697 81.0499 20.7697C82.3409 20.7697 83.6658 20.9341 84.7924 21.6957L86.4171 19.6479ZM76.778 29.0525C76.778 31.9005 78.7 33.5904 81.0523 33.5904C83.4047 33.5904 85.2905 31.8691 85.2905 29.0525C85.2905 26.236 83.3709 24.459 81.0523 24.459C78.7338 24.459 76.778 26.2046 76.778 29.0525Z"
      fill="white" />
    <path
      d="M94.9852 21.3042V29.8481C94.9852 32.331 96.3439 34.2192 98.9259 34.2192C101.411 34.2192 103.099 32.1328 103.099 29.6499V21.3042H107.102V37.6643H103.498L103.232 35.4449C101.539 37.101 99.9873 37.8964 97.7002 37.8964C93.7933 37.8964 90.9453 34.9493 90.9453 29.882V21.3042H94.9852Z"
      fill="white" />
    <path
      d="M113.387 21.3039L113.684 23.192C114.944 21.1709 116.634 20.8735 118.278 20.8735C119.97 20.8735 121.59 21.536 122.485 22.4305L120.664 25.9409C120.272 25.5806 119.813 25.3013 119.312 25.1191C118.812 24.937 118.28 24.8556 117.748 24.8796C115.631 24.8796 113.675 26.0062 113.675 29.021V37.6302H109.645V21.3039H113.387Z"
      fill="white" />
    <path
      d="M139.21 29.4949C139.21 34.1996 135.997 38.0074 130.697 38.0074C125.398 38.0074 122.219 34.1876 122.219 29.4949C122.219 24.8023 125.463 20.9849 130.664 20.9849C135.864 20.9849 139.21 24.8144 139.21 29.4949ZM126.259 29.4949C126.259 31.9803 127.75 34.2988 130.697 34.2988C133.644 34.2988 135.146 31.9682 135.146 29.4949C135.146 27.0217 133.422 24.6597 130.707 24.6597C127.782 24.6597 126.259 27.0338 126.259 29.4949Z"
      fill="white" />
    <path
      d="M146.637 23.1609L152.793 13.5895H158.063V13.7805L148.823 27.1936V36.7722H144.452V27.2008L135.543 13.7805V13.5823H140.741L146.637 23.1609Z"
      fill="url(#paint0_linear)" />
    <path
      d="M168.879 20.4437H172.747V36.7724H168.946L168.748 34.3886C167.82 36.3082 165.269 37.2365 163.449 37.268C158.613 37.3018 155.035 34.3209 155.035 28.5911C155.035 22.9604 158.778 20.0133 163.548 20.0472C165.724 20.0472 167.82 21.0747 168.748 22.7066L168.879 20.4437ZM159.082 28.5911C159.082 31.705 161.234 33.5593 163.918 33.5593C170.276 33.5593 170.276 23.647 163.918 23.647C161.229 23.6567 159.082 25.4772 159.082 28.5911Z"
      fill="url(#paint1_linear)" />
    <path
      d="M177.967 35.682C177.967 37.326 175.477 37.326 175.477 35.682C175.477 34.038 177.967 34.0405 177.967 35.682Z"
      fill="white" />
    <path
      d="M186.767 35.6818C186.344 36.1235 185.833 36.4717 185.267 36.704C184.701 36.9363 184.093 37.0477 183.481 37.0308C181.011 37.0308 178.953 35.544 178.953 32.5195C178.953 29.4951 181.011 28.0058 183.481 28.0058C184.054 27.9861 184.625 28.0884 185.156 28.306C185.686 28.5236 186.165 28.8514 186.559 29.2678L185.229 30.67C184.76 30.2434 184.151 30.0035 183.518 29.9955C182.098 29.9955 181.061 31.0327 181.061 32.5195C181.061 34.1442 182.169 35.0073 183.479 35.0073C183.822 35.0204 184.164 34.9645 184.485 34.8428C184.806 34.7211 185.1 34.5361 185.348 34.2989L186.767 35.6818Z"
      fill="white" />
    <path
      d="M196 32.5198C196 34.9737 194.322 36.961 191.557 36.961C188.791 36.961 187.125 34.9737 187.125 32.5198C187.125 30.0659 188.817 28.0762 191.532 28.0762C194.247 28.0762 196 30.0804 196 32.5198ZM189.231 32.5198C189.231 33.8156 190.009 35.0269 191.549 35.0269C193.089 35.0269 193.865 33.8181 193.865 32.5198C193.865 31.2215 192.966 29.9958 191.549 29.9958C190.026 29.9958 189.238 31.2384 189.238 32.5198H189.231Z"
      fill="white" />
    <g style="mix-blend-mode:multiply">
      <path
        d="M19.607 47.8328C30.4357 47.8328 39.214 46.7396 39.214 45.391C39.214 44.0425 30.4357 42.9492 19.607 42.9492C8.77836 42.9492 0 44.0425 0 45.391C0 46.7396 8.77836 47.8328 19.607 47.8328Z"
        fill="#DADADB" />
    </g>
    <path
      d="M33.003 12.7508C32.9602 12.6767 32.8985 12.6152 32.8241 12.5727C32.7498 12.5303 32.6655 12.5083 32.5799 12.5091C32.5289 12.5086 32.4783 12.5168 32.43 12.5332C32.323 12.5662 32.2307 12.6354 32.169 12.7289C32.1072 12.8223 32.0799 12.9344 32.0916 13.0458C32.4808 17.1557 31.6395 20.3905 29.5941 22.6631C26.5358 26.0599 21.7586 26.1518 21.703 26.1518C21.6106 26.1501 21.5198 26.175 21.4411 26.2234C21.3624 26.2718 21.2993 26.3417 21.2591 26.4248C21.2189 26.508 21.2034 26.6009 21.2144 26.6926C21.2253 26.7843 21.2623 26.871 21.321 26.9423L27.0774 34.2992C27.1229 34.3583 27.1815 34.4062 27.2487 34.4389C27.3158 34.4716 27.3895 34.4883 27.4642 34.4878C27.5195 34.4874 27.5742 34.4776 27.6262 34.4587C31.5621 33.0589 34.1538 30.7356 35.3118 27.554C37.715 20.9538 33.1964 13.082 33.003 12.7508Z"
      fill="url(#paint2_linear)" />
    <path
      d="M35.4919 17.4942C34.962 15.7712 34.2564 14.1072 33.3861 12.5284C33.3037 12.3881 33.1861 12.2717 33.0449 12.1907C32.9037 12.1097 32.7438 12.0669 32.5811 12.0667C32.4843 12.0665 32.3881 12.0812 32.2958 12.1102C32.0958 12.1758 31.9238 12.3069 31.8075 12.4824C31.6912 12.6579 31.6376 12.8675 31.6551 13.0772C32.0298 17.0639 31.2248 20.1875 29.2617 22.3658C26.317 25.6296 21.7452 25.7021 21.6993 25.7021C21.5256 25.7042 21.3559 25.7548 21.2093 25.8481C21.0627 25.9414 20.9451 26.0738 20.8697 26.2304C20.7944 26.3869 20.7642 26.5614 20.7826 26.7342C20.801 26.907 20.8673 27.0712 20.974 27.2083L26.7304 34.5724C26.8512 34.7262 27.0171 34.8383 27.2049 34.8929C27.3926 34.9476 27.5928 34.942 27.7772 34.877C31.8413 33.4264 34.5152 31.0088 35.7264 27.7087C36.7757 24.8318 36.6983 21.3963 35.4919 17.4942ZM32.5907 12.9974C32.5907 12.9974 41.8648 28.8789 27.475 33.997L21.709 26.6401C21.709 26.6401 33.86 26.5362 32.5811 12.9974H32.5907Z"
      fill="#0E1F74" />
    <g style="mix-blend-mode:multiply">
      <path
        d="M32.5845 13.0989C33.716 17.0976 34.2527 24.3892 26.9055 30.2302C26.9055 30.2302 26.0617 30.4212 24.8578 30.6702L21.7148 26.64C21.7148 26.64 33.7933 26.5337 32.5845 13.0989Z"
        fill="#DADADB" />
    </g>
    <path
      d="M24.733 36.4386C25.1416 35.1839 25.4921 34.1008 25.6034 33.6294C26.0651 31.6952 28.9349 30.9965 29.0582 30.97L29.1694 30.9434L29.283 30.97C30.8254 31.3326 33.6492 32.9041 33.3011 36.2501C33.0448 38.704 31.1905 40.5438 29.7399 41.6245C30.2235 41.5955 30.7457 41.5737 31.2606 41.5737C32.8297 41.5737 34.6308 41.726 34.6308 42.9106C34.6308 43.6359 34.6308 45.8916 32.8417 45.8916C32.2688 45.8916 31.6474 45.6498 30.9923 45.4081C30.3371 45.1663 29.6746 44.9245 29.0968 44.9245C28.2073 44.9629 27.3225 45.0761 26.4519 45.263C25.7021 45.4235 24.9405 45.523 24.1745 45.5604C23.8868 45.5604 23.0334 45.5604 22.724 44.8738C22.3492 44.1074 23.0431 41.6535 24.733 36.4386Z"
      fill="url(#paint3_linear)" />
    <g style="mix-blend-mode:multiply">
      <path
        d="M24.6609 43.198L19.2695 43.7589C20.0891 40.2316 22.2432 34.0884 22.6155 32.5314C23.0991 30.4571 26.4112 29.6665 26.4112 29.6665C26.4112 29.6665 31.3722 30.8511 30.8863 35.5945C30.4052 40.2727 24.8204 43.1206 24.6609 43.198Z"
        fill="#DADADB" />
    </g>
    <path
      d="M22.303 45.0623C22.5907 45.6933 23.2096 46.0076 24.1767 46.0076C24.9688 45.9707 25.7564 45.868 26.5315 45.7005C27.3767 45.5197 28.2355 45.4089 29.099 45.3693C29.597 45.3693 30.228 45.6111 30.8397 45.8311C31.5045 46.0729 32.1911 46.3315 32.8439 46.3315C33.1941 46.3429 33.5407 46.2589 33.8469 46.0886C34.1531 45.9183 34.4072 45.668 34.5822 45.3645C34.9182 44.8036 35.0657 44.0251 35.0657 42.913C35.0657 42.4657 34.8578 41.6655 33.4677 41.3343C33.0296 41.2366 32.5839 41.1775 32.1355 41.1578L31.1201 41.1022L31.7971 40.3431C32.9382 39.0641 33.5934 37.703 33.7312 36.2959C34.1132 32.6453 31.0476 30.9336 29.3794 30.542C29.3098 30.5247 29.2384 30.5157 29.1667 30.5154C29.095 30.5159 29.0236 30.5248 28.9539 30.542C28.6203 30.6193 25.6877 31.3688 25.1728 33.5278C25.064 33.9823 24.6892 35.1016 24.3169 36.2887C22.3272 42.4222 21.9162 44.2234 22.303 45.0623ZM26.0794 33.7429C26.4734 32.0796 29.1667 31.4462 29.1667 31.4462C29.1667 31.4462 33.2066 32.3963 32.8101 36.1968C32.4136 39.9973 27.733 42.2965 27.733 42.2965C28.8979 42.1519 30.0698 42.0712 31.2434 42.0547C32.7303 42.0547 34.1252 42.2337 34.1252 42.9009C34.1252 44.835 33.5982 45.3911 32.8246 45.3911C31.8019 45.3911 30.3417 44.424 29.0796 44.424C27.5058 44.424 25.4097 45.0623 24.1573 45.0623C23.6472 45.0623 23.2773 44.9559 23.1395 44.6585C22.6729 43.6431 25.6829 35.4063 26.0794 33.7429Z"
      fill="#0E1F74" />
    <path
      d="M14.6913 36.4386C14.2852 35.1839 13.9346 34.1008 13.821 33.6294C13.3616 31.6952 10.4895 30.9965 10.3686 30.97L10.2574 30.9434L10.1438 30.97C8.6013 31.3326 5.77751 32.9041 6.12564 36.2501C6.38191 38.7064 8.23866 40.5462 9.69407 41.6269C9.21055 41.5979 8.68834 41.5761 8.17096 41.5761C6.60192 41.5761 4.80078 41.7284 4.80078 42.9131C4.80078 43.6384 4.80078 45.894 6.59225 45.894C7.16281 45.894 7.78414 45.6522 8.44174 45.4105C9.09933 45.1687 9.75935 44.927 10.3347 44.927C11.2292 44.9645 12.1188 45.0777 12.9941 45.2654C13.7439 45.4262 14.5056 45.5257 15.2716 45.5628C15.5617 45.5628 16.4151 45.5628 16.7221 44.8762C17.0751 44.1074 16.3812 41.6535 14.6913 36.4386Z"
      fill="url(#paint4_linear)" />
    <g style="mix-blend-mode:multiply">
      <path
        d="M14.7459 43.198L20.1541 43.7589C19.3394 40.2316 17.1635 34.0884 16.8057 32.5314C16.3222 30.4571 13.0125 29.6665 13.0125 29.6665C13.0125 29.6665 8.05147 30.8511 8.53741 35.5945C9.01852 40.2727 14.6033 43.1206 14.7459 43.198Z"
        fill="#DADADB" />
    </g>
    <path
      d="M15.1058 36.2865C14.7214 35.0994 14.3587 33.98 14.2499 33.5255C13.735 31.3666 10.8 30.6244 10.4687 30.5397C10.3283 30.5043 10.1813 30.5043 10.0408 30.5397C8.36781 30.9314 5.30467 32.6431 5.68907 36.2937C5.83655 37.7008 6.48931 39.0619 7.62318 40.3408L8.30495 41.1L7.28955 41.1556C6.84117 41.1749 6.39539 41.234 5.95743 41.3321C4.56729 41.6633 4.35938 42.4635 4.35938 42.9108C4.35938 44.0229 4.51652 44.8014 4.8429 45.3623C5.01809 45.6661 5.27261 45.9167 5.57923 46.087C5.88586 46.2574 6.23303 46.3411 6.5836 46.3293C7.23394 46.3293 7.92297 46.0875 8.58782 45.8289C9.19948 45.6016 9.83048 45.3671 10.3261 45.3671C11.1927 45.4048 12.0547 45.514 12.9033 45.6935C13.6783 45.8611 14.466 45.9638 15.2581 46.0005C16.2034 46.0005 16.8295 45.6814 17.1196 45.0552C17.5065 44.2235 17.0931 42.4224 15.1058 36.2865ZM16.2735 44.6732C16.1357 44.9706 15.7682 45.077 15.2581 45.077C14.0057 45.077 11.9096 44.4387 10.3333 44.4387C9.07134 44.4387 7.61351 45.4058 6.59085 45.4058C5.81479 45.4058 5.29016 44.8545 5.29016 42.9156C5.29016 42.2483 6.68514 42.0694 8.16957 42.0694C9.34324 42.0857 10.5151 42.1664 11.68 42.3112C11.68 42.3112 7.00668 40.0144 6.60294 36.2115C6.19919 32.4086 10.2487 31.4609 10.2487 31.4609C10.2487 31.4609 12.9396 32.0943 13.336 33.7576C13.7325 35.4209 16.7497 43.6433 16.2735 44.6732Z"
      fill="#0E1F74" />
    <path
      d="M25.436 23.3833C23.4221 19.7931 23.8718 14.1963 23.8718 14.1963H15.6518C15.6518 14.1963 15.8742 19.4788 14.0707 22.9602C13.5412 23.6081 10.5312 29.4588 10.5312 33.2714C10.5312 40.8604 14.368 44.5352 19.7183 44.5352C25.0685 44.5352 28.9053 40.8604 28.9053 33.2714C28.8908 29.4588 25.7406 23.8015 25.436 23.3833Z"
      fill="url(#paint5_linear)" />
    <g style="mix-blend-mode:multiply">
      <path
        d="M23.9332 16.2827H15.5875C15.4896 17.3147 15.3101 18.3373 15.0508 19.341C15.955 22.5299 23.909 33.9967 28.193 30.8731C28.7177 30.6701 27.1075 25.9581 27.1075 25.9581C23.88 21.6088 23.9332 16.2827 23.9332 16.2827Z"
        fill="#DADADB" />
    </g>
    <path
      d="M19.9624 36.8905H19.8584C15.7122 36.8397 12.7385 33.7669 12.6055 33.6363C12.5467 33.5953 12.4977 33.5417 12.4621 33.4795C12.4265 33.4172 12.4053 33.3478 12.3998 33.2762C12.3944 33.2047 12.4049 33.1329 12.4307 33.0659C12.4565 32.999 12.4968 32.9386 12.5488 32.8892C12.6008 32.8398 12.6631 32.8025 12.7313 32.7802C12.7994 32.7578 12.8717 32.7509 12.9429 32.76C13.014 32.769 13.0823 32.7937 13.1427 32.8324C13.2031 32.8711 13.2541 32.9227 13.2921 32.9836C13.3187 33.0126 16.1256 35.9017 19.8681 35.9452H19.9503C22.1697 35.9452 24.302 34.9467 26.2627 32.9763C26.3022 32.9163 26.3545 32.8659 26.4159 32.8287C26.4773 32.7914 26.5462 32.7683 26.6176 32.761C26.689 32.7537 26.7611 32.7624 26.8288 32.7865C26.8964 32.8105 26.9579 32.8494 27.0086 32.9001C27.0594 32.9509 27.0982 33.0123 27.1223 33.08C27.1463 33.1476 27.155 33.2198 27.1477 33.2912C27.1404 33.3626 27.1173 33.4315 27.0801 33.4929C27.0428 33.5542 26.9924 33.6066 26.9324 33.646C24.788 35.7977 22.4405 36.8905 19.9624 36.8905Z"
      fill="#0E1F74" />
    <path
      d="M28.7861 29.4951C28.7645 28.9636 28.6276 28.443 28.3848 27.9696C28.1576 27.4861 27.8795 26.9083 27.587 26.3063C27.1204 25.2361 26.5858 24.1968 25.9865 23.1948L25.972 23.1706C24.3183 20.1848 24.5746 15.5091 24.6085 14.9869V14.97C24.6085 14.9386 24.6085 14.9071 24.6085 14.8733C24.6111 14.627 24.5162 14.3897 24.3446 14.2131C24.1729 14.0365 23.9384 13.9349 23.6922 13.9304H15.8252C15.7 13.9307 15.576 13.9561 15.4608 14.0053C15.3456 14.0544 15.2415 14.1262 15.1546 14.2165C15.0678 14.3067 15 14.4135 14.9553 14.5305C14.9106 14.6475 14.8899 14.7723 14.8944 14.8975C14.8944 14.9434 15.0685 19.6602 13.5284 22.7209L13.5164 22.7499L13.4994 22.7741C12.9657 23.6574 12.4939 24.5767 12.0875 25.5254C11.6645 26.3933 11.2414 27.2613 10.9198 27.943C10.6224 28.5005 10.4899 29.1311 10.5378 29.7611C10.2209 30.8461 10.0453 31.9675 10.0156 33.0974C10.0156 36.823 10.9247 39.7556 12.7161 41.8009C14.4085 43.7495 16.8261 44.7818 19.7273 44.7818C22.6284 44.7818 25.0315 43.7495 26.7384 41.8009C28.5299 39.7435 29.4389 36.8109 29.4389 33.0974C29.3931 31.8718 29.1733 30.6589 28.7861 29.4951ZM19.7079 43.8631C14.6019 43.8631 10.9343 40.3503 10.9343 33.0974C10.9471 32.3731 11.0346 31.6521 11.1954 30.9457C11.3313 31.0474 11.4811 31.1288 11.6403 31.1875C11.9776 31.3224 12.336 31.3969 12.6992 31.4075C13.1634 31.4075 13.8355 31.2769 14.3263 30.1503L14.4157 29.9472C14.7905 29.0817 15.7841 27.225 16.3716 26.5626C16.3408 26.5155 16.3042 26.4725 16.2628 26.4344C16.1927 26.371 16.1104 26.3225 16.021 26.2918L15.9122 26.2628C15.7931 26.2403 15.6702 26.2489 15.5554 26.2879C15.4406 26.3268 15.3378 26.3948 15.2571 26.4852C14.568 27.2492 13.9854 28.5934 13.5647 29.5749L13.4777 29.778C13.1731 30.4767 12.8999 30.6629 11.9691 30.3147C11.8672 30.2753 11.7743 30.2158 11.6958 30.1398C11.6173 30.0638 11.5549 29.9728 11.5121 29.8723C11.3671 29.5169 11.4517 28.9874 11.7539 28.3419C12.0561 27.6964 12.4647 26.8551 12.8733 26.0162C13.2766 25.0513 13.7619 24.1227 14.3238 23.2407C16.0476 19.9141 15.8349 14.8636 15.8349 14.8636H23.6922C23.6922 14.8636 23.2618 20.2187 25.1863 23.6493C25.7236 24.545 26.2041 25.4736 26.6248 26.4296C26.9657 27.1283 27.2896 27.8028 27.5507 28.3637C27.8118 28.9246 27.9158 29.4154 27.8336 29.7635C27.8247 29.8081 27.8118 29.8518 27.7949 29.8941C27.7657 29.9638 27.7266 30.0289 27.6789 30.0875C27.62 30.158 27.5507 30.2191 27.4734 30.2688C27.4304 30.2955 27.3851 30.3181 27.338 30.3365C26.4072 30.6822 26.1292 30.4985 25.8294 29.7998L25.7399 29.5967C25.3144 28.6151 24.7293 27.2685 24.0476 26.507C23.9663 26.4166 23.8631 26.3486 23.7479 26.3097C23.6327 26.2707 23.5095 26.2621 23.39 26.2845L23.2836 26.3111C23.1408 26.3616 23.0179 26.4565 22.933 26.5819C23.5205 27.2467 24.5166 29.1035 24.8913 29.9666L24.9808 30.1721C25.4643 31.2987 26.1437 31.4293 26.6054 31.4293C26.9694 31.4189 27.3287 31.3444 27.6668 31.2092C27.8631 31.1311 28.0447 31.0199 28.2035 30.8804C28.3828 31.6095 28.4802 32.3564 28.4936 33.1071C28.4815 40.3503 24.814 43.8631 19.7079 43.8631Z"
      fill="#0E1F74" />
    <path
      d="M27.7885 29.8843C27.7592 29.9543 27.7199 30.0198 27.6719 30.0787C27.7199 30.0198 27.7592 29.9543 27.7885 29.8843Z"
      fill="#0E1F74" />
    <path d="M23.3809 26.2749C23.3445 26.2813 23.3086 26.2902 23.2734 26.3018L23.3809 26.2749Z" fill="#0E1F74" />
    <path d="M16.024 26.2896C15.988 26.2775 15.9513 26.2677 15.9141 26.2603L16.024 26.2896Z" fill="#0E1F74" />
    <g style="mix-blend-mode:multiply">
      <path d="M16.024 26.2896C15.988 26.2775 15.9513 26.2677 15.9141 26.2603L16.024 26.2896Z" fill="#DADADB" />
    </g>
    <path
      d="M28.328 0.330877C23.3525 -0.815081 20.9445 7.4363 20.9445 7.4363H18.4181C18.4181 7.4363 16.0101 -0.815081 11.037 0.330877C10.8799 0.367142 9.37855 6.04375 14.8255 9.68712C14.8255 9.68712 12.2217 15.8062 16.6822 18.6469C16.6822 18.6469 17.0763 21.4513 19.6825 21.6085C22.2863 21.4513 22.6828 18.6469 22.6828 18.6469C27.1433 15.8062 24.5371 9.68712 24.5371 9.68712C29.9792 6.04375 28.4851 0.367142 28.328 0.330877Z"
      fill="url(#paint6_linear)" />
    <path
      d="M28.7316 0.928371C28.6132 0.280446 28.5213 0.149893 28.3738 0.116046C28.0497 0.0396638 27.718 0.000726926 27.385 0C25.625 0 23.9737 1.15321 22.5812 3.33633C21.8876 4.45318 21.32 5.64348 20.8888 6.88542L20.7752 7.21664H18.5824L18.4688 6.88542C18.0396 5.64263 17.472 4.4521 16.7764 3.33633C15.3839 1.15321 13.7254 0 11.9726 0C11.6396 0.000959749 11.3079 0.0398935 10.9838 0.116046C10.8363 0.149893 10.742 0.280446 10.6284 0.928371C10.4664 1.80355 9.88858 6.33662 14.2548 9.55449L14.5449 9.76966L14.4265 10.1105C13.4909 12.7869 13.4256 16.6382 16.3219 18.6714L16.4742 18.7802L16.5177 18.9615C16.6217 19.4136 17.272 21.6838 19.6607 21.8288H19.6848C22.0831 21.6838 22.7311 19.4112 22.8278 18.9615L22.8713 18.7802L23.0236 18.6714C25.9248 16.6333 25.8546 12.7869 24.919 10.1105L24.7981 9.76966L25.0907 9.55449C29.469 6.3342 28.8912 1.80355 28.7316 0.928371ZM21.9768 18.5481C21.9622 18.64 21.6431 20.7481 19.68 20.8956C17.7459 20.7481 17.3953 18.6351 17.3833 18.5481C17.3681 18.4467 17.3316 18.3496 17.2761 18.2634C17.2207 18.1771 17.1476 18.1036 17.0617 18.0476C15.4516 17.0226 14.6852 15.3882 14.7867 13.1737C14.8442 12.0749 15.0751 10.9921 15.4709 9.96549C15.535 9.81446 15.546 9.64616 15.5021 9.48808C15.4581 9.33 15.3619 9.19148 15.2291 9.09514C10.8774 6.19881 11.3609 2.06708 11.5785 0.967054C15.5845 0.483527 17.712 7.56236 17.7338 7.63489C17.7767 7.78258 17.8663 7.91237 17.9893 8.00479C18.1122 8.0972 18.2618 8.14725 18.4156 8.14743H20.942C21.0959 8.14765 21.2457 8.09774 21.3687 8.00527C21.4917 7.9128 21.5812 7.78278 21.6238 7.63489C21.6455 7.56236 23.7586 0.495615 27.7791 0.957383C28.0063 2.06708 28.4874 6.19881 24.1526 9.09514C24.0153 9.18716 23.9144 9.32416 23.8672 9.48257C23.8199 9.64098 23.8294 9.81089 23.8939 9.96307C24.2903 10.9907 24.5236 12.074 24.5854 13.1737C24.6845 15.3834 23.9181 17.0226 22.3104 18.0476C22.2214 18.1013 22.1453 18.174 22.0876 18.2606C22.0299 18.3471 21.9921 18.4452 21.9768 18.5481Z"
      fill="#0E1F74" />
    <path
      d="M20.1576 18.9276C20.1576 18.9276 19.8385 18.9687 19.7321 18.9687C19.6257 18.9687 19.3042 18.9276 19.3042 18.9276C18.9198 18.9276 18.6055 18.3957 18.6055 18.1491C18.6055 17.9074 18.9198 17.6995 19.3042 17.6995H20.1576C20.542 17.6995 20.8563 17.9025 20.8563 18.1491C20.8563 18.3957 20.5492 18.9276 20.1576 18.9276Z"
      fill="#0E1F74" />
  </g>
  <defs>
    <linearGradient id="paint0_linear" x1="138.824" y1="27.1839" x2="167.088" y2="10.3282"
      gradientUnits="userSpaceOnUse">
      <stop offset="0.14" stop-color="#00E9CF" />
      <stop offset="1" stop-color="#00B3D9" />
    </linearGradient>
    <linearGradient id="paint1_linear" x1="10922.4" y1="2884.31" x2="12962.2" y2="1633.43"
      gradientUnits="userSpaceOnUse">
      <stop offset="0.14" stop-color="#00E9CF" />
      <stop offset="1" stop-color="#00B3D9" />
    </linearGradient>
    <linearGradient id="paint2_linear" x1="30.6337" y1="22.9726" x2="24.5848" y2="33.6924"
      gradientUnits="userSpaceOnUse">
      <stop stop-color="#00B3D9" />
      <stop offset="1" stop-color="#225ACF" />
    </linearGradient>
    <linearGradient id="paint3_linear" x1="1371.96" y1="2823.42" x2="1662.65" y2="2323.96"
      gradientUnits="userSpaceOnUse">
      <stop offset="0.14" stop-color="#00E9CF" />
      <stop offset="1" stop-color="#00B3D9" />
    </linearGradient>
    <linearGradient id="paint4_linear" x1="724.371" y1="2286.55" x2="175.201" y2="2700.09"
      gradientUnits="userSpaceOnUse">
      <stop offset="0.14" stop-color="#00E9CF" />
      <stop offset="1" stop-color="#00B3D9" />
    </linearGradient>
    <linearGradient id="paint5_linear" x1="1072.37" y1="4383" x2="2193.37" y2="3721.31" gradientUnits="userSpaceOnUse">
      <stop offset="0.14" stop-color="#00E9CF" />
      <stop offset="1" stop-color="#00B3D9" />
    </linearGradient>
    <linearGradient id="paint6_linear" x1="1096.13" y1="-189.907" x2="2209.98" y2="1249.46"
      gradientUnits="userSpaceOnUse">
      <stop offset="0.14" stop-color="#00E9CF" />
      <stop offset="1" stop-color="#00B3D9" />
    </linearGradient>
    <clipPath id="clip0">
      <rect width="196" height="47.8329" fill="white" />
    </clipPath>
  </defs>
</svg>