<svg width="110" height="29" viewBox="0 0 110 29" fill="none" xmlns="http://www.w3.org/2000/svg">
  <g clip-path="url(#clip0)">
    <path
      d="M0.579602 25.5098V2.68031C0.579602 1.8702 0.782137 1.36726 1.08703 1.06276C1.39206 0.758121 1.89607 0.555676 2.7077 0.555676H36.0061C36.8177 0.555676 37.3217 0.758121 37.6267 1.06276C37.9316 1.36726 38.1342 1.8702 38.1342 2.68031V25.5098C38.1342 26.3199 37.9316 26.8229 37.6267 27.1274C37.3217 27.432 36.8177 27.6345 36.0061 27.6345H2.7077C1.89607 27.6345 1.39206 27.432 1.08703 27.1274C0.782137 26.8229 0.579602 26.3199 0.579602 25.5098Z"
      stroke="white" stroke-width="1.14358" />
    <path fill-rule="evenodd" clip-rule="evenodd"
      d="M19.258 6.21216C20.0717 6.21216 20.7309 6.87125 20.7309 7.68314C20.7309 8.49503 20.0717 9.15413 19.258 9.15413C18.4451 9.15413 17.7852 8.49503 17.7852 7.68314C17.7852 6.87125 18.4451 6.21216 19.258 6.21216Z"
      fill="white" />
    <path fill-rule="evenodd" clip-rule="evenodd"
      d="M10.0039 14.6199V14.0923C10.0039 14.0923 13.334 12.7977 14.762 12.2435C16.1892 11.6893 17.6164 10.343 17.6164 10.343C17.6164 10.343 19.0573 8.44025 20.8682 10.5802C22.8282 12.8973 25.5608 13.4515 27.992 14.5256L27.995 14.924L10.0039 14.6199Z"
      fill="white" />
    <path fill-rule="evenodd" clip-rule="evenodd"
      d="M3.66029 12.7977C3.317 12.7977 2.80169 12.7977 2.62966 12.7977C2.45763 12.7977 1.43994 20.383 17.2998 22.2044C17.1171 24.5306 13.2991 24.9343 12.1459 25.0916L12.3042 25.8838H25.1719C25.1719 25.6192 25.1719 25.2232 25.1719 25.0916C24.5919 25.1616 20.0758 24.3611 20.155 22.1436C23.8056 22.304 29.5852 20.8543 31.6152 19.3886C33.6453 17.923 37.3408 14.8008 35.0024 11.5115C32.8948 8.54593 27.7484 12.2967 30.6226 14.382C32.0636 15.4272 33.012 14.1547 32.8537 13.4416C32.6938 13.2303 32.3855 13.3245 32.212 13.4758C31.5726 14.0323 30.5549 12.9102 31.211 12.1721C32.3459 10.8957 34.1636 12.3804 33.9528 13.545C33.7412 14.7096 33.0013 15.5306 31.0984 15.4911C29.1954 15.4516 13.857 15.6059 5.24658 15.2532C4.23574 15.2121 3.7562 14.1212 3.66029 12.7977Z"
      fill="white" />
    <path fill-rule="evenodd" clip-rule="evenodd"
      d="M2.9899 11.8073C3.24184 9.83685 3.72595 8.20471 4.38589 6.87512C5.36781 4.89937 6.73792 3.58727 8.31584 2.82707C9.89071 2.06763 11.6696 1.8601 13.472 2.08968C14.9122 2.27364 16.3676 2.73661 17.7453 3.41926L17.7597 3.42611C18.3968 3.74159 19.0811 4.09584 19.7959 4.4653C20.1841 4.66675 20.5822 4.872 20.9864 5.07954L21.3061 5.1107C26.2895 5.60103 31.1694 6.08072 34.9166 2.83619L35.336 2.47282L35.3178 3.027C35.1655 7.56842 33.1294 9.0166 30.3237 8.9231C27.5363 8.82959 23.9991 7.16324 20.8471 5.55238C14.4654 4.92902 7.96037 4.45693 3.43823 11.9616L2.84375 12.9483L2.9899 11.8073ZM4.82128 7.0895C4.31282 8.11349 3.91244 9.32448 3.64679 10.7423C7.98549 4.42425 13.8366 4.42957 19.6893 4.95638L19.5736 4.89633C18.8627 4.52915 18.1822 4.17642 17.5451 3.86094L17.5306 3.85334C16.1978 3.19348 14.795 2.74649 13.4111 2.57012C11.6985 2.35195 10.0133 2.54656 8.52669 3.26342C7.04239 3.97877 5.75068 5.21789 4.82128 7.0895ZM22.1822 5.68237C24.9856 7.0743 27.9701 8.35979 30.3389 8.43885C32.748 8.51943 34.5277 7.30616 34.804 3.55534C31.2082 6.35819 26.7622 6.12025 22.1822 5.68237Z"
      fill="white" />
    <path fill-rule="evenodd" clip-rule="evenodd" d="M108.168 28.028H109.621V26.7334H108.168V28.028Z" fill="white" />
    <path fill-rule="evenodd" clip-rule="evenodd" d="M97.5781 28.028H99.0304V26.7334H97.5781V28.028Z" fill="white" />
    <path fill-rule="evenodd" clip-rule="evenodd"
      d="M90.1367 25.8302L91.6263 25.6995C91.7146 26.1465 91.8966 26.4733 92.1721 26.6824C92.4454 26.8899 92.8145 26.9956 93.2804 26.9956C93.7728 26.9956 94.1451 26.9029 94.394 26.7158C94.6444 26.5304 94.77 26.3129 94.77 26.0644C94.77 25.904 94.7167 25.7686 94.6109 25.6569C94.5066 25.5436 94.3232 25.4463 94.0606 25.3642C93.8825 25.308 93.4729 25.2099 92.8358 25.0685C92.0145 24.8876 91.4398 24.6641 91.1095 24.4003C90.6437 24.0285 90.4107 23.5755 90.4107 23.0411C90.4107 22.6959 90.5204 22.3751 90.7388 22.0748C90.9573 21.7761 91.2739 21.548 91.6849 21.3907C92.0975 21.2348 92.5938 21.1558 93.1761 21.1558C94.1291 21.1558 94.8438 21.342 95.3256 21.713C95.8059 22.0855 96.0579 22.5811 96.083 23.203L94.5531 23.2623C94.4876 22.9149 94.346 22.6648 94.1306 22.5135C93.9159 22.3614 93.5925 22.2854 93.1624 22.2854C92.7171 22.2854 92.3677 22.366 92.1173 22.5294C91.9552 22.6328 91.8737 22.7735 91.8737 22.9475C91.8737 23.1079 91.9498 23.2455 92.1013 23.3588C92.2939 23.5033 92.7635 23.6545 93.508 23.8104C94.2531 23.9677 94.8035 24.1297 95.1597 24.2961C95.5167 24.4641 95.7953 24.6922 95.9985 24.9834C96.1995 25.2745 96.2999 25.6333 96.2999 26.0598C96.2999 26.4467 96.1797 26.8101 95.9384 27.1469C95.6963 27.4852 95.3561 27.7368 94.9146 27.9002C94.4731 28.0652 93.9228 28.1473 93.2644 28.1473C92.3061 28.1473 91.57 27.9504 91.0562 27.5559C90.5424 27.1606 90.2357 26.5851 90.1367 25.8302Z"
      fill="white" />
    <path fill-rule="evenodd" clip-rule="evenodd"
      d="M80.6116 24.6451C80.6116 25.4098 80.811 25.9906 81.2068 26.3852C81.6034 26.7805 82.1065 26.9766 82.717 26.9766C83.3259 26.9766 83.8275 26.782 84.2195 26.3882C84.6092 25.9967 84.8049 25.4098 84.8049 24.6261C84.8049 23.8522 84.6146 23.2752 84.2347 22.8928C83.8542 22.512 83.3472 22.3219 82.717 22.3219C82.0852 22.3219 81.5767 22.515 81.1908 22.9004C80.8057 23.2858 80.6116 23.8666 80.6116 24.6451ZM79.0352 24.6907C79.0352 24.0019 79.1501 23.4242 79.3815 22.9574C79.5543 22.6146 79.7895 22.3044 80.0871 22.0307C80.3855 21.7586 80.712 21.5556 81.0667 21.4234C81.5402 21.2439 82.0837 21.1558 82.701 21.1558C83.8184 21.1558 84.7112 21.4644 85.3818 22.0824C86.0532 22.6997 86.3881 23.558 86.3881 24.658C86.3881 25.7496 86.0547 26.6026 85.3895 27.2191C84.7242 27.8341 83.8344 28.1427 82.7223 28.1427C81.5942 28.1427 80.6983 27.8356 80.0323 27.2237C79.367 26.6102 79.0352 25.7656 79.0352 24.6907Z"
      fill="white" />
    <path fill-rule="evenodd" clip-rule="evenodd"
      d="M73.2253 22.4141V26.8879H74.367C74.7941 26.8879 75.1031 26.8681 75.2934 26.824C75.5408 26.7685 75.7471 26.6758 75.9115 26.5435C76.0759 26.4112 76.2083 26.1931 76.3118 25.8905C76.4146 25.5887 76.4671 25.1752 76.4671 24.6529C76.4671 24.1306 76.4146 23.7308 76.3118 23.451C76.2083 23.1705 76.0629 22.9523 75.878 22.7965C75.6907 22.6391 75.4548 22.5335 75.1686 22.4787C74.9547 22.4346 74.5368 22.4141 73.9119 22.4141H73.2253ZM71.6953 21.27H74.4926C75.1229 21.27 75.6024 21.3126 75.9343 21.3993C76.3788 21.5156 76.7602 21.7231 77.0761 22.0226C77.3942 22.3199 77.6355 22.6847 77.8015 23.1158C77.9659 23.5483 78.0489 24.0797 78.0489 24.7137C78.0489 25.2694 77.9712 25.7491 77.8159 26.152C77.6272 26.6431 77.3569 27.0407 77.0038 27.344C76.7396 27.5759 76.3811 27.7553 75.929 27.8837C75.5918 27.9795 75.1404 28.0274 74.5733 28.0274H71.6953V21.27Z"
      fill="white" />
    <path fill-rule="evenodd" clip-rule="evenodd"
      d="M60.0727 28.0274V22.4141H57.8242V21.27H63.8482V22.4141H61.605V28.0274H60.0727Z" fill="white" />
    <path fill-rule="evenodd" clip-rule="evenodd"
      d="M50.918 25.8302L52.4076 25.6995C52.4959 26.1465 52.677 26.4733 52.9526 26.6824C53.2258 26.8899 53.595 26.9956 54.0609 26.9956C54.5533 26.9956 54.9255 26.9029 55.1745 26.7158C55.4256 26.5304 55.5505 26.3129 55.5505 26.0644C55.5505 25.904 55.498 25.7686 55.3921 25.6569C55.2879 25.5436 55.1044 25.4463 54.8411 25.3642C54.6629 25.308 54.2534 25.2099 53.6163 25.0685C52.7958 24.8876 52.2203 24.6641 51.89 24.4003C51.4241 24.0285 51.1912 23.5755 51.1912 23.0411C51.1912 22.6959 51.3008 22.3751 51.5193 22.0748C51.7385 21.7761 52.0544 21.548 52.4654 21.3907C52.8788 21.2348 53.3743 21.1558 53.9566 21.1558C54.9103 21.1558 55.6251 21.342 56.1069 21.713C56.5864 22.0855 56.8391 22.5811 56.8635 23.203L55.3335 23.2623C55.2681 22.9149 55.1273 22.6648 54.9118 22.5135C54.6964 22.3614 54.3737 22.2854 53.9429 22.2854C53.4983 22.2854 53.1482 22.366 52.8978 22.5294C52.7357 22.6328 52.6542 22.7735 52.6542 22.9475C52.6542 23.1079 52.7303 23.2455 52.8818 23.3588C53.0744 23.5033 53.544 23.6545 54.2884 23.8104C55.0336 23.9677 55.584 24.1297 55.941 24.2961C56.2972 24.4641 56.5765 24.6922 56.779 24.9834C56.98 25.2745 57.0812 25.6333 57.0812 26.0598C57.0812 26.4467 56.9609 26.8101 56.7189 27.1469C56.4776 27.4852 56.1366 27.7368 55.6951 27.9002C55.2544 28.0652 54.7033 28.1473 54.0449 28.1473C53.0866 28.1473 52.3505 27.9504 51.8375 27.5559C51.3237 27.1606 51.0169 26.5851 50.918 25.8302Z"
      fill="white" />
    <path fill-rule="evenodd" clip-rule="evenodd" d="M58.9922 17.4824V10.7812H60.5222V16.3436H64.328V17.4824H58.9922Z"
      fill="white" />
    <path fill-rule="evenodd" clip-rule="evenodd"
      d="M45.769 11.8702V16.3439H46.9108C47.3378 16.3439 47.6468 16.3234 47.8371 16.2793C48.0845 16.2246 48.2908 16.1318 48.4552 15.9996C48.6188 15.8673 48.7513 15.6484 48.8556 15.3466C48.9576 15.0448 49.0108 14.6305 49.0108 14.1082C49.0108 13.5859 48.9576 13.1868 48.8556 12.9063C48.7513 12.6266 48.6067 12.4076 48.4217 12.2518C48.2344 12.0944 47.9977 11.9895 47.7115 11.934C47.4984 11.8907 47.0797 11.8702 46.4556 11.8702H45.769ZM44.2383 10.7261H47.0356C47.6659 10.7261 48.1462 10.7686 48.478 10.8553C48.9225 10.9716 49.3039 11.1792 49.6198 11.4779C49.9372 11.7751 50.1792 12.1408 50.3452 12.5718C50.5096 13.0044 50.5918 13.5358 50.5918 14.1698C50.5918 14.7255 50.5149 15.2052 50.3596 15.6073C50.1701 16.0984 49.9007 16.4967 49.5475 16.8001C49.2826 17.0312 48.9241 17.2106 48.4727 17.3398C48.1355 17.4356 47.6834 17.4827 47.117 17.4827H44.2383V10.7261Z"
      fill="white" />
    <path fill-rule="evenodd" clip-rule="evenodd"
      d="M89.75 4.7401L91.2396 4.60935C91.3279 5.05635 91.5098 5.38323 91.7854 5.59305C92.0586 5.80058 92.4278 5.90549 92.8937 5.90549C93.3861 5.90549 93.7584 5.81274 94.0073 5.62573C94.2577 5.44025 94.3833 5.22283 94.3833 4.97425C94.3833 4.81384 94.33 4.67853 94.2242 4.56678C94.1199 4.45351 93.9365 4.3562 93.6739 4.2741C93.495 4.21785 93.0855 4.12054 92.4484 3.97839C91.6278 3.79746 91.0524 3.57396 90.7228 3.31017C90.2569 2.93843 90.0233 2.48536 90.0233 1.95094C90.0233 1.60657 90.1329 1.28576 90.3521 0.984726C90.5705 0.685968 90.8864 0.457908 91.2982 0.300547C91.7108 0.144707 92.2071 0.0664062 92.7894 0.0664062C93.7424 0.0664062 94.4571 0.251895 94.9389 0.622871C95.4192 0.996129 95.6712 1.49178 95.6963 2.11286L94.1656 2.17292C94.1009 1.82474 93.9593 1.57464 93.7439 1.42412C93.5285 1.27132 93.2057 1.19606 92.7749 1.19606C92.3304 1.19606 91.981 1.27588 91.7306 1.43932C91.5677 1.54347 91.487 1.68335 91.487 1.85819C91.487 2.01859 91.5624 2.15543 91.7146 2.2687C91.9072 2.41314 92.3761 2.56442 93.1212 2.72026C93.8657 2.87762 94.4168 3.03954 94.773 3.20602C95.13 3.37479 95.4086 3.60285 95.6111 3.894C95.8128 4.1844 95.9132 4.54321 95.9132 4.96968C95.9132 5.35663 95.793 5.72 95.5517 6.05677C95.3096 6.39506 94.9686 6.64668 94.5279 6.81012C94.0864 6.97585 93.5361 7.05719 92.8777 7.05719C91.9194 7.05719 91.1833 6.86106 90.6695 6.46575C90.1557 6.07121 89.849 5.49498 89.75 4.7401Z"
      fill="white" />
    <path fill-rule="evenodd" clip-rule="evenodd"
      d="M83.1662 3.55572C83.1662 4.31972 83.3657 4.90051 83.7615 5.29581C84.158 5.69035 84.6612 5.88724 85.2716 5.88724C85.8806 5.88724 86.3822 5.69187 86.7742 5.29885C87.1639 4.90659 87.3603 4.31971 87.3603 3.53671C87.3603 2.76283 87.1693 2.18508 86.7902 1.8027C86.4088 1.4226 85.9019 1.23179 85.2716 1.23179C84.6399 1.23179 84.1314 1.42564 83.7455 1.81106C83.3603 2.19648 83.1662 2.77651 83.1662 3.55572ZM81.5898 3.60133C81.5898 2.91183 81.7048 2.33484 81.9362 1.86732C82.109 1.52447 82.3442 1.21431 82.6425 0.940634C82.9402 0.668483 83.2667 0.46551 83.6214 0.333236C84.0949 0.154589 84.6383 0.0664062 85.2564 0.0664062C86.3731 0.0664062 87.2667 0.374286 87.9373 0.993088C88.6079 1.60961 88.9428 2.46863 88.9428 3.56788C88.9428 4.65952 88.6094 5.51247 87.9441 6.12899C87.2789 6.74399 86.3891 7.05263 85.277 7.05263C84.1497 7.05263 83.253 6.74551 82.5877 6.13355C81.9225 5.52007 81.5898 4.67549 81.5898 3.60133Z"
      fill="white" />
    <path fill-rule="evenodd" clip-rule="evenodd"
      d="M75.7901 3.03773H76.9212C77.6557 3.03773 78.1147 3.01113 78.2981 2.95563C78.4801 2.9009 78.6232 2.80511 78.7267 2.6698C78.8294 2.53448 78.882 2.36572 78.882 2.16274C78.882 1.93469 78.8134 1.75224 78.678 1.61236C78.5417 1.47248 78.3491 1.3843 78.1002 1.34629C77.9769 1.33261 77.6047 1.32425 76.9836 1.32425H75.7901V3.03773ZM74.2578 6.93755V0.180908H77.4814C78.2913 0.180908 78.8789 0.241724 79.2458 0.363356C79.6127 0.484227 79.908 0.700123 80.1288 1.00952C80.3487 1.32121 80.4583 1.67546 80.4583 2.07456C80.4583 2.58161 80.2909 3.00124 79.9575 3.33193C79.6233 3.66033 79.1225 3.87015 78.4572 3.95453C78.7891 4.12786 79.0624 4.31639 79.2778 4.5224C79.4932 4.72917 79.7824 5.09407 80.1478 5.61937L81.0741 6.93755H79.2443L78.1375 5.46657C77.744 4.94127 77.4761 4.61058 77.3307 4.47375C77.1861 4.33691 77.0323 4.24417 76.8702 4.19247C76.708 4.1423 76.4523 4.11721 76.0991 4.11721H75.7901V6.93755H74.2578Z"
      fill="white" />
    <path fill-rule="evenodd" clip-rule="evenodd"
      d="M66.5938 0.180908H68.1237V3.83974C68.1237 4.42053 68.1435 4.79835 68.18 4.9694C68.2455 5.24611 68.4031 5.46809 68.6482 5.63533C68.8948 5.80333 69.232 5.88696 69.6598 5.88696C70.0936 5.88696 70.4217 5.80789 70.6424 5.64901C70.8632 5.49165 70.9956 5.29704 71.0398 5.0667C71.0855 4.8356 71.1068 4.45322 71.1068 3.9188V0.180908H72.6367V3.72951C72.6367 4.5414 72.5964 5.11383 72.5134 5.44908C72.4305 5.78433 72.2782 6.06636 72.056 6.29746C71.8337 6.52704 71.5353 6.71101 71.1646 6.84785C70.7924 6.98468 70.3052 7.05234 69.7054 7.05234C68.9816 7.05234 68.4328 6.9786 68.059 6.82884C67.6845 6.67984 67.3899 6.48599 67.1722 6.24881C66.9553 6.01087 66.8122 5.76076 66.7437 5.49925C66.6432 5.11231 66.5938 4.5414 66.5938 3.78501V0.180908Z"
      fill="white" />
    <path fill-rule="evenodd" clip-rule="evenodd"
      d="M61.8969 4.45351V3.31473H65.1958V6.00659C64.8746 6.28331 64.4103 6.52733 63.8013 6.73791C63.1924 6.94696 62.5766 7.05263 61.9532 7.05263C61.1608 7.05263 60.4689 6.90439 59.8798 6.60867C59.2899 6.31143 58.8469 5.88876 58.5508 5.3361C58.2539 4.7842 58.1055 4.1844 58.1055 3.53671C58.1055 2.83353 58.2714 2.20712 58.6018 1.65978C58.9336 1.11396 59.417 0.69357 60.0564 0.403174C60.5412 0.178155 61.1471 0.0664062 61.8702 0.0664062C62.8111 0.0664062 63.5471 0.242012 64.0746 0.593224C64.6044 0.945195 64.9454 1.43172 65.0969 2.0528L63.5776 2.30671C63.4695 1.9745 63.2685 1.71147 62.9739 1.5199C62.6786 1.32757 62.3117 1.23179 61.8702 1.23179C61.2019 1.23179 60.6706 1.42032 60.2748 1.79814C59.8798 2.17748 59.6834 2.73774 59.6834 3.48122C59.6834 4.28246 59.8836 4.88454 60.284 5.28593C60.6828 5.68731 61.2065 5.88724 61.8543 5.88724C62.1755 5.88724 62.4967 5.83023 62.8202 5.71848C63.1414 5.60673 63.4185 5.46989 63.6499 5.31101V4.45351H61.8969Z"
      fill="white" />
    <path fill-rule="evenodd" clip-rule="evenodd"
      d="M43.8555 4.7401L45.3451 4.60935C45.4334 5.05635 45.6153 5.38323 45.8909 5.59305C46.1641 5.80058 46.5333 5.90549 46.9991 5.90549C47.4908 5.90549 47.8638 5.81274 48.1127 5.62573C48.3632 5.44025 48.4887 5.22283 48.4887 4.97425C48.4887 4.81384 48.4355 4.67853 48.3297 4.56678C48.2254 4.45351 48.0419 4.3562 47.7793 4.2741C47.6005 4.21785 47.1909 4.12054 46.5538 3.97839C45.7333 3.79746 45.1578 3.57396 44.8283 3.31017C44.3624 2.93843 44.1295 2.48536 44.1295 1.95094C44.1295 1.60657 44.2383 1.28576 44.4576 0.984726C44.676 0.685968 44.9919 0.457908 45.4037 0.300547C45.8163 0.144707 46.3125 0.0664062 46.8948 0.0664062C47.8478 0.0664062 48.5626 0.251895 49.0444 0.622871C49.5247 0.996129 49.7767 1.49178 49.8018 2.11286L48.2711 2.17292C48.2064 1.82474 48.0648 1.57464 47.8494 1.42412C47.6339 1.27132 47.3112 1.19606 46.8804 1.19606C46.4359 1.19606 46.0865 1.27588 45.836 1.43932C45.6732 1.54347 45.5925 1.68335 45.5925 1.85819C45.5925 2.01859 45.6678 2.15543 45.8201 2.2687C46.0126 2.41314 46.4815 2.56442 47.2267 2.72026C47.9711 2.87762 48.5222 3.03954 48.8785 3.20602C49.2347 3.37479 49.5141 3.60285 49.7165 3.894C49.9182 4.1844 50.0187 4.54321 50.0187 4.96968C50.0187 5.35663 49.8984 5.72 49.6572 6.05677C49.4151 6.39506 49.0741 6.64668 48.6334 6.81012C48.1919 6.97585 47.6416 7.05719 46.9831 7.05719C46.0248 7.05719 45.2888 6.86106 44.775 6.46575C44.2612 6.07121 43.9544 5.49498 43.8555 4.7401Z"
      fill="white" />
    <path fill-rule="evenodd" clip-rule="evenodd"
      d="M49.578 23.9117H45.7729V23.0778C45.7729 22.7129 46.0751 22.4141 46.4435 22.4141H49.8619V21.27H45.1708C44.6601 21.27 44.2422 21.6836 44.2422 22.1891V27.1083C44.2422 27.6139 44.6601 28.0274 45.1708 28.0274H50.0066V26.8879H46.4435C46.0743 26.8879 45.7729 26.5891 45.7729 26.2242V25.049H49.578V23.9117Z"
      fill="white" />
    <path fill-rule="evenodd" clip-rule="evenodd"
      d="M57.2265 13.3678H53.4214V12.5338C53.4214 12.1689 53.7235 11.8702 54.0919 11.8702H57.5104V10.7261H52.8193C52.3085 10.7261 51.8906 11.1396 51.8906 11.6452V16.5644C51.8906 17.0699 52.3085 17.4827 52.8193 17.4827H57.655V16.3439H54.0919C53.7228 16.3439 53.4214 16.0452 53.4214 15.6803V14.505H57.2265V13.3678Z"
      fill="white" />
    <path fill-rule="evenodd" clip-rule="evenodd"
      d="M56.6398 2.82184H52.8347V1.98866C52.8347 1.623 53.1368 1.32425 53.506 1.32425H56.9244V0.180908H52.2333C51.7226 0.180908 51.3047 0.593696 51.3047 1.09923V6.01847C51.3047 6.524 51.7226 6.93755 52.2333 6.93755H57.0691V5.79877H53.506C53.1368 5.79877 52.8347 5.50001 52.8347 5.13436V3.95985H56.6398V2.82184Z"
      fill="white" />
    <path fill-rule="evenodd" clip-rule="evenodd"
      d="M69.2072 25.3546H66.6816V23.2648C66.6816 22.7965 67.0143 22.4141 67.4215 22.4141H68.4674C68.8746 22.4141 69.2072 22.7973 69.2072 23.2648V25.3546ZM65.3633 28.0274H66.6816V26.4918H69.2072V28.0274H70.5256V23.1135C70.5256 22.1002 69.804 21.27 68.9218 21.27H66.9671C66.0849 21.27 65.3633 22.1002 65.3633 23.1135V28.0274Z"
      fill="white" />
    <path fill-rule="evenodd" clip-rule="evenodd"
      d="M105.641 25.3546H103.115V23.2648C103.115 22.7965 103.448 22.4141 103.855 22.4141H104.901C105.308 22.4141 105.641 22.7973 105.641 23.2648V25.3546ZM101.797 28.0274H103.115V26.4918H105.641V28.0274H106.959V23.1135C106.959 22.1002 106.238 21.27 105.355 21.27H103.401C102.518 21.27 101.797 22.1002 101.797 23.1135V28.0274Z"
      fill="white" />
  </g>
  <defs>
    <clipPath id="clip0">
      <rect width="109.609" height="28.2186" fill="white" />
    </clipPath>
  </defs>
</svg>