<svg width="132" height="30" viewBox="0 0 132 30" fill="none" xmlns="http://www.w3.org/2000/svg">
  <g clip-path="url(#clip0)">
    <path
      d="M36.1081 8.24166C36.6958 8.24166 37.1752 8.14888 37.5618 7.94784C37.9484 7.74679 38.134 7.42204 38.134 6.97356C38.134 6.75706 38.1031 6.57148 38.0412 6.40137C37.9793 6.24672 37.8556 6.10754 37.701 5.98382C37.5463 5.86011 37.3298 5.73639 37.0824 5.62814C36.835 5.51988 36.5102 5.3807 36.1391 5.22605C35.8452 5.10234 35.5514 4.97862 35.2885 4.83944C35.0101 4.71572 34.7782 4.56107 34.5771 4.39096C34.3297 4.20539 34.1596 4.00435 34.0359 3.77238C33.9121 3.54041 33.8503 3.24658 33.8503 2.89089C33.8503 2.22591 34.0977 1.70011 34.5926 1.29803C35.0875 0.880484 35.7679 0.679443 36.6339 0.679443C37.1906 0.679443 37.6391 0.725837 38.0103 0.818625C38.366 0.911413 38.6134 0.988737 38.768 1.06606L38.5361 1.97848C38.4124 1.91662 38.1959 1.83929 37.902 1.73104C37.5927 1.62279 37.1597 1.57639 36.5875 1.57639C36.3556 1.57639 36.1391 1.59186 35.938 1.63825C35.737 1.68465 35.5514 1.76197 35.3967 1.85476C35.2421 1.94755 35.1184 2.08673 35.0256 2.22591C34.9328 2.38056 34.8864 2.56613 34.8864 2.78264C34.8864 2.99914 34.9328 3.18472 35.0101 3.33937C35.0875 3.49401 35.2112 3.63319 35.3813 3.75691C35.5359 3.88063 35.737 3.98888 35.9689 4.09713C36.2009 4.20539 36.4793 4.31364 36.7731 4.43736C37.0824 4.56107 37.3917 4.68479 37.6855 4.82397C37.9639 4.94769 38.2268 5.10234 38.4433 5.28791C38.6598 5.48895 38.8299 5.70546 38.9691 5.96836C39.1083 6.21579 39.1701 6.54055 39.1701 6.92717C39.1701 7.65401 38.9072 8.21073 38.3505 8.59735C37.7938 8.9685 37.0515 9.15408 36.0927 9.15408C35.3813 9.15408 34.84 9.09222 34.4689 8.9685C34.0977 8.84479 33.8503 8.752 33.7266 8.69014L33.9895 7.76226C34.0204 7.79319 34.0977 7.82412 34.1905 7.87051C34.2988 7.91691 34.4379 7.97877 34.608 8.02516C34.7936 8.08702 34.9947 8.13341 35.2421 8.17981C35.4895 8.2262 35.7834 8.24166 36.1081 8.24166Z"
      fill="white" />
    <path
      d="M45.6202 4.26725C45.6047 3.41669 45.4037 2.76717 45.0325 2.30323C44.6614 1.82383 44.1201 1.59186 43.4397 1.59186C43.0685 1.59186 42.7438 1.66918 42.4654 1.80836C42.1716 1.94755 41.9241 2.14859 41.7076 2.39602C41.4911 2.64346 41.321 2.92182 41.2128 3.24658C41.0891 3.57134 41.0272 3.91156 40.9963 4.26725H45.6202ZM39.8828 4.9013C39.8828 4.18992 39.9911 3.57134 40.1921 3.04554C40.3931 2.51974 40.656 2.07126 40.9963 1.71558C41.321 1.35989 41.7076 1.09699 42.1252 0.926878C42.5427 0.772231 42.9757 0.679443 43.4242 0.679443C44.414 0.679443 45.2027 1.0042 45.7903 1.65372C46.378 2.30323 46.6718 3.29297 46.6718 4.6384C46.6718 4.71572 46.6718 4.80851 46.6563 4.88583C46.6563 4.96316 46.6409 5.04048 46.6254 5.1178H40.9499C40.9808 6.10754 41.2128 6.86531 41.6767 7.40657C42.1407 7.93237 42.8675 8.19527 43.8727 8.19527C44.4294 8.19527 44.8624 8.14888 45.1872 8.04062C45.5119 7.94784 45.7439 7.85505 45.8986 7.77772L46.0841 8.65921C45.945 8.73653 45.6666 8.84479 45.2645 8.95304C44.8624 9.07676 44.383 9.12315 43.8418 9.12315C43.1304 9.12315 42.5273 9.03036 42.0324 8.81386C41.5375 8.59735 41.12 8.30352 40.7952 7.93237C40.4705 7.56122 40.2385 7.11274 40.0839 6.60241C39.9601 6.09208 39.8828 5.51988 39.8828 4.9013Z"
      fill="white" />
    <path
      d="M53.4286 1.8541C53.2431 1.80771 53.0266 1.74585 52.7327 1.69946C52.4544 1.65306 52.0523 1.6376 51.5265 1.6376C51.0935 1.6376 50.7069 1.71492 50.3666 1.86957C50.0264 2.02421 49.7326 2.24072 49.5006 2.51908C49.2532 2.79745 49.0831 3.1222 48.9439 3.50882C48.8202 3.89544 48.7428 4.31298 48.7428 4.77692C48.7428 5.30272 48.8202 5.76666 48.9593 6.13781C49.114 6.52443 49.2996 6.83372 49.5315 7.06569C49.7635 7.31313 50.0264 7.48324 50.3357 7.59149C50.645 7.69975 50.9388 7.74614 51.2481 7.74614C51.7121 7.74614 52.1296 7.68428 52.5162 7.5451C52.9028 7.40592 53.1967 7.25127 53.3977 7.08116V1.8541H53.4286ZM53.4441 8.0245C53.3822 8.0709 53.2895 8.13276 53.1657 8.21008C53.0266 8.27194 52.8874 8.34926 52.7018 8.41112C52.5162 8.48844 52.3152 8.5503 52.0677 8.58123C51.8358 8.62763 51.5729 8.65855 51.279 8.65855C50.8151 8.65855 50.3666 8.58123 49.9182 8.44205C49.4851 8.2874 49.0985 8.0709 48.7583 7.74614C48.4336 7.43685 48.1707 7.03476 47.9696 6.5399C47.7686 6.04503 47.6758 5.4419 47.6758 4.73053C47.6758 4.15834 47.7531 3.61707 47.9387 3.13767C48.1243 2.6428 48.3717 2.22525 48.6964 1.86957C49.0212 1.51388 49.4233 1.22005 49.9027 1.01901C50.3821 0.817969 50.9079 0.709717 51.511 0.709717C52.2688 0.709717 52.8719 0.756111 53.3204 0.864363C53.7689 0.957151 54.14 1.04994 54.4493 1.15819V8.5503C54.4493 9.75655 54.14 10.6226 53.506 11.1484C52.8719 11.6587 51.944 11.9216 50.6759 11.9216C50.1501 11.9216 49.6862 11.8907 49.2532 11.7979C48.8356 11.7206 48.4645 11.6278 48.1706 11.5195L48.3717 10.5916C48.6191 10.7154 48.9593 10.8081 49.3924 10.8855C49.8254 10.9783 50.2584 11.0092 50.6914 11.0092C51.6502 11.0092 52.3461 10.8236 52.7791 10.4525C53.2121 10.0813 53.4286 9.44725 53.4286 8.5503V8.0245H53.4441Z"
      fill="white" />
    <path
      d="M62.5713 8.67375C62.262 8.75108 61.8599 8.85933 61.3496 8.95212C60.8393 9.06037 60.2207 9.10676 59.4629 9.10676C58.8598 9.10676 58.3494 9.01398 57.9474 8.84386C57.5453 8.67375 57.2205 8.42632 56.9731 8.10156C56.7257 7.7768 56.5555 7.39019 56.4318 6.92625C56.3236 6.47777 56.2617 5.96744 56.2617 5.41071V0.864097H57.2824V5.07049C57.2824 5.64268 57.3288 6.12208 57.4061 6.52416C57.4834 6.91078 57.6226 7.23554 57.8082 7.48297C57.9938 7.73041 58.2412 7.90052 58.535 8.00877C58.8288 8.11702 59.2 8.17888 59.633 8.17888C60.1124 8.17888 60.53 8.16342 60.8856 8.10156C61.2413 8.05517 61.4578 8.00877 61.5506 7.96238V0.848633H62.5713V8.67375Z"
      fill="white" />
    <path
      d="M67.241 0.709717C67.5812 0.709717 67.8905 0.740646 68.1843 0.78704C68.4936 0.833434 68.6947 0.879828 68.8029 0.941687L68.6019 1.82317C68.5091 1.77678 68.3544 1.73038 68.0915 1.68399C67.8286 1.6376 67.5039 1.62213 67.0709 1.62213C66.6379 1.62213 66.2822 1.65306 66.0193 1.71492C65.7564 1.77678 65.5708 1.83864 65.4935 1.86957V8.96785H64.4883V1.23552C64.7512 1.12726 65.1069 1.00355 65.5708 0.879828C66.0193 0.771575 66.576 0.709717 67.241 0.709717Z"
      fill="white" />
    <path
      d="M75.3911 4.91676C75.3911 3.91156 75.1592 3.1074 74.6798 2.50427C74.2158 1.90115 73.5818 1.60732 72.7776 1.60732C71.9734 1.60732 71.3394 1.91662 70.8755 2.50427C70.4115 3.1074 70.1641 3.91156 70.1641 4.91676C70.1641 5.92196 70.3961 6.72613 70.8755 7.32925C71.3394 7.91691 71.9734 8.2262 72.7776 8.2262C73.5818 8.2262 74.2313 7.93237 74.6798 7.32925C75.1437 6.74159 75.3911 5.93743 75.3911 4.91676ZM76.4582 4.91676C76.4582 5.55081 76.3654 6.12301 76.1798 6.66427C75.9943 7.19007 75.7314 7.62308 75.4066 7.99423C75.0818 8.36538 74.6952 8.64375 74.2467 8.84479C73.7983 9.04583 73.2879 9.15408 72.7467 9.15408C72.2054 9.15408 71.7105 9.04583 71.2621 8.84479C70.8136 8.64375 70.427 8.34992 70.0868 7.99423C69.762 7.62308 69.4991 7.19007 69.3135 6.66427C69.1279 6.13847 69.0352 5.56628 69.0352 4.91676C69.0352 4.28271 69.1279 3.69505 69.3135 3.18472C69.4991 2.65892 69.7465 2.21045 70.0868 1.85476C70.4115 1.48361 70.8136 1.18978 71.2621 0.988737C71.726 0.787696 72.2209 0.679443 72.7621 0.679443C73.3034 0.679443 73.7983 0.787696 74.2622 0.988737C74.7107 1.18978 75.0973 1.48361 75.4221 1.85476C75.7468 2.22591 76.0097 2.67439 76.1953 3.18472C76.3809 3.71052 76.4582 4.28271 76.4582 4.91676Z"
      fill="white" />
    <path
      d="M79.5498 8.24166C80.1375 8.24166 80.6169 8.14888 81.0035 7.94783C81.3901 7.74679 81.5757 7.42204 81.5757 6.97356C81.5757 6.75706 81.5448 6.57148 81.4675 6.40137C81.4056 6.24672 81.2819 6.10754 81.1272 5.98382C80.9726 5.86011 80.7561 5.73639 80.5087 5.62814C80.2612 5.51988 79.9365 5.3807 79.5653 5.22605C79.256 5.10234 78.9622 4.97862 78.6993 4.83944C78.4364 4.71572 78.189 4.56107 77.9879 4.39096C77.7869 4.20539 77.6013 4.00435 77.4776 3.77238C77.3539 3.54041 77.292 3.24658 77.292 2.89089C77.292 2.22591 77.5394 1.70011 78.0343 1.29803C78.5292 0.880484 79.2096 0.679443 80.0756 0.679443C80.6324 0.679443 81.0963 0.725837 81.452 0.818625C81.8077 0.911413 82.0706 0.988737 82.2098 1.06606L81.9778 1.97848C81.8541 1.91662 81.6376 1.83929 81.3437 1.73104C81.0499 1.62279 80.6169 1.57639 80.0447 1.57639C79.8127 1.57639 79.5962 1.59186 79.3952 1.63825C79.1942 1.68465 79.0086 1.76197 78.8539 1.85476C78.6993 1.94755 78.5756 2.08673 78.4828 2.22591C78.39 2.38056 78.3436 2.56613 78.3436 2.78264C78.3436 2.99914 78.39 3.18472 78.4673 3.33937C78.5446 3.49401 78.6684 3.63319 78.8385 3.75691C78.9931 3.88063 79.1942 3.98888 79.4416 4.09713C79.6736 4.20539 79.9365 4.31364 80.2458 4.43736C80.5551 4.56107 80.8489 4.68479 81.1427 4.82397C81.4365 4.94769 81.684 5.10234 81.9159 5.28791C82.1325 5.47349 82.318 5.68999 82.4417 5.95289C82.5809 6.20033 82.6428 6.52509 82.6428 6.9117C82.6428 7.63854 82.3644 8.19527 81.8232 8.58189C81.2819 8.95304 80.5241 9.13861 79.5808 9.13861C78.8694 9.13861 78.3281 9.07676 77.957 8.95304C77.5858 8.82932 77.3229 8.73653 77.1992 8.67467L77.4776 7.74679C77.5085 7.76226 77.5704 7.79319 77.6786 7.83958C77.7869 7.88598 77.9261 7.94784 78.0962 7.99423C78.2817 8.05609 78.4983 8.10248 78.7302 8.14888C78.9467 8.2262 79.2251 8.24166 79.5498 8.24166Z"
      fill="white" />
    <path
      d="M14.1811 25.0232C8.04163 25.0232 1.3145 20.5384 1.3145 15.0021C1.3145 9.46571 8.04163 4.98096 14.1811 4.98096C20.3206 4.98096 27.0632 9.46571 27.0632 15.0021C27.0632 20.5384 20.3206 25.0232 14.1811 25.0232ZM14.1811 0.836426C6.34051 0.836426 0 7.17694 0 15.0175C0 22.8581 6.34051 29.1986 14.1811 29.1986C22.0062 29.1986 28.3622 22.8426 28.3622 15.0175C28.3622 7.17694 22.0217 0.836426 14.1811 0.836426Z"
      fill="white" />
    <path
      d="M7.13038 14.2871C6.97573 14.1943 6.9912 14.0861 7.16131 14.0242L19.2083 9.66317C19.3629 9.60132 19.4557 9.6941 19.3939 9.84875L15.0328 21.8957C14.971 22.0658 14.8472 22.0658 14.7699 21.9112L12.11 17.1945C12.0172 17.0398 11.8316 16.8542 11.677 16.7615L7.13038 14.2871Z"
      fill="white" />
    <path
      d="M123.146 30.0018C122.002 29.9863 121.074 29.8626 120.378 29.6307C119.666 29.3987 119.094 29.0739 118.692 28.6718C118.275 28.2698 117.996 27.7594 117.857 27.1718C117.702 26.5841 117.625 25.9191 117.625 25.1768V9.12451L121.553 9.75856V24.3881C121.553 24.7438 121.584 25.0531 121.646 25.3469C121.692 25.6253 121.8 25.8573 121.955 26.0583C122.094 26.2594 122.311 26.414 122.605 26.5377C122.883 26.6614 123.254 26.7388 123.734 26.7697L123.146 30.0018Z"
      fill="white" />
    <path
      d="M41.5069 21.5384C41.5069 20.2703 41.3368 19.3734 41.012 18.8476C40.6873 18.3218 40.1305 18.0589 39.3418 18.0589C39.0944 18.0589 38.847 18.0743 38.5841 18.0898C38.3212 18.1207 38.0583 18.1362 37.8108 18.1826V29.0697H33.8828V15.5072C34.223 15.4144 34.6097 15.3216 35.0581 15.2288C35.5066 15.1361 35.9705 15.0433 36.4809 14.9659C36.9757 14.8886 37.5015 14.8268 38.0273 14.7804C38.5531 14.734 39.0789 14.7185 39.5738 14.7185C40.579 14.7185 41.3832 14.8422 42.0172 15.1051C42.6358 15.3526 43.1616 15.6619 43.5482 16.0175C44.1204 15.6155 44.7545 15.2907 45.4968 15.0742C46.2236 14.8422 46.9041 14.734 47.5072 14.734C48.6206 14.734 49.5176 14.8886 50.2444 15.1979C50.9558 15.5072 51.528 15.9402 51.9455 16.4969C52.3631 17.0537 52.6569 17.7341 52.8116 18.4919C52.9662 19.2806 53.059 20.1311 53.059 21.0899V29.1006H49.131V21.5694C49.131 20.3013 48.9609 19.4043 48.6361 18.8785C48.3113 18.3527 47.7546 18.0898 46.9505 18.0898C46.7494 18.0898 46.4401 18.1517 46.069 18.2444C45.6978 18.3527 45.3885 18.4919 45.1411 18.6465C45.2648 19.0486 45.3421 19.4662 45.3731 19.9301C45.404 20.3786 45.4195 20.858 45.4195 21.3683V29.1161H41.4914V21.5384H41.5069Z"
      fill="white" />
    <path
      d="M66.9618 29.0897H61.0543C59.879 29.0897 58.9047 28.935 58.1161 28.6102C57.3274 28.301 56.7242 27.8525 56.2603 27.2803C55.8118 26.7081 55.4716 26.0277 55.286 25.239C55.085 24.4503 54.9922 23.476 54.9922 22.5172V15.2488H58.9202V22.0532C58.9202 23.3213 59.0903 24.2338 59.4151 24.8059C59.7553 25.3627 60.3739 25.6565 61.2863 25.6565H63.0338V15.2488H66.9618V29.0897Z"
      fill="white" />
    <path
      d="M68.9414 15.2488H74.8489C76.0242 15.2488 77.014 15.4034 77.7872 15.7282C78.5604 16.0529 79.179 16.486 79.643 17.0581C80.0914 17.6303 80.4317 18.3108 80.6172 19.0995C80.8183 19.8882 80.9111 21.1099 80.9111 22.0532V29.0897H76.983V22.5326C76.983 21.2645 76.8129 20.1201 76.4882 19.548C76.1634 18.9912 75.5293 18.7129 74.6169 18.7129H72.8694V29.1051H68.9414V15.2488Z"
      fill="white" />
    <path
      d="M101.773 29.09H97.7522V15.3884H101.773V29.09ZM102.221 11.5686C102.221 12.3418 101.974 12.9449 101.479 13.378C100.984 13.811 100.397 14.0429 99.7162 14.0429C99.0358 14.0429 98.4481 13.8264 97.9532 13.378C97.4429 12.9449 97.2109 12.3264 97.2109 11.5686C97.2109 10.7954 97.4584 10.1922 97.9532 9.75922C98.4481 9.31074 99.0358 9.09424 99.7162 9.09424C100.397 9.09424 100.984 9.31074 101.479 9.75922C101.974 10.1922 102.221 10.7954 102.221 11.5686Z"
      fill="white" />
    <path
      d="M112.07 26.0103H109.054C108.235 26.0103 107.601 25.4227 107.601 24.7267C107.601 24.0308 108.25 23.4432 109.054 23.4432H112.07V26.0103ZM110.013 15.3242H104.709L105.498 18.7728H110.013C111.08 18.7419 112.132 19.2213 112.132 20.6441H108.297C105.575 20.6441 103.379 22.5308 103.379 24.8814C103.379 27.232 105.575 29.1187 108.281 29.1187H115.565V20.6131C115.565 16.8707 112.812 15.2624 110.013 15.3242Z"
      fill="white" />
    <path
      d="M91.5513 25.7952H89.3553C87.5769 25.7952 86.1386 24.2487 86.1386 22.3465C86.1386 20.4444 87.5769 18.8979 89.3553 18.8979H91.5513V25.7952ZM91.5513 9.7119V15.372H88.9687C85.2262 15.372 82.1797 18.4494 82.1797 22.2383C82.1797 26.0271 85.2262 29.1046 88.9841 29.1046H91.5977H95.7422V15.341V9.26343L91.5513 9.7119Z"
      fill="white" />
    <path
      d="M127.926 12.0471H128.188C128.42 12.0471 128.621 12.0162 128.761 11.9543C128.9 11.8925 128.977 11.7533 128.977 11.5677C128.977 11.3976 128.915 11.2739 128.776 11.212C128.652 11.1347 128.482 11.1038 128.281 11.1038H128.127C128.08 11.1038 128.018 11.1038 127.957 11.1192V12.0471H127.926ZM129.132 13.8874C129.008 13.6245 128.884 13.3926 128.761 13.1915C128.637 12.975 128.529 12.8049 128.42 12.6657H127.926V13.8874H127.152V10.5471C127.338 10.5007 127.523 10.4697 127.709 10.4543C127.895 10.4388 128.065 10.4233 128.204 10.4233C128.714 10.4233 129.101 10.5161 129.348 10.7017C129.611 10.8873 129.735 11.1811 129.735 11.5677C129.735 11.7842 129.689 11.9543 129.58 12.109C129.488 12.2636 129.333 12.3874 129.147 12.4647C129.271 12.6503 129.395 12.8513 129.534 13.0833C129.673 13.3152 129.812 13.5781 129.951 13.8874H129.132Z"
      fill="white" />
    <path
      d="M128.401 9.62004C126.979 9.62004 125.819 10.7799 125.819 12.2026C125.819 13.6254 126.979 14.7852 128.401 14.7852C129.824 14.7852 130.984 13.6254 130.984 12.2026C130.969 10.7799 129.824 9.62004 128.401 9.62004ZM128.401 15.311C126.685 15.311 125.293 13.9192 125.293 12.2026C125.293 10.4861 126.685 9.09424 128.401 9.09424C130.118 9.09424 131.51 10.4861 131.51 12.2026C131.51 13.9192 130.118 15.311 128.401 15.311Z"
      fill="white" />
  </g>
  <defs>
    <clipPath id="clip0">
      <rect width="131.511" height="29.321" fill="white" transform="translate(0 0.678711)" />
    </clipPath>
  </defs>
</svg>