<svg width="250" height="126" viewBox="0 0 250 126" fill="none" xmlns="http://www.w3.org/2000/svg">
<path d="M4.43821 116.472C-7.0178 104.373 5.23705 72.0064 23.7157 52.2126C46.1859 28.1473 77.1633 7.90404 137.04 14.7879C186.484 20.4748 217.181 45.4109 227.622 58.2566C244.226 78.6719 256.221 107.476 246.222 119.39C229.441 139.386 160.109 105.362 122.502 104.669C84.8949 103.975 30.019 143.442 4.43821 116.472Z" fill="#EBEBF2"/>
<path d="M182.114 97.1424H51.6024L24.1516 7.40276C23.889 6.54566 23.8313 5.63887 23.9832 4.7554C24.135 3.87194 24.4922 3.03647 25.026 2.31628C25.5598 1.59609 26.2552 1.0113 27.0563 0.608985C27.8574 0.206673 28.7417 -0.00191602 29.6382 1.32622e-05H148.159C149.386 -0.000230895 150.581 0.393483 151.567 1.12318C152.553 1.85287 153.279 2.87998 153.638 4.05328L182.114 97.1424Z" fill="#00B3D9"/>
<path d="M160.74 86.4602H67.1088C65.8707 86.4602 64.6653 86.0629 63.6699 85.3268C62.6744 84.5907 61.9414 83.5547 61.5785 82.371L40.7907 14.4107C40.6585 13.9794 40.6293 13.5232 40.7055 13.0786C40.7817 12.634 40.9612 12.2135 41.2296 11.851C41.4979 11.4884 41.8476 11.1939 42.2506 10.9912C42.6535 10.7884 43.0984 10.6831 43.5494 10.6836H137.181C138.419 10.6837 139.624 11.0809 140.619 11.817C141.615 12.5531 142.348 13.5891 142.711 14.7728L163.499 82.7332C163.631 83.1644 163.66 83.6207 163.584 84.0652C163.508 84.5098 163.328 84.9303 163.06 85.2928C162.791 85.6554 162.442 85.9499 162.039 86.1527C161.636 86.3554 161.191 86.4608 160.74 86.4602Z" fill="#B9EAF4"/>
<path d="M51.6035 97.1426H226.909C228.091 97.1426 229.226 97.6124 230.062 98.4486C230.898 99.2849 231.368 100.419 231.368 101.602V107.558C231.368 108.741 230.898 109.875 230.062 110.711C229.226 111.548 228.091 112.017 226.909 112.017H56.0626C55.477 112.017 54.8972 111.902 54.3562 111.678C53.8152 111.454 53.3236 111.125 52.9096 110.711C52.4955 110.297 52.167 109.806 51.9429 109.265C51.7189 108.724 51.6035 108.144 51.6035 107.558V97.1426Z" fill="#00E9CF"/>
<path d="M72.9688 51.8457L83.6311 39.9453" stroke="#0099BA" stroke-width="9.98677" stroke-miterlimit="10" stroke-linecap="round"/>
<path d="M86.1482 51.8457L70.0918 39.9453" stroke="#0099BA" stroke-width="9.98677" stroke-miterlimit="10" stroke-linecap="round"/>
<path d="M125.621 51.8457L136.283 39.9453" stroke="#0099BA" stroke-width="9.98677" stroke-miterlimit="10" stroke-linecap="round"/>
<path d="M138.799 51.8457L122.74 39.9453" stroke="#0099BA" stroke-width="9.98677" stroke-miterlimit="10" stroke-linecap="round"/>
<path d="M99.2656 59.3664C99.2656 59.3664 107.624 54.7583 116.113 59.3664" stroke="#0099BA" stroke-width="9.98677" stroke-miterlimit="10" stroke-linecap="round"/>
<path d="M190.546 45.3208C189.58 45.3183 188.644 44.9859 187.892 44.3787C187.14 43.7714 186.619 42.9257 186.413 41.9816C185.627 38.4395 185.129 35.7347 185.823 33.2046C186.655 30.2045 188.851 28.4476 191.217 26.7677C192.812 25.6375 193.919 23.9217 194.042 22.401C194.119 21.3916 193.765 20.5414 192.925 19.7297C190.443 17.3229 186.426 21.0679 186.246 21.2298C186.246 21.2298 182.871 24.0861 180.364 21.0911C177.857 18.0961 180.364 15.1267 180.364 15.1267C181.981 13.6253 183.842 12.4093 185.866 11.5307C190.693 9.47579 195.29 10.2464 198.815 13.6498C201.45 16.203 202.752 19.5447 202.483 23.0586C202.172 27.1119 199.791 31.0907 196.11 33.6952C194.381 34.9205 194.055 35.3546 193.975 35.4933C193.777 36.12 194.43 39.0559 194.677 40.163C194.813 40.7819 194.808 41.4233 194.664 42.0403C194.52 42.6574 194.24 43.2343 193.844 43.7289C193.448 44.2235 192.946 44.6232 192.375 44.8986C191.805 45.1741 191.18 45.3183 190.546 45.3208Z" fill="#00E9CF"/>
<path d="M192.59 60.0189C195.303 60.0189 197.503 57.819 197.503 55.1052C197.503 52.3914 195.303 50.1914 192.59 50.1914C189.876 50.1914 187.676 52.3914 187.676 55.1052C187.676 57.819 189.876 60.0189 192.59 60.0189Z" fill="#00E9CF"/>
</svg>
