<svg width="334" height="175" viewBox="0 0 334 175" fill="none" xmlns="http://www.w3.org/2000/svg">
  <g clip-path="url(#clip0)">
    <path
      d="M331.959 28.8238C331.959 28.8238 327.917 26.3697 323.49 35.9455C319.063 45.5214 317.427 51.0071 317.427 51.0071C317.427 51.0071 316.224 53.0281 314.829 51.777C313.433 50.5259 311.46 46.965 309.15 47.6868C306.793 48.4567 306.119 51.1514 306.696 55.0491C307.274 58.9468 308.284 67.5122 308.381 68.2821C308.477 69.052 308.092 70.2069 306.985 69.4851C305.878 68.8114 299.526 62.219 296.591 65.3949C293.656 68.6189 297.072 79.1572 297.457 80.3121C297.794 81.4669 297.602 81.9963 297.072 82.285C296.543 82.5737 294.618 80.1677 292.693 78.3873C290.817 76.6068 288.315 74.8264 286.775 76.8474C285.235 78.8204 284.994 86.8564 293.078 99.6081L297.217 105.286L304.242 104.661C319.159 102.351 325.078 96.9134 325.559 94.4593C326.041 92.0052 323.057 91.2834 320.507 91.0428C317.908 90.8022 314.829 90.9466 314.684 90.321C314.54 89.6954 314.78 89.2142 315.887 88.733C316.994 88.2518 327.195 83.8729 327.677 79.5422C328.158 75.2114 319.015 74.7783 317.764 74.3933C316.513 74.0084 317.138 72.9978 317.764 72.5648C318.389 72.1317 325.511 67.2235 328.831 65.1062C332.152 62.9889 333.74 60.7273 332.729 58.4175C331.767 56.204 327.773 57.0702 325.944 56.8296C324.116 56.589 324.838 54.3755 324.838 54.3755C324.838 54.3755 327.917 49.5635 332.152 39.8914C336.434 30.2674 331.815 28.8238 331.815 28.8238"
      fill="#F5F5F5" />
    <path
      d="M327.914 37.3901C327.914 37.3901 327.914 37.4383 327.817 37.5826C327.769 37.727 327.673 37.9195 327.577 38.1601C327.336 38.6894 326.999 39.4593 326.566 40.4698C325.7 42.4427 324.449 45.3299 322.861 48.8427C319.685 55.9163 315.258 65.6365 310.302 76.3672C305.345 87.098 300.87 96.8182 297.646 103.892C296.058 107.405 294.759 110.244 293.845 112.265C293.412 113.227 293.075 113.997 292.834 114.526C292.738 114.767 292.642 114.959 292.545 115.104C292.497 115.248 292.449 115.296 292.449 115.296C292.449 115.296 292.449 115.248 292.545 115.104C292.594 114.959 292.69 114.767 292.786 114.526C293.027 113.997 293.363 113.227 293.797 112.217C294.663 110.244 295.914 107.356 297.502 103.844C300.678 96.7701 305.105 87.0498 310.061 76.3191C315.017 65.5884 319.493 55.8682 322.717 48.7945C324.305 45.2818 325.604 42.4427 326.518 40.4217C326.951 39.4593 327.288 38.6894 327.529 38.1601C327.625 37.9195 327.721 37.727 327.817 37.5826C327.914 37.4383 327.914 37.3901 327.914 37.3901Z"
      fill="#E0E0E0" />
    <path
      d="M311.676 52.7876C311.676 52.7876 311.772 52.932 311.868 53.2688C311.964 53.5575 312.109 54.0387 312.301 54.568C312.638 55.6748 313.119 57.2146 313.601 58.9469C314.034 60.6311 314.467 62.171 314.804 63.3259C314.948 63.8552 315.092 64.2882 315.189 64.6732C315.285 65.01 315.333 65.1544 315.285 65.1544C315.285 65.1544 315.189 65.01 315.092 64.6732C314.996 64.3845 314.852 63.9033 314.659 63.374C314.322 62.2672 313.889 60.7274 313.408 58.9951C312.927 57.3109 312.494 55.771 312.205 54.6162C312.061 54.0868 311.916 53.6538 311.82 53.2688C311.724 52.9801 311.676 52.7876 311.676 52.7876Z"
      fill="#E0E0E0" />
    <path
      d="M315.961 65.251C315.961 65.2029 319.089 64.0962 322.986 62.845C326.884 61.5939 330.06 60.5834 330.06 60.6315C330.06 60.6797 326.932 61.7864 323.035 63.0375C319.137 64.3368 315.961 65.2992 315.961 65.251Z"
      fill="#E0E0E0" />
    <path
      d="M307.605 81.3721C307.605 81.3721 307.798 81.3239 308.135 81.3239C308.52 81.3239 309.001 81.2758 309.53 81.2758C310.733 81.2277 312.369 81.1796 314.15 81.0352C315.978 80.8909 317.566 80.7465 318.769 80.6021C319.299 80.554 319.78 80.5059 320.165 80.4578C320.502 80.4097 320.694 80.4097 320.694 80.4097C320.694 80.4097 320.502 80.4578 320.213 80.554C319.876 80.6021 319.395 80.6984 318.817 80.7946C317.663 80.9871 316.026 81.1796 314.198 81.3239C312.369 81.4683 310.733 81.5164 309.53 81.5164C308.953 81.5164 308.472 81.5164 308.135 81.4683C307.798 81.4202 307.605 81.3721 307.605 81.3721Z"
      fill="#E0E0E0" />
    <path
      d="M301.263 70.9785C301.263 70.9785 301.359 71.1229 301.551 71.3635C301.744 71.6041 301.984 71.989 302.273 72.4702C302.85 73.3845 303.669 74.6837 304.583 76.0792C305.449 77.5228 306.267 78.7739 306.844 79.7363C307.133 80.2175 307.374 80.6025 307.518 80.8431C307.662 81.1318 307.759 81.2762 307.711 81.2762C307.711 81.2762 307.614 81.1318 307.422 80.8912C307.229 80.6506 306.989 80.2657 306.7 79.7845C306.123 78.8702 305.305 77.5709 304.39 76.1755C303.524 74.7319 302.706 73.4807 302.129 72.5184C301.84 72.0372 301.599 71.6522 301.455 71.4116C301.311 71.1229 301.214 70.9785 301.263 70.9785Z"
      fill="#E0E0E0" />
    <path
      d="M292.055 84.2583C292.055 84.2583 292.199 84.4027 292.44 84.7395C292.68 85.1245 293.017 85.5575 293.354 86.135C294.124 87.2898 295.182 88.9259 296.337 90.7545C297.492 92.583 298.503 94.2191 299.273 95.4221C299.61 95.9995 299.898 96.4807 300.139 96.8657C300.331 97.2025 300.428 97.395 300.428 97.395C300.428 97.395 300.283 97.2507 300.043 96.9138C299.802 96.5289 299.465 96.0958 299.128 95.5183C298.358 94.3635 297.3 92.7274 296.145 90.8988C294.99 89.0703 293.979 87.4342 293.21 86.2312C292.873 85.6538 292.584 85.1726 292.343 84.7876C292.151 84.4508 292.055 84.3064 292.055 84.2583Z"
      fill="#E0E0E0" />
    <path
      d="M300.312 97.0103C300.312 97.0103 300.553 96.9622 300.986 96.914C301.467 96.8659 302.045 96.8178 302.767 96.7697C304.258 96.6734 306.328 96.5291 308.637 96.2885C310.947 96.0479 312.968 95.8073 314.46 95.6148C315.182 95.5186 315.759 95.4223 316.24 95.3742C316.673 95.3261 316.914 95.278 316.914 95.3261C316.914 95.3261 316.673 95.3742 316.288 95.4704C315.855 95.5667 315.278 95.6629 314.508 95.7592C313.016 95.9998 310.947 96.2885 308.685 96.5291C306.376 96.7697 304.306 96.914 302.815 96.9622C302.045 97.0103 301.467 97.0103 301.034 97.0103C300.553 97.0584 300.312 97.0584 300.312 97.0103Z"
      fill="#E0E0E0" />
    <path
      d="M45.3809 76.2255C56.5928 68.7188 59.3357 54.5715 59.0951 41.7716C59.0469 39.6544 59.3356 37.3927 58.3251 35.5161C57.3146 33.6394 54.9567 32.292 52.9838 33.2063C51.3478 33.9281 50.626 35.7567 49.7117 37.2484C48.5087 39.2694 46.6801 40.9055 44.5629 41.9641C43.1674 42.6378 41.4832 43.0709 40.1358 42.301C38.3073 41.2423 38.1148 38.692 38.1629 36.5747C38.2591 32.6289 38.3554 28.683 38.4035 24.7372C38.4516 22.6199 38.4997 20.4545 37.8742 18.4335C37.2486 16.4125 35.805 14.5358 33.7359 13.9102C31.7148 13.3328 29.1645 14.4396 28.6833 16.5087C28.4908 17.3749 28.6352 18.2891 28.5871 19.1553C28.4908 20.0215 28.1059 20.9839 27.2397 21.2245C26.3735 21.4651 25.5074 20.8395 24.8818 20.2139C22.7164 18.0485 21.2247 15.2576 19.8774 12.5148C18.53 9.77192 17.1826 6.93285 15.2097 4.57498C13.2368 2.12086 10.494 0.244189 7.41431 0.00358962C4.33464 -0.18889 1.06249 1.63967 0.196332 4.6231C-0.621705 7.60653 1.11061 10.6381 2.98728 13.0922C5.77824 16.7012 9.09851 19.9252 12.8519 22.6199C13.5255 23.1011 14.2473 23.6304 14.4879 24.4004C14.921 25.844 13.5737 27.1913 12.1301 27.6725C10.5421 28.1537 8.76167 27.9612 7.12559 28.1537C5.4414 28.3462 3.61284 29.0199 2.93916 30.5597C2.02489 32.7251 3.80532 35.0349 5.58576 36.5747C9.14663 39.6062 13.2368 42.0122 17.6638 43.6964C19.2518 44.2739 20.8879 44.8032 22.139 45.9099C23.3901 47.0167 24.16 48.9415 23.342 50.4332C22.524 51.9249 20.551 52.358 18.915 52.0212C17.2789 51.6843 15.7872 50.7701 14.2473 50.1926C11.312 49.0377 7.51055 49.1821 5.58576 51.6843C4.33464 53.3204 4.19028 55.6302 4.76772 57.6031C5.34516 59.576 6.59627 61.3083 7.94363 62.8963C12.6113 68.43 18.5781 72.9533 25.4111 75.4074C32.196 77.8134 38.4997 78.5833 45.3809 76.2255Z"
      fill="#EBEBEB" />
    <path
      d="M44.4459 76.4611C42.6174 69.9649 37.7091 54.7591 34.7257 47.5892C34.0039 45.8088 33.234 44.0283 32.5122 42.296C31.7904 40.5637 31.0686 38.8314 30.2506 37.1953C28.6626 33.9231 26.8341 30.8435 25.0536 28.0044C23.2732 25.1653 21.4446 22.5187 19.7604 20.1127C18.0281 17.6586 16.392 15.4451 14.8041 13.4241C11.6282 9.43014 8.74099 6.54294 6.62371 4.61815C5.56508 3.65575 4.74704 2.93395 4.1696 2.45276C3.929 2.21216 3.73652 2.01968 3.59216 1.92344C3.4478 1.77908 3.35156 1.73096 3.35156 1.73096C3.35156 1.73096 3.39968 1.8272 3.54404 1.92344C3.6884 2.0678 3.929 2.26028 4.1696 2.50087C4.74704 2.98207 5.56508 3.75199 6.57559 4.71439C8.64475 6.63918 11.5319 9.5745 14.6597 13.5684C16.2477 15.5414 17.8356 17.803 19.568 20.2571C21.2522 22.7112 23.0807 25.3578 24.8611 28.1969C26.6416 31.036 28.422 34.0675 30.01 37.3397C30.828 38.9757 31.5498 40.6599 32.2716 42.4404C32.9934 44.1727 33.7152 45.9531 34.4851 47.7335C37.4204 54.9034 42.3768 70.1093 44.2053 76.5574"
      fill="#E0E0E0" />
    <path
      d="M30.2543 37.1511C30.2543 37.1511 30.3505 36.8143 30.4468 36.2368C30.543 35.6594 30.6874 34.7933 30.8799 33.7346C31.2167 31.6173 31.5535 28.682 31.9385 25.458C32.3235 22.234 32.7565 19.2987 33.0934 17.2295C33.2859 16.1709 33.4302 15.3528 33.5746 14.7273C33.6708 14.1498 33.7671 13.813 33.7189 13.813C33.7189 13.813 33.6227 14.1017 33.4302 14.6791C33.2859 15.2566 33.0934 16.0746 32.8528 17.1333C32.4197 19.2024 31.9866 22.1377 31.6017 25.3618C31.2167 28.5858 30.8799 31.473 30.6393 33.6384C30.4949 34.6489 30.3987 35.515 30.3024 36.1406C30.2543 36.8143 30.2062 37.1511 30.2543 37.1511Z"
      fill="#E0E0E0" />
    <path
      d="M2.6875 31.6656C2.6875 31.6656 2.78374 31.7137 2.97622 31.7137C3.21682 31.7137 3.45742 31.7618 3.79426 31.8099C4.51605 31.8581 5.52657 31.9543 6.77769 32.1468C9.32804 32.4355 12.7927 33.0129 16.5941 33.7347C20.3956 34.5046 23.8121 35.3708 26.2662 36.0445C27.5174 36.3813 28.4797 36.67 29.1534 36.8625C29.4421 36.9588 29.7309 37.0069 29.9233 37.1031C30.1158 37.1512 30.2121 37.1512 30.2121 37.1512C30.2121 37.1512 30.1158 37.1031 29.9715 37.0069C29.779 36.9106 29.4903 36.8144 29.2015 36.7182C28.5279 36.4776 27.5655 36.1407 26.3144 35.7558C23.8602 35.034 20.4437 34.1197 16.6423 33.3498C12.8408 32.5799 9.32804 32.0505 6.77769 31.8099C5.52657 31.6656 4.46794 31.6175 3.74614 31.5693C3.4093 31.5693 3.1687 31.5693 2.9281 31.5693C2.78374 31.6175 2.6875 31.6175 2.6875 31.6656Z"
      fill="#E0E0E0" />
    <path
      d="M41.8125 67.6587C41.8125 67.6587 41.9087 67.5625 42.005 67.3219C42.1493 67.0813 42.2937 66.7445 42.4862 66.3595C42.9193 65.4933 43.4967 64.2422 44.1704 62.7024C45.5659 59.5746 47.2982 55.2438 49.223 50.4318C51.0996 45.6198 52.8319 41.2409 54.1793 38.1131C54.853 36.5733 55.3823 35.3222 55.7673 34.4079C55.9597 33.9748 56.1041 33.6861 56.2003 33.3974C56.2966 33.1568 56.3447 33.0605 56.3447 33.0605C56.3447 33.0605 56.2485 33.1568 56.1522 33.3974C56.0079 33.638 55.8635 33.9748 55.671 34.3598C55.2379 35.2259 54.7086 36.4771 53.9868 38.0169C52.5913 41.1447 50.859 45.4755 48.9342 50.2875C47.0576 55.0994 45.3253 59.4784 43.9779 62.6062C43.3042 64.146 42.7749 65.3971 42.3899 66.3114C42.1975 66.7445 42.0531 67.0332 41.9569 67.3219C41.8606 67.5144 41.8125 67.6587 41.8125 67.6587Z"
      fill="#E0E0E0" />
    <path
      d="M5.28125 55.434C5.28125 55.434 5.42561 55.4821 5.66621 55.5784C5.95493 55.6746 6.29177 55.7708 6.72485 55.9633C7.68724 56.3002 9.0346 56.7332 10.6226 57.2626C13.9428 58.3693 18.4661 59.9573 23.4706 61.6896C28.475 63.47 33.0464 65.0099 36.3667 66.0685C38.0509 66.5978 39.3982 67.0309 40.3125 67.2715C40.7456 67.4158 41.1306 67.5121 41.3712 67.5602C41.6118 67.6083 41.7561 67.6564 41.7561 67.6564C41.7561 67.6564 41.6118 67.6083 41.3712 67.5121C41.0824 67.4158 40.7456 67.3196 40.3125 67.1271C39.3501 66.7903 38.0028 66.3572 36.4148 65.8279C33.0945 64.7211 28.5713 63.1332 23.5187 61.3527C18.5142 59.5723 13.9428 58.0325 10.6226 56.9738C8.93836 56.4445 7.591 56.0114 6.67673 55.7708C6.24365 55.6265 5.85869 55.5302 5.61809 55.4821C5.37749 55.434 5.28125 55.3859 5.28125 55.434Z"
      fill="#E0E0E0" />
    <path
      d="M230.114 2.06885H275.395H290.793L278.908 10.4898V17.5153C278.908 24.6852 272.989 30.5558 265.675 30.5558H227.612C220.298 30.5558 214.379 24.7333 214.379 17.5153C214.427 8.99811 221.453 2.06885 230.114 2.06885Z"
      fill="#F5F5F5" />
    <path
      d="M268.701 11.5008C268.701 11.5489 258.596 11.6452 246.085 11.6452C233.574 11.6452 223.469 11.597 223.469 11.5008C223.469 11.4527 233.574 11.3564 246.085 11.3564C258.548 11.3564 268.701 11.4046 268.701 11.5008Z"
      fill="#E0E0E0" />
    <path
      d="M268.701 16.1693C268.701 16.2174 258.596 16.3136 246.085 16.3136C233.574 16.3136 223.469 16.2655 223.469 16.1693C223.469 16.1211 233.574 16.0249 246.085 16.0249C258.548 16.073 268.701 16.1211 268.701 16.1693Z"
      fill="#E0E0E0" />
    <path
      d="M138.111 146.478H81.4742H66.3164L78.0095 154.899V171.5C78.0095 173.425 79.5494 174.965 81.4742 174.965H138.111C140.036 174.965 141.576 173.425 141.576 171.5V149.943C141.576 148.018 140.036 146.478 138.111 146.478Z"
      fill="#F5F5F5" />
    <path
      d="M135.071 158.172C135.071 158.22 124.244 158.316 110.915 158.316C97.5379 158.316 86.7109 158.268 86.7109 158.172C86.7109 158.124 97.5379 158.027 110.915 158.027C124.244 158.075 135.071 158.124 135.071 158.172Z"
      fill="#E0E0E0" />
    <path
      d="M135.071 164.571C135.071 164.619 124.244 164.715 110.915 164.715C97.5379 164.715 86.7109 164.667 86.7109 164.571C86.7109 164.523 97.5379 164.426 110.915 164.426C124.244 164.426 135.071 164.474 135.071 164.571Z"
      fill="#E0E0E0" />
    <path
      d="M284.672 170.344H200.655C190.357 170.344 181.984 161.971 181.984 151.674V83.2955C181.984 72.9979 190.357 64.625 200.655 64.625H284.672C294.97 64.625 303.343 72.9979 303.343 83.2955V151.674C303.295 161.971 294.97 170.344 284.672 170.344Z"
      fill="#0E1F74" />
    <path d="M303.289 101.485H321.43L302.855 120.059L303.289 101.485Z" fill="#0E1F74" />
    <g opacity="0.4">
      <g opacity="0.4">
        <path opacity="0.4" d="M303.289 101.485H321.43L302.855 120.059L303.289 101.485Z" fill="#0E1F74" />
      </g>
    </g>
    <path
      d="M179.037 112.939L171.434 104.277C169.364 102.208 168.691 101.246 169.076 100.861C169.605 100.38 169.413 100.524 173.647 103.748C173.647 103.748 167.584 99.1286 169.701 99.0805C170.086 99.0805 171.097 99.658 172.203 100.38C170.712 99.0805 170.279 98.2625 170.567 97.8294C171.049 97.1076 174.754 99.7061 176.486 100.909C175.091 99.8504 172.444 97.8294 171.963 97.2039C171.337 96.3377 172.637 96.3858 173.695 96.7708C174.898 97.1557 181.443 100.524 183.415 101.39C184.763 101.968 185.244 100.765 185.244 100.765C185.966 97.7332 188.131 95.8084 188.949 95.5197C189.767 95.2791 190.393 96.3377 189.815 97.1076C189.334 97.7332 188.853 98.9843 188.516 99.9467C188.227 100.765 188.131 101.583 188.131 102.401C188.131 103.363 188.179 104.181 188.276 104.903L195.253 114.479L183.608 121.216L179.037 112.939Z"
      fill="#B78876" />
    <path
      d="M176.342 105.093C176.246 105.189 174.899 104.275 173.311 103.024C171.723 101.773 170.52 100.666 170.568 100.57C170.664 100.474 172.011 101.388 173.599 102.639C175.187 103.89 176.39 104.949 176.342 105.093Z"
      fill="#AA6550" />
    <path
      d="M177.793 103.555C177.697 103.651 176.205 102.737 174.425 101.534C172.644 100.283 171.297 99.2241 171.345 99.0797C171.441 98.9835 172.933 99.8978 174.713 101.101C176.494 102.352 177.889 103.459 177.793 103.555Z"
      fill="#AA6550" />
    <path
      d="M178.917 101.965C178.821 102.061 177.425 101.243 175.741 100.088C174.057 98.9333 172.758 97.9228 172.806 97.8265C172.902 97.7303 174.298 98.5483 175.982 99.7032C177.666 100.81 178.965 101.82 178.917 101.965Z"
      fill="#AA6550" />
    <path
      d="M188.91 106.346L216.675 141.521L210.324 156.342C210.324 156.342 202.721 154.658 200.411 151.434C198.101 148.21 179.094 112.938 179.094 112.938L188.91 106.346Z"
      fill="#B78876" />
    <path
      d="M259.358 57.0698C261.379 58.8021 261.331 61.8337 261.139 64.4803C260.898 67.1269 260.754 70.1103 262.534 72.0351C264.026 73.6231 266.769 74.2967 267.106 76.4621C267.25 77.4726 266.721 78.5313 265.855 79.0125C264.94 79.4937 263.785 79.3493 263.015 78.6756C263.593 80.3598 263.208 82.4771 261.716 83.5358C260.225 84.5463 257.77 83.9207 257.337 82.1884C257.626 83.3433 256.76 84.6425 255.605 84.835C254.45 85.0275 253.199 84.1132 253.055 82.9583"
      fill="#263238" />
    <path
      d="M230.776 74.8265C230.295 76.1257 228.61 76.8475 227.311 76.3182C226.012 75.7889 225.338 74.1047 225.916 72.8054C226.397 71.7949 227.456 71.0731 227.552 69.9664C227.696 68.619 226.349 67.7047 225.146 67.1273C223.943 66.5498 222.547 65.7799 222.403 64.4807C222.259 63.1815 223.413 62.2191 224.376 61.3529C225.338 60.4867 226.301 59.1875 225.675 58.0326C225.386 57.4552 224.761 57.1184 224.328 56.589C223.413 55.4342 223.895 53.6056 225.05 52.7394C226.204 51.8252 227.792 51.7289 229.236 51.9695C230.68 52.2101 232.027 52.8357 233.422 53.2206C238.042 54.568 243.191 53.8943 247.281 51.3921"
      fill="#263238" />
    <path
      d="M239.26 105.862C244.457 106.921 249.509 103.601 250.616 98.452L257.449 67.126C259.23 59.523 254.418 51.9201 246.719 50.3321L245.997 50.2359C238.779 49.1773 231.946 53.8449 230.358 60.9666C228.818 67.5591 227.23 74.8733 226.749 78.4823C225.738 85.9408 233.004 88.1544 233.004 88.1544L231.705 94.4099C230.646 99.7031 234.015 104.804 239.26 105.862Z"
      fill="#B78876" />
    <path
      d="M231.737 65.8773C231.641 66.4548 232.026 66.9841 232.604 67.0803C233.181 67.1766 233.758 66.8397 233.855 66.2623C233.951 65.6848 233.566 65.1555 232.989 65.0593C232.363 64.963 231.834 65.2999 231.737 65.8773Z"
      fill="#263238" />
    <path
      d="M231.439 64.8197C231.535 64.9641 232.449 64.4829 233.604 64.6753C234.759 64.8197 235.481 65.5415 235.625 65.3971C235.673 65.349 235.577 65.0603 235.288 64.7716C234.951 64.4348 234.374 64.0979 233.7 64.0017C232.978 63.9054 232.353 64.0979 231.968 64.2904C231.535 64.531 231.39 64.7716 231.439 64.8197Z"
      fill="#263238" />
    <path
      d="M242.882 67.7059C242.786 68.2833 243.171 68.8126 243.748 68.9089C244.326 69.0051 244.903 68.6683 244.999 68.0908C245.095 67.5134 244.71 66.9841 244.133 66.8878C243.556 66.7916 242.978 67.1766 242.882 67.7059Z"
      fill="#263238" />
    <path
      d="M242.599 66.6967C242.695 66.841 243.609 66.3598 244.764 66.5523C245.919 66.6967 246.641 67.4185 246.785 67.2741C246.833 67.226 246.737 66.9373 246.448 66.6485C246.111 66.3117 245.534 65.9749 244.86 65.8786C244.139 65.7824 243.513 65.9749 243.128 66.1673C242.695 66.4079 242.551 66.6004 242.599 66.6967Z"
      fill="#263238" />
    <path
      d="M237.215 74.5396C237.215 74.4915 236.542 74.2509 235.387 73.9141C235.098 73.8178 234.809 73.7216 234.809 73.5291C234.761 73.2885 234.954 72.9998 235.146 72.7111C235.531 72.0374 235.916 71.3637 236.349 70.6419C237.985 67.6585 239.236 65.2044 239.14 65.1081C238.996 65.06 237.552 67.4179 235.916 70.4013C235.531 71.1231 235.146 71.8449 234.761 72.5186C234.617 72.8554 234.376 73.1923 234.424 73.6254C234.472 73.866 234.665 74.0584 234.857 74.1066C235.05 74.2028 235.194 74.2028 235.339 74.2509C236.493 74.4915 237.215 74.6359 237.215 74.5396Z"
      fill="#263238" />
    <path
      d="M243.025 62.1691C243.073 62.5059 244.276 62.5059 245.575 62.8909C246.874 63.2277 247.933 63.757 248.125 63.5164C248.222 63.3721 248.077 63.0833 247.692 62.6984C247.307 62.3134 246.634 61.9285 245.864 61.736C245.094 61.5435 244.324 61.5435 243.795 61.6879C243.265 61.8322 242.977 62.0247 243.025 62.1691Z"
      fill="#263238" />
    <path
      d="M232.334 61.5956C232.478 61.8844 233.344 61.74 234.258 61.8362C235.221 61.9325 235.991 62.2693 236.183 62.0287C236.279 61.9325 236.183 61.6438 235.894 61.355C235.606 61.0663 235.028 60.7776 234.403 60.6814C233.729 60.5851 233.152 60.7776 232.767 60.9701C232.382 61.2107 232.237 61.4513 232.334 61.5956Z"
      fill="#263238" />
    <path
      d="M250.621 57.8407C251.68 58.9956 252.305 60.4392 252.257 61.979C252.257 62.0271 252.257 62.0753 252.257 62.1234C252.257 64.2888 251.872 66.4542 251.872 68.5714C251.872 70.7368 252.305 72.9985 253.653 74.6827C254.23 75.3563 255.289 75.9338 255.914 75.3082C256.155 75.0676 256.251 74.7308 256.299 74.3939C257.454 69.3414 259.523 65.0106 260.293 59.6693C260.486 58.2257 260.004 56.7339 258.946 55.7234C257.935 54.761 256.684 53.7024 255.385 54.1355C254.038 54.5204 252.113 56.6377 251.006 57.5039"
      fill="#263238" />
    <path
      d="M254.453 70.1591C254.597 70.111 259.794 69.3892 258.88 74.4418C257.966 79.4943 253.105 77.5214 253.105 77.3771C253.154 77.2327 254.453 70.1591 254.453 70.1591Z"
      fill="#B78876" />
    <path
      d="M254.988 75.7432C255.036 75.7432 255.085 75.8395 255.181 75.9357C255.325 76.032 255.566 76.1282 255.854 76.0801C256.432 75.9838 257.009 75.2139 257.202 74.2996C257.298 73.8184 257.298 73.3854 257.202 73.0004C257.106 72.6154 256.913 72.2786 256.672 72.1824C256.432 72.0861 256.191 72.1824 256.095 72.3267C255.999 72.4711 255.999 72.5673 255.999 72.5673C255.999 72.5673 255.903 72.4711 255.999 72.2786C256.047 72.1824 256.095 72.0861 256.239 71.9899C256.384 71.8936 256.576 71.8936 256.769 71.9418C257.154 72.038 257.442 72.4711 257.539 72.9042C257.683 73.3372 257.683 73.8666 257.587 74.3478C257.394 75.3583 256.672 76.2244 255.903 76.3207C255.518 76.3688 255.277 76.1763 255.133 76.032C254.988 75.8876 254.988 75.7913 254.988 75.7432Z"
      fill="#AA6550" />
    <path
      d="M255.423 54.9541C256.963 53.1255 253.98 49.709 251.574 48.506C249.168 47.3511 245.703 48.0729 243.105 48.5541C241.469 48.8428 239.784 49.324 238.148 49.0353C237.042 48.8428 236.031 48.2654 235.069 47.7361C234.058 47.2068 233.048 46.7256 231.893 46.6293C230.786 46.5331 229.535 46.9662 228.958 47.9286C228.38 48.891 228.765 50.3827 229.872 50.7195C228.573 49.7571 226.407 50.4789 225.926 52.0188C225.445 53.5586 226.888 55.339 228.524 55.2428C227.899 54.5691 226.648 55.339 226.6 56.2533C226.552 57.1676 227.273 57.9375 228.043 58.4187C230.016 59.6698 232.518 59.7179 234.828 59.2849C237.138 58.8518 239.351 58.0337 241.613 57.5525C243.923 57.0713 247.772 56.2052 249.842 57.2638C251.381 58.0819 252.199 60.151 253.162 59.8623C254.076 59.5736 254.798 58.7555 255.087 57.7931C255.423 56.927 255.423 55.9165 255.423 54.9541Z"
      fill="#263238" />
    <path
      d="M265.323 78.3878C265.323 78.3878 265.42 78.3878 265.612 78.2916C265.756 78.1953 265.997 78.0028 266.141 77.666C266.286 77.3292 266.382 76.8961 266.286 76.3668C266.19 75.8374 265.853 75.3081 265.371 74.8751C264.89 74.442 264.265 74.1051 263.543 73.8164C262.869 73.5277 262.099 73.239 261.426 72.8059C260.752 72.3247 260.223 71.651 259.886 70.7849C259.549 69.9668 259.405 69.0044 259.453 68.042C259.501 66.1172 260.03 64.3368 260.175 62.6045C260.319 60.9203 260.078 59.3323 259.356 58.2256C258.635 57.1188 257.672 56.5895 256.951 56.397C256.614 56.3008 256.325 56.3008 256.132 56.3008C255.94 56.3008 255.844 56.3489 255.844 56.3489C255.844 56.397 256.229 56.3008 256.951 56.4933C257.624 56.6857 258.538 57.2151 259.212 58.3218C259.886 59.3805 260.126 60.9203 259.934 62.6045C259.79 64.2887 259.26 66.0691 259.212 68.042C259.212 69.0044 259.308 70.0149 259.693 70.8811C260.03 71.7473 260.608 72.5172 261.329 72.9984C262.051 73.4796 262.821 73.7202 263.495 74.0089C264.168 74.2976 264.794 74.5863 265.275 75.0194C265.756 75.4044 266.093 75.9337 266.141 76.4149C266.238 76.8961 266.141 77.3292 266.045 77.666C265.756 78.2916 265.275 78.3878 265.323 78.3878Z"
      fill="#455A64" />
    <path
      d="M229.718 50.6213C229.718 50.6213 229.67 50.5732 229.477 50.525C229.381 50.4769 229.333 50.4288 229.188 50.4288C229.092 50.3807 228.948 50.3326 228.804 50.3326C228.178 50.1882 227.167 50.2844 226.253 51.1025C225.628 51.8243 225.243 52.8829 225.339 54.134C225.435 55.337 226.061 56.6363 227.216 57.5506C228.322 58.5129 229.814 59.0904 231.402 59.2347C232.99 59.4272 234.722 59.2347 236.406 58.946C239.197 58.4167 241.7 57.3581 243.769 56.107C244.827 55.4814 245.79 54.904 246.8 54.519C247.811 54.134 248.773 53.9416 249.688 53.9416C251.516 53.8934 252.96 54.4709 253.826 54.904C254.74 55.3852 255.125 55.7701 255.173 55.7701C255.173 55.7701 254.788 55.337 253.874 54.8558C253.008 54.3746 251.564 53.7972 249.688 53.7972C248.773 53.7972 247.763 53.9897 246.704 54.3746C245.694 54.7596 244.683 55.337 243.624 55.9626C241.555 57.2137 239.053 58.2242 236.31 58.7535C234.626 59.0904 232.942 59.2347 231.402 59.0423C229.814 58.8979 228.37 58.3205 227.312 57.4062C226.253 56.54 225.58 55.2889 225.483 54.134C225.387 52.9792 225.724 51.9205 226.301 51.2468C227.167 50.4769 228.13 50.3326 228.755 50.4288C229.381 50.4288 229.67 50.6213 229.718 50.6213Z"
      fill="#455A64" />
    <path
      d="M232.508 46.3882C232.508 46.3882 232.46 46.8213 232.7 47.5431C232.941 48.2649 233.566 49.2273 234.673 49.9491C235.251 50.334 235.924 50.6227 236.694 50.7671C237.464 50.9115 238.33 50.9596 239.196 50.9115C240.977 50.7671 242.805 50.1897 244.73 49.6603C246.655 49.1791 248.628 48.8904 250.264 49.3235C251.948 49.7566 253.199 50.7671 254.017 51.7776C254.835 52.7881 255.269 53.7986 255.461 54.4723C255.653 55.1941 255.653 55.5791 255.702 55.5791C255.702 55.5791 255.702 55.4828 255.702 55.2904C255.702 55.0979 255.653 54.8092 255.557 54.4242C255.365 53.7024 254.98 52.6919 254.162 51.6333C253.344 50.5746 252.045 49.516 250.312 49.0829C248.58 48.6017 246.607 48.8904 244.634 49.3716C242.661 49.9009 240.833 50.4784 239.1 50.6227C238.234 50.719 237.416 50.6709 236.646 50.5265C235.876 50.3821 235.251 50.0934 234.673 49.7566C233.566 49.0829 232.941 48.1686 232.7 47.4949C232.508 46.8213 232.556 46.3882 232.508 46.3882Z"
      fill="#455A64" />
    <path
      d="M234.965 78.3397C235.061 78.8209 235.157 79.3502 235.35 79.7833C235.59 80.2163 235.927 80.6494 236.408 80.7456C236.938 80.89 237.467 80.6975 237.852 80.3126C238.237 79.9276 238.429 79.4464 238.526 78.9171C238.622 78.4359 238.526 77.8585 238.044 77.666C237.852 77.6179 237.659 77.6179 237.467 77.666C236.601 77.8103 235.686 78.0028 234.82 78.1472"
      fill="#AA6550" />
    <path
      d="M235.439 80.3598C235.487 80.3117 235.92 80.6486 236.786 80.6004C237.171 80.5523 237.652 80.408 238.037 80.023C238.374 79.6381 238.615 79.0606 238.567 78.4832C238.567 78.3388 238.519 78.1945 238.471 78.0501C238.422 77.9057 238.422 77.9539 238.326 77.9057C238.23 77.9057 238.037 77.9057 237.893 77.9539C237.749 77.9539 237.604 77.9539 237.46 78.002C236.883 78.0501 236.353 78.0982 235.92 78.0982C235.054 78.1463 234.477 78.1463 234.477 78.0501C234.477 78.002 235.006 77.9057 235.872 77.7614C236.305 77.7133 236.834 77.617 237.412 77.5689C237.556 77.5689 237.701 77.5208 237.845 77.5208C237.989 77.5208 238.134 77.4727 238.326 77.4727C238.422 77.4727 238.567 77.5208 238.663 77.617C238.759 77.7133 238.807 77.8095 238.855 77.9057C238.904 78.0982 238.952 78.2426 239 78.4351C239.048 79.1569 238.759 79.8786 238.326 80.3117C237.845 80.7448 237.268 80.9373 236.786 80.8892C236.305 80.8892 235.968 80.7448 235.728 80.6004C235.487 80.5042 235.391 80.3598 235.439 80.3598Z"
      fill="#263238" />
    <path
      d="M233.028 88.1558C233.028 88.1558 237.888 89.9843 242.604 88.637C242.604 88.637 239.043 91.6204 232.547 90.4655L233.028 88.1558Z"
      fill="#AA6550" />
    <path
      d="M240.457 157.16C240.457 157.16 240.216 156.967 239.783 156.63C239.591 156.438 239.302 156.245 239.013 156.053C238.725 155.812 238.388 155.572 237.955 155.283C237.57 154.994 237.137 154.706 236.607 154.465C236.126 154.176 235.597 153.888 235.019 153.599C233.865 153.07 232.565 152.54 231.17 152.107C229.774 151.674 228.379 151.434 227.128 151.241C226.502 151.193 225.925 151.097 225.347 151.097C224.77 151.049 224.241 151.049 223.759 151.049C223.278 151.049 222.845 151.097 222.46 151.097C222.075 151.097 221.738 151.145 221.498 151.193C220.968 151.241 220.68 151.289 220.68 151.241C220.68 151.241 220.968 151.193 221.498 151.097C221.786 151.049 222.075 151 222.46 151C222.845 150.952 223.278 150.904 223.759 150.904C224.241 150.904 224.77 150.856 225.347 150.904C225.925 150.904 226.502 151 227.176 151.049C228.427 151.193 229.822 151.482 231.266 151.867C232.662 152.3 233.961 152.829 235.116 153.406C235.693 153.695 236.222 153.984 236.704 154.273C237.185 154.561 237.618 154.85 238.003 155.139C238.388 155.427 238.725 155.668 239.061 155.909C239.35 156.149 239.591 156.342 239.831 156.534C240.264 156.919 240.457 157.16 240.457 157.16Z"
      fill="#FAFAFA" />
    <path
      d="M212.144 132.426L216.09 115.343C217.582 108.895 219.41 102.736 222.394 102.014V103.987L221.095 152.829C221.095 152.829 213.059 161.972 202.809 156.919C199.585 155.331 193.763 144.119 193.763 144.119C193.763 144.119 180.193 119.867 180.722 118.76C181.3 117.653 189.576 106.971 190.442 106.393L212.144 132.426Z"
      fill="#00B3D9" />
    <path
      d="M252.766 97.2021C260.61 98.6938 269.464 103.265 273.506 115.006C274.998 119.289 285.777 150.856 285.777 150.856L267.347 150.471L264.363 143.975L265.807 154.513L267.058 169.574L220.574 170.344L220.911 147.632L221.344 102.495C221.344 102.495 221.873 101.822 229.861 97.3946C234.866 94.6517 252.766 97.2021 252.766 97.2021Z"
      fill="#00B3D9" />
    <g opacity="0.2">
      <g opacity="0.2">
        <g opacity="0.2">
          <path opacity="0.2"
            d="M257.43 127.374C258.2 136.902 259.066 139.837 259.836 149.365C259.884 150.279 259.98 151.193 260.317 152.011C260.654 152.829 261.376 153.599 262.242 153.744C263.589 154.032 265.369 154.995 265.754 153.647L264.455 144.457C264.455 144.457 264.166 142.724 263.204 140.607C260.317 134.303 259.258 133.918 257.43 127.374Z"
            fill="black" />
        </g>
      </g>
    </g>
    <path
      d="M229.906 102.304L230.051 101.293L231.542 91.7655C231.639 91.1881 232.168 90.8031 232.745 90.8512L251.079 92.3911C252.234 92.4873 253.1 93.4978 253.004 94.6527L252.619 100.186L246.844 107.645L238.616 108.944"
      fill="#00B3D9" />
    <path
      d="M220.722 120.156C220.771 120.156 220.867 127.614 220.867 136.805C220.867 145.996 220.819 153.455 220.722 153.455C220.674 153.455 220.578 145.996 220.578 136.805C220.578 127.614 220.626 120.156 220.722 120.156Z"
      fill="#263238" />
    <path
      d="M267.776 151.963C267.776 151.963 267.776 151.915 267.728 151.867C267.68 151.771 267.631 151.674 267.583 151.53C267.439 151.241 267.246 150.808 267.006 150.279C266.525 149.172 265.851 147.584 264.985 145.611C263.301 141.617 260.991 136.18 258.441 130.165C257.189 127.133 255.986 124.246 254.88 121.648C254.302 120.348 253.917 119.049 253.677 117.798C253.436 116.547 253.388 115.344 253.34 114.285C253.34 112.12 253.629 110.388 254.062 109.233C254.11 109.088 254.158 108.944 254.206 108.848C254.254 108.752 254.302 108.607 254.35 108.511C254.447 108.318 254.543 108.126 254.639 107.982C254.735 107.837 254.783 107.741 254.832 107.693C254.88 107.645 254.928 107.597 254.928 107.597C254.976 107.597 254.543 108.126 254.11 109.281C253.725 110.388 253.436 112.12 253.484 114.285C253.532 116.403 253.821 119.001 255.024 121.6C256.131 124.198 257.334 127.085 258.633 130.117C261.135 136.132 263.445 141.617 265.129 145.611C265.947 147.584 266.621 149.172 267.054 150.327C267.295 150.856 267.439 151.29 267.583 151.626C267.631 151.771 267.68 151.867 267.728 151.963C267.776 151.915 267.776 151.963 267.776 151.963Z"
      fill="#263238" />
    <path
      d="M258.481 98.8384C258.481 98.8384 258.288 99.0309 257.951 99.3196C257.566 99.6083 256.989 99.9933 256.219 100.33C255.401 100.667 254.342 101.004 253.139 101.196C251.888 101.389 250.493 101.533 248.905 101.629C247.317 101.677 245.585 101.677 243.756 101.726C241.928 101.774 239.955 101.87 237.934 102.447C235.961 102.977 233.891 103.987 232.448 105.671C231.726 106.538 231.197 107.548 230.908 108.655C230.619 109.762 230.619 110.965 230.956 112.119C231.149 112.697 231.437 113.178 231.774 113.659C232.111 114.092 232.592 114.477 233.073 114.766C233.555 115.055 234.132 115.151 234.661 115.103C235.191 115.055 235.72 114.766 236.057 114.381C236.779 113.563 236.923 112.36 236.779 111.35C236.682 110.82 236.538 110.291 236.297 109.858C236.057 109.377 235.768 108.944 235.431 108.559C234.132 106.971 232.255 106.056 230.475 105.623C228.695 105.19 226.914 105.286 225.422 105.671C223.883 106.056 222.631 106.682 221.573 107.307C220.514 107.933 219.648 108.655 219.022 109.232C218.349 109.81 217.916 110.291 217.579 110.628C217.434 110.772 217.29 110.916 217.242 111.013C217.146 111.109 217.098 111.157 217.098 111.157C217.098 111.157 217.675 110.387 218.974 109.184C219.648 108.607 220.466 107.885 221.525 107.211C222.583 106.538 223.883 105.912 225.422 105.527C226.962 105.094 228.743 104.998 230.571 105.431C232.4 105.864 234.276 106.778 235.624 108.414C235.961 108.847 236.249 109.28 236.49 109.762C236.731 110.243 236.875 110.772 236.971 111.35C237.067 111.879 237.067 112.456 236.923 113.034C236.827 113.611 236.586 114.141 236.201 114.574C235.816 115.007 235.239 115.343 234.613 115.392C233.988 115.44 233.41 115.295 232.881 115.007C232.352 114.718 231.87 114.333 231.485 113.852C231.101 113.371 230.812 112.841 230.619 112.216C230.234 111.061 230.283 109.81 230.571 108.655C230.86 107.5 231.389 106.441 232.159 105.575C233.651 103.795 235.768 102.832 237.741 102.303C239.762 101.774 241.783 101.629 243.612 101.629C245.488 101.581 247.173 101.629 248.761 101.581C250.348 101.533 251.744 101.389 252.995 101.196C254.246 101.004 255.257 100.715 256.075 100.378C256.893 100.041 257.47 99.6564 257.855 99.4158C258.048 99.2715 258.192 99.1752 258.288 99.079C258.433 98.8865 258.481 98.8384 258.481 98.8384Z"
      fill="#FAFAFA" />
    <path
      d="M274.367 118.857C274.367 118.857 274.318 118.857 274.174 118.905C274.03 118.905 273.837 118.953 273.597 118.953C273.067 119.001 272.345 118.953 271.431 118.905C270.517 118.857 269.41 118.712 268.207 118.52C267.004 118.376 265.705 118.183 264.309 118.087C262.914 118.039 261.567 118.135 260.412 118.376C259.257 118.616 258.198 119.049 257.428 119.482C255.84 120.445 255.263 121.503 255.215 121.407C255.215 121.407 255.263 121.359 255.311 121.215C255.407 121.118 255.504 120.926 255.648 120.734C255.985 120.349 256.514 119.819 257.284 119.29C258.054 118.809 259.113 118.376 260.316 118.087C261.519 117.798 262.866 117.702 264.261 117.75C265.657 117.846 267.004 118.039 268.207 118.183C269.41 118.376 270.469 118.52 271.383 118.616C272.297 118.712 273.019 118.761 273.549 118.761C274.078 118.857 274.367 118.857 274.367 118.857Z"
      fill="#FAFAFA" />
    <path
      d="M262.812 140.462C262.812 140.511 261.85 140.126 260.069 140.222C259.155 140.27 258.096 140.462 256.845 140.799C255.594 141.136 254.247 141.617 252.707 142.099C251.167 142.58 249.435 143.013 247.51 143.013C245.585 143.013 243.564 142.628 241.591 141.81C239.618 140.992 237.742 139.644 236.202 137.912C235.432 137.046 234.758 136.035 234.277 134.929C233.796 133.822 233.555 132.571 233.748 131.32C233.94 130.069 234.518 128.914 235.48 128.096C235.961 127.711 236.491 127.374 237.116 127.278C237.694 127.133 238.319 127.181 238.897 127.326C239.474 127.47 240.003 127.759 240.436 128.192C240.869 128.577 241.206 129.106 241.303 129.684C241.447 130.261 241.351 130.838 241.158 131.368C240.966 131.897 240.629 132.378 240.244 132.763C239.474 133.533 238.56 134.062 237.597 134.447C237.116 134.64 236.635 134.784 236.154 134.832C235.913 134.881 235.672 134.929 235.432 134.977C235.191 135.025 234.951 135.025 234.71 135.073C232.833 135.265 231.005 135.073 229.465 134.688C227.877 134.303 226.53 133.726 225.423 133.148C224.316 132.523 223.402 131.897 222.728 131.272C222.536 131.127 222.391 130.983 222.247 130.838C222.103 130.694 221.958 130.55 221.862 130.454C221.621 130.213 221.429 129.972 221.285 129.828C221.14 129.635 221.044 129.539 220.948 129.395C220.852 129.299 220.852 129.251 220.852 129.251C220.852 129.251 220.9 129.299 220.996 129.395C221.092 129.491 221.188 129.635 221.381 129.78C221.525 129.972 221.718 130.165 222.006 130.405C222.151 130.55 222.247 130.646 222.391 130.79C222.536 130.935 222.728 131.079 222.873 131.223C223.546 131.801 224.461 132.426 225.567 133.052C226.674 133.629 228.021 134.207 229.609 134.544C231.149 134.881 232.93 135.073 234.806 134.881C235.047 134.832 235.288 134.832 235.528 134.784C235.769 134.736 236.009 134.688 236.25 134.64C236.731 134.544 237.212 134.399 237.645 134.255C238.56 133.918 239.474 133.389 240.196 132.619C240.533 132.234 240.869 131.801 241.062 131.32C241.254 130.838 241.303 130.309 241.158 129.78C240.918 128.721 240.003 127.903 238.897 127.614C238.367 127.47 237.79 127.422 237.212 127.566C236.683 127.663 236.154 127.951 235.721 128.336C234.854 129.106 234.277 130.213 234.085 131.416C233.892 132.619 234.181 133.822 234.614 134.881C235.095 135.987 235.721 136.95 236.491 137.816C237.982 139.548 239.859 140.847 241.784 141.665C243.708 142.532 245.73 142.868 247.606 142.917C249.483 142.965 251.215 142.532 252.755 142.05C254.295 141.569 255.69 141.136 256.893 140.799C258.144 140.462 259.251 140.27 260.117 140.27C260.55 140.222 260.984 140.27 261.32 140.27C261.657 140.318 261.946 140.366 262.187 140.414C262.427 140.462 262.571 140.511 262.716 140.559C262.764 140.414 262.812 140.462 262.812 140.462Z"
      fill="#FAFAFA" />
    <path
      d="M220.525 135.314C220.477 135.314 220.285 134.784 219.804 134.014C219.322 133.245 218.601 132.186 217.59 131.272C216.58 130.309 215.473 129.636 214.703 129.251C213.885 128.817 213.355 128.673 213.355 128.625C213.355 128.625 213.5 128.625 213.74 128.721C213.981 128.769 214.318 128.914 214.751 129.106C215.617 129.491 216.724 130.165 217.734 131.127C218.793 132.09 219.515 133.148 219.948 133.966C220.188 134.351 220.333 134.736 220.429 134.977C220.525 135.169 220.573 135.314 220.525 135.314Z"
      fill="#FAFAFA" />
    <path
      d="M201.846 155.909C201.846 155.909 201.798 155.861 201.75 155.813C201.702 155.717 201.654 155.62 201.558 155.428C201.365 155.091 201.124 154.61 200.836 154.032C200.21 152.781 199.344 151.001 198.622 148.595C198.285 147.392 197.997 146.045 197.949 144.601C197.9 143.879 197.949 143.109 198.045 142.339C198.141 141.569 198.334 140.8 198.622 139.981C199.2 138.442 200.066 136.902 201.461 135.699C202.809 134.544 204.637 133.726 206.61 133.918C207.573 134.015 208.535 134.4 209.161 135.169C209.786 135.891 210.075 136.902 209.882 137.816C209.786 138.249 209.545 138.682 209.209 139.019C208.872 139.356 208.439 139.548 208.054 139.645C207.188 139.885 206.273 139.741 205.552 139.356C204.782 138.971 204.204 138.394 203.723 137.768C203.242 137.142 202.857 136.469 202.568 135.795C201.991 134.448 201.846 133.052 201.943 131.801C202.039 130.55 202.424 129.491 202.905 128.625C203.386 127.759 203.915 127.085 204.397 126.604C204.878 126.123 205.311 125.786 205.648 125.594C205.792 125.497 205.936 125.449 205.985 125.401C206.081 125.353 206.129 125.353 206.129 125.353C206.129 125.353 205.985 125.449 205.696 125.69C205.407 125.882 204.974 126.219 204.493 126.7C204.012 127.182 203.482 127.855 203.049 128.721C202.616 129.588 202.231 130.646 202.135 131.849C202.039 133.052 202.231 134.448 202.809 135.747C203.097 136.421 203.482 137.046 203.964 137.624C204.445 138.201 205.022 138.778 205.744 139.115C206.466 139.5 207.284 139.597 208.102 139.404C208.872 139.212 209.594 138.586 209.786 137.768C209.979 136.95 209.69 136.036 209.112 135.362C208.535 134.688 207.669 134.303 206.755 134.207C204.926 134.015 203.097 134.785 201.798 135.939C200.451 137.094 199.585 138.586 199.055 140.126C198.815 140.896 198.622 141.666 198.478 142.436C198.382 143.205 198.334 143.927 198.382 144.649C198.43 146.093 198.718 147.44 199.055 148.595C199.729 150.953 200.595 152.781 201.173 154.032C201.461 154.658 201.702 155.139 201.846 155.476C201.943 155.62 201.991 155.765 202.039 155.861C201.846 155.861 201.846 155.909 201.846 155.909Z"
      fill="#FAFAFA" />
    <path
      d="M195.93 113.419C195.93 113.419 195.93 113.467 195.978 113.611C195.978 113.756 196.027 113.948 196.027 114.189C196.075 114.718 196.075 115.44 196.027 116.354C195.882 118.183 195.257 120.685 193.669 123.043C192.081 125.353 189.915 126.893 188.279 127.662C187.461 128.047 186.739 128.288 186.258 128.432C186.018 128.529 185.825 128.529 185.681 128.577C185.536 128.625 185.488 128.625 185.488 128.625C185.488 128.625 185.729 128.529 186.21 128.336C186.691 128.192 187.365 127.903 188.183 127.47C189.771 126.652 191.888 125.16 193.428 122.899C195.016 120.637 195.642 118.135 195.834 116.354C195.93 115.44 195.93 114.718 195.93 114.237C195.93 113.708 195.882 113.419 195.93 113.419Z"
      fill="#FAFAFA" />
    <path
      d="M278.599 134.303C278.648 134.351 277.685 134.736 276.723 135.987C276.242 136.613 275.76 137.431 275.231 138.297C274.702 139.163 273.98 140.126 273.162 141.04C271.526 142.82 269.649 144.072 268.254 144.745C267.532 145.082 266.954 145.323 266.521 145.467C266.088 145.611 265.848 145.66 265.848 145.66C265.848 145.66 266.088 145.563 266.473 145.371C266.858 145.178 267.484 144.938 268.157 144.553C269.553 143.831 271.381 142.58 272.969 140.848C273.787 139.981 274.461 139.067 275.039 138.153C275.616 137.287 276.097 136.469 276.627 135.843C277.108 135.217 277.637 134.784 278.022 134.544C278.214 134.448 278.359 134.351 278.455 134.303C278.551 134.303 278.599 134.303 278.599 134.303Z"
      fill="#FAFAFA" />
    <path
      d="M252.574 97.7318C252.574 97.7318 252.478 97.78 252.334 97.78C252.141 97.8281 251.949 97.8281 251.708 97.8762C251.131 97.9724 250.361 98.0687 249.35 98.213C247.329 98.5018 244.586 98.7905 241.507 99.0311C239.967 99.1273 238.523 99.2236 237.176 99.1754C235.829 99.1273 234.626 98.8867 233.663 98.598C232.701 98.2611 231.979 97.8281 231.498 97.5394C231.257 97.395 231.113 97.2506 230.969 97.1063C230.872 97.01 230.824 96.9619 230.824 96.9619C230.824 96.9619 231.065 97.1544 231.546 97.4431C232.027 97.7318 232.749 98.1168 233.711 98.4536C234.674 98.7424 235.829 98.9348 237.176 98.9829C238.523 99.0311 239.967 98.9348 241.507 98.7905C244.586 98.5499 247.329 98.2612 249.35 98.0687C250.313 97.9724 251.131 97.8762 251.708 97.78C252.286 97.78 252.574 97.7318 252.574 97.7318Z"
      fill="#263238" />
    <path
      d="M285.537 154.224C287.077 162.163 281.014 169.526 272.978 169.574L236.551 169.189L237.513 157.4L268.743 152.732"
      fill="#B78876" />
    <path
      d="M239.758 157.929C239.613 157.978 237.496 157.063 235.62 156.149C233.598 155.235 231.433 154.802 229.22 154.898L220.51 155.331C220.51 155.331 221.039 156.775 221.953 157.256C222.868 157.785 228.257 157.881 228.257 157.881L227.968 158.17C226.814 159.325 225.274 159.999 223.638 160.047H222.82C222.194 159.999 221.617 159.902 220.991 159.71L218.826 158.844C218.2 158.555 217.478 158.603 217.19 159.229C216.949 159.806 217.141 160.624 218.874 161.538C219.884 162.02 223.541 163.319 223.541 163.319C223.541 163.319 223.59 164.329 223.734 164.859C223.878 165.388 225.322 165.917 225.322 165.917C225.322 165.917 226.236 167.794 226.621 168.227C226.765 168.42 228.113 168.805 229.46 169.238C231.722 169.863 234.08 169.863 236.293 169.19L239.613 168.179V158.074"
      fill="#B78876" />
    <path
      d="M227.892 164.52C227.892 164.568 226.882 164.52 225.631 164.183C224.428 163.847 223.465 163.414 223.513 163.365C223.562 163.317 224.476 163.654 225.679 163.991C226.882 164.328 227.892 164.472 227.892 164.52Z"
      fill="#AA6550" />
    <path
      d="M227.552 166.543C227.552 166.591 226.974 166.639 226.349 166.447C225.675 166.254 225.242 165.966 225.242 165.918C225.29 165.87 225.772 166.062 226.397 166.254C227.023 166.447 227.552 166.495 227.552 166.543Z"
      fill="#AA6550" />
    <path
      d="M229.14 157.159C229.14 157.159 228.9 157.448 228.467 157.881C228.034 158.314 227.36 158.844 226.59 159.325C225.772 159.806 224.954 160.047 224.376 160.191C223.799 160.335 223.414 160.335 223.414 160.287C223.414 160.191 224.906 160.047 226.494 159.132C227.264 158.651 227.937 158.17 228.37 157.785C228.852 157.352 229.14 157.111 229.14 157.159Z"
      fill="#AA6550" />
    <path
      d="M240.644 156.341L239.777 169.671H274.135C276.445 169.671 278.754 169.045 280.727 167.842C285.347 165.051 287.753 159.662 286.694 154.368C286.357 152.203 285.539 149.653 284.481 146.958L267.206 149.797L267.735 151.962L240.644 156.341Z"
      fill="#00B3D9" />
    <path
      d="M275.718 150.855C275.718 150.855 275.622 150.904 275.381 150.952C275.141 151 274.804 151.048 274.371 151.144C273.456 151.289 272.205 151.481 270.665 151.77C267.538 152.251 263.207 152.973 258.443 153.695C253.679 154.416 249.396 155.09 246.221 155.571C244.681 155.812 243.43 155.956 242.515 156.101C242.082 156.149 241.745 156.197 241.505 156.245C241.264 156.293 241.168 156.293 241.168 156.293C241.168 156.293 241.264 156.245 241.505 156.197C241.745 156.149 242.082 156.101 242.515 156.004C243.43 155.86 244.681 155.667 246.221 155.379C249.348 154.898 253.679 154.176 258.443 153.454C263.207 152.732 267.49 152.058 270.665 151.577C272.205 151.337 273.456 151.192 274.371 151.048C274.804 151 275.141 150.952 275.381 150.904C275.574 150.855 275.718 150.855 275.718 150.855Z"
      fill="#263238" />
    <path
      d="M258.156 169.718C258.108 169.718 258.349 168.756 258.397 167.168C258.397 166.783 258.397 166.35 258.349 165.868C258.349 165.387 258.252 164.906 258.156 164.425C257.916 163.414 257.579 162.308 257.049 161.249C256.52 160.19 255.846 159.228 255.173 158.458C254.98 158.266 254.836 158.073 254.692 157.881C254.547 157.688 254.355 157.544 254.162 157.399C253.825 157.063 253.489 156.822 253.2 156.533C251.997 155.571 251.083 155.09 251.131 155.042C251.131 155.042 251.371 155.138 251.756 155.33C251.949 155.426 252.189 155.571 252.43 155.763C252.671 155.956 253.007 156.148 253.296 156.389C253.585 156.629 253.97 156.918 254.307 157.207C254.499 157.351 254.643 157.544 254.836 157.688C255.028 157.881 255.173 158.073 255.365 158.266C256.039 159.084 256.761 159.998 257.29 161.105C257.819 162.211 258.204 163.318 258.397 164.329C258.493 164.858 258.589 165.339 258.589 165.82C258.637 166.302 258.637 166.735 258.589 167.12C258.589 167.505 258.541 167.89 258.493 168.178C258.445 168.515 258.397 168.756 258.349 168.996C258.252 169.477 258.156 169.718 258.156 169.718Z"
      fill="#FAFAFA" />
    <path
      d="M279.04 168.708C279.04 168.708 278.463 168.756 277.452 168.516C276.971 168.371 276.346 168.227 275.672 167.89C274.998 167.553 274.325 167.072 273.651 166.398C273.025 165.725 272.448 164.81 272.159 163.752C272.015 163.222 271.919 162.645 271.919 162.067C271.87 161.49 271.919 160.864 272.063 160.287C272.207 159.661 272.4 159.084 272.785 158.507C273.122 157.977 273.603 157.448 274.228 157.111C274.806 156.774 275.528 156.582 276.249 156.63C276.971 156.678 277.693 157.015 278.126 157.592C278.607 158.17 278.848 158.892 278.752 159.613C278.655 160.335 278.174 160.961 277.549 161.298C276.346 162.019 274.95 162.019 273.747 161.827C271.293 161.442 269.368 159.95 268.358 158.41C267.347 156.822 267.059 155.283 267.059 154.272C267.01 153.213 267.203 152.684 267.203 152.684C267.251 152.684 267.107 153.262 267.155 154.272C267.203 155.283 267.492 156.822 268.502 158.314C269.513 159.806 271.389 161.249 273.747 161.634C274.902 161.827 276.249 161.779 277.356 161.153C277.885 160.816 278.319 160.287 278.415 159.613C278.511 158.988 278.27 158.314 277.837 157.785C277.404 157.255 276.779 156.967 276.105 156.919C275.431 156.871 274.806 157.015 274.228 157.352C273.073 157.977 272.448 159.18 272.159 160.335C272.015 160.913 271.967 161.49 272.015 162.067C272.015 162.645 272.111 163.174 272.255 163.704C272.544 164.762 273.073 165.628 273.651 166.302C274.276 166.976 274.95 167.457 275.576 167.794C276.201 168.131 276.827 168.323 277.308 168.467C278.463 168.66 279.04 168.66 279.04 168.708Z"
      fill="#FAFAFA" />
    <path
      d="M142.874 23.291H56.8838C46.4418 23.291 37.9246 31.7601 37.9246 42.2502V72.9026H19.3984L37.9246 91.4287V112.265C37.9246 122.707 46.3937 131.224 56.8838 131.224H142.874C153.316 131.224 161.833 122.755 161.833 112.265V42.2502C161.833 31.7601 153.316 23.291 142.874 23.291Z"
      fill="#00B3D9" />
    <path
      d="M107.74 26.5141C107.211 27.9096 108.125 29.4494 109.184 30.5562C110.242 31.663 111.493 32.6735 111.83 34.1652C112.119 35.4163 111.638 36.6674 111.782 37.9667C111.878 39.2659 112.6 40.4208 112.985 41.6719C113.707 43.8854 113.418 46.3395 112.793 48.6011C112.263 50.4297 111.493 52.2583 110.194 53.7019C108.895 55.1455 107.066 56.156 105.142 56.1078C104.612 56.1078 103.987 55.9635 103.65 55.5785C103.361 55.2417 103.265 54.7124 103.217 54.2793C102.11 44.6072 102.11 34.7907 103.217 25.1187"
      fill="#263238" />
    <path
      d="M106.729 57.7445C110.915 57.552 114.765 61.546 114.428 65.7324C118.662 66.7429 121.646 71.4106 120.828 75.6932C120.539 77.0887 119.914 78.4361 119.817 79.8797C119.721 81.4676 120.299 82.9593 120.587 84.4992C121.117 87.2901 120.828 90.2254 119.769 92.872C119.096 94.46 117.893 96.0961 116.16 96.1442C115.005 96.1923 113.899 95.4224 113.273 94.46C112.599 93.4976 112.311 92.3427 112.118 91.1878C111.348 87.4345 111.156 83.5849 110.097 79.8797C109.087 76.1744 107.066 72.5654 103.745 70.6888C101.917 69.6301 99.7032 69.1489 98.2115 67.6091C96.6717 66.0211 96.3348 63.4708 97.1048 61.4016C97.9228 59.3325 99.7514 57.7445 101.821 56.9746"
      fill="#263238" />
    <path
      d="M77.7532 29.9783C77.7051 28.1978 79.3412 26.8024 81.0254 26.1287C82.7096 25.455 84.5381 25.2144 86.0298 24.2039C87.3291 23.3377 88.2434 21.9422 89.3501 20.8355C92.0929 18.0927 96.3275 16.9378 100.081 17.9483C103.834 18.9588 106.914 22.1347 107.876 25.8881C108.502 28.4384 108.069 31.47 106.048 33.1542C103.738 35.1271 100.273 34.694 97.2899 34.0685C94.3065 33.4429 90.9381 32.8655 88.4358 34.5978C86.9441 35.6564 86.078 37.3887 85.1637 38.9767C84.2494 40.5646 83.0945 42.2007 81.3622 42.7782C79.6299 43.3556 77.272 42.3451 77.1758 40.5165"
      fill="#263238" />
    <path
      d="M84.8119 30.3604C83.2721 30.5048 82.1172 31.8521 82.1172 33.392L83.8976 73.8127C83.9939 78.5765 90.9712 81.2712 96.072 81.1269C101.221 81.0306 101.413 78.4803 101.461 73.957C101.558 66.3541 101.558 63.515 101.558 63.5631C101.558 63.5631 108.054 62.4564 109.401 53.9392C110.075 49.7046 109.834 42.7753 109.449 37.0972C109.112 31.9965 105.696 25.7409 100.643 26.2702L84.8119 30.3604Z"
      fill="#FFBE9D" />
    <path
      d="M108.013 42.4411C108.013 43.0186 107.58 43.4998 106.954 43.5479C106.377 43.596 105.848 43.1629 105.848 42.5855C105.848 42.0081 106.281 41.5269 106.906 41.4787C107.484 41.4306 107.965 41.8637 108.013 42.4411Z"
      fill="#263238" />
    <path
      d="M107.967 40.7091C107.823 40.8534 107.005 40.2279 105.85 40.2279C104.695 40.2279 103.829 40.8053 103.685 40.661C103.637 40.6128 103.781 40.3241 104.118 40.0835C104.503 39.7948 105.128 39.5542 105.85 39.5542C106.572 39.5542 107.198 39.8429 107.534 40.0835C107.919 40.4204 108.064 40.661 107.967 40.7091Z"
      fill="#263238" />
    <path
      d="M96.7123 42.4416C96.7123 43.0191 96.2792 43.5003 95.6536 43.5484C95.0762 43.5965 94.5469 43.1634 94.5469 42.586C94.5469 42.0086 94.98 41.5274 95.6055 41.4792C96.1829 41.4311 96.7123 41.8642 96.7123 42.4416Z"
      fill="#263238" />
    <path
      d="M96.4401 40.9464C96.2958 41.0907 95.4777 40.4652 94.3229 40.4652C93.168 40.4652 92.3018 41.0426 92.1575 40.8983C92.1093 40.8501 92.2537 40.5614 92.5905 40.3208C92.9755 40.0321 93.6011 39.7915 94.3229 39.7915C95.0447 39.7915 95.6702 40.0802 96.007 40.3208C96.392 40.6577 96.5364 40.8983 96.4401 40.9464Z"
      fill="#263238" />
    <path
      d="M100.753 49.6574C100.753 49.6093 101.474 49.4649 102.677 49.3206C102.966 49.2724 103.255 49.2243 103.303 49.0318C103.351 48.7912 103.255 48.5025 103.111 48.1657C102.822 47.4439 102.533 46.674 102.196 45.904C100.945 42.6319 100.079 39.9853 100.175 39.9372C100.32 39.8891 101.426 42.4875 102.677 45.7116C102.966 46.5296 103.255 47.2995 103.544 48.0213C103.64 48.3582 103.832 48.7431 103.688 49.1762C103.592 49.4168 103.399 49.5612 103.207 49.6093C103.014 49.6574 102.87 49.6574 102.677 49.6574C101.523 49.7055 100.753 49.7536 100.753 49.6574Z"
      fill="#263238" />
    <path
      d="M101.6 63.5657C101.6 63.5657 95.8735 63.9507 90.1953 60.5342C90.1953 60.5342 92.9863 66.3567 101.503 65.5386L101.6 63.5657Z"
      fill="#EB996E" />
    <path
      d="M100.256 52.4957C99.8232 51.9182 99.1014 51.6295 98.3796 51.7258C97.8503 51.7739 97.3691 52.0145 97.0323 52.4476C96.7436 52.8806 96.6473 53.4581 96.936 53.843C97.2729 54.2761 97.8984 54.3723 98.4759 54.228C99.0533 54.0836 99.5345 53.6987 99.9676 53.3137C100.112 53.2175 100.208 53.1212 100.304 52.9769C100.401 52.8325 100.401 52.64 100.304 52.5438"
      fill="#EB996E" />
    <path
      d="M97.2589 50.4766C97.4514 50.4766 97.4514 51.7277 98.5581 52.642C99.6649 53.5562 101.012 53.4119 101.012 53.5562C101.012 53.6525 100.724 53.7968 100.146 53.845C99.5686 53.845 98.7506 53.7006 98.0769 53.1232C97.4032 52.5938 97.1145 51.8239 97.0664 51.2946C97.0664 50.8134 97.2108 50.4766 97.2589 50.4766Z"
      fill="#263238" />
    <path
      d="M96.9357 38.9317C96.8394 39.2686 95.6364 39.1242 94.2891 39.2686C92.8936 39.4129 91.7869 39.7979 91.5944 39.5092C91.4981 39.3648 91.6906 39.0761 92.1718 38.7392C92.6049 38.4505 93.3267 38.1137 94.1447 38.0174C94.9628 37.9212 95.7327 38.0656 96.2139 38.258C96.7432 38.4986 96.9838 38.7392 96.9357 38.9317Z"
      fill="#263238" />
    <path
      d="M107.553 37.3405C107.361 37.6293 106.543 37.3405 105.58 37.3405C104.618 37.2924 103.8 37.533 103.607 37.2443C103.511 37.0999 103.656 36.8593 103.992 36.5706C104.329 36.33 104.955 36.0894 105.628 36.1375C106.302 36.1375 106.88 36.3781 107.216 36.6669C107.553 36.9075 107.649 37.1962 107.553 37.3405Z"
      fill="#263238" />
    <path
      d="M78.8724 58.3205C81.2303 58.8017 83.7806 58.0799 85.5129 56.4438C87.2453 54.8078 88.1595 52.3055 87.8708 49.9477C87.6302 47.8785 86.4753 45.7131 87.1971 43.7402C88.1595 41.1417 91.8166 40.3237 92.779 37.7252C93.3565 36.1854 92.8272 34.453 93.5008 32.9613C94.1264 31.5659 95.57 30.7478 97.0136 30.2185C98.4572 29.6892 99.997 29.3523 101.2 28.3899C102.403 27.4757 103.173 25.6952 102.355 24.396C96.0031 25.1659 89.7475 26.6576 83.7806 28.9193C82.3852 29.4486 80.9416 30.0741 80.1235 31.2771C79.2574 32.5764 79.3055 34.2606 79.3536 35.8485C79.6423 43.5477 78.4874 50.7176 78.8724 58.3205Z"
      fill="#263238" />
    <path
      d="M76.8448 55.9635C76.8448 55.9635 76.7967 55.9635 76.7004 55.9154C76.6042 55.8673 76.4598 55.8192 76.3155 55.7229C75.9786 55.5304 75.5455 55.1455 75.2568 54.4718C74.9681 53.7981 74.7756 52.8839 74.9681 51.8733C75.1606 50.8628 75.738 49.8042 76.5079 48.7937C77.2779 47.735 78.1921 46.7245 78.8658 45.3772C79.2026 44.7035 79.4433 43.9817 79.4433 43.1636C79.4433 42.3937 79.2027 41.5757 78.9621 40.8058C78.6733 39.9877 78.4327 39.1697 78.4809 38.2554C78.529 37.3411 78.7696 36.4269 79.2508 35.6088C79.732 34.7908 80.4056 34.069 81.2237 33.5878C82.0417 33.0585 83.0522 32.866 84.0146 32.7697C84.977 32.6735 85.9394 32.6254 86.8056 32.2885C87.6717 31.9998 88.3454 31.3261 88.7785 30.5081C89.2116 29.7382 89.4522 28.8239 89.6928 28.0059C89.9334 27.1397 90.2702 26.3217 90.6552 25.5518C91.4251 24.06 92.5319 22.7608 93.8311 21.9428C95.1303 21.1247 96.5739 20.7879 97.8732 20.8841C99.1724 20.9804 100.279 21.4616 101.049 22.1834C101.819 22.9052 102.252 23.6751 102.493 24.3488C102.733 25.0224 102.733 25.5999 102.685 25.9848C102.637 26.3698 102.589 26.5623 102.589 26.5623C102.589 26.5623 102.637 26.3698 102.637 25.9848C102.637 25.5999 102.637 25.0706 102.396 24.3969C102.156 23.7232 101.723 22.9533 100.953 22.2796C100.231 21.6059 99.1243 21.1247 97.8732 21.0285C96.622 20.9323 95.2266 21.2691 93.9755 22.0871C92.7243 22.8571 91.6657 24.1082 90.8958 25.5999C90.5108 26.3217 90.2221 27.1397 89.9815 28.0059C89.7409 28.872 89.5003 29.7382 89.0191 30.5562C88.7785 30.9893 88.5379 31.3743 88.1529 31.7111C87.8161 32.0479 87.383 32.2885 86.9018 32.481C85.9876 32.8179 84.977 32.866 84.0146 33.0103C83.0522 33.1066 82.0898 33.2991 81.3199 33.7803C80.5019 34.2615 79.8763 34.9351 79.3951 35.7051C78.9139 36.475 78.6733 37.3411 78.6252 38.2073C78.5771 39.0735 78.8177 39.8915 79.1064 40.7095C79.347 41.5276 79.6357 42.3456 79.5876 43.1636C79.5876 43.9817 79.2989 44.7516 79.0102 45.4253C78.3365 46.8207 77.3741 47.8313 76.6523 48.8899C75.8824 49.9004 75.3049 50.9109 75.1125 51.9215C74.92 52.8839 75.0643 53.7981 75.3531 54.4237C75.6418 55.0492 76.0267 55.4823 76.3636 55.6748C76.6523 55.8673 76.8448 55.9154 76.8448 55.9635Z"
      fill="#455A64" />
    <path
      d="M101.578 18.8628C101.578 18.8628 101.722 18.8628 101.914 18.959C102.107 19.0553 102.396 19.1996 102.732 19.4402C103.358 19.9214 104.08 20.8357 104.272 22.0868C104.465 23.3379 104.032 24.4447 103.55 25.0703C103.31 25.4071 103.117 25.6477 102.925 25.7921C102.732 25.9364 102.636 25.9845 102.636 25.9845C102.588 25.9364 103.021 25.6477 103.406 24.974C103.791 24.3485 104.176 23.2898 104.032 22.1349C103.839 20.9801 103.214 20.0658 102.636 19.5846C102.011 19.0553 101.529 18.8628 101.578 18.8628Z"
      fill="#455A64" />
    <path
      d="M120.397 77.2327C120.349 77.2327 120.541 76.9439 120.637 76.3184C120.734 75.7409 120.685 74.8267 120.204 73.8643C119.771 72.9019 118.809 71.9876 117.51 71.362C116.884 71.0733 116.162 70.7846 115.44 70.6402C114.67 70.4478 113.901 70.3034 113.083 70.0147C112.313 69.7741 111.495 69.3891 110.917 68.8598C110.292 68.2824 110.051 67.5124 109.907 66.8388C109.762 66.117 109.714 65.4433 109.57 64.8177C109.425 64.1922 109.137 63.711 108.8 63.2779C108.126 62.4599 107.308 62.0749 106.731 61.8824C106.153 61.6899 105.816 61.6899 105.816 61.6899C105.816 61.6899 105.913 61.6899 106.057 61.6899C106.201 61.6899 106.442 61.7381 106.731 61.7862C107.308 61.9305 108.174 62.3155 108.896 63.1817C109.233 63.6147 109.57 64.1441 109.714 64.7696C109.907 65.3952 109.955 66.0689 110.051 66.7907C110.195 67.4643 110.436 68.1861 111.013 68.7154C111.543 69.2448 112.313 69.5816 113.083 69.8222C113.852 70.0628 114.67 70.2553 115.392 70.4478C116.162 70.6402 116.884 70.8808 117.51 71.2177C118.809 71.8432 119.819 72.8538 120.252 73.8643C120.734 74.8748 120.734 75.7891 120.589 76.4146C120.541 76.7033 120.445 76.9439 120.349 77.0883C120.445 77.1845 120.397 77.2327 120.397 77.2327Z"
      fill="#455A64" />
    <path
      d="M83.3892 62.172C79.0584 61.0171 75.3532 56.7825 73.8615 52.5961C72.3698 48.4097 72.3698 43.7902 72.7547 39.3631C73.0435 36.1391 73.6209 32.7226 75.7382 30.3166C78.9622 26.6595 82.475 24.7828 87.3351 24.9272"
      fill="#263238" />
    <path
      d="M108.56 71.5547L104.518 70.5441C105.481 69.7742 105.721 68.8118 105.336 67.7532C104.855 66.454 103.604 65.6359 102.257 65.4916L83.9229 63.4224C83.2492 63.3262 82.6236 63.7111 82.383 64.3367C81.565 66.4058 81.565 68.09 82.2868 69.4374H82.1906L78.6778 70.1592L72.7109 122.947L111.929 121.118L108.56 71.5547Z"
      fill="#F5F5F5" />
    <path
      d="M102.781 70.7361C102.781 70.7361 102.54 70.7842 102.059 70.8804C101.578 70.9767 100.904 71.0248 100.038 71.121C98.3058 71.2654 95.9479 71.4097 93.3013 71.2654C90.6547 71.121 88.2969 70.7842 86.6127 70.4473C85.7465 70.303 85.0728 70.1105 84.6398 70.0143C84.1586 69.8699 83.918 69.8218 83.918 69.8218C83.918 69.8218 84.2067 69.8699 84.6398 69.918C85.121 70.0143 85.7946 70.1586 86.6608 70.303C88.345 70.5917 90.7029 70.9285 93.3495 71.0248C95.9479 71.1691 98.3539 71.0729 100.038 70.9767C100.904 70.9285 101.578 70.8804 102.059 70.8323C102.54 70.7361 102.781 70.7361 102.781 70.7361Z"
      fill="#263238" />
    <path
      d="M85.0768 79.1575C85.0287 79.1094 85.6543 78.0989 86.4723 76.8959C87.2903 75.6929 88.0121 74.7305 88.0602 74.7305C88.1084 74.7786 87.4828 75.7891 86.6648 76.9921C85.8467 78.1951 85.1249 79.1575 85.0768 79.1575Z"
      fill="#E0E0E0" />
    <path
      d="M97.7316 80.0228C97.6835 80.0709 96.9136 79.2047 95.9993 78.0498C95.085 76.9431 94.4113 75.9807 94.4595 75.9326C94.5076 75.8845 95.2775 76.7506 96.1918 77.9055C97.0579 79.0604 97.7797 79.9746 97.7316 80.0228Z"
      fill="#E0E0E0" />
    <path
      d="M91.8576 86.761C91.8094 86.761 91.5207 85.6061 91.2801 84.1144C91.0395 82.6708 90.847 81.4678 90.9433 81.4678C90.9914 81.4678 91.2801 82.6227 91.5207 84.1144C91.7613 85.558 91.9057 86.7128 91.8576 86.761Z"
      fill="#E0E0E0" />
    <path
      d="M101.477 87.1452C101.525 87.1933 100.514 88.252 99.2631 89.5031C97.9639 90.7542 96.9052 91.7647 96.8571 91.7166C96.809 91.6685 97.8195 90.6098 99.0706 89.3587C100.37 88.1076 101.429 87.0971 101.477 87.1452Z"
      fill="#E0E0E0" />
    <path
      d="M88.5365 96.1438C88.4884 96.1919 87.3335 95.4701 86.1305 94.219C84.9756 92.9679 84.302 91.7649 84.3501 91.7168C84.3982 91.6687 85.1681 92.8235 86.323 94.0265C87.4779 95.2776 88.5846 96.0957 88.5365 96.1438Z"
      fill="#E0E0E0" />
    <path
      d="M92.7152 103.122C92.7152 103.218 91.6084 103.555 90.3573 104.229C89.1062 104.902 88.1438 105.624 88.0957 105.576C88.0475 105.528 88.9137 104.71 90.2129 104.036C91.5122 103.314 92.667 103.026 92.7152 103.122Z"
      fill="#E0E0E0" />
    <path
      d="M99.4566 103.555C99.4085 103.555 99.1198 103.266 98.6867 102.737C98.2536 102.208 97.628 101.438 97.0506 100.571C96.425 99.7053 95.8957 98.8873 95.5589 98.3098C95.2221 97.7324 94.9814 97.3474 95.0296 97.2993C95.0777 97.2993 95.3183 97.6362 95.7032 98.2136C96.1363 98.8392 96.6656 99.6091 97.2431 100.427C97.8205 101.245 98.3498 101.967 98.831 102.593C99.2641 103.17 99.5047 103.555 99.4566 103.555Z"
      fill="#E0E0E0" />
    <path
      d="M100.139 109.473C100.139 109.521 98.8878 109.858 97.2517 110.147C95.6156 110.435 94.3164 110.484 94.3164 110.435C94.3164 110.387 95.6156 110.147 97.2517 109.906C98.8397 109.665 100.139 109.425 100.139 109.473Z"
      fill="#E0E0E0" />
    <path
      d="M89.2014 70.0149C89.1532 69.9668 89.3938 69.7262 89.5863 69.1969C89.7788 68.7157 89.9232 67.9457 89.7788 67.1277C89.6826 66.3097 89.3938 65.5879 89.1532 65.0585C88.9608 64.5292 88.8164 64.2405 88.8164 64.1924C88.8645 64.1924 89.057 64.4811 89.2976 64.9623C89.5382 65.4435 89.875 66.1653 90.0194 67.0315C90.1638 67.8976 89.9713 68.7157 89.7307 69.245C89.4901 69.7743 89.2014 70.0149 89.2014 70.0149Z"
      fill="#E0E0E0" />
    <path
      d="M96.532 66.0693C96.5801 66.0212 97.0132 66.6949 97.2538 67.6573C97.4944 68.6197 97.35 69.3896 97.3019 69.3896C97.2057 69.3896 97.2057 68.6197 97.0132 67.7054C96.8207 66.7911 96.4839 66.0693 96.532 66.0693Z"
      fill="#E0E0E0" />
    <path
      d="M129.526 103.649L147.763 71.6007L149.977 66.0669C149.977 66.0669 155.655 53.8445 156.04 52.5934C156.521 51.1498 157.291 51.0535 157.82 51.246C158.638 51.5828 158.879 52.7858 158.542 54.037C158.398 54.47 156.232 61.1587 156.232 61.1587C156.232 61.1587 156.713 60.6775 158.109 59.7632C159.504 58.8008 162.055 58.8489 164.461 59.7151C166.818 60.5813 167.444 61.0143 167.155 61.9286C167.059 62.3136 166.722 62.5542 166.385 62.6985C165.808 62.9391 165.182 62.9391 164.605 62.7466C160.804 61.4474 159.071 63.1797 159.071 63.1797L158.782 63.9015C158.782 63.9015 161.67 62.9873 163.306 64.2865C163.594 64.479 163.739 64.7196 163.883 64.9602C164.894 65.297 165.712 66.1632 165.952 67.2218C166.193 68.3286 165.856 69.5316 165.038 70.3015C164.653 70.6864 164.076 70.927 163.594 70.6864C163.354 70.5421 163.209 70.3015 163.065 70.0609C162.969 69.9165 162.921 69.8203 162.825 69.6759L161.718 71.6007C161.718 71.6007 159.023 75.7871 158.061 77.7601L145.55 111.155C143.817 115.775 138.62 118.084 134.001 116.304C128.996 114.331 126.879 108.364 129.526 103.649Z"
      fill="#FFBE9D" />
    <path
      d="M149.078 71.5067C149.704 71.9398 150.618 71.6511 151.195 71.1218C151.773 70.6406 152.158 69.9188 152.735 69.3894C154.371 67.7534 157.066 67.609 158.606 65.9248C158.798 65.6842 158.991 65.3474 158.846 65.0587C158.654 64.8181 158.317 64.8662 158.028 64.9143C155.526 65.3955 153.072 65.8767 150.57 66.406"
      fill="#FFBE9D" />
    <path
      d="M150.515 66.4054C150.515 66.3572 150.803 66.3091 151.285 66.1648C151.814 66.0204 152.536 65.876 153.45 65.6836C154.412 65.4911 155.519 65.2505 156.722 65.0099C157.011 64.9618 157.348 64.8655 157.685 64.8174C157.973 64.7693 158.358 64.5768 158.839 64.8655C159.08 65.0099 159.128 65.3467 159.08 65.5392C159.032 65.7798 158.936 65.9242 158.791 66.0685C158.551 66.3572 158.262 66.5978 157.973 66.7903C156.722 67.6565 155.375 67.9933 154.268 68.5708C153.739 68.8595 153.258 69.1482 152.873 69.5332C152.488 69.9181 152.199 70.3512 151.862 70.688C151.237 71.458 150.467 71.8429 149.889 71.7948C149.312 71.7948 149.071 71.5061 149.119 71.5061C149.119 71.458 149.408 71.6504 149.889 71.6023C150.419 71.5542 151.092 71.2174 151.622 70.4474C151.91 70.1106 152.199 69.6294 152.632 69.2444C153.017 68.8114 153.546 68.4745 154.124 68.1858C155.23 67.5602 156.578 67.2234 157.733 66.4054C158.021 66.2129 158.262 65.9723 158.503 65.7317C158.695 65.4911 158.791 65.2024 158.647 65.1542C158.503 65.058 158.166 65.1061 157.829 65.1542C157.492 65.2024 157.203 65.2986 156.867 65.3467C155.664 65.5873 154.557 65.7798 153.594 65.9242C152.68 66.0685 151.91 66.2129 151.381 66.3091C150.803 66.4054 150.515 66.4535 150.515 66.4054Z"
      fill="#EB996E" />
    <path
      d="M158.68 63.9021C158.728 63.9502 158.824 63.3246 159.546 62.7472C159.883 62.4585 160.412 62.266 160.989 62.266C161.567 62.266 162.241 62.4104 162.914 62.6029C163.588 62.7953 164.262 62.9878 164.887 63.0359C165.513 63.084 166.09 62.9878 166.523 62.7953C166.956 62.5547 167.197 62.1698 167.245 61.9292C167.293 61.6405 167.245 61.4961 167.245 61.4961C167.197 61.4961 167.197 61.6405 167.149 61.8811C167.101 62.1217 166.86 62.4104 166.475 62.6029C166.09 62.7953 165.513 62.8434 164.935 62.7953C164.358 62.7472 163.732 62.5547 163.059 62.3623C162.385 62.1698 161.711 62.0254 161.086 62.0735C160.46 62.1217 159.883 62.3141 159.546 62.651C159.161 62.9878 158.968 63.3247 158.92 63.5652C158.68 63.7096 158.68 63.854 158.68 63.9021Z"
      fill="#EB996E" />
    <path
      d="M158.681 53.5566C158.633 53.5566 158.489 54.0378 158.248 54.904C157.96 55.8183 157.623 56.925 157.238 58.128C156.853 59.331 156.468 60.4378 156.179 61.3521C155.891 62.1701 155.746 62.6994 155.794 62.6994C155.842 62.6994 156.083 62.2182 156.372 61.4002C156.709 60.5821 157.094 59.4754 157.478 58.1761C157.863 56.925 158.2 55.7702 158.393 54.904C158.633 54.086 158.73 53.5566 158.681 53.5566Z"
      fill="#EB996E" />
    <path
      d="M159.754 65.8757C159.754 65.8757 159.898 65.8757 160.187 65.8276C160.476 65.8276 160.909 65.7795 161.246 66.1163C161.39 66.2607 161.486 66.5013 161.438 66.79C161.39 67.0787 161.246 67.3193 161.101 67.6562C160.957 67.9449 160.813 68.3298 160.909 68.7629C161.005 69.1479 161.342 69.4847 161.775 69.6291C162.208 69.7734 162.641 69.6772 162.978 69.5328C163.315 69.3404 163.603 69.0998 163.796 68.7629C164.085 68.1374 164.229 67.5599 164.325 67.0306C164.422 66.5013 164.422 66.1163 164.325 65.8276C164.277 65.5389 164.181 65.3945 164.133 65.3945C164.133 65.3945 164.181 65.5389 164.181 65.8276C164.229 66.1163 164.181 66.5013 164.085 66.9825C163.988 67.4637 163.844 68.0411 163.507 68.6186C163.219 69.1479 162.497 69.581 161.823 69.3885C161.486 69.2922 161.246 69.0035 161.149 68.7148C161.053 68.4261 161.149 68.0892 161.294 67.8005C161.438 67.5118 161.582 67.2231 161.631 66.8863C161.679 66.5494 161.582 66.2126 161.39 66.0201C160.957 65.6351 160.476 65.7314 160.187 65.7795C159.898 65.8276 159.754 65.8757 159.754 65.8757Z"
      fill="#EB996E" />
    <path
      d="M162.893 69.2455C162.893 69.2455 162.797 69.3899 162.797 69.6305C162.797 69.8711 162.941 70.3041 163.374 70.5929C163.759 70.8816 164.433 70.9297 165.01 70.5929C165.588 70.3041 166.021 69.7267 166.213 69.053C166.454 68.3794 166.406 67.6576 166.213 67.0801C166.021 66.5027 165.684 66.0215 165.299 65.7328C164.962 65.444 164.625 65.2516 164.385 65.1553C164.144 65.0591 164 65.0591 164 65.0591C164 65.1072 164.529 65.2516 165.203 65.829C165.492 66.1177 165.828 66.5508 165.973 67.1282C166.117 67.6576 166.165 68.3312 165.973 68.9568C165.78 69.5824 165.395 70.1117 164.914 70.3523C164.433 70.641 163.856 70.5929 163.519 70.4004C163.182 70.2079 162.989 69.8229 162.941 69.6305C162.893 69.3899 162.941 69.2936 162.893 69.2455Z"
      fill="#EB996E" />
    <path
      d="M156.803 72.2761C156.803 72.2761 156.562 72.1318 156.177 72.0836C155.744 72.0355 155.119 72.0836 154.493 72.4686L154.686 72.613C154.734 72.3242 154.782 71.9874 154.83 71.6506C154.974 69.7739 154.397 68.3784 154.349 68.3784C154.253 68.3784 154.734 69.822 154.541 71.6024C154.493 71.9393 154.493 72.228 154.397 72.5167L154.349 72.8536L154.589 72.6611C155.119 72.3242 155.696 72.228 156.129 72.228C156.562 72.228 156.803 72.3242 156.803 72.2761Z"
      fill="#EB996E" />
    <path
      d="M160.634 60.871C160.537 60.871 160.682 61.4485 161.163 61.8815C161.692 62.3146 162.222 62.3627 162.222 62.2665C162.222 62.1703 161.74 62.0259 161.307 61.6409C160.922 61.3041 160.73 60.8229 160.634 60.871Z"
      fill="#EB996E" />
    <path
      d="M103.699 130.261L122.755 130.453L119.531 116.595L120.589 119.193C122.61 124.15 127.422 127.326 132.764 127.326C138.779 127.326 142.965 122.851 145.515 117.365C151.482 104.565 157.257 84.0178 157.257 84.0178L145.612 73.8164C137.191 89.744 129.299 103.554 129.299 103.554C129.299 103.554 127.037 96.6252 125.257 90.4177C123.476 84.2103 123.525 80.9862 120.782 77.8584C116.595 73.0946 110.677 71.9397 105.143 70.4961L104.95 96.1921L103.699 130.261Z"
      fill="#0E1F74" />
    <path
      d="M81.8398 111.11L116.582 117.895L118.267 131.224H64.9979C58.8385 131.32 53.9303 126.075 54.4115 119.916C55.1814 110.195 55.9995 98.2135 56.625 93.1609C57.1062 89.2151 58.6942 85.1249 60.5709 81.6122C63.2656 76.5596 72.2159 70.0634 80.0594 69.7266L81.5511 102.833"
      fill="#0E1F74" />
    <path
      d="M75.2558 110.147C75.2558 110.147 75.2558 110.05 75.2558 109.81C75.2558 109.569 75.2558 109.28 75.2558 108.895C75.2558 108.077 75.2558 106.923 75.2558 105.527C75.2558 102.688 75.2077 98.7903 74.9671 94.5076C74.8709 92.3422 74.7265 90.3212 74.5822 88.4445C74.4378 86.5678 74.2934 84.8836 73.8604 83.5363C73.4754 82.1889 72.8499 81.1784 72.3205 80.6491C71.7912 80.0717 71.4062 79.8792 71.4062 79.8311C71.4062 79.8311 71.8393 80.0235 72.4168 80.5529C72.9942 81.0822 73.6198 82.0927 74.0528 83.4882C74.4859 84.8355 74.6784 86.5678 74.8228 88.3964C74.9671 90.2731 75.1115 92.2941 75.2558 94.4595C75.4964 98.7903 75.4964 102.688 75.4483 105.527C75.4002 106.923 75.4002 108.077 75.3521 108.895C75.3521 109.28 75.304 109.569 75.304 109.81C75.2558 110.002 75.2558 110.147 75.2558 110.147Z"
      fill="#263238" />
    <path
      d="M115.928 118.809C115.88 118.857 115.591 118.328 114.677 117.798C114.244 117.558 113.618 117.269 112.897 117.077C112.175 116.884 111.357 116.692 110.394 116.499C106.689 115.729 101.54 114.671 95.8622 113.612C90.184 112.553 85.0352 111.687 81.2818 111.11C79.4052 110.821 77.9135 110.58 76.8548 110.388C76.3255 110.292 75.9405 110.243 75.6518 110.195C75.3631 110.147 75.2188 110.099 75.2188 110.099C75.2188 110.099 75.3631 110.099 75.6518 110.147C75.9405 110.195 76.3736 110.243 76.8548 110.292C77.9135 110.436 79.4052 110.628 81.2818 110.917C85.0352 111.495 90.184 112.313 95.9103 113.371C101.588 114.43 106.737 115.537 110.442 116.307C111.357 116.499 112.223 116.692 112.945 116.884C113.667 117.125 114.292 117.365 114.725 117.654C115.206 117.943 115.495 118.231 115.688 118.424C115.784 118.52 115.832 118.616 115.88 118.664C115.928 118.761 115.928 118.809 115.928 118.809Z"
      fill="#263238" />
    <path
      d="M75.3528 110.146C75.3528 110.194 74.7273 110.339 73.7167 110.724C73.2355 110.916 72.6581 111.205 72.0325 111.542C71.407 111.927 70.7814 112.36 70.1559 112.841C69.5303 113.37 69.001 113.948 68.5198 114.477C68.0867 115.006 67.7018 115.536 67.413 115.969C66.8356 116.883 66.595 117.509 66.5469 117.46C66.5469 117.46 66.595 117.316 66.6912 117.027C66.7875 116.739 66.98 116.354 67.2687 115.873C67.5574 115.391 67.8942 114.862 68.3273 114.285C68.8085 113.755 69.3378 113.178 69.9634 112.6C70.5889 112.071 71.2626 111.638 71.8882 111.253C72.5137 110.916 73.0912 110.627 73.6205 110.483C74.1498 110.291 74.5348 110.194 74.8716 110.098C75.1603 110.146 75.3528 110.098 75.3528 110.146Z"
      fill="#263238" />
    <path
      d="M120.202 118.471C120.202 118.471 120.154 118.374 120.154 118.134C120.106 117.893 120.058 117.556 120.01 117.171C119.865 116.353 119.721 115.15 119.48 113.659C119.095 110.675 118.566 106.537 118.181 101.966C117.748 97.3942 117.507 93.2559 117.363 90.2244C117.315 88.7327 117.267 87.5297 117.219 86.6635C117.219 86.2785 117.219 85.9417 117.219 85.7011C117.219 85.4605 117.219 85.3643 117.219 85.3643C117.219 85.3643 117.219 85.4605 117.267 85.7011C117.267 85.9417 117.315 86.2785 117.315 86.6635C117.363 87.5297 117.411 88.7327 117.507 90.2244C117.7 93.2078 117.989 97.3461 118.374 101.917C118.807 106.489 119.24 110.627 119.625 113.611C119.817 115.102 119.962 116.305 120.058 117.123C120.106 117.508 120.154 117.845 120.154 118.086C120.202 118.326 120.202 118.471 120.202 118.471Z"
      fill="#263238" />
    <path
      d="M131.748 113.274C131.748 113.274 131.651 113.178 131.459 112.937C131.267 112.745 131.074 112.408 130.833 111.975C130.352 111.157 129.775 109.906 129.438 108.462C129.101 107.019 129.053 105.671 129.149 104.661C129.197 104.18 129.246 103.795 129.294 103.506C129.342 103.217 129.39 103.073 129.39 103.121C129.438 103.121 129.342 103.698 129.294 104.661C129.246 105.623 129.342 106.971 129.679 108.366C130.015 109.81 130.545 111.013 130.978 111.879C131.411 112.745 131.748 113.226 131.748 113.274Z"
      fill="#263238" />
    <path
      d="M75.1151 92.2461C75.1151 92.2461 75.0669 92.2461 74.9226 92.2943C74.8263 92.2943 74.6339 92.3424 74.3933 92.3424C73.9602 92.3905 73.2865 92.3424 72.4685 92.198C71.6504 92.0537 70.7361 91.7649 69.7256 91.3319C68.7151 90.8988 67.6565 90.3695 66.5497 89.8402C65.443 89.3108 64.3843 88.8296 63.3257 88.4928C62.3152 88.156 61.3528 87.9635 60.5828 87.9635C58.9468 87.8672 58.0325 88.3003 57.9844 88.2522C57.9844 88.2522 58.0325 88.2041 58.1287 88.156C58.225 88.1078 58.4175 88.0597 58.6099 88.0116C59.043 87.8672 59.7167 87.771 60.5347 87.771C61.3528 87.771 62.3152 87.9635 63.3738 88.2522C64.4324 88.589 65.4911 89.0221 66.5978 89.5996C67.7046 90.1289 68.7632 90.7063 69.7256 91.0913C70.688 91.5244 71.6023 91.8131 72.4203 92.0055C74.1045 92.3905 75.1151 92.198 75.1151 92.2461Z"
      fill="#FAFAFA" />
    <path
      d="M81.0231 91.0905C81.0231 91.1386 79.772 91.4273 78.1841 91.716C76.5961 92.0047 75.345 92.1491 75.2969 92.101C75.2969 92.0529 76.548 91.7641 78.1359 91.4754C79.7239 91.1867 81.0231 90.9942 81.0231 91.0905Z"
      fill="#FAFAFA" />
    <path
      d="M74.8617 101.388C74.8617 101.388 74.6211 101.533 74.1399 101.677C73.6587 101.869 73.0332 102.11 72.167 102.351C70.4828 102.88 68.1731 103.554 65.5265 103.987C64.2273 104.227 62.928 104.372 61.7731 104.516C60.6183 104.66 59.5596 104.708 58.6935 104.612C57.8273 104.516 57.1055 104.275 56.6724 104.035C56.4318 103.939 56.2875 103.794 56.1912 103.746C56.095 103.65 56.0469 103.602 56.0469 103.602C56.0469 103.602 56.2875 103.746 56.7206 103.939C57.1536 104.131 57.8273 104.372 58.6935 104.42C59.5596 104.516 60.5701 104.42 61.725 104.275C62.8799 104.131 64.131 103.987 65.4302 103.746C68.0768 103.265 70.3866 102.687 72.0708 102.158C72.8888 101.918 73.5625 101.677 74.0437 101.533C74.6211 101.484 74.8617 101.388 74.8617 101.388Z"
      fill="#FAFAFA" />
    <path
      d="M80.9326 103.939C80.9326 103.987 79.7777 104.083 78.3341 104.131C76.8905 104.179 75.6875 104.131 75.6875 104.035C75.6875 103.987 76.8424 103.89 78.286 103.842C79.7296 103.842 80.8844 103.89 80.9326 103.939Z"
      fill="#FAFAFA" />
    <path
      d="M56.1562 125.882C56.1562 125.882 56.1563 125.786 56.2044 125.642C56.2525 125.449 56.3006 125.209 56.3968 124.92C56.445 124.776 56.4931 124.583 56.5412 124.391C56.5893 124.198 56.6856 124.006 56.7818 123.765C56.9262 123.332 57.1186 122.851 57.3592 122.322C57.5036 122.081 57.5998 121.792 57.7442 121.504C57.8886 121.215 58.081 120.926 58.2254 120.637C58.5622 120.012 58.9953 119.434 59.4284 118.809C60.3427 117.558 61.4494 116.307 62.7968 115.104C64.1441 113.949 65.5877 112.986 66.9351 112.265C67.6088 111.928 68.2825 111.591 68.908 111.35C69.2449 111.206 69.5336 111.11 69.8223 111.013C70.111 110.917 70.3997 110.821 70.6884 110.725C71.2178 110.532 71.7471 110.436 72.2283 110.34C72.4689 110.292 72.6614 110.244 72.8538 110.195C73.0463 110.147 73.2388 110.147 73.3832 110.099C73.6719 110.051 73.9125 110.051 74.105 110.003C74.2974 110.003 74.3456 110.003 74.3456 110.003C74.3456 110.003 74.2493 110.051 74.105 110.051C73.9125 110.099 73.6719 110.147 73.3832 110.195C73.2388 110.244 73.0463 110.244 72.8538 110.292C72.6614 110.34 72.4689 110.388 72.2283 110.436C71.7952 110.532 71.2659 110.677 70.7366 110.869C70.4479 110.965 70.1591 111.062 69.8704 111.158C69.5817 111.254 69.293 111.398 68.9561 111.543C68.3306 111.783 67.705 112.12 66.9832 112.457C65.6359 113.179 64.2404 114.141 62.9412 115.296C61.6419 116.451 60.487 117.702 59.5728 118.953C59.1397 119.579 58.7066 120.156 58.3698 120.782C58.1773 121.07 58.0329 121.359 57.8886 121.648C57.7442 121.937 57.5998 122.177 57.5036 122.466C57.2149 122.995 57.0705 123.476 56.878 123.91C56.7818 124.102 56.6856 124.295 56.6374 124.487C56.5893 124.679 56.5412 124.824 56.4931 125.016C56.3969 125.305 56.3006 125.546 56.2525 125.738C56.2044 125.786 56.1562 125.882 56.1562 125.882Z"
      fill="#FAFAFA" />
    <path
      d="M80.2623 111.109C80.3104 111.157 79.2037 111.831 78.2894 113.611C77.8082 114.478 77.4232 115.584 77.1826 116.884C76.942 118.183 76.8458 119.626 76.7495 121.118C76.6533 122.61 76.5571 124.102 76.2683 125.401C75.9796 126.7 75.5465 127.807 75.0653 128.673C74.5841 129.539 74.0067 130.165 73.6218 130.55C73.4293 130.742 73.2368 130.886 73.0924 130.935C72.9481 131.031 72.9 131.079 72.9 131.031C72.8518 130.983 73.9586 130.309 74.921 128.577C75.4022 127.711 75.7871 126.604 76.0759 125.305C76.3165 124.005 76.4608 122.61 76.5571 121.07C76.6533 119.578 76.7495 118.087 77.0383 116.787C77.327 115.488 77.7119 114.381 78.1931 113.467C78.6743 112.601 79.2037 111.975 79.6367 111.59C79.8292 111.398 80.0217 111.254 80.1179 111.205C80.2142 111.109 80.2623 111.061 80.2623 111.109Z"
      fill="#FAFAFA" />
    <path
      d="M88.49 131.271C88.4419 131.271 88.49 127.133 88.6825 122.032C88.8269 116.931 89.0193 112.793 89.1156 112.793C89.1637 112.793 89.1156 116.931 88.9231 122.032C88.7787 127.133 88.5863 131.319 88.49 131.271Z"
      fill="#FAFAFA" />
    <path
      d="M101.576 130.597C101.576 130.597 101.48 130.405 101.383 130.02C101.335 129.827 101.239 129.587 101.191 129.298C101.143 129.009 101.047 128.673 100.998 128.336C100.854 127.614 100.758 126.748 100.758 125.785C100.758 124.823 100.806 123.764 100.95 122.609C101.143 121.503 101.383 120.444 101.72 119.53C102.057 118.616 102.394 117.797 102.731 117.172C102.875 116.835 103.068 116.546 103.212 116.306C103.356 116.065 103.501 115.825 103.597 115.68C103.837 115.343 103.982 115.151 103.982 115.151C104.03 115.199 103.501 115.921 102.875 117.22C102.538 117.894 102.25 118.664 101.913 119.578C101.624 120.492 101.383 121.503 101.191 122.609C101.047 123.716 100.95 124.775 100.95 125.737C100.95 126.7 101.047 127.566 101.143 128.288C101.335 129.683 101.624 130.549 101.576 130.597Z"
      fill="#FAFAFA" />
    <path
      d="M79.4075 77.3778C79.4075 77.4259 78.6376 77.089 77.3865 76.7041C76.1354 76.3191 74.355 75.886 72.382 75.6936C70.4091 75.5011 68.5806 75.6454 67.2813 75.8379C65.9821 76.0304 65.2122 76.2229 65.1641 76.1748C65.1641 76.1748 65.3565 76.0785 65.6934 75.9823C66.0302 75.886 66.5595 75.7417 67.2332 75.6454C68.5325 75.4048 70.361 75.2605 72.382 75.453C74.4031 75.6454 76.1835 76.0785 77.4346 76.5597C78.0602 76.8003 78.5414 76.9928 78.8782 77.1372C79.2151 77.2815 79.4075 77.3778 79.4075 77.3778Z"
      fill="#FAFAFA" />
    <path
      d="M117.415 97.6359C117.415 97.684 116.742 97.6359 115.635 97.5878C114.528 97.5397 113.036 97.4915 111.352 97.4434C109.668 97.3953 108.128 97.3953 107.069 97.3953C105.963 97.3953 105.289 97.3472 105.289 97.3472C105.289 97.3472 105.482 97.299 105.77 97.299C106.059 97.299 106.54 97.2509 107.069 97.2509C108.176 97.2028 109.716 97.2028 111.4 97.2509C113.084 97.2991 114.624 97.3953 115.683 97.4915C116.212 97.5397 116.693 97.5878 116.982 97.6359C117.223 97.5878 117.415 97.5878 117.415 97.6359Z"
      fill="#FAFAFA" />
    <path
      d="M126.886 95.8066C126.886 95.8548 126.26 96.0472 125.346 96.5284C124.432 97.0096 123.181 97.7314 121.978 98.7901C120.775 99.8487 119.908 101.004 119.331 101.87C118.754 102.736 118.465 103.361 118.465 103.313C118.465 103.313 118.513 103.169 118.609 102.88C118.705 102.592 118.898 102.207 119.187 101.774C119.716 100.859 120.582 99.6562 121.833 98.5976C123.036 97.539 124.335 96.769 125.298 96.336C125.779 96.1435 126.164 95.951 126.453 95.9029C126.741 95.8548 126.886 95.8066 126.886 95.8066Z"
      fill="#FAFAFA" />
    <path
      d="M122.228 80.4079C122.228 80.4561 121.266 80.2636 119.774 80.7448C119.052 80.9854 118.234 81.3703 117.32 81.8515C116.405 82.3327 115.395 82.862 114.288 83.1989C112.027 83.9207 109.765 83.8726 108.273 83.5838C107.503 83.4395 106.926 83.247 106.493 83.1026C106.108 82.9583 105.867 82.862 105.867 82.8139C105.867 82.7658 106.781 83.1508 108.273 83.3914C109.765 83.632 111.978 83.6801 114.192 82.9583C115.299 82.6214 116.309 82.0921 117.223 81.6109C118.138 81.1297 119.004 80.7448 119.726 80.5523C120.496 80.3117 121.121 80.2636 121.554 80.3117C121.795 80.3117 121.939 80.3598 122.035 80.3598C122.132 80.3598 122.228 80.4079 122.228 80.4079Z"
      fill="#FAFAFA" />
    <path
      d="M119.816 112.649C119.816 112.649 119.624 112.746 119.239 112.89C119.047 112.986 118.854 113.082 118.565 113.131C118.277 113.227 117.988 113.323 117.651 113.419C116.977 113.612 116.111 113.804 115.197 113.949C114.283 114.045 113.224 114.141 112.117 114.093C111.011 114.045 110 113.9 109.086 113.756C108.171 113.564 107.353 113.323 106.68 113.082C106.343 112.986 106.054 112.842 105.765 112.746C105.525 112.649 105.284 112.553 105.092 112.457C104.755 112.264 104.562 112.168 104.562 112.168C104.562 112.12 105.381 112.505 106.728 112.938C107.402 113.179 108.22 113.371 109.134 113.515C110.048 113.66 111.059 113.804 112.165 113.852C113.224 113.9 114.283 113.804 115.197 113.708C116.111 113.612 116.929 113.419 117.651 113.275C118.95 112.938 119.768 112.601 119.816 112.649Z"
      fill="#FAFAFA" />
    <path
      d="M130.839 126.893C130.839 126.893 130.79 126.845 130.646 126.748C130.55 126.652 130.357 126.508 130.165 126.267C129.732 125.834 129.202 125.161 128.625 124.246C127.518 122.418 126.556 119.482 126.46 116.21C126.412 112.89 127.037 110.003 127.566 107.885C127.807 106.827 128.048 106.009 128.24 105.431C128.336 105.191 128.384 104.95 128.433 104.758C128.481 104.613 128.529 104.517 128.529 104.517C128.529 104.517 128.529 104.613 128.481 104.758C128.433 104.95 128.384 105.143 128.336 105.431C128.192 106.057 127.999 106.875 127.759 107.885C127.278 109.955 126.7 112.89 126.748 116.162C126.796 119.434 127.711 122.321 128.818 124.15C129.347 125.064 129.876 125.786 130.261 126.219C130.646 126.652 130.887 126.893 130.839 126.893Z"
      fill="#FAFAFA" />
    <path
      d="M148.358 110.58C148.31 110.628 147.54 109.761 145.808 109.136C144.942 108.847 143.931 108.558 142.728 108.318C141.573 108.077 140.226 107.885 138.879 107.452C136.184 106.586 134.067 105.046 132.767 103.795C132.094 103.169 131.612 102.592 131.324 102.159C131.179 101.966 131.083 101.774 130.987 101.677C130.891 101.581 130.891 101.485 130.891 101.485C130.891 101.485 131.083 101.677 131.42 102.062C131.757 102.447 132.238 102.977 132.912 103.602C134.211 104.853 136.328 106.297 138.975 107.163C140.274 107.596 141.573 107.789 142.776 108.077C143.979 108.318 145.038 108.607 145.856 108.943C146.722 109.28 147.348 109.665 147.733 110.002C147.925 110.146 148.069 110.291 148.166 110.387C148.358 110.483 148.406 110.531 148.358 110.58Z"
      fill="#FAFAFA" />
    <path
      d="M153.881 94.507C153.881 94.507 153.689 94.3626 153.352 94.0739C153.208 93.9295 153.015 93.7371 152.775 93.5446C152.534 93.3521 152.293 93.1115 151.957 92.8709C151.331 92.3897 150.609 91.8604 149.743 91.2829C148.877 90.7536 147.866 90.2243 146.76 89.7431C145.653 89.2619 144.594 88.9251 143.584 88.6845C142.573 88.4439 141.659 88.2514 140.889 88.1552C140.504 88.107 140.167 88.0589 139.83 88.0589C139.542 88.0108 139.253 88.0108 139.06 88.0108C138.627 87.9627 138.387 87.9627 138.387 87.9627C138.387 87.9627 138.627 87.9146 139.06 87.9146C139.301 87.9146 139.542 87.9146 139.878 87.9146C140.167 87.9146 140.552 87.9627 140.937 88.0108C141.707 88.107 142.669 88.2514 143.68 88.492C144.69 88.7326 145.797 89.1176 146.904 89.5506C148.011 90.0318 149.021 90.5611 149.887 91.1386C150.754 91.716 151.523 92.2453 152.101 92.7747C152.39 93.0153 152.678 93.2559 152.871 93.4965C153.111 93.6889 153.304 93.8814 153.448 94.0739C153.737 94.3145 153.881 94.507 153.881 94.507Z"
      fill="#FAFAFA" />
    <path
      d="M111.782 72.4208C111.782 72.4689 111.446 72.6133 110.868 72.8539C110.291 73.0945 109.473 73.3351 108.51 73.5757C107.596 73.8163 106.73 73.9125 106.104 73.9606C105.479 74.0087 105.094 74.0087 105.094 73.9606C105.094 73.8644 106.634 73.7681 108.462 73.3351C110.291 72.902 111.734 72.3245 111.782 72.4208Z"
      fill="#FAFAFA" />
    <path
      d="M128.81 140.174C129.099 141.088 128.281 142.002 127.318 141.858C126.789 141.81 126.356 141.425 126.211 140.896L125.827 139.404H125.875C126.115 140.318 125.249 141.136 124.335 141.04C123.709 141.04 123.18 140.126 122.987 139.644C121.929 139.789 120.966 139.163 120.533 138.49L117.694 134.063L112.449 130.213L115.625 118.905L126.885 126.171C127.318 126.508 127.415 126.652 128.088 127.326L135.354 134.014C134.536 134.496 133.814 134.447 132.708 134.014C131.553 133.581 126.548 130.165 126.548 130.165L128.81 140.174Z"
      fill="#FFBE9D" />
    <path
      d="M119.188 130.886C119.188 130.886 119.332 130.934 119.524 131.079C119.621 131.175 119.765 131.223 119.909 131.319C120.054 131.416 120.246 131.56 120.39 131.704C120.535 131.897 120.679 132.089 120.775 132.378C120.872 132.619 120.968 132.907 121.064 133.148C121.257 133.725 121.449 134.303 121.69 134.976C122.123 136.276 122.508 137.431 122.748 138.297C122.989 139.163 123.133 139.692 123.133 139.692C123.085 139.692 122.893 139.211 122.604 138.345C122.315 137.527 121.882 136.372 121.449 135.073C121.257 134.447 121.016 133.822 120.872 133.244C120.775 132.955 120.679 132.715 120.631 132.426C120.535 132.185 120.439 131.993 120.294 131.801C120.15 131.608 120.006 131.512 119.861 131.416C119.717 131.319 119.621 131.223 119.524 131.127C119.284 130.982 119.188 130.886 119.188 130.886Z"
      fill="#EB996E" />
    <path
      d="M125.969 139.643C125.969 139.643 125.873 139.499 125.825 139.162C125.729 138.825 125.585 138.392 125.44 137.863C125.151 136.756 124.718 135.264 124.189 133.628C123.66 131.992 123.13 130.501 122.457 129.634C122.12 129.201 121.783 128.864 121.542 128.72C121.302 128.576 121.109 128.528 121.109 128.479C121.109 128.479 121.157 128.479 121.254 128.479C121.35 128.479 121.446 128.528 121.591 128.624C121.879 128.768 122.264 129.057 122.601 129.538C123.323 130.452 123.9 131.944 124.43 133.58C124.959 135.216 125.344 136.756 125.585 137.863C125.729 138.392 125.825 138.873 125.873 139.162C125.969 139.499 125.969 139.643 125.969 139.643Z"
      fill="#EB996E" />
    <path
      d="M128.86 140.365C128.86 140.365 128.764 140.173 128.668 139.884C128.524 139.499 128.379 139.018 128.235 138.489C127.85 137.286 127.369 135.649 126.839 133.821C126.31 132.04 125.877 130.404 125.54 129.153C125.348 128.576 125.059 128.191 124.77 127.998C124.482 127.806 124.289 127.758 124.289 127.758C124.289 127.758 124.337 127.758 124.433 127.758C124.53 127.758 124.674 127.806 124.818 127.902C125.107 128.095 125.492 128.48 125.685 129.105C126.07 130.308 126.551 131.944 127.08 133.773C127.609 135.601 128.091 137.237 128.379 138.44C128.524 139.018 128.668 139.499 128.764 139.884C128.86 140.173 128.909 140.365 128.86 140.365Z"
      fill="#EB996E" />
    <path
      d="M197.242 35.9943C197.242 36.9085 198.012 37.6784 198.926 37.6784C199.841 37.6784 200.611 36.9085 200.611 35.9943C200.611 35.08 199.841 34.3101 198.926 34.3101C198.012 34.3101 197.242 35.08 197.242 35.9943Z"
      fill="#455A64" />
    <path
      d="M192.192 37.6784C193.122 37.6784 193.876 36.9244 193.876 35.9943C193.876 35.0641 193.122 34.3101 192.192 34.3101C191.262 34.3101 190.508 35.0641 190.508 35.9943C190.508 36.9244 191.262 37.6784 192.192 37.6784Z"
      fill="#455A64" />
    <path
      d="M183.823 35.1774C183.342 35.9955 183.631 37.006 184.449 37.4872C185.267 37.9684 186.277 37.6797 186.759 36.8616C187.24 36.0436 186.951 35.0331 186.133 34.5519C185.315 34.0707 184.256 34.3594 183.823 35.1774Z"
      fill="#455A64" />
    <path
      d="M192.096 16.313C192.096 16.313 192 16.313 191.759 16.313C191.518 16.313 191.182 16.313 190.748 16.3611C190.508 16.3611 190.267 16.3611 190.027 16.4092C189.738 16.4573 189.449 16.5055 189.16 16.5536C188.824 16.6017 188.487 16.6498 188.15 16.6979C187.765 16.7942 187.428 16.8904 186.995 16.9867C185.359 17.4197 183.434 18.0934 181.413 19.4408C179.392 20.74 177.323 22.5686 175.639 25.0708C174.003 27.573 172.703 30.7008 172.367 34.2617C172.319 35.1279 172.222 36.0421 172.319 36.9564C172.367 37.3895 172.319 37.8707 172.415 38.3519C172.463 38.8331 172.559 39.2662 172.607 39.7474C172.992 41.5759 173.522 43.5007 174.484 45.233C175.398 47.0135 176.601 48.6495 178.093 50.1894C179.585 51.633 181.317 52.9322 183.242 53.8946C185.167 54.9051 187.332 55.5788 189.545 55.8194C190.075 55.9156 190.652 55.9156 191.23 55.9638C191.807 56.0119 192.336 56.0119 192.914 56.0119C194.069 55.9638 195.175 55.8194 196.33 55.5788C198.784 55.0495 201.094 54.039 203.115 52.7397H202.923C205.281 53.7021 207.59 54.6164 209.804 55.5307L210.189 55.675L210.093 55.242C209.419 52.6916 208.697 50.2375 208.072 47.8796L208.023 48.0721C209.948 45.5217 211.199 42.5864 211.681 39.6511C211.921 38.2075 212.066 36.7158 211.969 35.3203C211.921 34.5985 211.921 33.9249 211.777 33.2512C211.729 32.9143 211.681 32.5775 211.632 32.2407C211.584 31.9038 211.488 31.567 211.392 31.2783C210.044 26.0813 206.869 22.2317 203.693 20.0663C202.105 18.9596 200.565 18.1415 199.121 17.6603C198.784 17.516 198.399 17.4197 198.111 17.2754C197.774 17.1791 197.437 17.0829 197.148 17.0348C196.86 16.9385 196.523 16.8904 196.234 16.7942C195.945 16.7461 195.657 16.6979 195.416 16.6498C194.887 16.6017 194.454 16.5055 194.021 16.4573C193.636 16.4573 193.299 16.4092 193.01 16.4092C192.769 16.4092 192.529 16.4092 192.384 16.4092C192.192 16.313 192.096 16.313 192.096 16.313C192.096 16.313 192.144 16.313 192.288 16.3611C192.433 16.3611 192.625 16.4092 192.914 16.4092C193.203 16.4092 193.539 16.4573 193.924 16.4573C194.309 16.5055 194.79 16.6017 195.272 16.6498C197.293 17.0348 200.324 17.8528 203.452 20.1145C206.58 22.328 209.66 26.1294 210.959 31.2301C211.055 31.567 211.151 31.8557 211.199 32.1925C211.247 32.5294 211.296 32.8662 211.344 33.2031C211.488 33.8767 211.488 34.5504 211.536 35.2241C211.632 36.6196 211.536 38.015 211.247 39.4586C210.718 42.2977 209.515 45.1849 207.639 47.6871L207.59 47.7834L207.639 47.8796C208.312 50.2856 208.938 52.7397 209.66 55.242L209.948 55.0014C207.687 54.0871 205.377 53.1728 203.067 52.2104L202.971 52.1623L202.875 52.2104C200.902 53.5096 198.64 54.472 196.234 55.0014C195.127 55.242 194.021 55.3863 192.914 55.4344C192.336 55.4826 191.807 55.4344 191.23 55.3863C190.7 55.3382 190.123 55.3382 189.594 55.242C187.428 55.0014 185.311 54.3277 183.434 53.3653C181.558 52.4029 179.825 51.1518 178.382 49.7563C176.938 48.3127 175.783 46.6766 174.869 44.9443C173.955 43.212 173.377 41.3834 172.992 39.5549C172.944 39.0737 172.848 38.6406 172.8 38.2075C172.752 37.7744 172.752 37.2932 172.703 36.8602C172.607 35.9459 172.703 35.0797 172.752 34.2136C173.088 30.7489 174.291 27.6693 175.928 25.167C177.564 22.7129 179.585 20.8844 181.558 19.5851C183.53 18.2859 185.455 17.5641 187.043 17.131C187.428 17.0348 187.813 16.9385 188.198 16.8423C188.583 16.7942 188.92 16.7461 189.209 16.6979C189.545 16.6498 189.834 16.6017 190.075 16.5536C190.363 16.5055 190.604 16.5055 190.797 16.5055C191.23 16.4573 191.566 16.4573 191.807 16.4092C192 16.3611 192.096 16.3611 192.096 16.313Z"
      fill="#455A64" />
  </g>
  <defs>
    <clipPath id="clip0">
      <rect width="334" height="174.964" fill="white" />
    </clipPath>
  </defs>
</svg>