<svg width="301" height="172" viewBox="0 0 301 172" fill="none" xmlns="http://www.w3.org/2000/svg">
  <g clip-path="url(#clip0)">
    <path
      d="M240.194 67.0361H288.156H301L291.101 74.2048V88.2862C291.101 89.9077 289.778 91.2305 288.156 91.2305H240.194C238.573 91.2305 237.25 89.9077 237.25 88.2862V69.9804C237.25 68.3589 238.573 67.0361 240.194 67.0361Z"
      fill="#F5F5F5" />
    <path
      d="M242.754 76.9784C242.754 77.0211 251.928 77.0638 263.236 77.0638C274.544 77.0638 283.718 77.0211 283.718 76.9784C283.718 76.9357 274.544 76.8931 263.236 76.8931C251.928 76.8931 242.754 76.9357 242.754 76.9784Z"
      fill="#E0E0E0" />
    <path
      d="M242.754 82.3975C242.754 82.4402 251.928 82.4828 263.236 82.4828C274.544 82.4828 283.718 82.4402 283.718 82.3975C283.718 82.3548 274.544 82.3121 263.236 82.3121C251.928 82.2695 242.754 82.3122 242.754 82.3975Z"
      fill="#E0E0E0" />
    <path d="M147.859 15.1479H145V24.6635H147.859V15.1479Z" fill="#E0E0E0" />
    <path d="M124.097 13.7822H121.238V24.706H124.097V13.7822Z" fill="#E0E0E0" />
    <path d="M130.066 11.521H127.207V24.7063H130.066V11.521Z" fill="#E0E0E0" />
    <path d="M136 12.2036H133.141V24.6635H136V12.2036Z" fill="#E0E0E0" />
    <path d="M141.929 8.02197H139.07V24.7063H141.929V8.02197Z" fill="#E0E0E0" />
    <path d="M153.836 8.10693H150.977V24.7059H153.836V8.10693Z" fill="#E0E0E0" />
    <path d="M159.765 13.5264H156.906V24.6635H159.765V13.5264Z" fill="#E0E0E0" />
    <path d="M165.699 8.83252H162.84V24.7061H165.699V8.83252Z" fill="#E0E0E0" />
    <path d="M171.632 5.24805H168.773V24.7059H171.632V5.24805Z" fill="#E0E0E0" />
    <path d="M177.601 8.74707H174.742V24.706H177.601V8.74707Z" fill="#E0E0E0" />
    <path
      d="M252.532 23.8103L276.044 20.2259C278.007 33.1552 269.003 45.359 256.117 47.3646C243.187 49.3274 230.983 40.3239 228.978 27.4373C227.058 14.508 236.019 2.26152 248.948 0.255988C250.996 -0.0427081 253.087 -0.0853789 255.178 0.127975L252.532 23.8103Z"
      fill="#EBEBEB" />
    <path d="M260.168 0.213379L257.309 18.4765L275.23 15.1055C275.23 15.1055 272.585 4.8645 260.168 0.213379Z"
      fill="#E0E0E0" />
    <path
      d="M12.2471 68.0605C12.1618 61.6172 17.2823 56.2407 23.7256 56.1553C30.1689 56.07 35.4601 61.2332 35.5881 67.6765C35.6734 74.1198 30.5529 79.4963 24.1096 79.5816C17.709 79.7096 12.3752 74.5038 12.2471 68.0605ZM29.5288 67.7618C29.4862 64.6895 26.9259 62.2146 23.8536 62.2573C20.7813 62.2999 18.3064 64.8602 18.3491 67.9325C18.3917 71.0048 20.952 73.4797 24.0243 73.437C27.0966 73.437 29.5715 70.8768 29.5288 67.7618Z"
      fill="#F5F5F5" />
    <path
      d="M12.2471 68.0604C12.1618 61.6171 17.2823 56.2406 23.7256 56.1553L23.8109 62.2572C20.7386 62.2999 18.2637 64.8601 18.3064 67.9324C18.3491 71.0047 20.9093 73.4796 23.9816 73.437L24.067 79.5389C17.709 79.7096 12.3752 74.5037 12.2471 68.0604Z"
      fill="#E0E0E0" />
    <path
      d="M22.7031 55.2164C30.2132 55.0884 36.2298 60.9343 36.3578 68.487L29.2318 68.6151C29.1891 64.988 26.4155 62.7265 22.8311 62.7692L22.7031 55.2164Z"
      fill="#EBEBEB" />
    <path d="M88.0799 109.194H73.2305V126.817H88.0799V109.194Z" fill="#F5F5F5" />
    <path d="M73.782 108.042H6.74609V127.927H73.782V108.042Z" fill="#E0E0E0" />
    <path
      d="M88.4977 109.75H71.9414V108.086H88.4977C88.9671 108.086 89.3511 108.47 89.3511 108.939C89.3511 109.366 88.9671 109.75 88.4977 109.75Z"
      fill="#E0E0E0" />
    <path
      d="M88.4977 127.926H71.9414V126.262H88.4977C88.9671 126.262 89.3511 126.646 89.3511 127.116C89.3511 127.585 88.9671 127.926 88.4977 127.926Z"
      fill="#E0E0E0" />
    <path d="M68.4915 108.042H60.5547V127.927H68.4915V108.042Z" fill="#EBEBEB" />
    <path d="M21.0344 108.256H13.0977V128.14H21.0344V108.256Z" fill="#EBEBEB" />
    <path
      d="M88.0796 112.138C88.0796 112.181 84.8793 112.223 80.9109 112.223C76.9425 112.223 73.7422 112.181 73.7422 112.138C73.7422 112.095 76.9425 112.053 80.9109 112.053C84.8793 112.053 88.0796 112.053 88.0796 112.138Z"
      fill="#E0E0E0" />
    <path
      d="M88.0796 114.785C88.0796 114.828 84.8793 114.871 80.9109 114.871C76.9425 114.871 73.7422 114.828 73.7422 114.785C73.7422 114.743 76.9425 114.7 80.9109 114.7C84.8793 114.657 88.0796 114.7 88.0796 114.785Z"
      fill="#E0E0E0" />
    <path
      d="M88.0796 118.027C88.0796 118.069 84.8793 118.112 80.9109 118.112C76.9425 118.112 73.7422 118.069 73.7422 118.027C73.7422 117.984 76.9425 117.941 80.9109 117.941C84.8793 117.941 88.0796 117.984 88.0796 118.027Z"
      fill="#E0E0E0" />
    <path
      d="M88.0796 121.27C88.0796 121.313 84.8793 121.355 80.9109 121.355C76.9425 121.355 73.7422 121.313 73.7422 121.27C73.7422 121.227 76.9425 121.185 80.9109 121.185C84.8793 121.185 88.0796 121.227 88.0796 121.27Z"
      fill="#E0E0E0" />
    <path
      d="M88.0796 124.513C88.0796 124.555 84.8793 124.598 80.9109 124.598C76.9425 124.598 73.7422 124.555 73.7422 124.513C73.7422 124.47 76.9425 124.427 80.9109 124.427C84.8793 124.427 88.0796 124.47 88.0796 124.513Z"
      fill="#E0E0E0" />
    <path d="M56.3323 116.235H26.1641V119.82H56.3323V116.235Z" fill="#EBEBEB" />
    <path d="M87.9026 128.353H72.8398V139.106H87.9026V128.353Z" fill="#FAFAFA" />
    <path d="M73.0564 127.927H8.96484V139.448H73.0564V127.927Z" fill="#F5F5F5" />
    <path
      d="M72.5469 128.738H88.7618C88.9751 128.738 89.1458 128.568 89.1458 128.354C89.1458 128.141 88.9751 127.97 88.7618 127.97H72.5469V128.738Z"
      fill="#F5F5F5" />
    <path
      d="M72.5469 139.449H88.9325C89.0178 139.449 89.1032 139.363 89.1032 139.278V138.851C89.1032 138.766 89.0178 138.681 88.9325 138.681H72.5469V139.449Z"
      fill="#F5F5F5" />
    <path
      d="M87.9119 130.36C87.9119 130.402 84.5836 130.445 80.4872 130.445C76.3908 130.445 73.0625 130.402 73.0625 130.36C73.0625 130.317 76.3908 130.274 80.4872 130.274C84.5836 130.274 87.9119 130.317 87.9119 130.36Z"
      fill="#E0E0E0" />
    <path
      d="M87.9119 132.407C87.9119 132.45 84.5836 132.492 80.4872 132.492C76.3908 132.492 73.0625 132.45 73.0625 132.407C73.0625 132.364 76.3908 132.322 80.4872 132.322C84.5836 132.322 87.9119 132.364 87.9119 132.407Z"
      fill="#E0E0E0" />
    <path
      d="M87.9119 134.455C87.9119 134.498 84.5836 134.54 80.4872 134.54C76.3908 134.54 73.0625 134.498 73.0625 134.455C73.0625 134.412 76.3908 134.37 80.4872 134.37C84.5836 134.37 87.9119 134.37 87.9119 134.455Z"
      fill="#E0E0E0" />
    <path
      d="M87.9119 136.461C87.9119 136.503 84.5836 136.546 80.4872 136.546C76.3908 136.546 73.0625 136.503 73.0625 136.461C73.0625 136.418 76.3908 136.375 80.4872 136.375C84.5836 136.375 87.9119 136.418 87.9119 136.461Z"
      fill="#E0E0E0" />
    <path d="M90.217 140.473H74.8555V169.574H90.217V140.473Z" fill="#EBEBEB" />
    <path d="M74.8517 139.448H2.69531V171.025H74.8517V139.448Z" fill="#E0E0E0" />
    <path
      d="M91.4017 171.025H72.8398V168.977H91.4017C91.9564 168.977 92.4258 169.446 92.4258 170.001C92.4258 170.598 91.9564 171.025 91.4017 171.025Z"
      fill="#E0E0E0" />
    <path
      d="M91.9564 141.496H72.8398V139.448H91.9564C92.2124 139.448 92.4258 139.662 92.4258 139.918V141.027C92.4258 141.326 92.2124 141.496 91.9564 141.496Z"
      fill="#E0E0E0" />
    <path
      d="M90.217 144.399C90.217 144.441 86.7606 144.484 82.5362 144.484C78.3118 144.484 74.8555 144.441 74.8555 144.399C74.8555 144.356 78.3118 144.313 82.5362 144.313C86.7606 144.313 90.217 144.356 90.217 144.399Z"
      fill="#E0E0E0" />
    <path
      d="M90.217 148.111C90.217 148.154 86.7606 148.197 82.5362 148.197C78.3118 148.197 74.8555 148.154 74.8555 148.111C74.8555 148.069 78.3118 148.026 82.5362 148.026C86.7606 148.026 90.217 148.069 90.217 148.111Z"
      fill="#E0E0E0" />
    <path
      d="M90.217 151.865C90.217 151.907 86.7606 151.95 82.5362 151.95C78.3118 151.95 74.8555 151.907 74.8555 151.865C74.8555 151.822 78.3118 151.779 82.5362 151.779C86.7606 151.779 90.217 151.822 90.217 151.865Z"
      fill="#E0E0E0" />
    <path
      d="M90.217 155.62C90.217 155.662 86.7606 155.705 82.5362 155.705C78.3118 155.705 74.8555 155.662 74.8555 155.62C74.8555 155.577 78.3118 155.534 82.5362 155.534C86.7606 155.492 90.217 155.534 90.217 155.62Z"
      fill="#E0E0E0" />
    <path
      d="M90.217 159.332C90.217 159.375 86.7606 159.418 82.5362 159.418C78.3118 159.418 74.8555 159.375 74.8555 159.332C74.8555 159.29 78.3118 159.247 82.5362 159.247C86.7606 159.247 90.217 159.29 90.217 159.332Z"
      fill="#E0E0E0" />
    <path
      d="M90.217 163.089C90.217 163.131 86.7606 163.174 82.5362 163.174C78.3118 163.174 74.8555 163.131 74.8555 163.089C74.8555 163.046 78.3118 163.003 82.5362 163.003C86.7606 163.003 90.217 163.003 90.217 163.089Z"
      fill="#E0E0E0" />
    <path
      d="M90.217 166.8C90.217 166.843 86.7606 166.886 82.5362 166.886C78.3118 166.886 74.8555 166.843 74.8555 166.8C74.8555 166.758 78.3118 166.715 82.5362 166.715C86.7606 166.715 90.217 166.758 90.217 166.8Z"
      fill="#E0E0E0" />
    <path
      d="M27.3979 156.986V158.735C27.3979 160.869 26.3311 162.064 24.2829 162.064C22.2347 162.064 21.168 160.869 21.168 158.735V151.865C21.168 149.732 22.2347 148.537 24.2829 148.537C26.3311 148.537 27.3979 149.732 27.3979 151.865V153.146H25.4351V151.737C25.4351 150.799 25.0083 150.415 24.3683 150.415C23.7282 150.415 23.3015 150.756 23.3015 151.737V158.863C23.3015 159.802 23.7282 160.144 24.3683 160.144C25.0083 160.144 25.4351 159.802 25.4351 158.863V156.986H27.3979Z"
      fill="#EBEBEB" />
    <path
      d="M28.4648 151.865C28.4648 149.732 29.5743 148.537 31.6225 148.537C33.6707 148.537 34.7801 149.732 34.7801 151.865V158.735C34.7801 160.869 33.6707 162.064 31.6225 162.064C29.5743 162.064 28.4648 160.869 28.4648 158.735V151.865ZM30.5557 158.863C30.5557 159.802 30.9824 160.186 31.6225 160.186C32.2625 160.186 32.6893 159.845 32.6893 158.863V151.737C32.6893 150.799 32.2625 150.415 31.6225 150.415C30.9824 150.415 30.5557 150.756 30.5557 151.737V158.863Z"
      fill="#EBEBEB" />
    <path d="M36.1016 148.708H38.1924V160.016H41.6061V161.893H36.1016V148.708Z" fill="#EBEBEB" />
    <path
      d="M42.332 151.865C42.332 149.732 43.4415 148.537 45.4897 148.537C47.5379 148.537 48.6473 149.732 48.6473 151.865V158.735C48.6473 160.869 47.5379 162.064 45.4897 162.064C43.4415 162.064 42.332 160.869 42.332 158.735V151.865ZM44.4229 158.863C44.4229 159.802 44.8496 160.186 45.4897 160.186C46.1297 160.186 46.5564 159.845 46.5564 158.863V151.737C46.5564 150.799 46.1297 150.415 45.4897 150.415C44.8496 150.415 44.4229 150.756 44.4229 151.737V158.863Z"
      fill="#EBEBEB" />
    <path
      d="M51.9734 148.708V158.906C51.9734 159.845 52.4001 160.186 53.0402 160.186C53.6802 160.186 54.1069 159.845 54.1069 158.906V148.708H56.0698V158.778C56.0698 160.912 55.003 162.107 52.9548 162.107C50.9066 162.107 49.8398 160.912 49.8398 158.778V148.708H51.9734Z"
      fill="#EBEBEB" />
    <path
      d="M61.8759 161.893C61.7478 161.552 61.7052 161.338 61.7052 160.272V158.181C61.7052 156.943 61.2785 156.516 60.3397 156.516H59.6143V161.893H57.5234V148.665H60.6384C62.7719 148.665 63.7107 149.646 63.7107 151.695V152.719C63.7107 154.084 63.284 154.98 62.3452 155.407C63.3693 155.834 63.7107 156.858 63.7107 158.223V160.272C63.7107 160.912 63.7107 161.381 63.9241 161.893H61.8759ZM59.6143 150.585V154.639H60.4251C61.1931 154.639 61.6625 154.298 61.6625 153.231V151.908C61.6625 150.969 61.3211 150.543 60.5957 150.543H59.6143V150.585Z"
      fill="#EBEBEB" />
    <path
      d="M26.9229 132.493H25.3867L25.4721 132.109H28.9711L28.8857 132.493H27.3922L26.6242 136.376H26.1975L26.9229 132.493Z"
      fill="#E0E0E0" />
    <path
      d="M31.8726 133.176L29.5257 136.803C29.1416 137.4 28.8429 137.614 28.3735 137.614C28.0748 137.614 27.7762 137.528 27.6055 137.315L27.8188 137.016C27.9468 137.144 28.1602 137.23 28.3735 137.23C28.6296 137.23 28.8856 137.101 29.0989 136.717L29.3123 136.376L28.5016 133.176H28.9283L29.611 135.907L31.3605 133.176H31.8726Z"
      fill="#E0E0E0" />
    <path
      d="M35.4573 134.498C35.4573 135.608 34.6892 136.419 33.6224 136.419C33.025 136.419 32.5983 136.163 32.385 135.693L32.0009 137.571H31.5742L32.4703 133.133H32.897L32.8117 133.645C33.1104 133.304 33.5371 133.09 34.0491 133.09C34.9025 133.133 35.4573 133.645 35.4573 134.498ZM35.0306 134.541C35.0306 133.901 34.6465 133.517 33.9638 133.517C33.153 133.517 32.5556 134.157 32.5556 135.011C32.5556 135.651 32.9397 135.992 33.6224 135.992C34.4332 136.035 35.0306 135.395 35.0306 134.541Z"
      fill="#E0E0E0" />
    <path
      d="M35.9727 135.053C35.9727 133.944 36.7407 133.133 37.8502 133.133C38.7463 133.133 39.301 133.645 39.301 134.499C39.301 135.608 38.5329 136.419 37.4235 136.419C36.57 136.419 35.9727 135.864 35.9727 135.053ZM38.8743 134.541C38.8743 133.901 38.4902 133.517 37.8075 133.517C36.9968 133.517 36.3994 134.157 36.3994 135.011C36.3994 135.651 36.7834 135.992 37.4661 135.992C38.2769 136.035 38.8743 135.395 38.8743 134.541Z"
      fill="#E0E0E0" />
    <path
      d="M43.4807 133.176L42.926 135.992C42.7126 137.144 42.1152 137.614 41.0485 137.614C40.4511 137.614 39.939 137.443 39.5977 137.144L39.8537 136.803C40.1097 137.059 40.5364 137.23 41.0485 137.23C41.8592 137.23 42.2859 136.845 42.4566 136.077L42.5419 135.736C42.2432 136.077 41.8165 136.291 41.2618 136.291C40.4084 136.291 39.8537 135.779 39.8537 135.011C39.8537 133.987 40.6218 133.176 41.6885 133.176C42.2859 133.176 42.7553 133.432 42.926 133.901L43.054 133.176H43.4807ZM42.7553 134.456C42.7553 133.859 42.3713 133.517 41.6885 133.517C40.8778 133.517 40.2804 134.115 40.2804 134.925C40.2804 135.523 40.6644 135.864 41.3472 135.864C42.1579 135.864 42.7553 135.267 42.7553 134.456Z"
      fill="#E0E0E0" />
    <path
      d="M46.3394 133.133L46.254 133.56C46.2114 133.56 46.1687 133.56 46.126 133.56C45.4433 133.56 44.9739 133.944 44.8032 134.755L44.4619 136.376H44.0352L44.6752 133.133H45.1019L44.9739 133.731C45.2726 133.304 45.6993 133.133 46.3394 133.133Z"
      fill="#E0E0E0" />
    <path
      d="M50.0098 133.176L49.3698 136.419H48.9431L49.0284 135.907C48.7297 136.248 48.303 136.461 47.791 136.461C46.9802 136.461 46.3828 135.949 46.3828 135.096C46.3828 133.987 47.1509 133.176 48.2177 133.176C48.8151 133.176 49.2418 133.432 49.4551 133.859L49.5831 133.176H50.0098ZM49.2844 134.541C49.2844 133.901 48.9004 133.517 48.2177 133.517C47.4069 133.517 46.8095 134.157 46.8095 135.011C46.8095 135.651 47.1936 135.992 47.8763 135.992C48.7297 136.035 49.2844 135.395 49.2844 134.541Z"
      fill="#E0E0E0" />
    <path
      d="M54.2346 134.498C54.2346 135.608 53.4665 136.419 52.3998 136.419C51.8024 136.419 51.3757 136.163 51.1623 135.693L50.7783 137.571H50.3516L51.2476 133.133H51.6744L51.589 133.645C51.8877 133.304 52.3144 133.09 52.8265 133.09C53.6372 133.133 54.2346 133.645 54.2346 134.498ZM53.7652 134.541C53.7652 133.901 53.3812 133.517 52.6985 133.517C51.8877 133.517 51.2903 134.157 51.2903 135.011C51.2903 135.651 51.6744 135.992 52.3571 135.992C53.1678 136.035 53.7652 135.395 53.7652 134.541Z"
      fill="#E0E0E0" />
    <path
      d="M58.1171 134.2C58.1171 134.328 58.1171 134.456 58.0744 134.584L57.6904 136.419H57.2637L57.6477 134.584C57.6477 134.499 57.6904 134.371 57.6904 134.285C57.6904 133.816 57.4344 133.56 56.837 133.56C56.1542 133.56 55.6849 133.944 55.5142 134.669L55.1728 136.419H54.7461L55.6422 131.853H56.0689L55.7275 133.645C56.0262 133.304 56.4529 133.133 56.965 133.133C57.6904 133.133 58.1171 133.517 58.1171 134.2Z"
      fill="#E0E0E0" />
    <path
      d="M62.2124 133.176L59.8655 136.803C59.4815 137.4 59.1828 137.614 58.7134 137.614C58.4147 137.614 58.116 137.528 57.9453 137.315L58.1587 137.016C58.2867 137.144 58.5 137.23 58.7134 137.23C58.9694 137.23 59.1828 137.101 59.4388 136.717L59.6521 136.376L58.8414 133.176H59.2681L59.9508 135.907L61.7003 133.176H62.2124Z"
      fill="#E0E0E0" />
    <path
      d="M71.9066 0.554688H20.2749H6.49219L17.1599 8.23544V23.3836C17.1599 25.1331 18.568 26.5412 20.3175 26.5412H71.9492C73.6987 26.5412 75.1069 25.1331 75.1069 23.3836V3.71233C75.1069 1.96282 73.6561 0.554688 71.9066 0.554688Z"
      fill="#F5F5F5" />
    <path
      d="M69.1724 11.2223C69.1724 11.2649 59.3155 11.3503 47.1116 11.3503C34.9504 11.3503 25.0508 11.3076 25.0508 11.2223C25.0508 11.1796 34.9077 11.0942 47.1116 11.0942C59.3155 11.1369 69.1724 11.1796 69.1724 11.2223Z"
      fill="#E0E0E0" />
    <path
      d="M69.1724 17.0684C69.1724 17.1111 59.3155 17.1965 47.1116 17.1965C34.9504 17.1965 25.0508 17.1538 25.0508 17.0684C25.0508 17.0258 34.9077 16.9404 47.1116 16.9404C59.3155 16.9404 69.1724 16.9831 69.1724 17.0684Z"
      fill="#E0E0E0" />
    <path
      d="M298.909 171.025C298.909 171.068 232.001 171.153 149.433 171.153C66.9079 171.153 0 171.11 0 171.025C0 170.94 66.9078 170.897 149.476 170.897C232.001 170.94 298.909 170.982 298.909 171.025Z"
      fill="#263238" />
    <path
      d="M270.835 149.263C270.835 149.263 259.527 136.248 255.26 123.233C250.993 110.219 252.998 111.712 252.998 111.712C252.998 111.712 258.759 124.343 263.154 130.487C267.549 136.547 275.315 145.507 275.315 145.507L270.835 149.263Z"
      fill="#455A64" />
    <path
      d="M273.094 113.718C272.71 113.078 271.772 113.419 271.857 114.145C272.54 118.711 274.033 129.464 273.991 136.419C273.905 145.465 273.991 148.964 273.991 148.964H278.684C278.684 148.964 277.831 130.274 276.764 124.556C276.039 120.545 274.46 116.15 273.094 113.718Z"
      fill="#455A64" />
    <path
      d="M275.656 147.428C275.656 147.428 278.601 141.198 279.539 133.389C279.923 130.061 279.241 125.581 278.216 119.564C277.704 116.662 277.619 114.443 277.619 112.907C277.619 111.755 279.155 111.371 279.71 112.395C280.265 113.419 281.929 116.876 282.356 119.052C283.508 124.983 284.788 127.927 283.806 133.56C282.825 139.193 279.155 147.855 279.155 147.855L275.656 147.428Z"
      fill="#455A64" />
    <path
      d="M279.922 147.812C279.922 147.812 292.339 121.143 293.192 117.174C294.046 113.206 296.99 104.075 297.332 104.587C297.673 105.099 298.185 109.92 295.966 115.425C293.747 120.93 284.189 148.623 284.189 148.623H279.922"
      fill="#455A64" />
    <path
      d="M274.291 146.617C274.291 146.617 274.163 146.532 273.949 146.361C273.736 146.191 273.395 145.977 272.968 145.636C272.157 144.996 270.962 144.014 269.64 142.692C266.909 140.089 263.538 136.078 260.636 131.128C257.692 126.178 255.729 121.356 254.491 117.814C253.851 116.022 253.425 114.571 253.126 113.59C252.955 113.078 252.87 112.694 252.785 112.438C252.699 112.182 252.699 112.011 252.699 112.011C252.699 112.011 252.742 112.139 252.827 112.395C252.913 112.694 253.041 113.078 253.211 113.547C253.553 114.529 254.022 115.98 254.662 117.729C255.942 121.228 257.948 126.05 260.849 131C263.751 135.907 267.079 139.918 269.768 142.564C271.09 143.886 272.242 144.91 273.053 145.551C273.437 145.892 273.779 146.148 273.992 146.319C274.205 146.532 274.291 146.617 274.291 146.617Z"
      fill="#263238" />
    <path
      d="M275.654 133.816C275.654 133.816 275.611 133.517 275.526 133.048C275.483 132.493 275.398 131.768 275.312 130.915C275.099 129.122 274.8 126.605 274.374 123.874C273.947 121.143 273.435 118.668 273.051 116.919C272.88 116.065 272.71 115.34 272.582 114.828C272.453 114.316 272.411 114.06 272.454 114.06C272.454 114.06 272.539 114.316 272.71 114.828C272.838 115.297 273.051 116.022 273.264 116.919C273.691 118.668 274.203 121.143 274.672 123.874C275.099 126.605 275.398 129.122 275.526 130.915C275.611 131.811 275.654 132.536 275.654 133.048C275.654 133.517 275.696 133.816 275.654 133.816Z"
      fill="#263238" />
    <path
      d="M278.557 112.14C278.557 112.14 278.6 112.268 278.685 112.481C278.771 112.737 278.899 113.078 279.069 113.462C279.24 113.889 279.411 114.444 279.581 115.041C279.752 115.681 280.008 116.364 280.179 117.175C280.264 117.559 280.392 117.986 280.477 118.412C280.563 118.839 280.648 119.308 280.733 119.778C280.947 120.716 281.075 121.741 281.203 122.85C281.459 125.026 281.587 127.416 281.501 129.933C281.416 132.451 281.117 134.841 280.691 136.974C280.477 138.041 280.264 139.065 280.008 140.004C279.88 140.473 279.752 140.942 279.624 141.369C279.496 141.796 279.368 142.223 279.24 142.607C278.984 143.375 278.728 144.1 278.472 144.697C278.258 145.295 278.002 145.807 277.832 146.234C277.661 146.618 277.49 146.959 277.405 147.215C277.32 147.428 277.234 147.556 277.234 147.556C277.234 147.556 277.277 147.428 277.362 147.215C277.448 146.959 277.576 146.66 277.746 146.234C277.917 145.807 278.13 145.295 278.344 144.655C278.557 144.057 278.856 143.332 279.069 142.564C279.197 142.18 279.325 141.753 279.453 141.327C279.581 140.9 279.667 140.43 279.795 139.961C280.051 139.022 280.264 138.041 280.477 136.974C280.861 134.841 281.16 132.494 281.245 129.976C281.331 127.458 281.203 125.112 280.989 122.935C280.861 121.869 280.733 120.845 280.52 119.906C280.435 119.436 280.349 118.967 280.264 118.54C280.179 118.114 280.051 117.687 279.965 117.303C279.795 116.492 279.581 115.809 279.411 115.169C279.24 114.529 279.069 114.017 278.941 113.59C278.813 113.164 278.685 112.822 278.6 112.566C278.6 112.268 278.557 112.14 278.557 112.14Z"
      fill="#263238" />
    <path
      d="M297.163 105.141C297.163 105.141 297.163 105.184 297.163 105.269C297.163 105.354 297.12 105.482 297.12 105.61C297.078 105.909 296.992 106.379 296.864 106.933C296.608 108.085 296.224 109.75 295.584 111.755C294.987 113.761 294.133 116.108 293.109 118.71C292.128 121.313 290.933 124.13 289.824 127.117C288.714 130.104 287.861 133.048 287.05 135.693C286.239 138.339 285.471 140.729 284.746 142.691C284.02 144.654 283.295 146.19 282.783 147.257C282.527 147.769 282.313 148.196 282.143 148.452C282.057 148.58 282.015 148.665 281.972 148.751C281.929 148.836 281.929 148.836 281.887 148.836C281.887 148.836 281.887 148.793 281.929 148.708C281.972 148.623 282.015 148.537 282.1 148.409C282.228 148.111 282.441 147.727 282.697 147.215C283.21 146.148 283.85 144.612 284.575 142.649C285.3 140.686 286.026 138.296 286.837 135.651C287.647 133.005 288.501 130.061 289.61 127.074C290.72 124.087 291.872 121.271 292.896 118.668C293.92 116.108 294.773 113.761 295.413 111.755C296.053 109.75 296.48 108.128 296.736 106.976C296.864 106.421 296.95 105.952 297.035 105.653C297.078 105.525 297.078 105.397 297.12 105.312C297.163 105.184 297.163 105.141 297.163 105.141Z"
      fill="#263238" />
    <path
      d="M258.891 99.2527C258.123 98.4846 256.8 99.2954 257.141 100.362C257.483 101.429 257.952 102.794 258.72 104.373C260.427 108 265.462 121.015 267.809 128.183C270.156 135.352 273.484 148.665 273.484 148.665L278.477 147.855C278.477 147.855 273.911 125.922 269.388 118.028C265.761 111.67 262.134 102.496 258.891 99.2527Z"
      fill="#455A64" />
    <path
      d="M269.133 132.621C269.133 132.621 269.261 132.834 269.389 133.218C269.517 133.603 269.73 134.2 269.986 134.883C270.456 136.333 271.01 138.296 271.565 140.515C272.12 142.734 272.589 144.74 272.93 146.233C273.101 146.916 273.186 147.513 273.314 147.983C273.4 148.409 273.442 148.623 273.4 148.623C273.4 148.623 273.314 148.409 273.186 147.983C273.058 147.513 272.93 146.958 272.717 146.276C272.333 144.782 271.821 142.777 271.266 140.601C270.712 138.382 270.157 136.376 269.73 134.925C269.517 134.243 269.346 133.688 269.218 133.218C269.175 132.834 269.09 132.621 269.133 132.621Z"
      fill="#263238" />
    <path
      d="M275.915 148.196C275.915 148.196 275.915 148.153 275.872 148.068C275.872 147.983 275.83 147.855 275.83 147.684C275.787 147.343 275.744 146.83 275.616 146.148C275.446 144.825 275.104 142.947 274.55 140.601C273.995 138.296 273.227 135.565 272.203 132.578C271.179 129.591 269.899 126.391 268.405 123.063C265.461 116.449 262.517 110.56 260.554 106.208C259.572 104.032 258.804 102.282 258.335 101.045C258.079 100.447 257.908 99.9353 257.78 99.6366C257.737 99.4659 257.695 99.3805 257.652 99.2525C257.609 99.1672 257.609 99.1245 257.609 99.1245C257.609 99.1245 257.652 99.1672 257.695 99.2525C257.737 99.3379 257.78 99.4659 257.865 99.6366C257.993 99.9779 258.207 100.447 258.463 101.045C258.975 102.282 259.786 104.032 260.767 106.165C262.73 110.475 265.717 116.364 268.661 123.02C270.112 126.348 271.392 129.549 272.416 132.536C273.44 135.523 274.208 138.254 274.72 140.601C275.232 142.947 275.531 144.825 275.702 146.148C275.787 146.788 275.83 147.343 275.872 147.684C275.872 147.855 275.915 147.983 275.915 148.068C275.915 148.153 275.915 148.196 275.915 148.196Z"
      fill="#263238" />
    <path
      d="M278.435 147.811C278.435 147.811 278.35 147.513 278.264 146.958C278.179 146.361 278.051 145.592 277.88 144.654C277.539 142.691 277.027 140.045 276.259 137.144C275.491 134.242 274.68 131.639 273.997 129.762C273.699 128.865 273.4 128.14 273.229 127.543C273.058 127.031 272.93 126.732 272.973 126.732C272.973 126.732 273.101 126.988 273.357 127.5C273.57 128.012 273.869 128.737 274.211 129.676C274.893 131.511 275.789 134.114 276.557 137.058C277.326 139.96 277.838 142.691 278.136 144.611C278.264 145.592 278.392 146.361 278.435 146.915C278.435 147.513 278.435 147.811 278.435 147.811Z"
      fill="#263238" />
    <path d="M288.711 147.086H269.125V170.939H288.711V147.086Z" fill="#0E1F74" />
    <path d="M282.48 147.087H265.113V170.94H282.48V147.087Z" fill="#00B3D9" />
    <path
      d="M28.0773 138.809C24.7489 136.675 20.1405 136.632 16.8975 138.894C13.8252 141.028 12.2464 144.953 12.3744 148.708C12.5024 152.463 14.3373 157.072 17.7509 159.035L27.7359 158.992C30.9362 156.645 33.0697 152.89 33.2404 148.922C33.3684 144.953 31.4056 140.942 28.0773 138.809Z"
      fill="#455A64" />
    <path
      d="M23.1661 159.419C23.1234 159.419 23.1234 159.12 23.1234 158.565C23.1234 157.968 23.0807 157.157 23.0381 156.218C22.9954 154.256 22.9101 151.525 22.782 148.495C22.654 145.465 22.4833 142.734 22.3553 140.772C22.3127 139.833 22.27 139.065 22.2273 138.425C22.1846 137.87 22.1846 137.571 22.2273 137.571C22.27 137.571 22.3127 137.87 22.3553 138.425C22.4407 138.979 22.526 139.79 22.6114 140.772C22.782 142.734 22.9954 145.465 23.1234 148.495C23.2514 151.525 23.2941 154.256 23.2941 156.218C23.2941 157.2 23.2941 158.011 23.2514 158.565C23.2087 159.077 23.1661 159.419 23.1661 159.419Z"
      fill="#263238" />
    <path
      d="M13.3544 147.855C13.3544 147.941 12.7997 147.983 12.1596 147.898C11.4769 147.855 10.9648 147.727 10.9648 147.642C10.9648 147.557 11.5196 147.514 12.1596 147.599C12.8424 147.685 13.3971 147.77 13.3544 147.855Z"
      fill="#263238" />
    <path
      d="M13.5719 144.483C13.5292 144.569 13.0598 144.441 12.5478 144.185C11.993 143.929 11.609 143.673 11.6517 143.587C11.6943 143.502 12.1637 143.63 12.6758 143.886C13.1878 144.142 13.6145 144.441 13.5719 144.483Z"
      fill="#263238" />
    <path
      d="M15.2731 142.009C15.2304 142.094 14.7183 141.838 14.1636 141.369C13.6089 140.899 13.2675 140.43 13.3529 140.387C13.4382 140.345 13.8649 140.686 14.377 141.113C14.889 141.582 15.3584 141.924 15.2731 142.009Z"
      fill="#263238" />
    <path
      d="M17.025 139.619C16.9396 139.662 16.6836 139.278 16.4703 138.723C16.2569 138.211 16.1289 137.742 16.2142 137.699C16.2996 137.656 16.5556 138.04 16.769 138.595C16.9823 139.15 17.1103 139.619 17.025 139.619Z"
      fill="#263238" />
    <path
      d="M19.753 137.955C19.6677 137.998 19.4117 137.571 19.241 136.974C19.0703 136.376 19.0276 135.907 19.113 135.864C19.1983 135.864 19.369 136.291 19.5397 136.846C19.7104 137.486 19.8384 137.912 19.753 137.955Z"
      fill="#263238" />
    <path
      d="M24.32 136.078C24.4054 136.121 24.3627 136.462 24.192 136.889C24.064 137.315 23.8507 137.614 23.7653 137.571C23.68 137.529 23.7227 137.187 23.8933 136.761C24.064 136.377 24.2347 136.035 24.32 136.078Z"
      fill="#263238" />
    <path
      d="M27.7357 137.528C27.7783 137.614 27.565 137.913 27.2663 138.211C26.9249 138.51 26.6262 138.723 26.5836 138.638C26.5409 138.553 26.7542 138.254 27.0529 137.955C27.3516 137.656 27.6503 137.486 27.7357 137.528Z"
      fill="#263238" />
    <path
      d="M30.7217 139.448C30.7643 139.534 30.5083 139.79 30.1243 140.046C29.7402 140.302 29.3989 140.43 29.3562 140.387C29.3135 140.302 29.5696 140.046 29.9536 139.79C30.295 139.534 30.6363 139.363 30.7217 139.448Z"
      fill="#263238" />
    <path
      d="M32.8093 142.308C32.8519 142.393 32.4252 142.649 31.8705 142.863C31.3158 143.076 30.8464 143.204 30.8037 143.161C30.7611 143.076 31.1878 142.82 31.7425 142.607C32.2972 142.351 32.7666 142.265 32.8093 142.308Z"
      fill="#263238" />
    <path
      d="M33.6624 145.465C33.6624 145.551 33.2357 145.679 32.7236 145.764C32.1689 145.849 31.7422 145.807 31.7422 145.721C31.7422 145.636 32.1689 145.508 32.6809 145.422C33.193 145.337 33.6197 145.38 33.6624 145.465Z"
      fill="#263238" />
    <path
      d="M34.0911 149.306C34.0484 149.391 33.6217 149.263 33.067 149.05C32.555 148.836 32.1282 148.58 32.1709 148.495C32.2136 148.41 32.6403 148.538 33.195 148.751C33.7071 148.964 34.1338 149.22 34.0911 149.306Z"
      fill="#263238" />
    <path
      d="M33.7077 152.634C33.6651 152.72 33.1103 152.592 32.5129 152.165C31.9156 151.781 31.5742 151.311 31.6169 151.269C31.7022 151.226 32.1289 151.567 32.6836 151.909C33.2384 152.25 33.7504 152.549 33.7077 152.634Z"
      fill="#263238" />
    <path
      d="M31.9978 155.621C31.9551 155.706 31.4858 155.408 31.0591 154.938C30.6323 154.469 30.3763 154 30.4617 153.957C30.547 153.914 30.8884 154.298 31.3151 154.725C31.6991 155.194 32.0405 155.536 31.9978 155.621Z"
      fill="#263238" />
    <path
      d="M15.6627 155.962C15.7054 156.047 15.236 156.389 14.5959 156.687C13.9559 157.029 13.4011 157.199 13.4011 157.157C13.3585 157.071 13.8278 156.73 14.4679 156.431C15.0653 156.09 15.62 155.919 15.6627 155.962Z"
      fill="#263238" />
    <path
      d="M14.1623 153.274C14.205 153.359 13.8209 153.615 13.3089 153.829C12.7968 154.042 12.3701 154.17 12.3275 154.085C12.2848 153.999 12.6688 153.743 13.1809 153.53C13.6503 153.316 14.1196 153.188 14.1623 153.274Z"
      fill="#263238" />
    <path
      d="M13.0512 150.842C13.0512 150.927 12.5818 151.055 11.9844 151.141C11.3871 151.226 10.9177 151.226 10.875 151.141C10.875 151.055 11.3444 150.927 11.9418 150.842C12.5392 150.756 13.0512 150.756 13.0512 150.842Z"
      fill="#263238" />
    <path
      d="M16.6371 149.519C16.6798 149.604 16.2104 149.818 15.5704 149.903C14.973 149.988 14.4609 149.86 14.4609 149.775C14.4609 149.69 14.9303 149.647 15.5277 149.562C16.1251 149.519 16.6371 149.434 16.6371 149.519Z"
      fill="#263238" />
    <path
      d="M19.6245 146.532C19.6672 146.617 19.2831 146.788 18.7711 146.83C18.259 146.873 17.875 146.788 17.875 146.702C17.875 146.617 18.259 146.574 18.7284 146.532C19.2405 146.489 19.6245 146.446 19.6245 146.532Z"
      fill="#263238" />
    <path
      d="M20.2225 144.142C20.1798 144.228 19.7957 144.185 19.3264 144.014C18.857 143.844 18.5156 143.673 18.5583 143.588C18.601 143.502 18.985 143.545 19.4544 143.716C19.8811 143.886 20.2225 144.057 20.2225 144.142Z"
      fill="#263238" />
    <path
      d="M21.291 141.752C21.2484 141.795 20.9497 141.624 20.779 141.283C20.5656 140.942 20.5656 140.6 20.651 140.6C20.7363 140.558 20.8643 140.814 21.0777 141.112C21.2057 141.411 21.3764 141.667 21.291 141.752Z"
      fill="#263238" />
    <path
      d="M19.9664 151.61C19.9664 151.695 19.6251 151.866 19.1984 151.951C18.9423 151.994 18.6863 152.036 18.5583 152.036L18.5156 151.866C18.6436 151.866 18.6863 151.866 18.729 151.866C18.729 151.908 18.6863 151.951 18.601 152.036L18.5583 151.866C18.6863 151.78 18.8997 151.695 19.1557 151.652C19.5824 151.567 19.9664 151.524 19.9664 151.61Z"
      fill="#263238" />
    <path
      d="M20.6092 155.834C20.6519 155.92 20.1825 156.176 19.6278 156.389C19.073 156.602 18.561 156.73 18.5183 156.645C18.4757 156.56 18.945 156.304 19.4998 156.09C20.0971 155.877 20.5665 155.749 20.6092 155.834Z"
      fill="#263238" />
    <path
      d="M17.2325 153.957C17.2752 154.042 16.9765 154.213 16.5925 154.341C16.2084 154.469 15.867 154.511 15.8244 154.426C15.7817 154.341 16.0804 154.17 16.4644 154.042C16.8485 153.914 17.1898 153.871 17.2325 153.957Z"
      fill="#263238" />
    <path
      d="M17.4922 145.38C17.4922 145.465 16.9802 145.423 16.3828 145.209C15.7854 144.996 15.3587 144.74 15.4014 144.655C15.444 144.569 15.9134 144.74 16.4681 144.911C17.0229 145.081 17.4922 145.295 17.4922 145.38Z"
      fill="#263238" />
    <path
      d="M25.6424 144.441C25.685 144.526 25.3863 144.783 25.0023 145.039C24.6183 145.295 24.2342 145.465 24.1916 145.38C24.1489 145.295 24.4476 145.039 24.8316 144.783C25.2583 144.526 25.5997 144.356 25.6424 144.441Z"
      fill="#263238" />
    <path
      d="M26.1074 148.666C26.1074 148.751 25.8087 148.879 25.4246 148.965C25.0406 149.05 24.6992 149.05 24.6992 148.965C24.6992 148.879 24.9979 148.751 25.382 148.666C25.766 148.581 26.0647 148.581 26.1074 148.666Z"
      fill="#263238" />
    <path
      d="M26.6239 153.444C26.5812 153.53 26.1545 153.402 25.6425 153.188C25.1304 152.975 24.7891 152.719 24.7891 152.634C24.8317 152.548 25.2584 152.676 25.7705 152.89C26.2825 153.103 26.6666 153.359 26.6239 153.444Z"
      fill="#263238" />
    <path
      d="M25.5109 158.096C25.4256 158.139 25.1695 157.925 24.8708 157.584C24.5722 157.242 24.4015 156.944 24.4868 156.858C24.5722 156.816 24.8282 157.029 25.1269 157.37C25.4256 157.712 25.5963 158.053 25.5109 158.096Z"
      fill="#263238" />
    <path
      d="M25.3055 141.284C25.3482 141.369 25.1775 141.582 24.8361 141.753C24.5374 141.924 24.2387 141.924 24.1961 141.838C24.1534 141.753 24.4094 141.625 24.7081 141.454C25.0068 141.326 25.2628 141.241 25.3055 141.284Z"
      fill="#263238" />
    <path
      d="M29.311 145.593C29.3537 145.679 28.9697 145.892 28.4576 145.935C27.9456 146.02 27.5189 145.892 27.5615 145.807C27.5615 145.721 27.9456 145.679 28.415 145.593C28.8843 145.551 29.2684 145.508 29.311 145.593Z"
      fill="#263238" />
    <path
      d="M28.5028 141.753C28.5455 141.839 28.1614 142.095 27.6494 142.265C27.1373 142.436 26.668 142.436 26.668 142.351C26.668 142.265 27.052 142.137 27.5641 141.967C28.0761 141.796 28.4601 141.668 28.5028 141.753Z"
      fill="#263238" />
    <path
      d="M30.1671 151.525C30.1671 151.61 29.5271 151.653 28.759 151.525C27.9909 151.397 27.4362 151.098 27.4789 151.055C27.5215 150.97 28.1189 151.098 28.8443 151.226C29.5697 151.354 30.1671 151.44 30.1671 151.525Z"
      fill="#263238" />
    <path
      d="M28.6688 157.114C28.6261 157.199 28.1567 156.901 27.6873 156.431C27.218 155.962 26.9619 155.493 27.0046 155.45C27.0899 155.407 27.4313 155.749 27.9007 156.218C28.3701 156.687 28.7541 157.029 28.6688 157.114Z"
      fill="#263238" />
    <path
      d="M22.14 137.188C22.1827 137.273 20.8599 137.785 19.3664 139.406C17.8303 140.985 16.2514 143.759 15.8674 147.087C15.6967 148.751 15.8247 150.373 16.0808 151.781C16.3368 153.232 16.6781 154.512 16.9768 155.579C17.2755 156.645 17.5742 157.499 17.7449 158.096C17.9156 158.694 18.0436 159.035 18.0009 159.035C18.0009 159.035 17.8303 158.736 17.6169 158.139C17.4036 157.541 17.0622 156.731 16.7635 155.664C16.4221 154.597 16.0808 153.317 15.8247 151.866C15.5687 150.415 15.398 148.794 15.5687 147.044C15.9527 143.631 17.6169 140.772 19.1957 139.236C20.0065 138.425 20.7319 137.913 21.2866 137.614C21.5426 137.444 21.7986 137.358 21.9267 137.273C22.0547 137.23 22.14 137.188 22.14 137.188Z"
      fill="#263238" />
    <path
      d="M26.4916 159.248C26.4062 159.206 27.217 158.011 27.9424 155.835C28.6678 153.701 29.3078 150.501 28.7958 147.044C28.5824 145.338 28.0704 143.716 27.4303 142.351C26.7903 140.985 25.9368 139.876 25.1261 139.108C24.2727 138.34 23.4193 137.913 22.8645 137.657C22.2671 137.401 21.9258 137.358 21.9258 137.315C21.9258 137.315 22.0111 137.315 22.1818 137.315C22.3525 137.358 22.6085 137.401 22.9072 137.529C23.5046 137.742 24.4007 138.169 25.2968 138.894C26.1502 139.662 27.0463 140.772 27.729 142.18C28.3691 143.588 28.9238 145.21 29.1372 146.959C29.6492 150.501 28.9665 153.744 28.1984 155.877C28.0277 156.432 27.7717 156.901 27.601 157.328C27.3876 157.755 27.217 158.096 27.089 158.395C26.7049 158.95 26.4916 159.248 26.4916 159.248Z"
      fill="#263238" />
    <path d="M14.1641 158.479H31.7018L31.8298 162.021H14.1641V158.479Z" fill="#00B3D9" />
    <path d="M15.6602 160.229L16.6416 170.982H29.4855L30.5096 160.357L15.6602 160.229Z" fill="#00B3D9" />
    <path
      d="M31.8298 162.064C31.8298 162.15 27.8614 162.235 22.9969 162.235C18.1324 162.235 14.1641 162.15 14.1641 162.064C14.1641 161.979 18.1324 161.894 22.9969 161.894C27.8614 161.894 31.8298 161.979 31.8298 162.064Z"
      fill="#263238" />
    <path
      d="M30.0381 165.307C30.0381 165.307 29.9527 165.563 29.654 165.99C29.398 166.416 28.9286 166.971 28.2886 167.611L28.2032 167.696L28.1179 167.611C27.2645 166.715 26.1124 165.648 24.6615 164.581H24.8749C24.4055 165.008 23.8935 165.477 23.3388 165.904C22.6987 166.459 22.1013 166.971 21.5466 167.483L21.4612 167.568L21.3759 167.483C20.2665 166.544 19.285 165.734 18.4316 165.008H18.6023C18.0049 165.734 17.4929 166.374 17.0661 166.843C16.6821 167.27 16.4688 167.526 16.4688 167.483C16.4688 167.483 16.6394 167.227 16.9381 166.758C17.3222 166.246 17.7915 165.606 18.3889 164.837L18.4743 164.752L18.5596 164.837C19.413 165.52 20.4371 166.331 21.5466 167.27H21.3332C21.8879 166.758 22.528 166.246 23.1254 165.691C23.6374 165.221 24.1495 164.795 24.6615 164.368L24.7469 164.283L24.8322 164.368C26.283 165.435 27.4352 166.544 28.2459 167.483H28.0752C29.4407 166.246 29.9954 165.264 30.0381 165.307Z"
      fill="#263238" />
    <path
      d="M241.181 168.038H55.1792C51.7655 168.038 48.9492 165.264 48.9492 161.808V43.0122C48.9492 39.5985 51.7228 36.7822 55.1792 36.7822H241.181C244.595 36.7822 247.411 39.5558 247.411 43.0122V161.808C247.411 165.264 244.638 168.038 241.181 168.038Z"
      fill="#455A64" />
    <path
      d="M249.88 171.025H50.0524C45.8707 171.025 42.457 167.611 42.457 163.429V159.546H257.475V163.429C257.475 167.654 254.062 171.025 249.88 171.025Z"
      fill="#455A64" />
    <path d="M128.609 158.309L131.298 162.576H168.805L171.323 158.309H128.609Z" fill="#263238" />
    <path
      d="M245.693 158.309C245.693 158.395 201.657 158.437 147.337 158.437C93.0168 158.437 48.9805 158.395 48.9805 158.309C48.9805 158.224 93.0168 158.181 147.337 158.181C201.657 158.181 245.693 158.266 245.693 158.309Z"
      fill="#263238" />
    <path
      d="M239.56 154.853H56.0331C55.2651 154.853 54.625 154.213 54.625 153.445V45.7436C54.625 44.9755 55.2651 44.3354 56.0331 44.3354H239.56C240.328 44.3354 240.968 44.9755 240.968 45.7436V153.445C240.926 154.255 240.328 154.853 239.56 154.853Z"
      fill="#EBEBEB" />
    <path d="M240.75 155.023H54.4492L54.6199 52.6128H240.75V155.023Z" fill="white" />
    <path
      d="M69.9323 48.6033C69.9323 49.4141 69.2495 50.0968 68.4388 50.0968C67.628 50.0968 66.9453 49.4141 66.9453 48.6033C66.9453 47.7926 67.628 47.1099 68.4388 47.1099C69.2495 47.1099 69.9323 47.7926 69.9323 48.6033Z"
      fill="#263238" />
    <path
      d="M60.8932 48.6019C60.8932 49.4126 60.2105 50.0954 59.3997 50.0954C58.589 50.0954 57.9062 49.4126 57.9062 48.6019C57.9062 47.7911 58.589 47.1084 59.3997 47.1084C60.2531 47.1511 60.8932 47.7911 60.8932 48.6019Z"
      fill="#263238" />
    <path
      d="M65.2448 48.6019C65.2448 49.4126 64.562 50.0954 63.7513 50.0954C62.9405 50.0954 62.2578 49.4126 62.2578 48.6019C62.2578 47.7911 62.9405 47.1084 63.7513 47.1084C64.562 47.1511 65.2448 47.7911 65.2448 48.6019Z"
      fill="#263238" />
    <path d="M240.963 145.124H54.4492V155.023H240.963V145.124Z" fill="#263238" />
    <path
      d="M61.489 151.225V151.524H59.9955V151.268L60.8062 150.5C61.0196 150.329 61.0196 150.201 61.0196 150.073C61.0196 149.902 60.8916 149.774 60.6356 149.774C60.4222 149.774 60.2942 149.86 60.1662 149.988L59.9102 149.774C60.0808 149.561 60.3369 149.433 60.6782 149.433C61.1049 149.433 61.4036 149.646 61.4036 150.03C61.4036 150.244 61.361 150.415 61.0623 150.671L60.5076 151.183H61.489V151.225Z"
      fill="white" />
    <path
      d="M61.6992 150.244C61.6992 150.116 61.7846 149.988 61.9552 149.988C62.0833 149.988 62.2113 150.073 62.2113 150.244C62.2113 150.372 62.1259 150.5 61.9552 150.5C61.7846 150.457 61.6992 150.372 61.6992 150.244ZM61.6992 151.311C61.6992 151.183 61.7846 151.055 61.9552 151.055C62.0833 151.055 62.2113 151.14 62.2113 151.311C62.2113 151.439 62.1259 151.567 61.9552 151.567C61.7846 151.567 61.6992 151.439 61.6992 151.311Z"
      fill="white" />
    <path d="M63.1115 149.519V151.524H62.7275V149.817H62.3008V149.519H63.1115Z" fill="white" />
    <path
      d="M65.2844 151.097H64.943V151.567H64.6016V151.097H63.4922V150.841L64.4736 149.561H64.8577L63.9189 150.798H64.559V150.372H64.9003V150.798H65.2417V151.097H65.2844Z"
      fill="white" />
    <path d="M221.421 150.287H68.5742V150.969H221.421V150.287Z" fill="white" />
    <path d="M116.237 149.519H68.4883V151.397H116.237V149.519Z" fill="#00B3D9" />
    <path
      d="M117.772 150.628C117.772 151.908 116.748 152.975 115.425 152.975C114.145 152.975 113.078 151.95 113.078 150.628C113.078 149.348 114.102 148.281 115.425 148.281C116.748 148.281 117.772 149.348 117.772 150.628Z"
      fill="#00B3D9" />
    <path
      d="M225.301 150.585C225.301 150.969 224.96 151.225 224.576 151.225C224.021 151.225 223.723 150.884 223.723 150.244C223.723 149.561 224.107 149.177 224.704 149.177C224.917 149.177 225.088 149.219 225.216 149.305L225.088 149.603C224.96 149.518 224.832 149.518 224.704 149.518C224.32 149.518 224.064 149.774 224.064 150.201C224.192 150.073 224.363 149.988 224.619 149.988C225.003 149.988 225.301 150.244 225.301 150.585ZM224.917 150.628C224.917 150.414 224.747 150.286 224.533 150.286C224.277 150.286 224.107 150.414 224.107 150.628C224.107 150.798 224.277 150.969 224.533 150.969C224.789 150.969 224.917 150.841 224.917 150.628Z"
      fill="white" />
    <path
      d="M225.473 149.902C225.473 149.774 225.558 149.646 225.729 149.646C225.857 149.646 225.985 149.731 225.985 149.902C225.985 150.03 225.857 150.158 225.729 150.158C225.601 150.158 225.473 150.03 225.473 149.902ZM225.473 151.011C225.473 150.883 225.558 150.755 225.729 150.755C225.857 150.755 225.985 150.841 225.985 151.011C225.985 151.139 225.857 151.267 225.729 151.267C225.601 151.225 225.473 151.139 225.473 151.011Z"
      fill="white" />
    <path
      d="M226.195 150.201C226.195 149.518 226.537 149.177 227.049 149.177C227.518 149.177 227.902 149.561 227.902 150.201C227.902 150.884 227.561 151.225 227.049 151.225C226.537 151.268 226.195 150.884 226.195 150.201ZM227.475 150.201C227.475 149.731 227.305 149.475 227.006 149.475C226.75 149.475 226.537 149.689 226.537 150.201C226.537 150.67 226.707 150.926 227.006 150.926C227.305 150.926 227.475 150.713 227.475 150.201Z"
      fill="white" />
    <path
      d="M228.117 150.201C228.117 149.518 228.459 149.177 228.971 149.177C229.44 149.177 229.824 149.561 229.824 150.201C229.824 150.884 229.483 151.225 228.971 151.225C228.501 151.268 228.117 150.884 228.117 150.201ZM229.44 150.201C229.44 149.731 229.269 149.475 228.971 149.475C228.715 149.475 228.501 149.689 228.501 150.201C228.501 150.67 228.672 150.926 228.971 150.926C229.227 150.926 229.44 150.713 229.44 150.201Z"
      fill="white" />
    <path d="M233.069 150.073H232.387V148.068H234.392V148.793H233.069V150.073Z" fill="white" />
    <path d="M234.392 152.719H232.387V150.713H233.069V152.036H234.392V152.719Z" fill="white" />
    <path d="M237.588 152.719H235.582V152.036H236.862V150.713H237.588V152.719Z" fill="white" />
    <path d="M237.588 150.073H236.862V148.793H235.582V148.068H237.588V150.073Z" fill="white" />
    <path d="M80.01 58.7153H69.0009L63.5391 68.2309L69.0009 77.7038H80.01L85.4719 68.2309L80.01 58.7153Z"
      fill="#EBEBEB" />
    <path
      d="M69.9008 70.0661C69.4315 69.5114 68.9194 68.9567 68.578 68.3166C68.2367 67.6766 68.0233 66.9512 68.1087 66.2258C68.194 65.799 68.3647 65.415 68.3647 64.9883C68.4074 64.3909 68.1513 63.7935 68.3647 63.2388C68.706 62.3854 69.8582 62.2574 70.5409 61.66C71.0956 61.1906 71.3516 60.4652 71.949 60.0385C72.4611 59.6971 73.1438 59.6971 73.7839 59.7825C74.4239 59.8678 75.0213 60.0385 75.6614 59.9531C76.0881 59.9105 76.5148 59.6971 76.9415 59.6118C77.3682 59.4838 77.8376 59.4838 78.2643 59.6971C78.6484 59.9105 78.8617 60.4652 78.6057 60.8492C79.3311 60.5079 80.2272 61.0626 80.4405 61.8307C80.6539 62.5987 80.2272 63.4095 79.6298 63.9215C79.0324 64.4336 78.2216 64.6469 77.4536 64.8176C75.2347 65.2443 72.8451 64.9883 70.9676 63.7935"
      fill="#263238" />
    <path
      d="M80.1111 72.4128C80.0258 71.0473 79.6418 68.2737 79.3004 65.7561C78.9164 63.0252 76.4841 61.105 73.7532 61.2757H73.4972C70.5955 61.6597 69.2728 64.348 69.6995 67.2496L70.5529 77.7039H77.6789L77.5082 75.8691C77.4656 75.8691 80.2392 75.229 80.1111 72.4128Z"
      fill="#FFBE9D" />
    <path
      d="M77.466 75.8264C77.466 75.8264 75.7165 76.0824 73.7109 75.0156C73.7109 75.0156 74.735 76.9785 77.5086 76.5518L77.466 75.8264Z"
      fill="#EB996E" />
    <path
      d="M78.345 68.1461C78.3876 68.3594 78.217 68.5301 78.0036 68.5728C77.7902 68.6154 77.5769 68.4447 77.5769 68.2314C77.5342 68.018 77.7049 67.8474 77.9183 67.8047C78.1316 67.8047 78.345 67.9327 78.345 68.1461Z"
      fill="#263238" />
    <path
      d="M78.7544 67.1633C78.7117 67.206 78.3703 66.9927 77.9436 67.0353C77.5169 67.078 77.2182 67.2913 77.1755 67.2487C77.1329 67.206 77.1755 67.1207 77.3462 67.0353C77.4742 66.9073 77.6876 66.822 77.9863 66.7793C78.2423 66.7793 78.4983 66.8646 78.6264 66.95C78.7544 67.0353 78.797 67.1207 78.7544 67.1633Z"
      fill="#263238" />
    <path
      d="M74.2708 68.4449C74.3134 68.6582 74.1427 68.8289 73.9294 68.8716C73.716 68.9143 73.5027 68.7436 73.5027 68.5302C73.46 68.3169 73.6307 68.1462 73.844 68.1035C74.0574 68.1035 74.2708 68.2315 74.2708 68.4449Z"
      fill="#263238" />
    <path
      d="M74.5161 67.5486C74.4734 67.5913 74.132 67.4206 73.7053 67.4206C73.2786 67.4632 72.9799 67.6766 72.9373 67.6339C72.8946 67.5913 72.9373 67.5059 73.108 67.4206C73.236 67.2926 73.4493 67.2072 73.748 67.1646C74.004 67.1646 74.2601 67.2499 74.3881 67.3352C74.4734 67.4206 74.5161 67.5059 74.5161 67.5486Z"
      fill="#263238" />
    <path
      d="M76.3086 70.621C76.3086 70.5783 76.5646 70.5356 76.9913 70.4503C77.1193 70.4503 77.2046 70.4076 77.2046 70.3223C77.2046 70.2369 77.162 70.1089 77.1193 69.9809C76.9913 69.7249 76.8633 69.4262 76.7353 69.1702C76.1805 68.018 75.7965 67.0366 75.8392 67.0366C75.8818 67.0366 76.3512 67.9327 76.9059 69.1275C77.034 69.4262 77.162 69.6822 77.29 69.9382C77.3327 70.0662 77.418 70.1943 77.3753 70.3649C77.3327 70.4503 77.29 70.5356 77.2046 70.5356C77.1193 70.5783 77.0766 70.5783 77.034 70.5783C76.5646 70.621 76.3086 70.6636 76.3086 70.621Z"
      fill="#263238" />
    <path
      d="M74.5169 65.8417C74.4743 65.9697 74.0475 65.927 73.5355 66.0124C73.0234 66.0977 72.6394 66.2684 72.5541 66.183C72.5114 66.1404 72.5967 66.0124 72.7247 65.8843C72.8954 65.7563 73.1515 65.6283 73.4502 65.5856C73.7489 65.543 74.0475 65.543 74.2182 65.6283C74.4316 65.671 74.5169 65.7563 74.5169 65.8417Z"
      fill="#263238" />
    <path
      d="M78.5098 65.9277C78.4244 66.013 78.1257 65.9277 77.7844 65.9704C77.443 65.9704 77.1443 66.0984 77.059 65.9704C77.0163 65.9277 77.059 65.7997 77.187 65.7143C77.315 65.629 77.5283 65.5436 77.7844 65.501C78.0404 65.501 78.2538 65.5863 78.3818 65.6717C78.4671 65.757 78.5098 65.885 78.5098 65.9277Z"
      fill="#263238" />
    <path
      d="M70.0412 69.2977C69.9985 69.2977 68.0783 68.871 68.249 70.7912C68.4197 72.7114 70.5106 72.0713 70.5106 72.0287C70.5106 71.986 70.0412 69.2977 70.0412 69.2977Z"
      fill="#FFBE9D" />
    <path
      d="M69.6244 71.3867C69.6244 71.3867 69.5817 71.4294 69.5391 71.4294C69.4964 71.4721 69.411 71.4721 69.283 71.4721C69.0697 71.4294 68.8563 71.1307 68.8137 70.7467C68.771 70.576 68.8137 70.4053 68.8563 70.2773C68.899 70.1493 68.9843 70.0213 69.0697 69.9786C69.155 69.9359 69.2404 69.9786 69.283 70.0639C69.3257 70.1066 69.3257 70.1493 69.3257 70.1493C69.3257 70.1493 69.3684 70.1066 69.3257 70.0213C69.3257 69.9786 69.283 69.9359 69.2404 69.8933C69.1977 69.8506 69.1123 69.8506 69.0697 69.8506C68.9417 69.8933 68.8137 70.0213 68.7283 70.192C68.6856 70.3626 68.643 70.5333 68.6856 70.7467C68.7283 71.1307 68.9843 71.4721 69.2404 71.5148C69.3684 71.5574 69.4964 71.4721 69.5391 71.4294C69.6244 71.4294 69.6244 71.3867 69.6244 71.3867Z"
      fill="#EB996E" />
    <path
      d="M79.1221 63.1109C78.9941 63.879 77.458 64.5617 76.1352 64.5191C74.9404 64.4764 74.343 63.879 73.4896 63.495C72.9349 63.2389 72.9349 63.2389 72.2095 63.3669C71.6121 63.4523 71.3134 64.1777 70.972 64.6897C71.6121 66.0979 71.3561 67.7194 71.1 69.2128C71.0574 69.3835 71.0147 69.5542 70.8867 69.6822C70.6733 69.8529 70.3319 69.7676 70.1186 69.5542C69.7772 69.2555 69.6065 68.7861 69.5212 68.3168C69.2652 67.2927 69.1798 66.2259 69.3505 65.2018C69.5212 64.1777 69.9479 63.1536 70.6306 62.3855C71.5267 61.4041 72.8069 60.8494 74.1297 60.8067C75.4524 60.7214 76.7752 61.1481 77.842 61.8735C78.3541 62.1722 78.8234 62.5989 79.1221 63.1109Z"
      fill="#263238" />
    <path
      d="M76.5533 71.6019C76.212 71.4312 75.9133 71.3032 75.5719 71.1325C75.5292 71.0898 75.4439 71.0898 75.4012 71.0898C75.3159 71.0898 75.2732 71.1325 75.2305 71.2179C75.0172 71.4739 74.9318 71.9006 75.1025 72.1993C75.2732 72.498 75.6999 72.6687 76.0413 72.5406C76.3826 72.4126 76.5533 72.0286 76.5533 71.6019Z"
      fill="#EB996E" />
    <path
      d="M76.0832 72.6259C76.0832 72.6259 75.8699 72.7965 75.5285 72.6685C75.3578 72.6259 75.1445 72.4978 75.0165 72.2418C74.8884 72.0285 74.8458 71.7298 74.9311 71.4311C74.9738 71.3031 75.0591 71.175 75.1871 71.0897C75.2298 71.047 75.2725 71.0044 75.3578 70.9617C75.4005 70.919 75.5712 70.919 75.6138 70.9617C75.8272 71.0897 75.9979 71.175 76.1259 71.3031C76.4246 71.4737 76.5953 71.6444 76.5526 71.6444C76.5526 71.6871 76.3393 71.6017 76.0406 71.4311C75.8699 71.3457 75.6992 71.2604 75.5285 71.175C75.4858 71.175 75.4858 71.175 75.4432 71.175C75.4005 71.2177 75.3578 71.2177 75.3152 71.2604C75.2298 71.3457 75.1871 71.4311 75.1445 71.5591C75.0591 71.7724 75.1018 71.9858 75.1871 72.1991C75.2725 72.3698 75.4432 72.4978 75.5712 72.5832C75.8699 72.6685 76.0832 72.5832 76.0832 72.6259Z"
      fill="#263238" />
    <path
      d="M75.7875 68.2312C75.7448 68.2312 75.7875 68.0605 75.7022 67.7618C75.6168 67.4631 75.4035 67.0364 74.9768 66.695C74.5501 66.3537 73.8246 66.183 73.1419 66.439C72.4592 66.6523 71.9045 67.3777 71.9045 68.2312C71.9045 69.0846 72.4592 69.7673 73.1419 70.0233C73.8246 70.2794 74.5074 70.1087 74.9768 69.7673C75.4035 69.4259 75.6168 68.9992 75.7022 68.7005C75.7448 68.4018 75.7448 68.2312 75.7875 68.2312C75.7875 68.2312 75.7875 68.2738 75.7875 68.3592C75.7875 68.4445 75.7875 68.5725 75.7448 68.7432C75.7022 69.0419 75.4888 69.5113 75.0194 69.8953C74.5501 70.2794 73.782 70.4927 73.0566 70.2367C72.2885 69.9807 71.6484 69.2126 71.6484 68.2738C71.6484 67.3351 72.2885 66.5243 73.0566 66.311C73.8247 66.055 74.5927 66.2683 75.0194 66.6523C75.4888 67.0364 75.7022 67.5058 75.7448 67.8045C75.7875 67.9751 75.7875 68.1032 75.7875 68.1885C75.7875 68.1458 75.7875 68.2312 75.7875 68.2312Z"
      fill="#263238" />
    <path
      d="M80.5654 68.0177C80.5228 68.0177 80.5654 67.847 80.4801 67.5483C80.3948 67.2496 80.1814 66.8229 79.7547 66.5242C79.328 66.1829 78.6453 66.0122 78.0052 66.2682C77.3651 66.4816 76.7677 67.207 76.8104 68.0177C76.8104 68.8285 77.3651 69.5112 78.0052 69.7672C78.6453 70.0232 79.3707 69.8526 79.7547 69.5112C80.1814 69.2125 80.3948 68.7858 80.4801 68.4871C80.5228 68.1884 80.5228 68.0177 80.5654 68.0177C80.5654 68.0177 80.5654 68.0604 80.5654 68.1457C80.5654 68.2311 80.5654 68.3591 80.5228 68.4871C80.4801 68.7858 80.2667 69.2552 79.7974 69.5965C79.3707 69.9806 78.6026 70.1939 77.8772 69.8952C77.1518 69.6392 76.5117 68.8711 76.5117 67.975C76.5117 67.079 77.1518 66.2682 77.8772 66.0549C78.6026 65.7988 79.3707 66.0122 79.7974 66.3535C80.2667 66.7376 80.4374 67.1643 80.5228 67.463C80.5654 67.6337 80.5654 67.7617 80.5654 67.8044C80.5654 67.975 80.5654 68.0177 80.5654 68.0177Z"
      fill="#263238" />
    <path
      d="M76.6405 67.5907C76.5978 67.6334 76.4272 67.5053 76.1711 67.5053C75.9151 67.5053 75.7444 67.6334 75.7018 67.5907C75.6591 67.548 75.8298 67.292 76.1711 67.292C76.5125 67.292 76.7259 67.548 76.6405 67.5907Z"
      fill="#263238" />
    <path
      d="M71.8576 67.9324C71.9003 67.975 71.5162 68.3164 71.0042 68.7004C70.4921 69.0845 70.0654 69.3405 70.0228 69.2978C69.9801 69.2552 70.3641 68.9138 70.8762 68.5298C71.3882 68.1457 71.8576 67.8897 71.8576 67.9324Z"
      fill="#263238" />
    <path
      d="M111.499 68.1031C111.499 68.1458 106.549 68.2311 100.49 68.2311C94.3876 68.2311 89.4805 68.1885 89.4805 68.1031C89.4805 68.0178 94.4303 67.9751 100.49 67.9751C106.549 68.0178 111.499 68.0604 111.499 68.1031Z"
      fill="#263238" />
    <path
      d="M101.301 70.4073C101.301 70.45 98.6983 70.5353 95.4553 70.5353C92.2123 70.5353 89.6094 70.4927 89.6094 70.4073C89.6094 70.322 92.2123 70.2793 95.4553 70.2793C98.6556 70.322 101.301 70.3646 101.301 70.4073Z"
      fill="#263238" />
    <path
      d="M177.554 85.1714C177.554 85.1714 183.399 88.0303 185.49 95.4124C187.581 102.794 193.854 121.996 193.854 121.996C193.854 121.996 197.438 126.221 197.822 129.378C198.206 132.536 197.438 140.089 196.286 141.54C195.134 142.948 193.47 142.734 193.47 142.734L178.322 141.284L172.348 101.301L177.554 85.1714Z"
      fill="#00B3D9" />
    <path
      d="M127.413 84.4457C127.413 84.4457 116.575 87.8593 113.887 90.8036L122.762 132.109L122.634 145.124H174.01C174.01 144.484 174.479 101.855 174.479 101.855L177.552 85.1284L159.288 81.9281L155.704 79.1118L135.393 80.1359L132.321 83.2082L127.413 84.4457Z"
      fill="#00B3D9" />
    <g opacity="0.3">
      <path opacity="0.3"
        d="M131.508 120.289C131.338 119.948 131.124 119.564 130.74 119.478C130.1 119.35 129.716 120.076 129.503 120.673C127.839 125.409 125.62 129.762 122.761 133.858L122.633 140.216C125.62 137.699 128.564 135.01 130.484 131.597C132.404 128.14 133.13 123.873 131.508 120.289Z"
        fill="black" />
    </g>
    <path
      d="M113.846 90.8037C113.846 90.8037 110.262 95.6682 108.811 98.8685C107.317 102.026 95.0282 128.738 94.3028 131.512C93.5774 134.285 91.6572 142.947 97.2897 144.953H108.811L120.417 121.527L121.015 94.3027L113.846 90.8037Z"
      fill="#00B3D9" />
    <path
      d="M109.535 128.013C109.535 128.013 109.279 127.799 108.767 127.501C108.255 127.202 107.402 126.861 106.335 126.605C105.78 126.477 105.225 126.391 104.585 126.349C103.945 126.306 103.262 126.306 102.58 126.477C101.172 126.775 99.8061 127.671 98.6967 128.909C97.5873 130.146 96.9045 131.597 96.4778 133.005C96.0511 134.413 95.8804 135.694 95.7951 136.803C95.6671 137.912 95.6671 138.766 95.6244 139.406C95.6244 139.705 95.5817 139.918 95.5817 140.131C95.5817 140.302 95.5391 140.387 95.5391 140.387C95.5391 140.387 95.5391 140.302 95.5391 140.131C95.5391 139.961 95.5391 139.705 95.5391 139.406C95.5391 138.809 95.5817 137.912 95.6671 136.803C95.7524 135.694 95.9231 134.371 96.3071 132.963C96.6912 131.555 97.4166 130.061 98.526 128.781C99.6355 127.501 101.086 126.605 102.537 126.306C103.262 126.135 103.988 126.135 104.628 126.178C105.268 126.221 105.865 126.349 106.42 126.477C107.487 126.733 108.34 127.117 108.852 127.415C109.108 127.586 109.322 127.714 109.407 127.842C109.492 127.97 109.535 128.013 109.535 128.013Z"
      fill="#263238" />
    <path
      d="M104.074 123.362C104.074 123.362 104.202 123.319 104.458 123.319C104.714 123.276 105.098 123.276 105.525 123.319C105.994 123.319 106.506 123.404 107.104 123.532C107.701 123.66 108.299 123.874 108.939 124.173C109.579 124.471 110.133 124.813 110.603 125.197C111.072 125.581 111.456 125.922 111.755 126.263C112.054 126.605 112.267 126.903 112.438 127.117C112.566 127.33 112.651 127.458 112.651 127.458C112.608 127.501 112.31 127.031 111.67 126.391C111.371 126.05 110.944 125.709 110.475 125.367C110.005 125.026 109.451 124.685 108.853 124.386C108.256 124.087 107.616 123.874 107.061 123.746C106.506 123.618 105.952 123.49 105.525 123.49C104.629 123.362 104.074 123.404 104.074 123.362Z"
      fill="#263238" />
    <path
      d="M114.528 122.082C114.528 122.082 114.315 122.082 113.973 122.039C113.632 121.996 113.12 121.954 112.523 121.911C111.285 121.826 109.621 121.783 107.743 121.996C105.866 122.21 104.244 122.636 103.092 123.02C102.495 123.191 102.026 123.362 101.727 123.49C101.386 123.618 101.215 123.66 101.215 123.66C101.215 123.66 101.386 123.575 101.684 123.404C101.983 123.276 102.452 123.063 103.05 122.85C104.202 122.423 105.866 121.996 107.743 121.74C109.621 121.527 111.328 121.569 112.565 121.698C113.163 121.783 113.675 121.826 114.016 121.911C114.315 121.996 114.528 122.039 114.528 122.082Z"
      fill="#263238" />
    <path
      d="M147.386 99.2526C147.386 99.2526 147.343 99.2099 147.258 99.1246C147.173 98.9966 147.087 98.8686 146.959 98.6979C146.661 98.3139 146.277 97.7591 145.807 97.0764C144.826 95.6683 143.418 93.7054 141.796 91.4012L141.967 91.3585C141.327 93.1934 140.644 95.1989 139.919 97.3324L139.876 97.4604L139.748 97.3751C139.663 97.3324 139.577 97.2898 139.492 97.2044C138.553 96.607 137.7 95.8816 136.974 95.0709C136.249 94.2601 135.652 93.4494 135.182 92.596C134.201 90.8891 133.603 89.225 133.219 87.8168C132.835 86.4087 132.622 85.2139 132.451 84.4032C132.366 84.0191 132.323 83.7204 132.281 83.4644C132.281 83.3791 132.238 83.2937 132.238 83.2084C132.238 83.1657 132.195 83.123 132.195 83.123C132.238 83.123 132.366 83.5498 132.537 84.3605C132.707 85.1712 132.921 86.3234 133.347 87.7315C133.774 89.1396 134.372 90.7611 135.353 92.468C135.822 93.2787 136.42 94.1321 137.145 94.9002C137.871 95.6683 138.681 96.3937 139.62 96.9911C139.705 97.0337 139.791 97.0764 139.876 97.1617L139.705 97.2044C140.431 95.0709 141.114 93.0653 141.754 91.2305L141.839 91.0598L141.967 91.2305C143.588 93.5774 144.954 95.5403 145.935 96.9484C146.405 97.6311 146.789 98.1858 147.045 98.5699C147.173 98.7406 147.258 98.9113 147.343 98.9966C147.386 99.2099 147.429 99.2526 147.386 99.2526Z"
      fill="#263238" />
    <g opacity="0.3">
      <path opacity="0.3"
        d="M160.784 118.966C160.315 123.745 161.382 128.653 163.771 132.834C166.161 136.973 169.66 140.686 174.012 142.691C174.14 138.467 173.969 133.474 174.097 129.207L160.784 118.966Z"
        fill="black" />
    </g>
    <path
      d="M160.313 113.377C160.313 113.377 158.436 113.889 159.844 117.729C161.252 121.57 161.722 121.314 162.66 124.898C163.599 128.482 164.666 131.725 166.33 133.773C167.951 135.779 174.011 139.918 174.011 139.918L179.473 134.798C179.473 134.798 178.576 130.957 178.79 128.354C179.003 125.751 179.558 119.393 179.473 118.284C179.387 117.175 178.235 114.572 178.235 114.572V112.779L175.419 104.16C175.419 104.16 173.883 103.477 173.328 105.952L172.389 103.306C172.389 103.306 170.896 103.05 170.512 106.123C170.128 109.152 170.81 113.377 170.81 113.377L170.042 118.668L168.89 122.252L167.866 122.423C167.866 122.423 166.33 121.996 165.519 119.137C164.666 116.193 162.404 112.779 160.313 113.377Z"
      fill="#FFBE9D" />
    <path
      d="M177.598 126.945C177.598 126.945 177.598 126.86 177.555 126.732C177.555 126.604 177.513 126.39 177.513 126.177C177.47 125.665 177.427 124.939 177.385 124.043C177.299 122.166 177.171 119.606 177.043 116.576L177.086 116.619C176.83 116.32 176.403 116.235 175.977 116.32C175.55 116.405 175.209 116.661 174.953 117.045C174.483 117.813 174.44 118.795 174.312 119.776C174.014 121.953 173.715 124.043 173.459 125.921C173.331 126.86 173.203 127.756 172.99 128.609C172.819 129.463 172.563 130.188 172.307 130.871C172.051 131.553 171.838 132.151 171.71 132.706C171.582 133.26 171.539 133.73 171.539 134.156C171.539 134.967 171.795 135.351 171.752 135.394C171.752 135.394 171.71 135.308 171.624 135.095C171.582 134.882 171.454 134.583 171.454 134.156C171.411 133.73 171.454 133.26 171.582 132.706C171.71 132.151 171.923 131.511 172.136 130.828C172.392 130.145 172.606 129.42 172.776 128.566C172.947 127.756 173.075 126.86 173.203 125.921C173.459 124.043 173.715 121.953 174.014 119.776C174.099 119.307 174.142 118.795 174.227 118.325C174.312 117.856 174.44 117.387 174.696 116.96C174.953 116.533 175.379 116.235 175.849 116.149C176.318 116.021 176.83 116.149 177.171 116.491L177.214 116.533V116.576C177.299 119.606 177.427 122.166 177.47 124.043C177.513 124.939 177.513 125.665 177.513 126.177C177.513 126.39 177.513 126.604 177.513 126.732C177.641 126.86 177.598 126.945 177.598 126.945Z"
      fill="#EB996E" />
    <path
      d="M174.651 117.131C174.651 117.131 174.565 116.96 174.437 116.661C174.309 116.32 174.139 115.851 173.968 115.253C173.797 114.656 173.669 113.93 173.584 113.12C173.541 112.693 173.498 112.266 173.541 111.84C173.584 111.37 173.712 110.901 174.01 110.517C174.267 110.175 174.608 109.877 174.992 109.749L175.077 109.706L175.12 109.791C175.888 111.2 176.613 112.394 177.083 113.29C177.296 113.717 177.509 114.058 177.638 114.314C177.766 114.571 177.808 114.699 177.808 114.699C177.808 114.699 177.723 114.571 177.552 114.357C177.381 114.101 177.168 113.76 176.955 113.333C176.443 112.48 175.717 111.242 174.949 109.877L175.077 109.919C174.736 110.005 174.437 110.261 174.181 110.602C173.925 110.986 173.797 111.413 173.754 111.84C173.712 112.266 173.712 112.693 173.754 113.077C173.84 113.888 173.968 114.613 174.096 115.211C174.224 115.808 174.395 116.277 174.48 116.619C174.608 116.917 174.651 117.131 174.651 117.131Z"
      fill="#EB996E" />
    <path
      d="M173.329 117.815C173.329 117.815 173.286 117.644 173.286 117.303C173.286 116.919 173.243 116.492 173.243 115.937C173.201 114.785 173.158 113.206 173.158 111.457C173.158 109.707 173.073 108.128 173.243 106.976C173.329 106.422 173.414 105.952 173.542 105.653C173.627 105.355 173.713 105.184 173.755 105.184C173.798 105.184 173.499 105.867 173.414 106.976C173.286 108.086 173.414 109.707 173.414 111.414C173.457 113.164 173.457 114.742 173.457 115.894C173.457 116.449 173.457 116.876 173.457 117.26C173.371 117.644 173.329 117.815 173.329 117.815Z"
      fill="#EB996E" />
    <path
      d="M168.722 132.152C168.68 132.109 169.021 131.725 169.448 130.999C169.661 130.658 169.874 130.189 170.088 129.677C170.301 129.165 170.472 128.567 170.557 127.927C170.685 127.287 170.728 126.69 170.728 126.135C170.728 125.58 170.685 125.068 170.6 124.684C170.472 123.873 170.301 123.361 170.301 123.361C170.301 123.361 170.387 123.489 170.472 123.703C170.557 123.916 170.643 124.257 170.771 124.684C170.856 125.111 170.941 125.623 170.941 126.178C170.941 126.732 170.899 127.372 170.813 128.012C170.685 128.653 170.515 129.25 170.301 129.762C170.088 130.274 169.832 130.743 169.618 131.085C169.405 131.426 169.192 131.725 169.021 131.895C168.85 132.066 168.722 132.194 168.722 132.152Z"
      fill="#EB996E" />
    <path
      d="M178.278 129.506L183.015 131.128C183.015 131.128 187.538 128.781 190.653 131.128C193.768 133.475 196.456 139.619 195.603 142.094C195.603 142.094 193.469 144.74 191.805 145.124C190.184 145.508 183.826 143.972 181.18 143.417C178.535 142.862 173.969 139.918 173.969 139.918L178.278 129.506Z"
      fill="#FFBE9D" />
    <path
      d="M178.874 136.461C178.874 136.461 178.831 136.333 178.831 136.034C178.831 135.735 178.788 135.351 178.746 134.882C178.703 133.901 178.618 132.578 178.618 131.127C178.575 129.634 178.618 128.311 178.746 127.329C178.788 126.86 178.831 126.476 178.874 126.177C178.916 125.921 178.959 125.75 178.959 125.75C179.002 125.75 178.916 126.348 178.874 127.329C178.831 128.311 178.788 129.634 178.831 131.084C178.874 132.535 178.874 133.815 178.916 134.839C178.916 135.309 178.916 135.693 178.916 135.991C178.874 136.29 178.874 136.461 178.874 136.461Z"
      fill="#EB996E" />
    <path
      d="M194.449 130.957C194.407 131 193.937 130.317 192.871 129.549C191.846 128.781 190.14 127.928 188.177 127.842C186.171 127.714 184.422 128.354 183.312 129.037C182.16 129.677 181.605 130.317 181.605 130.274C181.605 130.274 181.733 130.104 181.99 129.848C182.246 129.592 182.672 129.25 183.227 128.909C184.336 128.226 186.129 127.543 188.177 127.629C190.225 127.757 191.932 128.61 192.956 129.421C193.468 129.848 193.852 130.232 194.108 130.488C194.321 130.786 194.449 130.957 194.449 130.957Z"
      fill="#263238" />
    <path
      d="M193.854 126.989C193.811 127.032 193.214 126.391 191.891 125.922C190.611 125.41 188.605 125.197 186.557 125.751C185.533 126.05 184.594 126.434 183.826 126.904C183.015 127.373 182.375 127.842 181.821 128.312C181.309 128.781 180.882 129.165 180.626 129.421C180.327 129.677 180.199 129.848 180.199 129.848C180.199 129.848 180.327 129.677 180.583 129.378C180.839 129.08 181.223 128.653 181.735 128.184C182.247 127.714 182.93 127.202 183.741 126.733C184.552 126.263 185.49 125.837 186.515 125.538C188.605 124.941 190.654 125.197 191.934 125.751C192.574 126.007 193.086 126.349 193.385 126.562C193.555 126.69 193.641 126.776 193.726 126.861C193.811 126.946 193.854 126.989 193.854 126.989Z"
      fill="#263238" />
    <path
      d="M193.898 123.575C193.898 123.617 193.044 123.361 191.679 123.19C190.996 123.105 190.185 123.02 189.247 123.02C188.351 123.02 187.327 123.105 186.302 123.276C185.278 123.447 184.297 123.745 183.443 124.044C182.59 124.343 181.822 124.684 181.225 125.025C179.987 125.665 179.304 126.177 179.262 126.135C179.262 126.135 179.432 126.007 179.731 125.751C179.902 125.623 180.072 125.495 180.328 125.367C180.585 125.239 180.841 125.025 181.139 124.897C181.737 124.556 182.505 124.215 183.358 123.873C184.212 123.575 185.193 123.276 186.26 123.105C187.327 122.934 188.351 122.849 189.247 122.849C190.185 122.849 190.996 122.934 191.679 123.062C192.02 123.105 192.319 123.19 192.618 123.233C192.874 123.276 193.13 123.361 193.3 123.404C193.684 123.489 193.898 123.575 193.898 123.575Z"
      fill="#263238" />
    <path
      d="M157.669 81.8003C157.669 81.8003 157.883 82.227 158.011 83.0378C158.139 83.8912 158.096 85.1286 157.84 86.7074C157.712 87.4755 157.499 88.3289 157.243 89.2677C156.944 90.1638 156.517 91.1025 156.005 92.1266C154.981 94.0895 153.701 96.223 152.208 98.5273L152.037 98.7833V98.4846C152.037 96.9911 152.037 95.4123 152.037 93.7481L152.208 93.8335C150.927 94.8576 149.605 95.9243 148.239 97.0338L148.282 96.9911C147.343 99.9354 146.746 103.178 146.49 106.549C146.106 111.755 146.404 116.705 146.66 121.228C146.874 125.751 147.002 129.805 147.13 133.219C147.258 136.632 147.386 139.406 147.471 141.283C147.514 142.222 147.556 142.948 147.599 143.46C147.599 143.716 147.642 143.886 147.642 144.014C147.642 144.142 147.642 144.228 147.642 144.228C147.642 144.228 147.642 144.142 147.599 144.014C147.599 143.886 147.556 143.673 147.556 143.46C147.514 142.948 147.428 142.222 147.386 141.283C147.258 139.363 147.13 136.632 146.959 133.219C146.788 129.805 146.618 125.751 146.404 121.228C146.148 116.705 145.807 111.755 146.234 106.549C146.49 103.136 147.087 99.8501 148.026 96.9058V96.8631H148.069C149.434 95.7537 150.799 94.6869 152.08 93.6628L152.25 93.5348V93.7481C152.25 95.4123 152.25 96.9911 152.25 98.4846L152.08 98.4419C155.024 93.8761 157.413 89.9504 157.755 86.7501C158.054 85.214 158.096 83.9338 157.968 83.1231C157.925 82.6964 157.84 82.3977 157.797 82.1843C157.712 81.9283 157.669 81.8003 157.669 81.8003Z"
      fill="#263238" />
    <path
      d="M150.03 136.846H149.859C149.262 136.846 148.707 137.443 148.707 138.04C148.707 138.638 149.262 139.235 149.859 139.235C150.457 139.278 151.054 138.723 151.097 138.126C151.139 137.528 150.627 136.931 150.03 136.846Z"
      fill="white" />
    <path
      d="M150.03 120.417H149.859C149.262 120.417 148.707 121.014 148.707 121.611C148.707 122.209 149.262 122.806 149.859 122.806C150.457 122.849 151.054 122.294 151.097 121.697C151.139 121.057 150.627 120.459 150.03 120.417Z"
      fill="white" />
    <path
      d="M149.859 105.695C150.457 105.738 151.054 105.183 151.097 104.586C151.139 103.988 150.627 103.348 150.03 103.306H149.859C149.262 103.306 148.707 103.903 148.707 104.5C148.707 105.098 149.262 105.653 149.859 105.695Z"
      fill="white" />
    <path
      d="M131.425 62.5558C129.932 60.8916 128.438 59.2275 127.329 57.2646C126.22 55.3018 125.58 53.0402 125.964 50.8213C126.177 49.5412 126.732 48.3037 126.817 47.0236C126.945 45.2314 126.177 43.3539 126.817 41.6898C127.798 39.0442 131.34 38.6601 133.474 36.8253C135.138 35.4172 135.949 33.1129 137.783 31.9181C139.405 30.894 141.453 30.894 143.331 31.1501C145.208 31.4061 147.128 31.8755 149.006 31.6194C150.371 31.4488 151.609 30.894 152.931 30.5527C154.254 30.2113 155.748 30.126 156.9 30.8087C158.095 31.4914 158.735 33.1556 157.967 34.265C160.143 33.2409 162.959 34.9478 163.557 37.2947C164.154 39.6416 162.959 42.1591 161.082 43.6953C159.204 45.2314 156.815 45.9568 154.425 46.3836C147.726 47.6637 140.429 46.9383 134.626 43.3113"
      fill="#263238" />
    <path
      d="M155.067 85.1276C154.726 82.5674 154.47 80.4765 154.47 80.1778C154.47 80.1778 162.961 78.2576 162.492 69.6808C162.279 65.5417 161.084 57.0076 159.974 49.3268C158.737 41.0487 151.355 35.1174 143.034 35.6721L142.223 35.7148C133.305 36.8243 129.294 45.0171 130.659 53.8926L135.481 83.6341C135.481 83.6341 137.529 90.2055 141.925 91.3576L147.472 99.2517L148.368 95.838L152.507 92.2537C152.507 92.2537 153.446 91.2296 154.555 89.224C155.366 87.6025 155.195 85.9384 155.067 85.1276Z"
      fill="#FFBE9D" />
    <path
      d="M154.483 80.0934C154.483 80.0934 149.064 80.9041 143.09 77.6611C143.09 77.6611 146.162 83.6777 154.654 82.3122L154.483 80.0934Z"
      fill="#EB996E" />
    <path
      d="M157.195 56.7084C157.281 57.3485 156.769 57.9459 156.086 58.0312C155.403 58.1166 154.806 57.6472 154.763 57.0071C154.678 56.3671 155.19 55.7697 155.873 55.6843C156.513 55.599 157.11 56.0684 157.195 56.7084Z"
      fill="#263238" />
    <path
      d="M158.405 53.6776C158.277 53.8483 157.296 53.2082 155.973 53.2936C154.65 53.3789 153.712 54.1043 153.584 53.9763C153.498 53.891 153.626 53.5923 154.053 53.2936C154.437 52.9522 155.12 52.6108 155.973 52.5682C156.784 52.5255 157.509 52.7815 157.936 53.0375C158.32 53.2936 158.491 53.5923 158.405 53.6776Z"
      fill="#263238" />
    <path
      d="M144.715 57.603C144.8 58.243 144.288 58.8404 143.606 58.9258C142.923 59.0111 142.325 58.5417 142.283 57.9017C142.197 57.2616 142.709 56.6642 143.392 56.5789C144.032 56.4935 144.63 56.9629 144.715 57.603Z"
      fill="#263238" />
    <path
      d="M145.405 54.7884C145.277 54.9591 144.296 54.3191 142.973 54.4044C141.65 54.4897 140.712 55.2152 140.584 55.0871C140.498 55.0018 140.626 54.7031 141.053 54.4044C141.437 54.063 142.12 53.7217 142.973 53.679C143.784 53.6363 144.509 53.8924 144.936 54.1484C145.32 54.4044 145.491 54.7031 145.405 54.7884Z"
      fill="#263238" />
    <path
      d="M150.86 64.2617C150.86 64.1764 151.67 64.0057 152.993 63.7497C153.334 63.707 153.633 63.6217 153.676 63.3656C153.718 63.1096 153.59 62.7682 153.377 62.3842C152.993 61.5735 152.609 60.7627 152.225 59.8666C150.604 56.3249 149.409 53.3807 149.537 53.2953C149.665 53.21 151.116 56.0689 152.737 59.6106C153.121 60.5067 153.505 61.3174 153.846 62.1282C154.017 62.5122 154.231 62.9389 154.103 63.451C154.017 63.707 153.804 63.9204 153.59 63.963C153.377 64.0484 153.206 64.0484 153.036 64.091C151.713 64.2617 150.86 64.3044 150.86 64.2617Z"
      fill="#263238" />
    <path
      d="M145.409 49.5827C145.324 49.9667 143.958 49.8814 142.422 50.1374C140.886 50.3934 139.649 50.9482 139.435 50.6068C139.35 50.4788 139.521 50.0947 139.99 49.7107C140.459 49.3267 141.227 48.9426 142.166 48.772C143.105 48.6013 143.958 48.6866 144.513 48.9C145.153 49.156 145.452 49.412 145.409 49.5827Z"
      fill="#263238" />
    <path
      d="M157.666 49.8816C157.453 50.1803 156.514 49.9669 155.447 50.0096C154.338 50.0096 153.442 50.351 153.228 50.0523C153.143 49.9243 153.271 49.5829 153.655 49.2842C154.039 48.9855 154.679 48.6868 155.447 48.6868C156.215 48.6441 156.855 48.9002 157.282 49.1562C157.581 49.4122 157.752 49.7109 157.666 49.8816Z"
      fill="#263238" />
    <path
      d="M131.767 60.2507C131.596 60.2081 125.75 58.8853 126.348 64.7738C126.945 70.6197 133.26 68.7422 133.26 68.5715C133.26 68.3582 131.767 60.2507 131.767 60.2507Z"
      fill="#FFBE9D" />
    <path
      d="M130.659 66.609C130.616 66.609 130.573 66.6943 130.403 66.7797C130.232 66.865 129.976 66.9504 129.634 66.865C128.994 66.6943 128.354 65.7556 128.226 64.7315C128.141 64.2194 128.226 63.6647 128.354 63.238C128.482 62.8113 128.738 62.4699 129.037 62.3846C129.336 62.2992 129.592 62.4272 129.677 62.5979C129.762 62.7686 129.763 62.854 129.763 62.8966C129.763 62.8966 129.891 62.7686 129.805 62.5553C129.763 62.4273 129.677 62.2992 129.549 62.2139C129.378 62.1286 129.165 62.0859 128.952 62.1286C128.482 62.2139 128.141 62.6406 127.97 63.1527C127.8 63.622 127.714 64.2194 127.757 64.8168C127.928 66.0116 128.61 67.0357 129.506 67.2064C129.933 67.2917 130.275 67.121 130.445 66.9504C130.659 66.737 130.659 66.609 130.659 66.609Z"
      fill="#EB996E" />
    <path
      d="M159.504 41.3048C159.12 43.6517 154.384 45.7853 150.458 45.6573C146.831 45.5719 145.039 43.7371 142.436 42.4996C140.772 41.6889 140.772 41.6889 138.51 42.0729C136.675 42.3716 135.737 44.5051 134.713 46.0413C136.675 50.3084 135.865 55.2582 135.054 59.8666C134.969 60.3787 134.841 60.9334 134.456 61.2748C133.816 61.8722 132.75 61.4881 132.067 60.9334C131.043 59.9947 130.573 58.5865 130.232 57.2211C129.464 54.1061 129.165 50.8631 129.635 47.7055C130.147 44.5478 131.427 41.4755 133.603 39.086C136.291 36.1417 140.26 34.4348 144.271 34.2215C148.282 34.0081 152.293 35.2456 155.621 37.4645C157.2 38.4459 158.651 39.6833 159.504 41.3048Z"
      fill="#263238" />
    <path
      d="M151.736 67.2072C150.754 66.7378 149.73 66.2684 148.749 65.799C148.578 65.7137 148.407 65.6283 148.194 65.671C147.981 65.7137 147.81 65.8417 147.682 66.0124C146.999 66.8658 146.829 68.1033 147.341 69.0847C147.895 70.0234 149.133 70.5355 150.157 70.1088C151.224 69.6821 151.736 68.4446 151.821 67.2925L151.736 67.2072Z"
      fill="#EB996E" />
    <path
      d="M150.241 70.3208C150.241 70.3635 150.113 70.4488 149.814 70.4915C149.515 70.5342 149.046 70.5768 148.534 70.4061C148.022 70.2355 147.425 69.8088 147.041 69.1687C146.657 68.5286 146.529 67.6325 146.87 66.8218C147.041 66.4378 147.254 66.0537 147.553 65.7977C147.723 65.6697 147.851 65.5417 148.022 65.4137C148.107 65.371 148.235 65.3283 148.363 65.2856C148.491 65.2856 148.619 65.3283 148.705 65.371C148.918 65.4563 149.046 65.5417 149.174 65.627C149.302 65.7124 149.43 65.7977 149.601 65.883C149.857 66.0537 150.113 66.1817 150.326 66.3524C151.222 66.9071 151.734 67.2912 151.734 67.3338C151.692 67.3765 151.094 67.1205 150.198 66.6084C149.942 66.4804 149.729 66.3524 149.43 66.1817C149.302 66.0964 149.174 66.0111 149.003 65.9684C148.875 65.883 148.705 65.7977 148.577 65.755C148.449 65.7124 148.363 65.7124 148.235 65.7977C148.107 65.883 147.979 65.9684 147.851 66.0964C147.595 66.3524 147.382 66.6511 147.254 66.9925C146.998 67.6752 147.083 68.4433 147.382 68.998C147.681 69.5527 148.15 69.9368 148.619 70.1501C149.089 70.3208 149.473 70.3635 149.771 70.3635C150.07 70.3208 150.241 70.2781 150.241 70.3208Z"
      fill="#263238" />
    <path
      d="M149.304 56.8795C149.262 56.8795 149.304 56.3247 149.091 55.386C148.835 54.4472 148.237 53.1244 146.872 52.0577C146.189 51.5456 145.336 51.1189 144.312 50.9482C143.33 50.7775 142.221 50.8202 141.154 51.2042C140.599 51.3749 140.087 51.6736 139.618 52.015C139.149 52.3564 138.722 52.7831 138.338 53.2951C137.612 54.2765 137.186 55.5567 137.186 56.8368C137.186 58.1596 137.612 59.397 138.338 60.3785C138.679 60.8905 139.149 61.3172 139.618 61.6586C140.087 62 140.599 62.2987 141.154 62.4693C142.221 62.8534 143.33 62.896 144.312 62.7254C145.293 62.5547 146.189 62.128 146.872 61.6159C148.237 60.5491 148.878 59.2264 149.091 58.2876C149.304 57.3915 149.304 56.8368 149.304 56.8795C149.304 56.8795 149.304 56.9221 149.304 56.9648C149.304 57.0501 149.304 57.1355 149.304 57.2635C149.304 57.3915 149.304 57.5622 149.262 57.7329C149.219 57.9036 149.219 58.1169 149.134 58.3729C149.048 58.8423 148.835 59.4397 148.451 60.0371C148.109 60.6345 147.597 61.2746 146.915 61.7866C146.232 62.2987 145.336 62.768 144.312 62.9814C143.288 63.1521 142.136 63.1521 141.026 62.7254C140.471 62.5547 139.959 62.256 139.447 61.8719C138.935 61.5306 138.509 61.0612 138.124 60.5491C137.356 59.525 136.93 58.2023 136.93 56.8795C136.93 55.514 137.356 54.2339 138.124 53.2098C138.509 52.6977 138.935 52.2283 139.447 51.887C139.917 51.5029 140.471 51.2469 141.026 51.0336C142.136 50.6068 143.288 50.6069 144.312 50.7775C145.336 50.9482 146.232 51.4176 146.915 51.9723C147.597 52.527 148.109 53.1244 148.493 53.7218C148.835 54.3192 149.048 54.8739 149.176 55.386C149.262 55.642 149.262 55.8554 149.304 56.026C149.347 56.1967 149.347 56.3674 149.347 56.4954C149.347 56.6234 149.347 56.7088 149.347 56.7941C149.304 56.8368 149.304 56.8795 149.304 56.8795Z"
      fill="#263238" />
    <path
      d="M163.943 56.2823C163.9 56.2823 163.943 55.7703 163.73 54.8315C163.516 53.9354 162.919 52.6126 161.553 51.5885C160.871 51.0765 160.06 50.6498 159.079 50.4791C158.097 50.3084 157.03 50.3511 156.006 50.7351C155.494 50.9058 154.982 51.2045 154.513 51.5459C154.043 51.8872 153.617 52.3139 153.275 52.7833C152.55 53.7221 152.166 54.9595 152.123 56.2397C152.123 57.5198 152.55 58.7572 153.275 59.696C153.617 60.1654 154.043 60.5921 154.513 60.9334C154.982 61.2748 155.494 61.5308 156.006 61.7442C157.03 62.1282 158.14 62.1709 159.079 62.0002C160.06 61.8295 160.871 61.4028 161.553 60.8908C162.919 59.8667 163.516 58.5439 163.73 57.6478C163.943 56.8371 163.9 56.2823 163.943 56.2823C163.943 56.2823 163.943 56.4103 163.943 56.6664C163.943 56.7944 163.943 56.9651 163.9 57.1357C163.858 57.3064 163.858 57.5198 163.772 57.7758C163.559 58.6719 162.962 60.0374 161.596 61.1041C160.913 61.6162 160.06 62.0856 159.079 62.2562C158.097 62.4269 156.945 62.4269 155.878 62.0002C155.324 61.8295 154.811 61.5308 154.342 61.1895C153.873 60.8481 153.403 60.4214 153.062 59.9093C152.294 58.9279 151.91 57.6478 151.867 56.325C151.867 55.0022 152.294 53.7221 153.062 52.7406C153.446 52.2286 153.873 51.8019 154.342 51.4605C154.811 51.1192 155.324 50.8205 155.878 50.6498C156.945 50.2657 158.054 50.2231 159.079 50.3938C160.06 50.5644 160.956 51.0338 161.596 51.5459C162.962 52.6126 163.559 53.9781 163.772 54.8742C163.858 55.0875 163.858 55.3009 163.9 55.5143C163.943 55.6849 163.943 55.8556 163.943 55.9836C163.943 56.1543 163.943 56.2823 163.943 56.2823Z"
      fill="#263238" />
    <path
      d="M151.991 54.9168C151.948 54.9595 151.82 54.8315 151.564 54.7035C151.308 54.5754 150.924 54.4474 150.497 54.4474C150.071 54.4474 149.687 54.5754 149.431 54.7035C149.175 54.8315 149.047 54.9595 149.004 54.9168C149.004 54.9168 149.089 54.7461 149.345 54.5328C149.601 54.3621 150.028 54.1914 150.497 54.1914C150.967 54.1914 151.393 54.3621 151.649 54.5328C151.906 54.7461 152.034 54.9168 151.991 54.9168Z"
      fill="#263238" />
    <path
      d="M137.443 55.9839C137.486 56.0266 136.291 57.008 134.755 58.1174C133.261 59.2269 131.981 60.123 131.939 60.0803C131.896 60.0376 133.091 59.0562 134.627 57.9467C136.163 56.8373 137.4 55.9412 137.443 55.9839Z"
      fill="#263238" />
    <g opacity="0.3">
      <path opacity="0.3"
        d="M132.408 83.7622C131.811 89.5654 134.029 95.6674 138.681 99.1664C139.065 99.4224 139.491 99.7211 139.918 99.5504C140.217 99.4224 140.387 99.1664 140.558 98.8677C141.881 96.5635 142.308 94.0459 141.924 91.443C141.198 93.3631 140.558 95.2833 139.833 97.2889C135.779 94.8566 133.261 89.6508 132.408 83.7622Z"
        fill="black" />
    </g>
    <path opacity="0.3"
      d="M148.109 96.9483L151.523 95.7109L152.078 101.471C152.078 101.471 155.747 94.7721 157.284 91.6998C158.82 88.6275 158.009 83.251 158.009 83.251C158.009 83.251 158.564 87.9448 154.851 93.9613L152.078 98.4845V93.748L148.109 96.9483Z"
      fill="black" />
    <g opacity="0.3">
      <path opacity="0.3"
        d="M108.468 126.221C106.931 125.495 105.182 125.41 103.518 125.581C101.768 125.794 99.9761 126.306 98.6106 127.458C97.2451 128.568 96.3064 130.317 96.477 132.109L96.6477 132.152C97.8425 128.952 100.189 126.605 103.262 126.306C106.291 126.007 109.278 127.373 111.369 129.634C111.156 127.927 110.004 126.946 108.468 126.221Z"
        fill="black" />
    </g>
    <g opacity="0.3">
      <path opacity="0.3"
        d="M194.666 129.505C193.514 128.268 191.935 127.542 190.271 127.244C187.369 126.732 184.254 127.628 182.078 129.633L182.718 129.121C184.382 128.14 186.26 127.585 188.18 127.628C190.1 127.67 192.02 128.396 193.386 129.718C194.666 130.913 195.434 132.577 196.159 134.156C196.458 132.492 195.818 130.743 194.666 129.505Z"
        fill="black" />
    </g>
    <path
      d="M172.688 102.752C172.688 102.752 172.73 102.581 172.858 102.282C172.986 101.941 173.157 101.514 173.328 101.045C173.754 99.9781 174.309 98.5699 174.906 96.9484C175.504 95.3269 176.016 93.8761 176.4 92.8094C176.571 92.2973 176.741 91.9133 176.827 91.5719C176.955 91.2732 176.997 91.1025 176.997 91.1025C176.997 91.1025 176.955 91.2732 176.912 91.5719C176.827 91.8706 176.699 92.2973 176.528 92.852C176.187 93.9188 175.717 95.4123 175.12 97.0338C174.522 98.6553 173.925 100.063 173.498 101.13C173.285 101.642 173.072 102.069 172.944 102.325C172.773 102.581 172.73 102.752 172.688 102.752Z"
      fill="#263238" />
    <path
      d="M118.882 103.178C118.839 103.178 118.37 101.173 117.858 98.6551C117.346 96.1376 116.962 94.0894 117.047 94.0894C117.09 94.0894 117.559 96.0949 118.071 98.6125C118.583 101.087 118.967 103.136 118.882 103.178Z"
      fill="#263238" />
    <path
      d="M118.114 128.567C118.242 128.653 116.535 115.254 116.535 115.254C116.535 115.254 117.602 105.098 118.199 104.629V101.045C118.199 101.045 119.863 100.021 120.29 101.642C120.29 101.642 121.741 100.362 121.997 103.392C122.253 106.421 122.296 109.536 122.296 109.536L125.581 117.729L126.136 117.985C126.136 117.985 126.819 111.584 127.246 110.646C127.672 109.707 127.928 107.403 129.507 107.744C131.043 108.085 131.171 109.365 130.915 111.456C130.617 113.547 130.275 115.723 130.403 117.046C130.531 118.412 131.129 121.356 130.958 123.745C130.787 126.092 129.464 128.61 128.099 130.359C126.733 132.109 124.131 135.736 122.722 136.803C122.296 137.272 118.114 128.567 118.114 128.567Z"
      fill="#FFBE9D" />
    <path
      d="M119.736 117.686C119.736 117.686 119.736 117.472 119.736 117.131C119.778 116.704 119.821 116.192 119.864 115.595C119.949 114.272 120.12 112.48 120.29 110.474C120.376 109.493 120.461 108.511 120.546 107.658C120.589 107.231 120.632 106.805 120.546 106.463C120.504 106.079 120.333 105.78 120.12 105.524C119.693 105.055 119.138 104.927 118.797 104.927C118.456 104.927 118.242 105.012 118.242 105.012C118.242 105.012 118.285 104.97 118.37 104.927C118.456 104.884 118.584 104.842 118.797 104.842C119.181 104.799 119.778 104.927 120.248 105.396C120.504 105.652 120.674 105.994 120.717 106.378C120.802 106.762 120.76 107.189 120.717 107.615C120.632 108.469 120.546 109.45 120.461 110.432C120.29 112.437 120.12 114.229 119.949 115.552C119.864 116.192 119.821 116.704 119.778 117.088C119.778 117.472 119.778 117.686 119.736 117.686Z"
      fill="#EB996E" />
    <path
      d="M121.526 112.224C121.569 112.266 121.185 112.565 120.929 113.291C120.673 113.973 120.588 115.04 120.374 116.192C120.204 117.344 120.033 118.368 119.905 119.094C119.777 119.819 119.691 120.289 119.649 120.289C119.606 120.289 119.649 119.819 119.777 119.051C119.862 118.283 120.033 117.259 120.204 116.107C120.374 114.955 120.502 113.931 120.801 113.205C120.929 112.864 121.142 112.565 121.27 112.437C121.398 112.266 121.484 112.181 121.526 112.224Z"
      fill="#EB996E" />
    <path
      d="M120.289 101.514C120.289 101.514 120.332 101.642 120.417 101.941C120.46 102.197 120.545 102.624 120.63 103.093C120.801 104.074 120.972 105.44 121.1 106.976C121.228 108.512 121.228 109.878 121.228 110.859C121.228 111.371 121.185 111.755 121.185 112.054C121.185 112.353 121.142 112.481 121.142 112.481C121.1 112.481 121.1 111.883 121.057 110.859C121.014 109.878 120.972 108.47 120.886 106.976C120.758 105.44 120.63 104.074 120.502 103.093C120.374 102.112 120.289 101.514 120.289 101.514Z"
      fill="#EB996E" />
    <path
      d="M129.758 114.016C129.801 114.059 129.289 114.315 128.649 114.101C128.009 113.931 127.71 113.419 127.796 113.419C127.838 113.376 128.18 113.717 128.734 113.888C129.246 114.101 129.716 113.973 129.758 114.016Z"
      fill="#EB996E" />
    <path
      d="M118.283 126.903L109.621 130.53H104.458C104.458 130.53 99.38 132.109 98.5692 136.888C97.8011 141.667 97.6731 144.142 99.9347 144.697C102.196 145.294 108.512 145.337 111.626 144.313C114.784 143.289 122.977 136.632 122.977 136.632L123.788 131.853L118.283 126.903Z"
      fill="#FFBE9D" />
    <path
      d="M120.29 132.152C120.29 132.152 120.204 132.066 120.034 131.938C119.863 131.768 119.692 131.554 119.479 131.213C119.052 130.573 118.583 129.591 118.284 128.482C117.943 127.373 117.815 126.306 117.772 125.538C117.687 124.77 117.729 124.3 117.729 124.3C117.772 124.3 117.815 124.77 117.9 125.538C118.028 126.306 118.156 127.33 118.497 128.439C118.796 129.549 119.223 130.488 119.607 131.17C120.034 131.768 120.332 132.152 120.29 132.152Z"
      fill="#EB996E" />
    <path
      d="M124.083 133.687C124.041 133.687 124.425 133.005 124.595 131.852C124.681 131.255 124.681 130.572 124.51 129.804C124.339 129.036 123.998 128.268 123.443 127.543C122.931 126.817 122.334 126.177 121.822 125.537C121.31 124.94 120.926 124.3 120.67 123.788C120.414 123.233 120.286 122.764 120.243 122.422C120.2 122.081 120.2 121.91 120.243 121.91C120.286 121.91 120.286 122.678 120.84 123.745C121.096 124.257 121.523 124.854 122.035 125.452C122.547 126.049 123.145 126.689 123.657 127.457C124.211 128.225 124.595 129.036 124.723 129.804C124.894 130.615 124.894 131.34 124.766 131.938C124.681 132.535 124.51 133.005 124.382 133.303C124.297 133.474 124.254 133.559 124.211 133.645C124.083 133.645 124.083 133.687 124.083 133.687Z"
      fill="#EB996E" />
    <path
      d="M110.731 112.864C110.689 112.907 109.75 111.157 108.64 109.024C107.531 106.89 106.678 105.098 106.72 105.098C106.763 105.055 107.702 106.805 108.811 108.938C109.921 111.072 110.774 112.821 110.731 112.864Z"
      fill="white" />
    <path
      d="M124.725 97.2889C124.682 97.2462 125.237 95.8381 126.048 94.0886C126.816 92.3391 127.499 90.9736 127.541 90.9736C127.584 91.0163 127.029 92.4244 126.218 94.1739C125.45 95.9234 124.768 97.3316 124.725 97.2889Z"
      fill="white" />
    <path
      d="M138.425 107.403C138.382 107.446 137.486 106.464 136.462 105.227C135.438 103.989 134.627 102.922 134.67 102.88C134.712 102.837 135.608 103.819 136.632 105.056C137.657 106.293 138.467 107.36 138.425 107.403Z"
      fill="white" />
    <path
      d="M135.268 121.27C135.225 121.227 135.865 120.246 136.761 119.051C137.615 117.856 138.383 116.917 138.425 116.96C138.468 117.003 137.828 117.984 136.932 119.179C136.078 120.374 135.31 121.312 135.268 121.27Z"
      fill="white" />
    <path
      d="M131.043 140.942C131 140.942 130.83 140.643 130.531 140.089C130.232 139.534 129.891 138.766 129.507 137.913C129.123 137.059 128.824 136.248 128.653 135.694C128.44 135.096 128.355 134.755 128.397 134.755C128.44 134.755 128.568 135.096 128.824 135.651C129.08 136.291 129.421 137.016 129.763 137.87C130.104 138.681 130.446 139.406 130.702 140.046C130.915 140.558 131.043 140.899 131.043 140.942Z"
      fill="white" />
    <path
      d="M143.077 132.578C143.077 132.62 141.925 132.45 140.474 132.194C139.066 131.938 137.914 131.639 137.914 131.596C137.914 131.554 139.066 131.724 140.517 131.98C141.968 132.236 143.077 132.535 143.077 132.578Z"
      fill="white" />
    <path
      d="M152.423 114.229C152.38 114.187 153.49 112.906 154.898 111.413C156.306 109.877 157.501 108.682 157.544 108.725C157.586 108.767 156.477 110.048 155.069 111.541C153.661 113.077 152.466 114.272 152.423 114.229Z"
      fill="white" />
    <path
      d="M161.811 138.679C161.768 138.722 160.403 137.101 158.739 135.095C157.074 133.089 155.794 131.425 155.837 131.383C155.88 131.34 157.245 132.961 158.909 134.967C160.573 137.015 161.896 138.679 161.811 138.679Z"
      fill="white" />
    <path
      d="M103.477 128.269C103.52 128.311 102.239 128.951 100.874 130.018C99.5085 131.085 98.527 132.109 98.4844 132.066C98.4844 132.066 98.6551 131.768 99.0818 131.341C99.4658 130.914 100.063 130.36 100.746 129.848C101.429 129.336 102.111 128.909 102.623 128.653C103.135 128.354 103.434 128.226 103.477 128.269Z"
      fill="white" />
    <path
      d="M106.976 118.839C107.019 118.881 106.592 119.649 105.995 120.546C105.397 121.442 104.842 122.167 104.8 122.124C104.757 122.082 105.184 121.314 105.781 120.418C106.379 119.521 106.933 118.796 106.976 118.839Z"
      fill="white" />
    <path
      d="M114.912 128.098C114.869 128.141 114.4 127.373 114.186 126.349C113.93 125.325 114.016 124.429 114.101 124.471C114.186 124.471 114.186 125.325 114.442 126.306C114.613 127.287 114.954 128.056 114.912 128.098Z"
      fill="white" />
    <path
      d="M116.067 98.6974C116.067 98.7401 115.341 98.9108 114.402 99.0388C113.506 99.1668 112.738 99.2095 112.738 99.1668C112.738 99.1241 113.464 98.9535 114.402 98.8255C115.299 98.6974 116.067 98.6121 116.067 98.6974Z"
      fill="white" />
    <path
      d="M122.04 88.1572C122.082 88.1998 121.442 88.6265 120.589 89.0959C119.778 89.5653 119.053 89.864 119.053 89.8213C119.01 89.7786 119.65 89.3519 120.504 88.8826C121.314 88.4132 121.997 88.0718 122.04 88.1572Z"
      fill="white" />
    <path
      d="M138.763 92.5949C138.72 92.6376 137.995 91.7415 137.099 90.6321C136.245 89.5226 135.563 88.5412 135.648 88.4985C135.691 88.4559 136.416 89.352 137.312 90.4614C138.123 91.6135 138.805 92.5523 138.763 92.5949Z"
      fill="white" />
    <path
      d="M159.974 103.221C159.932 103.264 159.164 102.453 158.438 101.301C157.713 100.149 157.329 99.0819 157.414 99.0819C157.457 99.0392 157.926 100.063 158.652 101.173C159.334 102.325 160.06 103.178 159.974 103.221Z"
      fill="white" />
    <path
      d="M168.083 105.866C168.126 105.909 167.742 106.89 167.187 108.085C166.632 109.28 166.163 110.219 166.12 110.219C166.078 110.176 166.462 109.195 167.017 108C167.571 106.805 168.041 105.866 168.083 105.866Z"
      fill="white" />
    <path
      d="M169.23 94.814C169.187 94.8567 168.206 93.7899 167.054 92.3818C165.902 91.0163 165.006 89.8642 165.048 89.8215C165.091 89.7789 166.072 90.8456 167.225 92.2538C168.377 93.6193 169.273 94.7714 169.23 94.814Z"
      fill="white" />
    <path
      d="M156.859 85.8114C156.816 85.8114 156.731 84.8727 156.645 83.7632C156.603 82.6111 156.603 81.6724 156.688 81.6724C156.731 81.6724 156.816 82.6111 156.901 83.7206C156.944 84.9153 156.901 85.8114 156.859 85.8114Z"
      fill="white" />
    <path
      d="M166.928 85.2568C166.928 85.2994 165.776 85.5128 164.282 85.7261C162.832 85.9395 161.637 86.0248 161.637 85.9822C161.637 85.9395 162.789 85.7261 164.282 85.5128C165.733 85.2994 166.928 85.2141 166.928 85.2568Z"
      fill="white" />
    <path
      d="M182.846 96.9478C182.804 96.9905 182.078 95.625 181.268 93.9182C180.457 92.2114 179.817 90.8459 179.902 90.8032C179.945 90.7605 180.67 92.126 181.481 93.8328C182.292 95.5397 182.889 96.9051 182.846 96.9478Z"
      fill="white" />
    <path
      d="M180.156 107.018C180.114 107.018 180.242 105.908 180.54 104.585C180.796 103.263 181.053 102.196 181.138 102.196C181.181 102.196 181.053 103.305 180.754 104.628C180.498 105.994 180.242 107.06 180.156 107.018Z"
      fill="white" />
    <path
      d="M187.537 114.997C187.494 114.997 186.897 113.547 186.257 111.712C185.617 109.877 185.148 108.383 185.19 108.341C185.233 108.341 185.83 109.792 186.47 111.626C187.11 113.461 187.58 114.955 187.537 114.997Z"
      fill="white" />
    <path
      d="M186.517 119.649C186.517 119.691 185.493 119.478 184.34 118.881C183.231 118.283 182.463 117.515 182.506 117.515C182.548 117.473 183.316 118.113 184.426 118.71C185.578 119.265 186.517 119.563 186.517 119.649Z"
      fill="white" />
    <path
      d="M195.945 130.275C195.903 130.317 195.561 129.634 195.177 128.824C194.793 128.013 194.58 127.33 194.623 127.288C194.665 127.245 195.007 127.928 195.391 128.738C195.775 129.549 196.031 130.232 195.945 130.275Z"
      fill="white" />
    <path
      d="M140.173 145.037C140.13 145.037 139.96 144.184 139.832 143.16C139.704 142.093 139.661 141.24 139.704 141.24C139.746 141.24 139.917 142.093 140.045 143.117C140.173 144.184 140.216 145.037 140.173 145.037Z"
      fill="white" />
    <path
      d="M169.149 144.313C169.106 144.313 169.234 143.46 169.448 142.478C169.661 141.454 169.874 140.644 169.96 140.686C170.002 140.686 169.874 141.54 169.661 142.521C169.448 143.545 169.191 144.356 169.149 144.313Z"
      fill="white" />
    <path
      d="M174.676 59.697L178.431 53.083C176.767 50.3947 175.828 47.2371 175.828 43.8234C175.828 34.0518 183.722 26.1577 193.494 26.1577C203.265 26.1577 211.159 34.0518 211.159 43.8234C211.159 53.5951 203.265 61.4892 193.494 61.4892C189.44 61.4892 185.685 60.1237 182.698 57.7768L174.676 59.697Z"
      fill="#FAFAFA" />
    <path
      d="M174.676 59.6974C175.06 59.612 177.577 59.0147 182.698 57.8625H182.783L182.741 57.7772L182.655 57.8625C183.679 58.6306 184.874 59.3987 186.282 60.0387C187.69 60.6788 189.312 61.1909 191.147 61.4042C192.043 61.5322 192.982 61.5749 193.963 61.5322C194.432 61.4896 194.944 61.4896 195.414 61.4469C195.926 61.3615 196.395 61.2762 196.907 61.2335C198.913 60.8495 200.961 60.0814 202.881 58.8866C204.801 57.6919 206.551 56.113 207.959 54.1502C209.367 52.1873 210.434 49.8404 210.946 47.3228C211.458 44.8053 211.415 42.0743 210.733 39.4714C210.05 36.8685 208.812 34.3082 206.935 32.2174L206.21 31.4066C205.953 31.1506 205.697 30.9372 205.441 30.6812C205.185 30.4679 204.929 30.1692 204.631 29.9985L203.777 29.3584C203.521 29.1451 203.18 28.9744 202.881 28.761C202.583 28.5904 202.284 28.377 201.985 28.2063C201.686 28.0356 201.345 27.9076 201.046 27.7369C200.748 27.6089 200.449 27.4382 200.108 27.3102C197.547 26.2861 194.816 25.9021 192.171 26.0728C189.568 26.2435 187.05 27.0115 184.917 28.2063C182.741 29.4011 180.948 31.0226 179.54 32.8148C178.132 34.6069 177.151 36.5698 176.511 38.5327C175.913 40.4955 175.743 42.4584 175.743 44.2932C175.785 46.1281 176.127 47.7922 176.596 49.243C177.065 50.6938 177.705 51.974 178.388 53.0407V52.9981C176.041 57.3078 174.889 59.3987 174.676 59.6974C174.846 59.356 176.041 57.3078 178.473 53.1261V53.0834V53.0407C177.833 51.974 177.193 50.7365 176.724 49.243C176.255 47.7922 175.913 46.1281 175.871 44.3359C175.871 42.5437 176.041 40.5809 176.639 38.6607C177.236 36.6978 178.26 34.7776 179.626 32.9855C181.034 31.2359 182.826 29.6571 184.959 28.4623C187.093 27.2676 189.568 26.5422 192.171 26.3288C194.774 26.1581 197.462 26.5422 199.98 27.5236C200.321 27.6089 200.62 27.7796 200.918 27.9503C201.217 28.121 201.516 28.249 201.857 28.4197C202.156 28.5904 202.454 28.761 202.753 28.9744C203.052 29.1451 203.351 29.3158 203.607 29.5291L204.46 30.1692C204.759 30.3825 204.972 30.6386 205.271 30.8519C205.527 31.1079 205.825 31.3213 206.039 31.5773L206.764 32.3454C208.599 34.4363 209.837 36.9538 210.519 39.5141C211.159 42.117 211.202 44.7626 210.733 47.2802C210.221 49.7978 209.196 52.102 207.788 54.0222C206.38 55.985 204.631 57.5638 202.753 58.716C200.876 59.9107 198.827 60.6361 196.865 61.0629C196.353 61.1482 195.883 61.2335 195.371 61.2762C194.902 61.3189 194.39 61.3189 193.92 61.3615C192.982 61.4042 192.043 61.3615 191.147 61.2335C189.355 61.0202 187.733 60.5081 186.325 59.8681C184.917 59.228 183.722 58.5026 182.698 57.6919L182.357 57.4358L182.613 57.7772L182.655 57.6919C177.577 59.0146 175.06 59.612 174.676 59.6974Z"
      fill="#263238" />
    <path
      d="M198.297 43.0984C198.297 44.0372 199.065 44.8053 200.004 44.8053C200.942 44.8053 201.711 44.0372 201.711 43.0984C201.711 42.1597 200.942 41.3916 200.004 41.3916C199.065 41.3916 198.297 42.1597 198.297 43.0984Z"
      fill="#263238" />
    <path
      d="M191.371 43.0979C191.371 44.0367 192.139 44.8048 193.078 44.8048C194.017 44.8048 194.785 44.0367 194.785 43.0979C194.785 42.1592 194.017 41.3911 193.078 41.3911C192.139 41.3911 191.371 42.1592 191.371 43.0979Z"
      fill="#263238" />
    <path
      d="M184.451 42.245C183.982 43.0557 184.238 44.1225 185.091 44.5919C185.902 45.0612 186.969 44.8052 187.438 43.9518C187.907 43.141 187.651 42.0743 186.798 41.6049C185.987 41.1355 184.92 41.4342 184.451 42.245Z"
      fill="#263238" />
  </g>
  <defs>
    <clipPath id="clip0">
      <rect width="301" height="171.153" fill="white" />
    </clipPath>
  </defs>
</svg>