<svg width="213" height="178" viewBox="0 0 213 178" fill="none" xmlns="http://www.w3.org/2000/svg">
  <g clip-path="url(#clip0)">
    <path
      d="M114.094 148.302C112.979 145.818 110.09 140.243 110.09 140.243L116.172 138.317L117.338 139.686V137.658H121.19L121.392 146.68C121.392 147.39 120.936 148.048 120.227 148.2L115.817 149.163C115.108 149.316 114.398 148.961 114.094 148.302Z"
      fill="#E0E0E0" />
    <path d="M117.492 146.832C117.492 147.339 119.367 159.098 119.367 159.098H121.04L118.607 146.832H117.492Z"
      fill="#E0E0E0" />
    <path
      d="M122.911 145.463L121.188 159.047H123.012L124.685 145.666C124.735 145.109 124.33 144.652 123.823 144.652C123.316 144.703 122.961 145.058 122.911 145.463Z"
      fill="#E0E0E0" />
    <path
      d="M108.572 177.039H102.49C101.882 177.039 101.426 176.583 101.426 175.975V164.014C101.426 163.405 101.882 162.949 102.49 162.949H108.572C109.18 162.949 109.637 163.405 109.637 164.014V175.975C109.637 176.533 109.13 177.039 108.572 177.039Z"
      fill="#00B3D9" />
    <path
      d="M108.064 162.899H102.844V162.392C102.844 161.327 103.705 160.415 104.82 160.415H106.138C107.203 160.415 108.115 161.277 108.115 162.392V162.899H108.064Z"
      fill="#455A64" />
    <path d="M106.089 167.359H101.426V173.086H106.089V167.359Z" fill="white" />
    <path d="M130.412 153.37H111V177.04H130.412V153.37Z" fill="#F5F5F5" />
    <path
      d="M130.463 177.039C130.463 177.039 130.463 176.989 130.463 176.938C130.463 176.837 130.463 176.735 130.463 176.583C130.463 176.279 130.463 175.823 130.463 175.316C130.463 174.201 130.463 172.528 130.412 170.45C130.412 166.294 130.362 160.415 130.362 153.37L130.463 153.471C124.685 153.471 118.046 153.471 111.051 153.471C111 153.522 111.305 153.218 111.203 153.319V153.37V153.421V153.522V153.725V154.13V154.941C111.203 155.499 111.203 156.005 111.203 156.563C111.203 157.627 111.203 158.692 111.203 159.756C111.203 161.834 111.203 163.912 111.203 165.889C111.203 169.842 111.203 173.593 111.203 176.989L111.102 176.887C116.93 176.887 121.796 176.938 125.192 176.938C126.865 176.938 128.233 176.938 129.145 176.989C129.601 176.989 129.956 176.989 130.21 176.989C130.311 177.039 130.463 177.039 130.463 177.039C130.463 177.039 130.362 177.039 130.108 177.039C129.855 177.039 129.5 177.039 129.095 177.039C128.182 177.039 126.865 177.039 125.192 177.09C121.796 177.09 116.93 177.141 111.051 177.141H110.95V177.039C110.95 173.643 110.95 169.944 110.95 165.939C110.95 163.963 110.95 161.885 110.95 159.807C110.95 158.742 110.95 157.678 110.95 156.614C110.95 156.056 110.95 155.549 110.95 154.992V154.181V153.775V153.573V153.471V153.421V153.37C110.848 153.471 111.102 153.218 111.102 153.218C118.147 153.218 124.786 153.218 130.514 153.218H130.615V153.319C130.615 160.364 130.564 166.294 130.564 170.45C130.564 172.528 130.564 174.15 130.514 175.265C130.514 175.823 130.514 176.228 130.514 176.532C130.514 176.685 130.514 176.786 130.514 176.837C130.463 176.989 130.463 177.039 130.463 177.039Z"
      fill="#263238" />
    <path
      d="M130.51 154.688C130.51 154.739 126.202 154.84 120.829 154.84C115.507 154.84 111.148 154.79 111.148 154.688C111.148 154.638 115.457 154.536 120.829 154.536C126.151 154.536 130.51 154.587 130.51 154.688Z"
      fill="#E0E0E0" />
    <path
      d="M130.51 156.158C130.51 156.209 126.202 156.31 120.829 156.31C115.507 156.31 111.148 156.259 111.148 156.158C111.148 156.107 115.457 156.006 120.829 156.006C126.151 156.006 130.51 156.057 130.51 156.158Z"
      fill="#E0E0E0" />
    <path
      d="M130.51 157.628C130.51 157.678 126.202 157.78 120.829 157.78C115.507 157.78 111.148 157.729 111.148 157.628C111.148 157.526 115.457 157.476 120.829 157.476C126.151 157.526 130.51 157.577 130.51 157.628Z"
      fill="#E0E0E0" />
    <path
      d="M130.51 159.097C130.51 159.148 126.202 159.249 120.829 159.249C115.507 159.249 111.148 159.199 111.148 159.097C111.148 159.047 115.457 158.945 120.829 158.945C126.151 158.996 130.51 159.047 130.51 159.097Z"
      fill="#E0E0E0" />
    <path
      d="M130.51 160.568C130.51 160.618 126.202 160.72 120.829 160.72C115.507 160.72 111.148 160.669 111.148 160.568C111.148 160.517 115.457 160.416 120.829 160.416C126.151 160.466 130.51 160.517 130.51 160.568Z"
      fill="#E0E0E0" />
    <path
      d="M130.51 162.088C130.51 162.139 126.202 162.24 120.829 162.24C115.507 162.24 111.148 162.189 111.148 162.088C111.148 162.037 115.457 161.936 120.829 161.936C126.151 161.936 130.51 161.987 130.51 162.088Z"
      fill="#E0E0E0" />
    <path
      d="M130.51 163.558C130.51 163.609 126.202 163.71 120.829 163.71C115.507 163.71 111.148 163.659 111.148 163.558C111.148 163.456 115.457 163.406 120.829 163.406C126.151 163.406 130.51 163.456 130.51 163.558Z"
      fill="#E0E0E0" />
    <path
      d="M130.51 165.028C130.51 165.078 126.202 165.18 120.829 165.18C115.507 165.18 111.148 165.129 111.148 165.028C111.148 164.977 115.457 164.875 120.829 164.875C126.151 164.875 130.51 164.977 130.51 165.028Z"
      fill="#E0E0E0" />
    <path
      d="M130.51 166.497C130.51 166.548 126.202 166.649 120.829 166.649C115.507 166.649 111.148 166.599 111.148 166.497C111.148 166.447 115.457 166.345 120.829 166.345C126.151 166.396 130.51 166.447 130.51 166.497Z"
      fill="#E0E0E0" />
    <path
      d="M130.51 167.967C130.51 168.018 126.202 168.119 120.829 168.119C115.507 168.119 111.148 168.068 111.148 167.967C111.148 167.916 115.457 167.815 120.829 167.815C126.151 167.866 130.51 167.916 130.51 167.967Z"
      fill="#E0E0E0" />
    <path
      d="M130.51 169.487C130.51 169.538 126.202 169.64 120.829 169.64C115.507 169.64 111.148 169.589 111.148 169.487C111.148 169.437 115.457 169.335 120.829 169.335C126.151 169.335 130.51 169.386 130.51 169.487Z"
      fill="#E0E0E0" />
    <path
      d="M130.51 170.958C130.51 171.008 126.202 171.11 120.829 171.11C115.507 171.11 111.148 171.059 111.148 170.958C111.148 170.856 115.457 170.806 120.829 170.806C126.151 170.806 130.51 170.856 130.51 170.958Z"
      fill="#E0E0E0" />
    <path
      d="M130.51 172.427C130.51 172.478 126.202 172.579 120.829 172.579C115.507 172.579 111.148 172.529 111.148 172.427C111.148 172.377 115.457 172.275 120.829 172.275C126.151 172.275 130.51 172.377 130.51 172.427Z"
      fill="#E0E0E0" />
    <path
      d="M130.51 173.897C130.51 173.948 126.202 174.049 120.829 174.049C115.507 174.049 111.148 173.999 111.148 173.897C111.148 173.846 115.457 173.745 120.829 173.745C126.151 173.796 130.51 173.846 130.51 173.897Z"
      fill="#E0E0E0" />
    <path
      d="M130.51 175.367C130.51 175.418 126.202 175.519 120.829 175.519C115.507 175.519 111.148 175.468 111.148 175.367C111.148 175.316 115.457 175.215 120.829 175.215C126.151 175.266 130.51 175.316 130.51 175.367Z"
      fill="#E0E0E0" />
    <path d="M127.517 162.088H113.984V168.018H127.517V162.088Z" fill="white" />
    <path
      d="M127.515 168.019C127.515 168.019 127.515 167.867 127.515 167.613C127.515 167.309 127.515 166.904 127.515 166.447C127.515 165.383 127.464 163.913 127.464 162.139L127.565 162.241C124.068 162.241 119.304 162.241 114.033 162.291C113.931 162.393 114.185 162.139 114.185 162.139V162.19V162.291V162.494V162.899C114.185 163.153 114.185 163.406 114.185 163.66C114.185 164.167 114.185 164.673 114.185 165.18C114.185 166.194 114.185 167.157 114.185 168.069L114.083 167.968C117.986 167.968 121.331 168.019 123.764 168.019C124.93 168.019 125.893 168.069 126.602 168.069C126.907 168.069 127.16 168.069 127.363 168.069C127.413 167.968 127.464 167.968 127.515 168.019C127.515 168.019 127.413 168.019 127.261 168.019C127.059 168.019 126.805 168.019 126.501 168.019C125.842 168.019 124.879 168.019 123.713 168.069C121.281 168.069 117.885 168.12 113.982 168.12H113.881V168.019C113.881 167.106 113.881 166.143 113.881 165.13C113.881 164.623 113.881 164.116 113.881 163.609C113.881 163.356 113.881 163.102 113.881 162.849V162.443V162.241V162.19V162.139C113.83 162.19 114.134 161.886 114.033 161.987C119.304 161.987 124.068 162.038 127.565 162.038H127.667V162.139C127.667 163.964 127.616 165.434 127.616 166.498C127.616 167.005 127.616 167.36 127.616 167.664C127.515 167.866 127.515 168.019 127.515 168.019Z"
      fill="#263238" />
    <path
      d="M124.73 164.521C124.73 164.572 122.855 164.673 120.574 164.673C118.293 164.673 116.418 164.623 116.418 164.521C116.418 164.471 118.293 164.369 120.574 164.369C122.855 164.369 124.73 164.471 124.73 164.521Z"
      fill="#263238" />
    <path
      d="M124.73 165.737C124.73 165.788 122.855 165.89 120.574 165.89C118.293 165.89 116.418 165.839 116.418 165.737C116.418 165.636 118.293 165.585 120.574 165.585C122.855 165.585 124.73 165.687 124.73 165.737Z"
      fill="#263238" />
    <path
      d="M111.253 153.472C111.101 154.08 111.759 154.688 112.368 154.79C113.027 154.891 113.635 154.638 114.294 154.536C114.953 154.384 115.662 154.435 116.118 154.891C116.574 155.347 116.574 156.107 116.676 156.817C116.777 157.476 117.233 158.236 117.892 158.186C118.399 158.135 118.703 157.628 118.805 157.121C118.906 156.614 118.906 156.107 119.058 155.651C119.21 155.195 119.717 154.79 120.173 154.891C120.832 155.094 121.035 156.209 121.744 156.209C122.403 156.158 122.505 155.246 122.961 154.79C123.265 154.486 123.772 154.384 124.177 154.435C124.633 154.486 125.039 154.638 125.444 154.79C127.218 155.246 129.195 154.688 130.462 153.32"
      fill="#00B3D9" />
    <path
      d="M105.83 155.6H66.7017C65.1305 155.6 63.9141 154.333 63.9141 152.813V152.559C63.9141 150.988 65.1812 149.771 66.7017 149.771H105.83C107.401 149.771 108.617 151.039 108.617 152.559V152.762C108.617 154.333 107.35 155.6 105.83 155.6Z"
      fill="#263238" />
    <path
      d="M74.6055 159.047H98.7311C98.7311 159.047 95.538 165.484 86.1615 165.484C76.4301 165.484 74.6055 159.047 74.6055 159.047Z"
      fill="#263238" />
    <path
      d="M182.464 24.5312C183.478 21.3381 184.086 18.0436 184.238 14.6985L185.049 12.8231C186.215 11.5054 188.293 11.3026 189.813 12.1136C191.384 12.8738 192.398 14.445 192.854 16.1176C193.31 17.7902 193.26 19.5641 193.057 21.2874C192.905 22.4025 192.804 23.7202 193.665 24.4805C193.969 24.7339 194.375 24.886 194.628 25.1901C195.135 25.7476 195.034 26.6599 194.527 27.2174C194.02 27.7243 193.158 27.8763 192.449 27.6229C192.702 28.6873 191.993 29.9037 190.928 30.1571C189.864 30.4105 188.647 29.701 188.394 28.6366C188.141 29.3969 187.38 29.9544 186.569 30.0558C185.758 30.1571 184.948 29.9037 184.238 29.5489C183.275 29.0421 182.363 28.2818 182.109 27.2174C181.906 26.3051 182.211 25.3928 182.464 24.5312Z"
      fill="#263238" />
    <path
      d="M189.967 30.1065C189.967 30.1065 190.018 30.1572 190.17 30.1572C190.322 30.1572 190.525 30.1065 190.727 29.9545C190.93 29.8024 191.183 29.549 191.234 29.1942C191.335 28.8394 191.285 28.3833 191.133 27.9778C190.981 27.5216 190.727 27.1162 190.525 26.66C190.322 26.2038 190.17 25.6463 190.068 25.0888C189.916 23.9231 190.17 22.6559 190.474 21.3382C190.778 20.0204 191.031 18.7026 190.93 17.5368C190.829 16.3204 190.372 15.2561 189.714 14.6479C189.055 14.0396 188.294 13.7862 187.788 13.7862C187.281 13.7355 187.027 13.8876 187.027 13.8876C187.027 13.9383 187.281 13.8369 187.788 13.8876C188.294 13.9383 189.004 14.1917 189.612 14.7999C190.22 15.4081 190.677 16.4218 190.727 17.5875C190.829 18.7533 190.575 20.0204 190.271 21.3382C189.967 22.6559 189.714 23.9737 189.866 25.1902C189.916 25.7984 190.119 26.3559 190.322 26.812C190.575 27.2682 190.829 27.7244 190.981 28.1298C191.133 28.5353 191.183 28.9408 191.082 29.2956C191.031 29.6504 190.829 29.8531 190.626 30.0051C190.271 30.1572 189.967 30.0558 189.967 30.1065Z"
      fill="#455A64" />
    <path
      d="M187.482 15.4072C187.38 14.7483 187.178 14.0894 186.823 13.5319C186.468 12.9744 185.911 12.5182 185.252 12.4169C184.593 12.3662 183.883 12.7717 183.731 13.3799L184.086 13.0758C183.072 14.3429 182.616 16.0661 182.87 17.6373C183.022 18.7524 183.63 19.9181 184.694 20.1715C185.759 20.425 186.874 19.614 187.33 18.6003C187.786 17.6373 187.685 16.4716 187.482 15.4072Z"
      fill="#FF725E" />
    <path
      d="M185.609 18.0432C185.609 18.0938 186.015 18.2966 186.623 18.2459C186.927 18.2459 187.181 18.1445 187.383 18.0939C187.586 17.9925 187.637 17.8911 187.586 17.8911C187.586 17.8911 187.485 17.9925 187.333 18.0432C187.181 18.0938 186.927 18.1445 186.623 18.1445C186.066 18.1445 185.609 17.9925 185.609 18.0432Z"
      fill="#263238" />
    <path
      d="M185.055 16.1175C185.055 16.1682 185.612 16.1682 186.322 16.1682C187.031 16.1682 187.589 16.1175 187.589 16.0668C187.589 16.0161 187.031 16.0161 186.322 16.0161C185.612 16.0161 185.055 16.0668 185.055 16.1175Z"
      fill="#263238" />
    <path
      d="M185.453 14.0393C185.453 14.0899 185.859 14.0393 186.315 13.9886C186.517 13.9886 186.72 13.9886 186.872 14.0393C187.024 14.0899 187.126 14.0899 187.126 14.0899C187.126 14.0899 187.075 13.9886 186.923 13.9379C186.771 13.8872 186.568 13.8365 186.315 13.8872C185.808 13.9379 185.453 14.0393 185.453 14.0393Z"
      fill="#263238" />
    <path
      d="M182.826 8.869C182.876 7.80463 181.863 6.943 180.849 6.53753C179.835 6.13206 178.72 5.98 177.808 5.37179C176.997 4.81427 176.49 4.00332 175.781 3.29374C174.108 1.62117 171.523 0.911589 169.242 1.5198C166.962 2.12801 165.086 4.05401 164.529 6.33479C164.123 7.906 164.427 9.73063 165.644 10.7443C167.063 11.9607 169.141 11.6566 170.966 11.3018C172.79 10.9471 174.818 10.5416 176.338 11.6059C177.25 12.2648 177.757 13.2785 178.315 14.2415C178.872 15.2045 179.582 16.2182 180.646 16.573C181.711 16.9278 183.13 16.3196 183.18 15.2045"
      fill="#263238" />
    <path
      d="M182.781 9.42684C182.68 10.3392 183.339 11.1501 183.998 11.809C184.657 12.4679 185.417 13.1268 185.518 14.0391C185.67 15.1035 184.859 16.1678 185.113 17.1815C185.265 17.8404 185.772 18.3472 186.076 18.9555C186.532 19.8171 186.532 20.8308 186.279 21.7431C186.025 22.6554 185.569 24.7334 184.961 25.443C183.187 27.4197 180.399 29.143 177.814 29.7005C175.229 30.3087 172.543 30.3087 169.908 30.1567C167.728 30.0046 165.245 30.106 163.471 27.1663C162.558 25.6458 162.052 23.5677 161.595 21.8445C161.19 20.3746 160.784 18.7527 161.241 17.2829C161.494 16.4212 162.001 15.661 162.254 14.7994C162.558 13.735 162.457 12.5693 162.609 11.4542C162.862 9.02136 164.383 6.74058 166.512 5.57484C168.64 4.40911 171.377 4.30774 173.557 5.3721"
      fill="#263238" />
    <path
      d="M163.518 13.1779C163.721 10.0861 165.799 6.28482 168.891 6.58893L178.571 9.07245C179.534 9.17382 180.193 9.98476 180.193 10.9478L179.129 33.7556C179.129 34.1611 179.028 34.5159 178.875 34.8707C178.166 36.4419 175.784 40.4966 170.614 38.824C169.347 38.4186 168.789 37.0501 168.536 35.6309C168.536 35.4789 168.485 35.3268 168.485 35.1748C168.282 33.5529 168.435 31.9817 168.435 31.9817C168.435 30.1064 168.435 29.3461 168.435 29.3461C168.435 29.3461 164.481 28.6872 163.67 23.5174C163.163 20.8819 163.315 16.6244 163.518 13.1779Z"
      fill="#FFBE9D" />
    <path
      d="M164.883 16.9285C164.883 17.2833 165.136 17.5874 165.542 17.5874C165.897 17.5874 166.201 17.334 166.251 16.9792C166.251 16.6244 165.998 16.3203 165.592 16.3203C165.238 16.3203 164.933 16.5737 164.883 16.9285Z"
      fill="#263238" />
    <path
      d="M171.727 16.9285C171.727 17.2833 171.98 17.5874 172.385 17.5874C172.74 17.5874 173.044 17.334 173.095 16.9792C173.095 16.6244 172.842 16.3203 172.436 16.3203C172.081 16.3203 171.777 16.5737 171.727 16.9285Z"
      fill="#263238" />
    <path
      d="M171.588 15.6103C171.689 15.661 172.196 15.3062 173.007 15.1541C173.818 15.0021 174.477 15.1541 174.528 15.0528C174.578 15.0021 174.426 14.9514 174.173 14.85C173.869 14.7993 173.413 14.7487 172.956 14.85C172.45 14.9514 172.044 15.1541 171.841 15.3062C171.588 15.5089 171.537 15.6103 171.588 15.6103Z"
      fill="#263238" />
    <path
      d="M164.579 15.1547C164.68 15.2054 165.289 15.0533 166.1 15.1547C166.911 15.2561 167.468 15.6108 167.569 15.5602C167.62 15.5602 167.519 15.4081 167.265 15.2561C167.012 15.104 166.606 14.952 166.1 14.8506C165.593 14.7999 165.137 14.8506 164.883 14.9013C164.63 15.0026 164.528 15.104 164.579 15.1547Z"
      fill="#263238" />
    <path
      d="M168.859 20.8286C168.859 20.7779 168.403 20.7272 167.693 20.6258C167.49 20.6258 167.338 20.5751 167.288 20.4231C167.237 20.271 167.338 20.119 167.389 19.8656C167.541 19.4094 167.744 18.9533 167.946 18.4971C168.707 16.5204 169.264 14.8985 169.163 14.8478C169.061 14.7972 168.403 16.419 167.642 18.3957C167.44 18.9026 167.288 19.3587 167.135 19.8149C167.085 20.0176 166.933 20.271 167.034 20.5245C167.085 20.6765 167.237 20.7779 167.338 20.7779C167.44 20.8286 167.541 20.8286 167.642 20.8286C168.403 20.8792 168.859 20.8792 168.859 20.8286Z"
      fill="#263238" />
    <path
      d="M168.316 29.2978C168.316 29.2978 171.814 29.5512 175.26 27.4731C175.26 27.4731 173.486 31.0717 168.316 30.5649V29.2978Z"
      fill="#EB996E" />
    <path
      d="M169.141 22.5545C169.394 22.1997 169.85 22.0477 170.306 22.0984C170.61 22.1491 170.914 22.3011 171.117 22.5545C171.32 22.8079 171.32 23.1627 171.168 23.4162C170.965 23.6696 170.56 23.7709 170.256 23.6696C169.901 23.5682 169.597 23.3655 169.343 23.1121C169.242 23.0614 169.191 22.96 169.141 22.9093C169.09 22.7573 169.039 22.6559 169.141 22.5545Z"
      fill="#EB996E" />
    <path
      d="M170.984 21.3403C170.883 21.3403 170.883 22.1006 170.224 22.6581C169.565 23.2156 168.754 23.1143 168.703 23.2156C168.703 23.2663 168.906 23.3677 169.261 23.3677C169.615 23.3677 170.122 23.2663 170.528 22.9115C170.933 22.5568 171.085 22.1006 171.136 21.7965C171.136 21.4924 171.035 21.3403 170.984 21.3403Z"
      fill="#263238" />
    <path
      d="M171.201 13.7866C171.252 13.9893 171.961 13.888 172.823 13.9893C173.685 14.0907 174.343 14.3441 174.445 14.1414C174.495 14.04 174.394 13.888 174.09 13.6852C173.837 13.4825 173.38 13.3304 172.874 13.2797C172.367 13.2291 171.911 13.2797 171.606 13.4318C171.302 13.5332 171.15 13.6852 171.201 13.7866Z"
      fill="#263238" />
    <path
      d="M164.681 13.3299C164.782 13.4819 165.289 13.3299 165.897 13.3299C166.506 13.2792 167.012 13.4312 167.114 13.2792C167.164 13.1778 167.063 13.0258 166.86 12.8737C166.658 12.7217 166.303 12.5696 165.897 12.6203C165.492 12.6203 165.137 12.7723 164.934 12.9244C164.732 13.0765 164.63 13.2285 164.681 13.3299Z"
      fill="#263238" />
    <path
      d="M165.586 5.72726C164.978 8.51489 166.65 11.6573 169.336 12.671C169.387 12.0121 169.438 11.4039 169.539 10.745C170.35 12.2148 172.124 12.7217 173.746 13.2285C175.317 13.7354 177.091 14.4956 177.598 16.0668C177.953 17.2832 177.395 18.6517 177.649 19.9188C177.801 20.6284 178.155 21.2366 178.358 21.8955C178.612 22.9092 178.46 23.9229 178.662 24.9366C178.865 25.9502 179.625 27.0146 180.639 26.9132C181.298 26.8626 181.805 26.3557 182.109 25.7475C182.362 25.1393 182.413 24.4804 182.464 23.8215C182.616 21.1859 182.768 18.4997 182.666 15.8641C182.565 13.5833 182.312 11.1505 180.892 9.32584C179.372 7.34915 176.787 6.43684 174.303 5.98068C171.82 5.52453 169.235 5.32179 166.954 4.30811"
      fill="#263238" />
    <path
      d="M168.07 10.137C168.121 10.0863 167.107 8.92057 166.651 7.04525C166.195 5.22062 166.549 3.64941 166.448 3.64941C166.448 3.64941 166.296 4.0042 166.245 4.6631C166.195 5.27131 166.195 6.18362 166.448 7.09594C166.701 8.00825 167.056 8.8192 167.411 9.32604C167.766 9.88356 168.019 10.1877 168.07 10.137Z"
      fill="#455A64" />
    <path
      d="M181.955 20.4765C181.955 20.4765 182.006 20.3751 182.057 20.223C182.107 20.071 182.209 19.8176 182.31 19.5135C182.513 18.8546 182.715 17.8916 182.665 16.6751C182.614 15.4587 182.259 13.9889 181.296 12.6711C180.789 12.0122 180.181 11.4547 179.37 10.9985C178.61 10.593 177.698 10.3903 176.785 10.2383C175.873 10.1369 174.961 10.0862 174.099 9.93415C173.237 9.83279 172.427 9.57937 171.717 9.27526C170.298 8.61637 169.183 7.65337 168.422 6.74105C167.662 5.82874 167.257 4.91642 167.054 4.30821C167.003 4.15616 166.953 4.00411 166.902 3.90274C166.851 3.80137 166.851 3.7 166.801 3.59864C166.75 3.44658 166.699 3.34521 166.699 3.34521C166.699 3.34521 166.699 3.44658 166.75 3.59864C166.75 3.7 166.801 3.80137 166.801 3.90274C166.851 4.05479 166.902 4.15616 166.953 4.30821C167.155 4.96711 167.561 5.87942 168.321 6.84242C169.031 7.80542 170.146 8.8191 171.616 9.478C172.325 9.83279 173.187 10.0355 174.048 10.1876C174.91 10.3396 175.822 10.3396 176.735 10.4917C177.647 10.593 178.509 10.7958 179.269 11.2013C180.029 11.6067 180.637 12.1643 181.144 12.7725C182.107 14.0396 182.462 15.4587 182.513 16.6245C182.563 17.8409 182.361 18.8039 182.209 19.4121C182.107 19.7162 182.057 19.9696 182.006 20.1724C181.955 20.3751 181.955 20.4765 181.955 20.4765Z"
      fill="#455A64" />
    <path
      d="M184.645 14.4956C184.645 14.4956 184.645 14.3942 184.645 14.2422C184.645 14.0901 184.645 13.8874 184.595 13.5833C184.493 13.0257 184.29 12.1641 183.784 11.2518C183.277 10.3395 182.415 9.37648 181.249 8.6669C180.641 8.31211 179.982 8.05869 179.222 7.85595C178.462 7.7039 177.701 7.7039 176.941 7.55185C176.181 7.45048 175.471 7.09569 175.066 6.48748C174.863 6.18338 174.711 5.87927 174.559 5.52448C174.407 5.22038 174.204 4.86559 174.052 4.61217C173.241 3.44643 172.177 2.73685 171.214 2.38207C170.251 2.02728 169.389 1.92591 168.781 1.97659C168.477 1.97659 168.274 2.02728 168.122 2.02728C167.97 2.07796 167.869 2.07796 167.919 2.07796C167.919 2.12864 168.224 2.02728 168.832 2.02728C169.389 2.02728 170.251 2.12864 171.214 2.53412C172.126 2.93959 173.191 3.64917 173.951 4.76422C174.154 5.01764 174.306 5.32175 174.458 5.67654C174.61 5.98064 174.762 6.33543 174.965 6.63953C175.167 6.94364 175.471 7.24774 175.826 7.45048C176.181 7.65322 176.586 7.75459 176.941 7.80527C177.752 7.95732 178.512 7.95732 179.222 8.10937C179.932 8.26143 180.59 8.51485 181.199 8.86964C182.364 9.52853 183.226 10.4915 183.733 11.3532C184.24 12.2148 184.493 13.0764 184.595 13.6339C184.595 14.1915 184.595 14.4956 184.645 14.4956Z"
      fill="#455A64" />
    <path
      d="M179.523 29.0419C179.523 29.0419 179.574 29.1432 179.777 29.2953C180.233 29.1432 181.348 28.5857 182.514 27.4707C183.071 26.9131 183.68 26.1529 184.186 25.3419C184.338 25.1392 184.49 24.9364 184.643 24.7844C184.845 24.6323 185.048 24.4803 185.251 24.3282C185.707 24.0241 186.062 23.568 186.315 23.0611C186.619 22.4529 186.67 21.7433 186.619 21.1351C186.569 20.5269 186.366 19.9187 186.112 19.4119C185.859 18.905 185.504 18.4489 185.352 17.9927C185.149 17.5366 185.149 17.0804 185.2 16.6749C185.251 16.2695 185.352 15.864 185.453 15.5599C185.555 15.2051 185.606 14.9517 185.606 14.6983C185.606 14.4448 185.606 14.2421 185.555 14.1407C185.504 14.0394 185.504 13.938 185.504 13.938C185.453 13.938 185.606 14.1914 185.555 14.6476C185.555 14.901 185.453 15.1544 185.403 15.5092C185.301 15.8133 185.2 16.2188 185.099 16.6242C184.997 17.0297 185.048 17.5872 185.251 18.0434C185.453 18.5502 185.758 18.9557 186.011 19.4626C186.264 19.9694 186.416 20.5269 186.467 21.1351C186.518 21.7433 186.467 22.3516 186.214 22.9598C186.011 23.4666 185.656 23.8214 185.2 24.1255C184.997 24.2776 184.795 24.4296 184.592 24.6323C184.389 24.8351 184.237 25.0378 184.085 25.2406C183.527 26.0515 183.021 26.8118 182.463 27.3693C181.348 28.535 180.284 29.0419 179.828 29.2953H179.878C179.625 29.0925 179.523 29.0419 179.523 29.0419Z"
      fill="#455A64" />
    <path
      d="M98.0715 23.5683C96.9564 21.7944 95.1318 20.4259 92.9017 19.8684C88.3401 18.7533 83.7786 21.541 82.6635 26.1025C81.5485 30.6641 84.3361 35.2257 88.8977 36.3407C91.1784 36.8983 93.4085 36.4421 95.2332 35.327L95.3345 35.2764L89.5565 58.8952L108.107 63.4061L108.056 63.3047C106.941 61.4294 106.485 59.1993 107.043 56.9692C108.158 52.4076 112.719 49.62 117.281 50.735C121.842 51.8501 124.63 56.4117 123.515 60.9732C122.957 63.2033 121.589 64.9773 119.815 66.143L119.612 66.2444L139.582 71.1101C143.89 61.4801 146.424 48.5556 141.102 33.8065C132.537 9.98497 112.871 2.5344 106.13 0.659088L103.799 0.101562L98.0208 23.7204L98.0715 23.5683Z"
      fill="#E0E0E0" />
    <path
      d="M98.0687 23.5682C98.0687 23.5682 98.0687 23.6189 98.17 23.771C98.3728 22.808 100.451 14.293 103.847 0.101465V0.0507812H103.897C104.506 0.202834 105.164 0.354886 105.823 0.506939C106.482 0.658991 107.09 0.861728 107.749 1.06446C109.067 1.46994 110.385 1.97678 111.753 2.5343C114.44 3.64936 117.227 5.06851 120.015 6.84246C122.752 8.6164 125.489 10.6945 128.074 13.178C130.608 15.7122 133.041 18.5505 135.22 21.7436C135.778 22.5545 136.234 23.4162 136.741 24.2271C136.994 24.6326 137.247 25.0888 137.501 25.4942C137.754 25.9504 137.957 26.3559 138.16 26.812C138.616 27.7243 139.072 28.586 139.528 29.4983C139.934 30.4613 140.289 31.3736 140.694 32.3366C142.215 36.1379 143.33 40.294 143.887 44.6022C144.394 48.9103 144.394 53.4212 143.684 57.8814C143.532 58.9965 143.279 60.1115 143.076 61.2266C142.823 62.3416 142.519 63.4567 142.215 64.5717C141.556 66.8018 140.745 68.9812 139.782 71.11L139.731 71.2113L139.63 71.1606C135.169 70.0963 130.456 68.9305 125.692 67.7648C123.664 67.258 121.637 66.8018 119.66 66.295L119.356 66.2443L119.609 66.0922C121.079 65.1799 122.296 63.8621 122.955 62.2402C123.309 61.48 123.512 60.6183 123.613 59.7567C123.715 58.8951 123.664 58.0335 123.512 57.2225C123.461 56.817 123.309 56.4116 123.157 56.0061C123.005 55.6006 122.853 55.2458 122.6 54.8404C122.194 54.1308 121.687 53.4212 121.079 52.8637C119.863 51.6979 118.342 50.9377 116.67 50.6843C115.048 50.3801 113.375 50.6336 111.855 51.2925C110.385 51.9514 109.118 53.0664 108.256 54.3842C107.851 55.0431 107.496 55.8034 107.293 56.5636C107.04 57.3239 106.938 58.0841 106.938 58.8951C106.938 60.4663 107.395 62.0375 108.205 63.3046L108.358 63.558L108.053 63.5073C101.566 61.9361 95.3824 60.4156 89.503 58.9458L89.4017 58.8951L89.4524 58.7937C91.5811 50.1774 93.5071 42.2707 95.2303 35.1749L95.3824 35.2763C94.0646 36.0872 92.5441 36.5434 91.0742 36.5941C89.6044 36.6447 88.1346 36.29 86.9181 35.6311C84.3839 34.364 82.8634 31.8804 82.4579 29.4476C82.0525 27.0148 82.762 24.6326 84.0291 22.96C85.2963 21.2368 87.0702 20.2231 88.7428 19.8176C89.6044 19.6149 90.4153 19.5135 91.1756 19.5642C91.9359 19.6149 92.6455 19.7162 93.3043 19.919C94.5715 20.2738 95.5851 20.882 96.244 21.4902C96.9536 22.0477 97.4098 22.6052 97.6632 22.96C97.9673 23.3148 98.0687 23.5682 98.0687 23.5682C98.0687 23.5682 98.018 23.5175 97.9673 23.4162C97.9166 23.3148 97.8152 23.1628 97.6632 23.0107C97.3591 22.6559 96.9536 22.0984 96.244 21.5409C95.5344 20.9833 94.5715 20.3751 93.3043 20.0203C92.6455 19.8176 91.9866 19.7162 91.2263 19.7162C90.466 19.7162 89.6551 19.7669 88.8441 19.9697C87.2222 20.4258 85.4483 21.4395 84.2319 23.1121C83.0155 24.7846 82.3059 27.1161 82.7114 29.4983C83.1168 31.8804 84.6374 34.3133 87.1209 35.5297C88.3373 36.1886 89.7565 36.5434 91.1756 36.4927C92.6454 36.442 94.1153 35.9858 95.3824 35.2256L95.5851 35.0735L95.5344 35.327C93.8112 42.4227 91.8852 50.3295 89.8071 58.9458L89.7058 58.7937C95.5851 60.2129 101.769 61.7334 108.256 63.3046L108.104 63.5073C107.242 62.1389 106.786 60.5677 106.786 58.9458C106.786 58.1348 106.888 57.3239 107.141 56.5636C107.344 55.7527 107.699 55.0431 108.155 54.3335C109.016 52.965 110.334 51.7993 111.855 51.1404C113.375 50.4308 115.149 50.2281 116.822 50.5322C118.494 50.7856 120.116 51.5966 121.333 52.813C121.992 53.4212 122.498 54.1308 122.904 54.8404C123.107 55.1951 123.309 55.6006 123.461 56.0061C123.613 56.4116 123.715 56.817 123.816 57.2732C123.968 58.1348 124.07 58.9965 123.968 59.9088C123.867 60.7704 123.664 61.632 123.309 62.443C122.6 64.0649 121.383 65.484 119.863 66.3963L119.812 66.1429C121.789 66.6498 123.816 67.1059 125.844 67.6128C130.608 68.7785 135.321 69.9442 139.782 71.0086L139.63 71.0593C140.593 68.9305 141.404 66.7511 142.062 64.521C142.417 63.406 142.671 62.2909 142.924 61.2266C143.127 60.1115 143.38 58.9965 143.532 57.8814C144.242 53.4212 144.242 48.961 143.735 44.6528C143.178 40.3447 142.062 36.2393 140.542 32.438C140.136 31.475 139.782 30.5626 139.376 29.5996C138.92 28.6873 138.464 27.775 138.058 26.9134C137.856 26.4572 137.602 26.0011 137.4 25.5956C137.146 25.1901 136.893 24.734 136.639 24.3285C136.132 23.5175 135.676 22.6559 135.119 21.845C132.99 18.6519 130.557 15.8136 128.023 13.33C125.438 10.8465 122.701 8.76846 119.964 6.99451C117.227 5.22056 114.44 3.80141 111.753 2.68636C110.385 2.12883 109.067 1.62199 107.749 1.21652C107.09 1.01378 106.432 0.811044 105.823 0.658991C105.164 0.506939 104.556 0.354886 103.948 0.202834L104.049 0.15215C100.552 14.3437 98.4741 22.8587 98.2207 23.771C98.1193 23.5682 98.0687 23.5682 98.0687 23.5682Z"
      fill="#263238" />
    <path
      d="M139.08 28.9914C139.08 28.9914 138.37 25.5449 138.32 24.4298C138.269 23.3148 135.228 21.5408 135.228 21.5408L136.039 23.0613L136.242 23.5682C136.242 23.5682 136.089 24.4805 135.532 24.2778C135.025 24.1257 129.501 20.4258 129.501 20.4258C128.335 19.6655 127.929 20.3751 127.929 20.3751C127.929 20.3751 127.118 19.8176 126.713 20.3244C126.459 20.6285 126.966 21.4901 126.966 21.4901C126.966 21.4901 126.206 20.7299 125.598 21.186C124.99 21.6422 126.307 23.0613 126.307 23.0613C125.902 24.0243 128.385 26.8627 129.044 27.6229C129.703 28.3832 136.444 33.8571 136.444 33.8571L140.246 30.5119L139.08 28.9914Z"
      fill="#FFBE9D" />
    <path
      d="M133.298 24.9877C133.298 24.9877 132.944 24.8357 132.386 24.4809C131.828 24.1261 131.119 23.6193 130.359 22.9604C129.598 22.3015 128.99 21.6933 128.585 21.1864C128.129 20.7303 127.926 20.3755 127.926 20.3755C127.926 20.3755 128.23 20.6289 128.686 21.0851C129.142 21.5412 129.75 22.1494 130.511 22.8083C131.271 23.4672 131.93 23.9741 132.487 24.3289C132.994 24.785 133.349 24.9877 133.298 24.9877Z"
      fill="#EB996E" />
    <path
      d="M132.032 26.2543C132.032 26.2543 131.728 26.0516 131.221 25.6461C130.765 25.2407 130.106 24.7338 129.396 24.0749C128.687 23.4667 128.129 22.8585 127.673 22.4024C127.268 21.9462 127.014 21.6421 127.065 21.6421C127.065 21.6421 127.369 21.8955 127.775 22.3517C128.231 22.8078 128.788 23.3654 129.498 23.9736C130.157 24.5818 130.765 25.0886 131.272 25.5448C131.779 26.0009 132.032 26.2543 132.032 26.2543Z"
      fill="#EB996E" />
    <path
      d="M130.515 27.3695C130.515 27.3695 130.211 27.2174 129.755 26.9133C129.299 26.6092 128.741 26.1024 128.133 25.4942C127.576 24.886 127.069 24.3284 126.765 23.8723C126.461 23.4161 126.258 23.1627 126.258 23.112C126.308 23.0613 127.119 24.1764 128.234 25.3421C128.792 25.9503 129.35 26.4065 129.806 26.7613C130.262 27.1161 130.566 27.3188 130.515 27.3695Z"
      fill="#EB996E" />
    <path
      d="M159.656 160.416L159.757 170.756C159.757 170.756 149.265 174.354 149.113 176.229L169.134 176.736L169.64 160.619L159.656 160.416Z"
      fill="#455A64" />
    <g opacity="0.6">
      <g opacity="0.6">
        <g opacity="0.6">
          <g opacity="0.6">
            <g opacity="0.6">
              <g opacity="0.6">
                <path opacity="0.6"
                  d="M165.991 170.046C166.397 170.147 166.65 170.604 166.549 171.009C166.447 171.415 165.991 171.668 165.636 171.567C165.231 171.465 164.927 170.958 165.079 170.553C165.231 170.198 165.788 169.894 166.093 170.097"
                  fill="white" />
              </g>
            </g>
          </g>
        </g>
      </g>
    </g>
    <g opacity="0.6">
      <g opacity="0.6">
        <g opacity="0.6">
          <g opacity="0.6">
            <g opacity="0.6">
              <path opacity="0.6"
                d="M169.184 176.736V175.114L149.975 175.216C149.975 175.216 149.063 175.57 149.164 176.229L169.184 176.736Z"
                fill="white" />
            </g>
          </g>
        </g>
      </g>
    </g>
    <path
      d="M159.452 170.654C159.452 170.756 159.959 170.806 160.415 171.161C160.922 171.465 161.125 171.921 161.226 171.871C161.327 171.871 161.175 171.262 160.618 170.857C160.01 170.451 159.401 170.553 159.452 170.654Z"
      fill="#263238" />
    <path
      d="M157.312 171.465C157.312 171.566 157.718 171.718 158.022 172.174C158.377 172.58 158.428 173.036 158.529 173.036C158.63 173.036 158.681 172.479 158.275 171.972C157.87 171.414 157.312 171.363 157.312 171.465Z"
      fill="#263238" />
    <path
      d="M156.063 173.95C156.164 173.95 156.316 173.494 156.063 172.936C155.809 172.379 155.353 172.176 155.353 172.227C155.303 172.328 155.607 172.582 155.759 173.038C155.961 173.494 155.961 173.899 156.063 173.95Z"
      fill="#263238" />
    <path
      d="M159.648 168.273C159.699 168.375 160.155 168.223 160.712 168.273C161.27 168.324 161.675 168.527 161.726 168.425C161.777 168.375 161.371 167.969 160.712 167.918C160.104 167.918 159.597 168.172 159.648 168.273Z"
      fill="#263238" />
    <g opacity="0.3">
      <g opacity="0.3">
        <g opacity="0.3">
          <g opacity="0.3">
            <g opacity="0.3">
              <path opacity="0.3" d="M159.648 162.444L159.699 164.319L169.532 164.471L169.583 162.799L159.648 162.444Z"
                fill="black" />
            </g>
          </g>
        </g>
      </g>
    </g>
    <path
      d="M159.715 166.194C159.715 166.245 160.12 166.296 160.729 166.194C161.033 166.143 161.387 166.042 161.793 165.89C161.996 165.789 162.198 165.738 162.401 165.586C162.502 165.535 162.604 165.485 162.705 165.333C162.807 165.231 162.908 164.978 162.756 164.826C162.655 164.674 162.502 164.623 162.35 164.572C162.198 164.572 162.097 164.572 161.996 164.623C161.793 164.674 161.539 164.724 161.387 164.826C160.982 164.978 160.678 165.18 160.424 165.434C159.968 165.839 159.766 166.194 159.816 166.245C159.867 166.296 160.07 165.991 160.576 165.637C160.83 165.485 161.134 165.282 161.489 165.13C161.692 165.079 161.844 165.028 162.046 164.978C162.249 164.927 162.452 164.927 162.502 165.028C162.502 165.079 162.502 165.079 162.502 165.13C162.452 165.18 162.35 165.231 162.3 165.282C162.097 165.383 161.945 165.485 161.742 165.586C161.387 165.738 161.033 165.839 160.779 165.941C160.07 166.093 159.715 166.143 159.715 166.194Z"
      fill="#263238" />
    <path
      d="M159.797 166.347C159.848 166.347 160.051 165.992 160.102 165.384C160.102 165.08 160.102 164.674 160 164.269C159.95 164.066 159.848 163.863 159.747 163.661C159.645 163.458 159.493 163.204 159.139 163.154C158.936 163.154 158.784 163.306 158.733 163.407C158.682 163.559 158.632 163.661 158.632 163.762C158.581 164.015 158.581 164.218 158.632 164.421C158.682 164.826 158.834 165.232 159.037 165.485C159.392 165.992 159.797 166.144 159.848 166.093C159.899 166.043 159.544 165.84 159.24 165.333C159.088 165.08 158.987 164.776 158.936 164.37C158.936 164.167 158.936 163.965 158.987 163.813C159.037 163.61 159.088 163.407 159.189 163.458C159.291 163.458 159.443 163.61 159.544 163.813C159.645 164.015 159.696 164.167 159.797 164.37C159.899 164.725 159.95 165.08 159.95 165.384C159.848 165.941 159.747 166.296 159.797 166.347Z"
      fill="#263238" />
    <path
      d="M193.309 146.072L202.482 150.836C202.482 150.836 200.708 161.734 202.33 162.798L212.214 145.363L198.225 137.354L193.309 146.072Z"
      fill="#455A64" />
    <g opacity="0.6">
      <g opacity="0.6">
        <g opacity="0.6">
          <g opacity="0.6">
            <g opacity="0.6">
              <g opacity="0.6">
                <path opacity="0.6"
                  d="M204.773 145.007C205.077 144.703 205.584 144.703 205.888 144.956C206.192 145.21 206.192 145.767 205.938 146.021C205.685 146.325 205.026 146.375 204.773 146.071C204.519 145.767 204.519 145.159 204.874 144.956"
                  fill="white" />
              </g>
            </g>
          </g>
        </g>
      </g>
    </g>
    <g opacity="0.6">
      <g opacity="0.6">
        <g opacity="0.6">
          <g opacity="0.6">
            <g opacity="0.6">
              <path opacity="0.6"
                d="M212.213 145.362L210.794 144.602L201.874 161.632C201.874 161.632 201.772 162.595 202.38 162.798L212.213 145.362Z"
                fill="white" />
            </g>
          </g>
        </g>
      </g>
    </g>
    <path
      d="M202.228 151.039C202.329 151.09 202.583 150.684 203.09 150.431C203.596 150.177 204.103 150.127 204.103 150.025C204.154 149.924 203.546 149.772 202.938 150.127C202.329 150.481 202.127 151.039 202.228 151.039Z"
      fill="#263238" />
    <path
      d="M201.976 153.32C202.027 153.37 202.382 153.117 202.939 153.015C203.446 152.914 203.902 153.066 203.953 152.965C204.003 152.914 203.547 152.559 202.888 152.661C202.179 152.813 201.875 153.269 201.976 153.32Z"
      fill="#263238" />
    <path
      d="M203.548 155.601C203.598 155.55 203.243 155.195 202.635 155.144C202.027 155.094 201.622 155.398 201.672 155.448C201.723 155.55 202.128 155.398 202.585 155.448C203.142 155.499 203.497 155.702 203.548 155.601Z"
      fill="#263238" />
    <path
      d="M200.253 149.772C200.355 149.772 200.456 149.316 200.76 148.86C201.064 148.404 201.419 148.1 201.368 147.998C201.318 147.897 200.811 148.1 200.456 148.657C200.152 149.215 200.202 149.772 200.253 149.772Z"
      fill="#263238" />
    <g opacity="0.3">
      <g opacity="0.3">
        <g opacity="0.3">
          <g opacity="0.3">
            <g opacity="0.3">
              <path opacity="0.3" d="M195.141 147.034L196.763 147.845L201.527 139.228L200.108 138.417L195.141 147.034Z"
                fill="black" />
            </g>
          </g>
        </g>
      </g>
    </g>
    <path
      d="M198.426 148.758C198.477 148.758 198.68 148.454 198.933 147.897C199.035 147.593 199.136 147.238 199.187 146.832C199.187 146.63 199.237 146.427 199.187 146.173C199.187 146.072 199.187 145.92 199.136 145.768C199.085 145.616 198.883 145.464 198.68 145.464C198.477 145.464 198.325 145.616 198.274 145.717C198.173 145.819 198.173 145.971 198.122 146.072C198.072 146.275 198.021 146.528 198.021 146.731C197.97 147.136 198.021 147.542 198.072 147.846C198.224 148.454 198.477 148.758 198.477 148.758C198.528 148.758 198.376 148.404 198.274 147.795C198.224 147.491 198.224 147.136 198.274 146.782C198.325 146.579 198.325 146.376 198.426 146.173C198.477 145.971 198.579 145.819 198.68 145.819C198.731 145.819 198.731 145.819 198.781 145.869C198.832 145.92 198.832 146.021 198.832 146.173C198.832 146.376 198.832 146.579 198.832 146.782C198.832 147.187 198.731 147.542 198.68 147.795C198.528 148.404 198.376 148.708 198.426 148.758Z"
      fill="#263238" />
    <path
      d="M198.631 148.708C198.682 148.708 198.429 148.353 197.922 147.998C197.668 147.846 197.313 147.694 196.908 147.593C196.705 147.542 196.503 147.542 196.249 147.491C195.996 147.491 195.742 147.491 195.489 147.795C195.387 147.947 195.438 148.201 195.54 148.302C195.641 148.404 195.742 148.505 195.793 148.556C195.996 148.708 196.198 148.809 196.401 148.91C196.807 149.062 197.212 149.113 197.516 149.062C198.175 148.961 198.479 148.657 198.429 148.657C198.378 148.606 198.074 148.809 197.466 148.809C197.161 148.809 196.807 148.758 196.503 148.606C196.35 148.556 196.148 148.454 195.996 148.302C195.844 148.15 195.692 147.998 195.793 147.947C195.844 147.846 196.046 147.795 196.249 147.795C196.452 147.795 196.655 147.795 196.857 147.846C197.212 147.897 197.567 148.049 197.82 148.15C198.327 148.454 198.581 148.758 198.631 148.708Z"
      fill="#263238" />
    <path
      d="M175.976 84.0854C175.976 84.0854 178.257 92.4483 177.801 95.2866C177.649 96.2496 176.939 99.1893 176.432 101.419C175.571 105.373 174.76 110.289 174.506 111.252L176.888 118.196L201.622 138.267L195.439 149.62L171.516 134.465L170.654 141.054C170.654 141.054 170.857 156.361 170.249 163.812L158.591 163.406L156.564 124.785L153.32 84.6937L175.976 84.0854Z"
      fill="#263238" />
    <path
      d="M170.802 140.852C170.802 140.852 170.802 140.801 170.853 140.75C170.853 140.649 170.904 140.548 170.904 140.396C170.954 140.092 171.005 139.635 171.056 139.129C171.208 137.963 171.36 136.392 171.613 134.415C172.069 130.411 172.728 124.886 173.59 118.804C174.452 112.722 175.313 107.248 176.124 103.295C176.53 101.318 176.834 99.747 177.138 98.632C177.239 98.1251 177.341 97.669 177.442 97.3649C177.493 97.0607 177.543 96.9087 177.543 96.9087C177.543 96.9087 177.493 97.0607 177.391 97.3649C177.29 97.669 177.188 98.0744 177.036 98.632C176.732 99.6963 176.378 101.318 175.972 103.295C175.161 107.248 174.198 112.722 173.336 118.804C172.475 124.886 171.867 130.411 171.41 134.415C171.208 136.392 171.056 138.014 170.954 139.179C170.904 139.737 170.853 140.142 170.853 140.446C170.802 140.7 170.752 140.852 170.802 140.852Z"
      fill="#455A64" />
    <path
      d="M183.021 45.8189L177.8 71.6171C177.8 71.6171 183.122 83.68 182.514 88.3936C182.159 91.1305 179.169 96.199 179.169 96.199L153.066 86.569C153.066 86.569 155.601 56.9187 157.273 51.2928C159.605 43.3861 166.903 34.2629 166.903 34.2629L167.055 31.5767L180.284 31.7794L180.182 34.4657C180.233 34.4657 184.541 39.3313 183.021 45.8189Z"
      fill="#00B3D9" />
    <path d="M153.52 55.4996C155.446 55.5502 177.797 51.4448 177.797 51.4448L153.52 55.4996Z" fill="#FF725E" />
    <path
      d="M174.91 60.0107C174.91 60.0107 174.91 60.0614 174.91 60.1628C174.91 60.2642 174.91 60.4162 174.961 60.5176C175.011 60.8217 175.062 61.3285 175.113 61.8861C175.265 63.0518 175.569 64.623 176.025 66.3463C176.481 68.0695 176.988 69.59 177.444 70.7051C177.647 71.2626 177.85 71.6681 177.951 71.9722C178.002 72.0736 178.052 72.2256 178.103 72.327C178.154 72.4284 178.154 72.4284 178.154 72.4284C178.154 72.4284 178.154 72.3777 178.103 72.327C178.052 72.2256 178.002 72.1243 177.951 71.9722C177.85 71.6681 177.647 71.2119 177.444 70.7051C177.039 69.59 176.532 68.0695 176.076 66.3463C175.62 64.623 175.316 63.0518 175.113 61.8861C175.011 61.3285 174.961 60.8217 174.91 60.5176C174.91 60.3655 174.859 60.2642 174.859 60.1628C174.961 60.0614 174.91 60.0107 174.91 60.0107Z"
      fill="#263238" />
    <path
      d="M176.278 95.2364C176.329 95.2364 176.684 94.3241 177.191 93.209C177.647 92.094 178.002 91.1816 178.002 91.1816C177.951 91.1816 177.596 92.094 177.089 93.209C176.582 94.3241 176.228 95.2364 176.278 95.2364Z"
      fill="#263238" />
    <path
      d="M172.224 93.7157C172.274 93.7157 172.629 92.854 173.035 91.7897C173.44 90.7253 173.795 89.813 173.744 89.813C173.693 89.813 173.339 90.6746 172.933 91.739C172.528 92.854 172.173 93.7157 172.224 93.7157Z"
      fill="#263238" />
    <path
      d="M167.512 92.1443C167.512 92.1443 167.562 92.0936 167.613 91.9922C167.664 91.8909 167.765 91.7388 167.867 91.5361C168.069 91.1306 168.272 90.6238 168.525 90.0156C168.728 89.4073 168.88 88.8498 168.982 88.3937C169.032 88.1909 169.083 88.0389 169.083 87.8868C169.083 87.7854 169.134 87.6841 169.083 87.6841C169.083 87.6841 168.982 87.9375 168.88 88.343C168.779 88.7485 168.576 89.306 168.373 89.9142C168.171 90.5224 167.917 91.0799 167.765 91.4347C167.613 91.8909 167.512 92.1443 167.512 92.1443Z"
      fill="#263238" />
    <path
      d="M163.402 90.6235C163.453 90.6235 163.808 89.6098 164.213 88.3427C164.619 87.0756 164.974 86.0112 164.923 86.0112C164.872 86.0112 164.517 87.0249 164.112 88.292C163.706 89.5591 163.402 90.5728 163.402 90.6235Z"
      fill="#263238" />
    <path
      d="M158.391 88.6476C158.441 88.6476 158.745 87.8367 159.1 86.7723C159.455 85.7586 159.759 84.897 159.759 84.897C159.708 84.897 159.404 85.7079 159.05 86.7723C158.644 87.786 158.391 88.6476 158.391 88.6476Z"
      fill="#263238" />
    <path
      d="M177.455 37.5077C179.077 37.7104 179.077 38.3693 180.952 40.3967C182.878 42.4241 180.952 48.3541 180.952 48.3541L175.225 52.7636L153.583 55.5006C153.583 55.5006 148.97 56.5143 145.017 50.3815C143.547 48.1007 133.562 33.1996 133.562 33.1996L140.151 28.79L153.38 42.9816L177.455 37.5077Z"
      fill="#00B3D9" />
    <g opacity="0.3">
      <path opacity="0.3"
        d="M160.368 54.6384C166.602 53.5234 172.634 52.4083 178.868 51.2426C179.121 51.1919 179.324 51.1412 179.577 51.2426C179.983 51.3947 180.135 52.0029 179.932 52.4083C179.729 52.8138 179.324 53.0672 178.969 53.27C176.942 54.3343 174.509 54.4357 172.228 54.4864C168.275 54.5878 162.699 54.7905 158.746 54.8919L160.368 54.6384Z"
        fill="black" />
    </g>
    <path
      d="M147.797 53.6244C147.797 53.6244 147.848 53.6751 148 53.8272C148.152 53.9792 148.354 54.1313 148.709 54.3847C149.317 54.7902 150.331 55.3477 151.7 55.4997C152.358 55.6011 153.119 55.6011 153.93 55.4997C154.741 55.3984 155.552 55.297 156.464 55.1956C158.238 54.9422 160.164 54.6381 162.191 54.334C166.246 53.6244 169.895 52.9655 172.581 52.5094C173.899 52.3066 174.964 52.1039 175.724 52.0025C176.079 51.9519 176.383 51.9012 176.585 51.8505C176.788 51.7998 176.89 51.7998 176.89 51.7998C176.89 51.7998 176.788 51.7998 176.585 51.8505C176.383 51.9012 176.079 51.9012 175.724 51.9519C174.964 52.0532 173.899 52.2053 172.581 52.4587C169.895 52.8642 166.246 53.5738 162.191 54.2326C160.164 54.5874 158.238 54.8915 156.464 55.0943C155.602 55.1956 154.741 55.3477 153.93 55.3984C153.169 55.5504 152.409 55.5504 151.75 55.4491C150.432 55.2463 149.419 54.7395 148.811 54.334C148.506 54.1313 148.253 53.9285 148.101 53.8272C147.898 53.7258 147.797 53.6244 147.797 53.6244Z"
      fill="#263238" />
    <path
      d="M181.396 47.2387C181.396 47.2387 181.396 47.188 181.447 47.1373C181.447 47.0359 181.497 46.9346 181.497 46.8332C181.548 46.5798 181.599 46.1743 181.7 45.7181C181.801 44.7551 181.953 43.3867 181.599 41.9168C181.244 40.447 180.331 39.3319 179.47 38.8251C179.064 38.5717 178.71 38.4196 178.405 38.3689C178.152 38.3183 178 38.2676 178 38.2676C178 38.3183 178.608 38.3183 179.419 38.8758C180.23 39.3826 181.092 40.4977 181.447 41.9168C181.801 43.336 181.7 44.7045 181.548 45.6675C181.497 46.1236 181.447 46.5291 181.396 46.7825C181.396 46.8839 181.345 46.9853 181.345 47.0866C181.396 47.188 181.396 47.2387 181.396 47.2387Z"
      fill="#263238" />
    <path
      d="M153.216 50.4821C153.216 50.4821 153.216 50.3807 153.216 50.178C153.216 49.9246 153.166 49.6712 153.166 49.3671C153.115 48.7082 153.064 47.7452 153.064 46.6808C153.115 45.6164 153.166 44.7041 153.267 44.0452C153.318 43.7411 153.369 43.4877 153.369 43.2343C153.419 43.0315 153.419 42.9302 153.419 42.9302C153.419 42.9302 153.369 43.0315 153.369 43.2343C153.318 43.437 153.267 43.6904 153.216 44.0452C153.115 44.7041 153.014 45.6671 152.963 46.7315C152.912 47.7959 153.014 48.7082 153.064 49.4177C153.115 49.7725 153.115 50.026 153.166 50.2287C153.216 50.3807 153.216 50.4821 153.216 50.4821Z"
      fill="#263238" />
    <path
      d="M174.91 38.2669C174.91 38.2669 174.758 38.3176 174.505 38.3683C174.2 38.419 173.846 38.5203 173.339 38.6724C172.274 38.9258 170.805 39.2299 169.031 39.6354C165.331 40.4463 160.313 41.5614 154.738 42.7778C154.332 42.8792 153.876 42.9805 153.521 43.0312H153.471L153.42 42.9805C149.72 39.0272 146.375 35.4793 143.993 32.8944C142.827 31.6273 141.864 30.6136 141.205 29.8533C140.901 29.4985 140.648 29.2451 140.445 29.0424C140.293 28.8396 140.191 28.7383 140.191 28.7383C140.191 28.7383 140.293 28.8396 140.496 28.9917C140.698 29.1944 140.952 29.4479 141.306 29.8026C142.016 30.5122 142.979 31.5259 144.195 32.793C146.628 35.3779 149.973 38.8751 153.724 42.8285L153.623 42.7778C154.028 42.6764 154.434 42.5751 154.839 42.5244C160.414 41.308 165.483 40.2436 169.183 39.4326C171.007 39.0778 172.477 38.7231 173.542 38.5203C174.048 38.419 174.454 38.3683 174.707 38.2669C174.758 38.2669 174.91 38.2669 174.91 38.2669Z"
      fill="#263238" />
    <path
      d="M115.51 84.8961L115.662 84.744C117.081 83.2235 117.994 81.1961 117.994 78.966C117.994 74.3538 114.243 70.6538 109.681 70.6538C105.12 70.6538 101.369 74.4044 101.369 78.966C101.369 81.2468 102.332 83.2742 103.802 84.7947L103.903 84.8961H84.0859V107.146L84.1873 107.045C85.7078 105.575 87.7352 104.612 90.016 104.612C94.6282 104.612 98.3282 108.363 98.3282 112.924C98.3282 117.537 94.5776 121.237 90.016 121.237C87.7859 121.237 85.7585 120.375 84.238 118.905L84.0859 118.753V144.247H106.438C106.438 144.247 107.451 135.732 108.465 129.295C109.479 122.808 123.924 109.63 128.08 104.156C129.752 101.926 133.858 94.6781 135.682 84.8961H115.51Z"
      fill="#E0E0E0" />
    <path
      d="M122.352 110.542C121.896 109.376 120.528 108.718 119.362 109.022C118.551 109.224 117.842 109.833 116.98 109.731C116.22 109.63 115.662 109.022 115.307 108.312C114.953 107.653 114.801 106.893 114.395 106.234C113.99 105.575 113.28 105.068 112.52 105.17C111.557 105.322 110.949 106.538 109.935 106.538C109.327 106.538 108.82 106.133 108.516 105.626C108.212 105.119 107.958 104.561 107.654 104.105C106.59 102.585 104.208 102.281 102.738 103.446C101.775 103.903 100.761 105.524 100.66 107.146C100.254 112.063 98.3282 112.924 98.3282 112.924C98.3282 117.537 94.5776 121.237 90.016 121.237C87.7859 121.237 85.7585 120.375 84.238 118.905L84.0859 118.753V144.247H106.438C106.438 144.247 107.451 135.732 108.465 129.295L108.414 129.143C108.414 129.093 108.414 129.042 108.465 128.941C109.073 124.328 122.352 110.542 122.352 110.542Z"
      fill="#00B3D9" />
    <path
      d="M115.51 84.896C116.017 84.896 122.859 84.8453 135.682 84.8453H135.783V84.9467C135.074 88.748 133.857 93.0055 131.931 97.5163C130.918 99.7465 129.803 102.078 128.231 104.257C126.61 106.386 124.684 108.413 122.707 110.542C120.73 112.671 118.703 114.85 116.675 117.131C114.648 119.463 112.621 121.895 110.796 124.582C109.934 125.95 109.073 127.369 108.667 128.991C108.363 130.613 108.161 132.286 107.907 134.009C107.451 137.405 106.995 140.851 106.539 144.399V144.501H106.437C99.2401 144.501 91.7895 144.501 84.0855 144.501H83.9335V144.348C83.9335 138.672 83.9335 132.64 83.9335 126.558C83.9335 123.973 83.9335 121.389 83.9335 118.854V118.55L84.1362 118.753C85.3527 119.969 86.9239 120.78 88.5458 121.084C89.3567 121.237 90.2183 121.237 91.0293 121.135C91.8402 121.034 92.6512 120.78 93.4114 120.426C93.8169 120.274 94.121 120.02 94.4758 119.817C94.8306 119.564 95.1347 119.311 95.4388 119.057C96.047 118.5 96.5539 117.841 96.9593 117.131C97.7703 115.712 98.1757 114.039 98.0237 112.417C97.9223 110.796 97.3141 109.224 96.3511 108.008C95.3881 106.741 94.0196 105.778 92.5498 105.271C91.7895 105.018 91.0293 104.866 90.269 104.815C89.5088 104.764 88.6978 104.866 87.9882 105.018C86.5184 105.372 85.0992 106.183 84.0855 107.248L83.8828 107.45V107.146C83.8828 99.2903 83.8828 91.8904 83.8828 84.896V84.7946H83.9842C91.1306 84.7946 97.7703 84.7946 103.802 84.7946L103.751 84.9467C102.636 83.8823 101.876 82.5138 101.47 81.1454C101.065 79.7262 101.115 78.2564 101.47 76.9386C102.129 74.2523 104.156 72.1743 106.387 71.262C108.667 70.3497 111.1 70.5017 112.976 71.3633C114.902 72.1743 116.27 73.6948 117.03 75.2153C117.436 75.9756 117.638 76.7358 117.791 77.4961C117.841 77.8509 117.892 78.2564 117.892 78.6112C117.892 78.966 117.943 79.3207 117.892 79.6249C117.791 80.9426 117.436 82.007 117.03 82.8179C116.625 83.6289 116.219 84.1357 115.915 84.4905C115.763 84.6426 115.662 84.7946 115.56 84.8453C115.56 84.7946 115.56 84.8453 115.51 84.896C115.51 84.8453 115.56 84.8453 115.611 84.7439C115.712 84.6426 115.814 84.5412 115.966 84.3385C116.27 83.9837 116.675 83.4262 117.081 82.6659C117.486 81.855 117.841 80.7906 117.943 79.5235C117.943 79.2194 117.943 78.8646 117.943 78.5098C117.943 78.155 117.892 77.8002 117.791 77.4454C117.638 76.7359 117.436 75.9249 117.03 75.2153C116.27 73.7455 114.902 72.2756 113.026 71.4647C111.151 70.6538 108.769 70.5017 106.539 71.414C104.359 72.3263 102.383 74.3537 101.724 76.9893C101.369 78.3071 101.369 79.7262 101.774 81.0947C102.129 82.4632 102.94 83.7809 104.004 84.8453L104.156 84.9974H103.903C97.8716 84.9974 91.232 84.9974 84.0855 84.9974L84.1869 84.896C84.1869 91.8397 84.1869 99.2903 84.1869 107.146L83.9842 107.045C85.0485 105.93 86.4677 105.119 88.0389 104.714C88.7992 104.511 89.6101 104.46 90.4211 104.511C91.232 104.511 91.9923 104.714 92.8032 104.967C94.3238 105.474 95.6922 106.487 96.7059 107.755C97.7196 109.022 98.3278 110.644 98.4798 112.316C98.5812 113.989 98.2264 115.712 97.3648 117.131C96.9593 117.891 96.4018 118.55 95.7936 119.108C95.4895 119.412 95.1347 119.665 94.7799 119.919C94.4251 120.121 94.0703 120.375 93.6649 120.527C92.9046 120.882 92.043 121.135 91.1813 121.237C90.3197 121.338 89.4581 121.338 88.5964 121.186C86.8732 120.882 85.2513 120.071 84.0349 118.804L84.2376 118.702C84.2376 121.237 84.2376 123.821 84.2376 126.406C84.2376 132.488 84.2376 138.469 84.2376 144.196L84.0855 144.044C91.7895 144.044 99.2401 144.044 106.437 144.044L106.336 144.146C106.792 140.598 107.198 137.151 107.704 133.756C107.958 132.083 108.161 130.41 108.465 128.738C108.87 127.065 109.732 125.646 110.644 124.278C112.469 121.541 114.496 119.108 116.523 116.827C118.551 114.496 120.578 112.316 122.555 110.238C124.532 108.109 126.457 106.133 128.079 104.004C129.651 101.825 130.766 99.5437 131.779 97.3136C133.756 92.8534 134.972 88.5959 135.682 84.7946L135.733 84.896C122.859 84.896 116.017 84.896 115.51 84.896Z"
      fill="#263238" />
    <path
      d="M100.661 100.76C100.661 101.824 99.799 102.686 98.7346 102.686C97.6702 102.686 96.8086 101.824 96.8086 100.76C96.8086 99.6956 97.6702 98.834 98.7346 98.834C99.799 98.834 100.661 99.6956 100.661 100.76Z"
      fill="#00B3D9" />
    <g opacity="0.2">
      <path opacity="0.2"
        d="M90.7218 121.085C88.7451 121.237 86.5657 120.477 85.6533 118.703L84.1328 119.362C84.1328 120.375 85.3999 122.352 86.3122 122.757C88.1875 123.518 90.3163 123.822 92.1916 123.214C94.1176 122.605 95.7902 120.73 96.1956 118.753C94.4724 120.02 92.6984 120.933 90.7218 121.085Z"
        fill="black" />
    </g>
    <path
      d="M29.0722 160.767L25.575 169.282C25.575 169.282 33.0763 175.719 32.5694 177.341L15.793 171.107L20.7093 157.574L29.0722 160.767Z"
      fill="#FF725E" />
    <g opacity="0.3">
      <g opacity="0.3">
        <g opacity="0.3">
          <g opacity="0.3">
            <g opacity="0.3">
              <g opacity="0.3">
                <g opacity="0.3">
                  <g opacity="0.3">
                    <g opacity="0.3">
                      <g opacity="0.3">
                        <g opacity="0.3">
                          <g opacity="0.3">
                            <g opacity="0.3">
                              <path opacity="0.3"
                                d="M29.0722 160.767L25.575 169.282C25.575 169.282 33.0763 175.719 32.5694 177.341L15.793 171.107L20.7093 157.574L29.0722 160.767Z"
                                fill="black" />
                            </g>
                          </g>
                        </g>
                      </g>
                    </g>
                  </g>
                </g>
              </g>
            </g>
          </g>
        </g>
      </g>
    </g>
    <path
      d="M20.6369 166.649C20.2821 166.598 19.9273 166.903 19.8766 167.257C19.826 167.612 20.1301 167.967 20.4849 168.018C20.8396 168.068 21.2958 167.713 21.2958 167.359C21.2958 167.004 20.941 166.598 20.5862 166.649"
      fill="#E0E0E0" />
    <path
      d="M15.793 171.158L16.3505 169.84L32.2146 176.328C32.2146 176.328 32.8228 176.936 32.5694 177.443L15.793 171.158Z"
      fill="#263238" />
    <path
      d="M25.8534 169.284C25.8027 169.386 25.3973 169.234 24.8904 169.386C24.3836 169.487 24.0288 169.741 23.9781 169.69C23.9274 169.639 24.2315 169.183 24.8397 169.082C25.4479 168.93 25.9041 169.234 25.8534 169.284Z"
      fill="#263238" />
    <path
      d="M27.3236 170.704C27.3236 170.805 26.9181 170.805 26.5127 171.059C26.1072 171.312 25.9045 171.616 25.8031 171.616C25.7017 171.616 25.8538 171.109 26.3606 170.805C26.8674 170.45 27.3743 170.603 27.3236 170.704Z"
      fill="#263238" />
    <path
      d="M27.5801 173.137C27.4787 173.137 27.5294 172.681 27.9349 172.326C28.2897 171.971 28.7458 171.92 28.7458 172.022C28.7458 172.123 28.4417 172.275 28.1376 172.579C27.7828 172.833 27.6308 173.187 27.5801 173.137Z"
      fill="#263238" />
    <path
      d="M26.4142 167.257C26.3635 167.308 26.0087 167.055 25.5525 166.903C25.0964 166.751 24.6402 166.751 24.6402 166.7C24.5895 166.598 25.0964 166.446 25.6539 166.599C26.2114 166.801 26.5155 167.207 26.4142 167.257Z"
      fill="#263238" />
    <path
      d="M20.4977 162.187L20.2442 171.918C20.2442 171.918 30.0263 175.466 30.1783 177.29L11.3238 177.442L11.1211 162.288L20.4977 162.187Z"
      fill="#FF725E" />
    <path
      d="M14.4161 171.163C14.0613 171.264 13.8079 171.67 13.9092 172.025C14.0106 172.379 14.4161 172.633 14.7709 172.532C15.1257 172.43 15.4298 171.974 15.3284 171.569C15.1763 171.214 14.6695 170.96 14.3654 171.112"
      fill="#E0E0E0" />
    <path d="M11.2734 177.8V176.33H29.4184C29.4184 176.33 30.28 176.685 30.1786 177.293L11.2734 177.8Z"
      fill="#263238" />
    <path
      d="M20.573 171.819C20.573 171.92 20.1168 171.971 19.6606 172.275C19.2045 172.579 18.9511 172.985 18.9004 172.934C18.799 172.934 18.9511 172.376 19.5086 172.022C20.0154 171.667 20.573 171.768 20.573 171.819Z"
      fill="#263238" />
    <path
      d="M22.5769 172.63C22.5769 172.732 22.2221 172.884 21.8673 173.289C21.5632 173.695 21.4619 174.1 21.3605 174.1C21.2591 174.1 21.2084 173.593 21.6139 173.086C22.0194 172.58 22.5769 172.529 22.5769 172.63Z"
      fill="#263238" />
    <path
      d="M23.6913 175.012C23.5899 175.012 23.4885 174.556 23.6913 174.049C23.9447 173.542 24.3502 173.34 24.4008 173.39C24.4515 173.441 24.1981 173.745 23.9954 174.151C23.7926 174.607 23.7926 175.012 23.6913 175.012Z"
      fill="#263238" />
    <path
      d="M20.356 169.59C20.3054 169.691 19.8999 169.539 19.393 169.59C18.8862 169.64 18.4807 169.792 18.43 169.742C18.3794 169.691 18.7848 169.336 19.393 169.285C20.0013 169.235 20.4067 169.539 20.356 169.59Z"
      fill="#263238" />
    <path
      d="M39.7883 82.2603C39.7883 82.2603 45.9717 109.123 47.2388 119.26C48.1512 126.355 46.3772 130.968 46.1745 132.387C46.1238 132.843 45.9211 133.299 45.7183 133.755L27.5227 166.193L17.0818 162.595C17.0818 162.595 25.8501 136.087 27.7761 131.829L29.9556 127.977L12.875 84.7438L39.7883 82.2603Z"
      fill="#263238" />
    <path
      d="M29.7516 82.7165C29.9543 83.5782 19.8682 133.553 19.8682 133.553L21.186 169.336L10.5423 169.64C10.5423 169.64 5.11908 150.126 4.91634 138.621C4.71361 127.116 5.98071 125.139 5.0684 117.942C4.05471 110.39 -2.02738 94.7794 0.70956 84.2371C2.99035 75.3673 8.97108 71.1099 8.97108 71.1099L29.7516 82.7165Z"
      fill="#263238" />
    <path
      d="M21.1887 169.691C21.1887 169.691 21.1887 169.64 21.1887 169.488C21.1887 169.336 21.1887 169.184 21.1887 168.931C21.1887 168.424 21.138 167.765 21.138 166.853C21.0873 165.028 20.986 162.392 20.9353 159.149C20.7325 152.61 20.4284 143.538 20.0736 133.35V133.401C20.3271 132.185 20.5805 130.867 20.8339 129.549C22.9626 118.652 24.8886 108.819 26.3078 101.673C27.0174 98.1248 27.5242 95.2358 27.9297 93.2084C28.1324 92.2454 28.2338 91.4345 28.3352 90.9276C28.3858 90.6742 28.4365 90.4715 28.4365 90.3194C28.4365 90.1674 28.4872 90.1167 28.4872 90.1167C28.4872 90.1167 28.4872 90.1674 28.4365 90.3194C28.3858 90.4715 28.3352 90.6742 28.2845 90.9276C28.1831 91.4852 28.031 92.2454 27.8283 93.2084C27.4228 95.2358 26.8146 98.0741 26.105 101.673C24.6859 108.819 22.7092 118.652 20.5298 129.549C20.2764 130.867 20.023 132.185 19.7695 133.401C20.1243 143.588 20.4791 152.661 20.7325 159.199C20.8846 162.443 20.986 165.079 21.0366 166.903C21.0873 167.815 21.0873 168.474 21.138 168.981C21.138 169.184 21.138 169.387 21.1887 169.539C21.138 169.64 21.138 169.691 21.1887 169.691Z"
      fill="#455A64" />
    <path
      d="M29.7535 128.028C29.7028 128.079 30.2096 129.042 31.274 129.853C32.3383 130.664 33.4027 130.866 33.4027 130.816C33.4534 130.714 32.4397 130.41 31.426 129.65C30.4123 128.839 29.8041 127.977 29.7535 128.028Z"
      fill="#455A64" />
    <path
      d="M9.27811 11.5566L30.8696 12.1649C30.9709 22.5551 33.6572 30.9687 36.8503 39.6357C37.6612 41.8151 38.6749 43.9438 39.2831 46.2246C39.8913 48.5054 40.0434 51.141 39.1818 53.3204C37.3571 52.8135 33.4544 53.7765 31.5791 53.219C31.5791 52.5094 31.5285 51.7999 31.5285 51.0903C31.4271 52.0026 30.8189 52.8642 30.16 53.2697C29.2477 53.7765 28.234 53.7765 27.271 53.7765C21.5437 53.5738 15.867 52.5601 10.3425 50.8875C9.58221 50.6848 5.17269 51.9012 5.17269 51.9012C2.68917 41.3589 6.08501 23.1126 9.27811 11.5566Z"
      fill="#263238" />
    <path
      d="M32.9482 32.4378L36.4961 44.1965C36.4961 44.1965 36.3947 43.2842 36.4961 44.1965C37.1043 48.8088 39.5371 54.384 36.9016 59.7566L36.192 66.2948C36.192 66.2948 40.5001 80.8412 40.9563 83.0206C41.3111 87.5822 2.99386 84.5918 1.82812 80.8919L6.84586 65.4839L6.54175 45.7677C6.23765 39.1788 6.59243 32.3871 6.59243 32.3871L15.7663 31.0693L25.1935 31.7789L32.9482 32.4378Z"
      fill="#455A64" />
    <path d="M32.543 32.438H51.3975L51.0427 44.3994L35.9388 47.846L32.543 32.438Z" fill="#455A64" />
    <path
      d="M17.7422 57.8308C17.7422 57.8308 17.8436 57.9322 18.097 58.0335C18.3504 58.1349 18.7052 58.287 19.212 58.439C20.175 58.6924 21.6449 58.7938 23.1147 58.287C24.5845 57.7801 25.6996 56.8171 26.3078 56.0568C26.6119 55.6514 26.8147 55.2966 26.9667 55.0432C27.0681 54.7897 27.1188 54.6377 27.1188 54.6377C27.0681 54.6377 26.8146 55.1445 26.1558 55.9048C25.4969 56.6144 24.4325 57.5267 23.0133 57.9828C21.5942 58.439 20.2257 58.3883 19.2627 58.2363C18.3504 58.0335 17.7929 57.7801 17.7422 57.8308Z"
      fill="#263238" />
    <path
      d="M34.7246 35.5801C34.6739 35.5801 34.8259 36.1883 35.0793 37.1006C35.2821 38.0129 35.5862 39.3307 35.8396 40.8005C36.093 42.2704 36.2451 43.5882 36.2958 44.5005C36.3971 45.4635 36.4478 46.0717 36.4478 46.0717C36.4985 46.0717 36.4985 45.4635 36.4985 44.5005C36.4478 43.5375 36.3464 42.2197 36.093 40.7499C35.8396 39.28 35.5355 38.0129 35.2314 37.0499C34.978 36.1376 34.7752 35.5801 34.7246 35.5801Z"
      fill="#263238" />
    <g opacity="0.3">
      <g opacity="0.3">
        <path opacity="0.3"
          d="M22.7095 58.1861C24.3314 57.7299 25.8519 56.8683 26.7136 55.3984L26.7643 55.4998C26.4602 57.4258 24.8383 59.1997 22.9629 59.6559C21.0876 60.1627 19.111 59.3518 17.8945 57.882C19.4657 58.3888 21.0876 58.6422 22.7095 58.1861Z"
          fill="black" />
      </g>
    </g>
    <path
      d="M72.8281 23.6194C73.0309 23.366 72.9802 21.0852 72.9802 21.0852L75.6158 18.9058L78.2513 22.403L76.6294 28.2316L72.8281 23.6194Z"
      fill="#D08979" />
    <path
      d="M50.6788 36.2395L61.1198 36.4422L73.0305 23.3657L76.6291 28.2314C76.6291 28.2314 68.5703 43.538 67.3539 45.0079C66.0868 46.4777 48.1953 46.1736 48.1953 46.1736L50.6788 36.2395Z"
      fill="#455A64" />
    <path
      d="M72.522 29.904C74.7521 29.5492 76.8808 30.1067 78.5534 31.2724L78.7054 31.3738L75.0055 7.80566L72.7247 8.16045C65.9837 9.47824 46.1662 15.2055 35.8773 37.76C29.4911 51.7488 30.9103 64.5719 34.3568 74.354L36.7896 73.9485L55.8976 70.9581L55.7962 71.1102C54.6305 72.8334 54.0729 74.9622 54.4277 77.1416C55.1373 81.7032 59.3948 84.7949 63.9563 84.0853C68.5179 83.3757 71.6096 79.1183 70.9001 74.5567C70.5453 72.2759 69.2782 70.4513 67.6056 69.1842L67.5042 69.1335L68.0111 69.0321L84.3314 66.4472L80.5807 42.9298L80.53 43.0311C79.2629 44.7544 77.3876 45.9708 75.1575 46.3256C70.596 47.0352 66.3385 43.9435 65.6289 39.3819C64.8686 34.871 67.9604 30.6135 72.522 29.904Z"
      fill="#00B3D9" />
    <path
      d="M72.5219 29.9042C72.5219 29.9042 72.3191 29.9548 71.9643 30.0562C71.7616 30.1069 71.5589 30.1576 71.3054 30.2589C71.1534 30.3096 71.052 30.3603 70.9 30.411C70.7479 30.4617 70.5959 30.563 70.4438 30.6137C69.7849 30.9178 68.974 31.374 68.2137 32.1343C67.4534 32.8945 66.6932 33.9082 66.1863 35.226C66.0343 35.5301 65.9836 35.8849 65.8822 36.2397C65.8316 36.5945 65.7302 36.9492 65.6795 37.3547C65.5781 38.115 65.6288 38.9766 65.8316 39.7876C66.1357 41.4601 67.0987 43.1834 68.6192 44.4505C70.1397 45.7176 72.2684 46.5286 74.5492 46.3765C75.6643 46.2751 76.83 45.971 77.8944 45.3628C78.9587 44.7546 79.8711 43.9437 80.5806 42.93L80.7327 42.7272L80.7834 42.93C81.8984 49.8737 83.1655 57.7804 84.534 66.4981V66.5995H84.4326C79.1108 67.4611 73.4849 68.3227 67.5548 69.2857L67.6055 69.083C68.8726 69.9446 69.8863 71.2117 70.4945 72.6309C70.7986 73.3405 71.0013 74.1007 71.1027 74.9117C71.2041 75.6719 71.1534 76.4829 71.052 77.2938C70.9506 78.1048 70.6465 78.865 70.3424 79.5746C69.9877 80.2842 69.5315 80.9938 68.974 81.602C68.4164 82.2102 67.7576 82.717 67.048 83.1732C66.3384 83.6294 65.5781 83.8828 64.7672 84.1362C63.9562 84.3389 63.0946 84.3896 62.2837 84.3896C61.422 84.3389 60.6111 84.1869 59.8001 83.8828C58.2289 83.2746 56.7591 82.2102 55.7961 80.791C55.5427 80.4362 55.3399 80.0815 55.1372 79.676C54.9851 79.2705 54.7824 78.865 54.681 78.4596C54.4276 77.6486 54.2756 76.7363 54.2756 75.8747C54.2756 74.1007 54.8838 72.3775 55.8975 70.9583L56.0495 71.1611C51.5893 71.8706 46.8757 72.6309 42.1114 73.3405C39.5265 73.7459 36.9923 74.1514 34.5087 74.5569H34.4074L34.3567 74.4555C32.8869 70.198 31.9239 65.8392 31.5691 61.4804C31.3663 59.301 31.417 57.1215 31.5184 54.9928C31.6198 53.9284 31.6704 52.8641 31.8225 51.7997C31.8732 51.2929 31.9239 50.7353 32.0252 50.2285C32.1266 49.7217 32.228 49.2148 32.3293 48.6573C33.1403 44.5519 34.5087 40.6492 36.232 37.0506C36.6882 36.1383 37.1443 35.2767 37.5498 34.415L37.9046 33.7561C38.006 33.5534 38.158 33.3507 38.2594 33.1479C38.5128 32.7425 38.7662 32.337 39.0196 31.8808C39.2731 31.4754 39.5265 31.0699 39.7799 30.6137L40.1347 30.0055L40.5402 29.3973C41.0977 28.637 41.6552 27.8261 42.2127 27.0658C42.4662 26.6604 42.7703 26.3056 43.0744 25.9508C43.3785 25.596 43.6826 25.2412 43.9867 24.8864C44.2908 24.5316 44.5949 24.1768 44.899 23.8221C45.2031 23.4673 45.5579 23.1632 45.862 22.8084C46.5209 22.1495 47.1291 21.4906 47.788 20.8824C48.4469 20.2742 49.1565 19.7166 49.8154 19.1084C52.5523 16.8276 55.3906 14.9016 58.2289 13.3304C61.1179 11.7592 64.0069 10.5428 66.8452 9.57981C69.6835 8.61681 72.4205 7.95791 75.1068 7.65381H75.2081V7.75518C76.8807 18.4495 78.0971 26.4576 78.9081 31.3233V31.4247L78.8067 31.374C76.9821 30.0562 75.2588 29.8028 74.1944 29.7521C73.6369 29.7521 73.2314 29.7521 72.978 29.8028C72.6739 29.8535 72.5219 29.9042 72.5219 29.9042C72.5219 29.9042 72.6739 29.9042 72.9273 29.8535C73.1808 29.8028 73.5862 29.8028 74.1438 29.8028C75.2081 29.8535 76.9314 30.0562 78.8067 31.4247L78.756 31.4754C77.9957 26.559 76.678 18.6016 75.0054 7.90723L75.1068 7.95791C72.4712 8.3127 69.7342 8.9716 66.8959 9.9346C64.0576 10.8976 61.2193 12.114 58.3303 13.6852C55.492 15.2564 52.6537 17.1824 49.9167 19.4125C49.2578 19.9701 48.5989 20.5783 47.8894 21.1865C47.2305 21.7947 46.6223 22.4536 45.9634 23.1125C45.6593 23.4166 45.3045 23.7714 45.0004 24.1262C44.6963 24.4809 44.3922 24.8357 44.0881 25.1905C43.7839 25.5453 43.4798 25.9001 43.1757 26.2549C42.8716 26.6097 42.5675 26.9645 42.3141 27.3699C41.7566 28.1302 41.1991 28.8905 40.6415 29.7014L40.2361 30.2589L39.8813 30.8672C39.6278 31.2726 39.3744 31.6781 39.121 32.0836C38.8676 32.489 38.6142 32.8945 38.3607 33.3507C38.2594 33.5534 38.1073 33.7561 38.006 33.9589L37.6512 34.6178C37.195 35.4794 36.7895 36.3917 36.3334 37.2534C34.6101 40.8519 33.2416 44.7039 32.4814 48.8093C32.38 49.3162 32.2786 49.823 32.1773 50.3299C32.0759 50.8367 32.0252 51.3436 31.9745 51.9011C31.8225 52.9654 31.7718 53.9791 31.6704 55.0435C31.5691 57.1722 31.5184 59.301 31.7211 61.4804C32.0252 65.7885 32.9882 70.1474 34.4581 74.3541L34.306 74.2528C36.7895 73.8473 39.3237 73.4418 41.9086 73.0364C46.6729 72.2761 51.3866 71.5158 55.8468 70.857L56.1509 70.8063L55.9481 71.0597C54.9345 72.4282 54.3769 74.1514 54.3769 75.824C54.3769 76.6856 54.529 77.4966 54.7317 78.3075C54.8331 78.713 55.0358 79.1185 55.1879 79.4733C55.3906 79.828 55.5934 80.2335 55.8468 80.5376C56.8098 81.9061 58.1782 82.9705 59.7495 83.528C60.5097 83.7814 61.3207 83.9841 62.1316 84.0348C62.9426 84.0348 63.7535 83.9841 64.5644 83.7814C65.3247 83.5787 66.085 83.2746 66.7946 82.8691C67.4534 82.4636 68.1123 81.9568 68.6192 81.3486C69.126 80.7404 69.5822 80.0815 69.937 79.3719C70.2411 78.6623 70.5452 77.902 70.6465 77.1418C70.7479 76.3815 70.7986 75.5706 70.6972 74.8103C70.6465 74.05 70.3931 73.2898 70.089 72.5802C69.4808 71.161 68.4671 69.9953 67.3014 69.1337L67.048 68.9816L67.3521 68.931C73.2821 68.0186 78.9081 67.1063 84.2299 66.2954L84.1285 66.3967C82.7601 57.6791 81.5436 49.7723 80.4286 42.8286L80.5806 42.8793C79.8204 43.9437 78.8574 44.8053 77.793 45.3628C76.7286 45.971 75.5629 46.2751 74.3972 46.3765C72.0657 46.5792 69.8863 45.7176 68.3658 44.3998C66.7945 43.082 65.8822 41.3081 65.5781 39.6355C65.4261 38.7739 65.3754 37.9629 65.4768 37.152C65.4768 36.7465 65.5781 36.3917 65.6795 36.0369C65.7809 35.6821 65.8822 35.3274 66.0343 34.9726C66.5411 33.6548 67.3014 32.6411 68.1123 31.8808C68.9233 31.1206 69.7342 30.6644 70.3931 30.3603C70.5452 30.3096 70.7479 30.2083 70.8493 30.1576C71.0013 30.1069 71.1534 30.0562 71.3054 30.0055C71.5589 29.9042 71.8123 29.8535 71.9643 29.8028C72.3191 29.9042 72.5219 29.9042 72.5219 29.9042Z"
      fill="#263238" />
    <g opacity="0.3">
      <path opacity="0.3"
        d="M32.1284 64.8763C35.1695 65.3325 38.3119 65.8393 41.3023 64.9777C42.0625 64.775 42.8228 64.4709 43.6337 64.3188C44.6474 64.1161 45.7625 64.1668 46.7761 64.2681C48.7021 64.4202 50.5774 64.5722 52.5034 64.3188C54.3788 64.0654 56.3048 63.3051 57.5719 61.886C49.0062 60.7202 40.2886 61.2271 31.875 63.2544C31.875 63.2544 32.0777 64.8257 32.0271 64.8257"
        fill="black" />
    </g>
    <path
      d="M77.9541 25.8998C77.9541 25.8998 78.9171 24.9875 79.1199 24.5313C79.2719 24.0751 79.2212 23.5176 78.9678 23.2642C78.7144 23.0108 78.7144 23.0108 78.7144 23.0108C78.7144 23.0108 79.1706 21.5916 78.613 21.0341C78.613 21.0341 79.0692 19.7163 78.3089 19.1588C78.3089 19.1588 78.8158 18.0944 78.2076 17.7396C77.5994 17.3848 76.687 17.5369 76.2309 17.7903C75.7747 18.0437 74.1528 18.6012 74.1528 18.9054C74.1528 18.9054 74.1528 19.7163 74.609 19.767C75.0651 19.8177 75.2679 19.8684 75.2679 19.8684C75.2679 19.8684 73.798 20.3245 73.798 20.73C73.7474 21.0848 73.8994 21.7943 74.5583 21.7437C74.5583 21.7437 74.1021 22.1491 74.3049 22.4532C74.5076 22.7573 74.761 23.1121 75.1665 23.0615C75.572 23.0108 75.9775 22.9094 75.9775 22.9094C75.9775 22.9094 75.4199 23.1628 75.572 23.4162C75.724 23.7203 75.724 23.9738 76.2816 24.1258C76.7884 24.2272 77.8528 24.5313 77.8528 24.5313L77.9541 25.8998Z"
      fill="#D08979" />
    <path
      d="M75.9258 22.8589C75.9258 22.8589 76.0778 22.7575 76.3313 22.7068C76.5847 22.6055 76.9395 22.5041 77.3449 22.5548C77.7504 22.6055 78.1052 22.7068 78.3586 22.8589C78.612 23.011 78.7134 23.1123 78.7134 23.1123C78.7134 23.1123 78.612 22.9603 78.3586 22.8082C78.1052 22.6562 77.7504 22.5041 77.3449 22.4534C76.8888 22.4027 76.534 22.5548 76.2806 22.6562C76.0271 22.7575 75.9258 22.8589 75.9258 22.8589Z"
      fill="#A1675B" />
    <path
      d="M78.5586 20.9333C78.5586 20.9333 78.3559 20.8826 77.9504 20.8319C77.5956 20.7812 77.0381 20.8319 76.4806 20.9333C75.923 21.0346 75.4162 21.2374 75.0614 21.3894C74.7066 21.5415 74.5039 21.6935 74.5546 21.6935C74.5546 21.7442 75.4162 21.2374 76.5313 21.0346C77.6463 20.8319 78.5586 20.9839 78.5586 20.9333Z"
      fill="#A1675B" />
    <path
      d="M78.2586 19.1595C78.2586 19.1088 77.5491 19.1088 76.6874 19.3116C75.8258 19.5143 75.1669 19.8184 75.2176 19.8691C75.2176 19.9198 75.8765 19.6157 76.7381 19.4636C77.5491 19.2102 78.2586 19.1595 78.2586 19.1595Z"
      fill="#A1675B" />
    <path
      d="M43.082 55.6006C43.082 55.6006 45.9203 53.0664 46.7312 52.154C47.4915 51.2417 50.6846 49.2144 50.6846 49.2144C50.6846 49.2144 51.1407 49.5185 50.8873 50.3801C50.7859 50.6335 49.1641 52.4581 49.1641 52.4581C49.1641 52.4581 48.6065 53.6746 49.1641 53.8773C49.7216 54.08 56.868 54.5362 56.868 54.5362C58.3886 54.6376 58.2365 55.5499 58.2365 55.5499C58.2365 55.5499 59.3009 55.6006 59.3009 56.3101C59.3009 56.7663 58.2872 57.1718 58.2872 57.1718C58.2872 57.1718 59.4023 57.0197 59.6557 57.8307C59.9091 58.6416 57.831 58.9964 57.831 58.9964C57.5269 60.1114 53.5736 60.8717 52.5092 61.1251C51.4448 61.3786 42.0683 61.5813 42.0683 61.5813L41.0039 56.2088L43.082 55.6006Z"
      fill="#D08979" />
    <path
      d="M50.6367 55.9555C50.6367 55.9555 51.0422 56.0569 51.7518 56.1076C52.4613 56.1583 53.4243 56.2089 54.438 56.1583C55.5024 56.1076 56.4654 55.9555 57.1243 55.8541C57.7832 55.7528 58.2393 55.6007 58.2393 55.6007C58.2393 55.55 57.8339 55.6514 57.1243 55.7021C56.4147 55.8035 55.5024 55.9048 54.438 55.9555C53.3737 56.0062 52.4613 56.0062 51.7518 56.0062C51.0929 55.9555 50.6367 55.9048 50.6367 55.9555Z"
      fill="#A1675B" />
    <path
      d="M50.9414 57.8815C50.9414 57.9322 51.3469 57.9322 52.0058 57.8815C52.6647 57.8815 53.577 57.8308 54.5907 57.7294C55.6043 57.6281 56.5167 57.5267 57.1756 57.3747C57.8345 57.2733 58.2399 57.1212 58.2399 57.1212C58.2399 57.0706 57.8345 57.1719 57.1756 57.2226C56.5167 57.324 55.6043 57.4253 54.5907 57.476C53.6277 57.5267 52.766 57.6281 52.0058 57.6788C51.3469 57.7801 50.9414 57.8308 50.9414 57.8815Z"
      fill="#A1675B" />
    <path
      d="M51.5 59.8075C51.5 59.8075 51.8548 59.9088 52.463 59.9088C53.0712 59.9088 53.8822 59.9088 54.7438 59.7568C55.6561 59.6047 56.4164 59.4527 56.9739 59.3006C57.5314 59.1486 57.8862 58.9965 57.8862 58.9965C57.8862 58.9458 56.467 59.3513 54.6931 59.6047C53.8315 59.7568 53.0205 59.8075 52.4123 59.8075C51.8548 59.7568 51.5 59.7568 51.5 59.8075Z"
      fill="#A1675B" />
    <path
      d="M6.59098 32.3872C6.59098 32.3872 1.37051 35.4789 0.812983 40.8515C0.306142 45.9706 1.42119 62.8991 6.94577 67.9675C8.21287 69.1332 16.8799 68.8798 25.1414 67.2579C34.1632 65.4333 42.7795 62.0881 42.7795 62.0881V54.2321L16.5758 56.1581L6.59098 32.3872Z"
      fill="#455A64" />
    <path
      d="M42.7789 54.2321C42.7789 54.2321 42.6269 54.2828 42.3735 54.2828C42.12 54.3335 41.7146 54.3335 41.2584 54.3842C40.2954 54.4856 38.8763 54.5869 37.2037 54.739C33.7572 54.9924 29.0435 55.3472 23.7724 55.7527C21.1875 55.9554 18.7547 56.1074 16.5245 56.2595H16.4232L16.3725 56.1581C15.815 54.5362 15.3588 52.965 15.0547 51.5966C14.7506 50.2281 14.3958 49.0117 14.0917 47.998C13.7876 47.035 13.4835 46.224 13.2808 45.7172C13.1794 45.4638 13.1287 45.261 13.078 45.109C13.0273 44.9569 13.0273 44.9062 13.0273 44.9062C13.0273 44.9062 13.078 44.9569 13.1287 45.109C13.1794 45.261 13.2808 45.4638 13.3821 45.7172C13.5849 46.224 13.889 46.9843 14.2438 47.998C14.5986 48.961 14.9533 50.1774 15.2574 51.5966C15.6122 52.965 16.0684 54.4856 16.6259 56.1581L16.5245 56.0568C18.7547 55.9047 21.1875 55.702 23.7724 55.4992C28.9929 55.1444 33.7065 54.7897 37.2037 54.5362C38.8763 54.4349 40.2954 54.3335 41.2584 54.2828C41.7146 54.2828 42.0694 54.2321 42.3735 54.2321C42.6269 54.2321 42.7789 54.2321 42.7789 54.2321Z"
      fill="#263238" />
    <path
      d="M6.94922 67.9163C6.94922 67.9163 7.05059 67.9163 7.25332 67.9163C7.45606 67.9163 7.76017 67.967 8.06427 67.967C8.41906 68.0177 8.87522 68.0177 9.38206 68.0177C9.8889 68.0684 10.4971 68.0684 11.1053 68.0684C13.6902 68.1698 17.2381 68.1191 21.1408 67.6122C25.0435 67.1561 28.5407 66.2945 30.9735 65.5849C32.1899 65.2301 33.2036 64.8753 33.8625 64.6219C34.1666 64.5205 34.42 64.4191 34.6734 64.3685C34.8762 64.3178 34.9269 64.2671 34.9776 64.2671C34.9776 64.2671 34.8762 64.3178 34.7241 64.4191C34.5214 64.5205 34.268 64.6219 33.9639 64.7232C33.305 64.9767 32.2913 65.3315 31.0749 65.7369C28.5913 66.4972 25.1448 67.4095 21.1915 67.8657C17.2888 68.3725 13.6902 68.3725 11.1053 68.2205C10.4464 68.2205 9.8889 68.1698 9.38206 68.1191C8.87522 68.0684 8.41906 68.0684 8.06427 68.0177C7.70948 67.967 7.45606 67.967 7.25332 67.9163C7.05059 67.967 6.94922 67.967 6.94922 67.9163Z"
      fill="#263238" />
    <path
      d="M16.5748 56.1579C16.6255 56.2086 15.5104 56.8675 14.6488 58.1346C13.7365 59.4017 13.5337 60.6688 13.4324 60.6181C13.3817 60.6181 13.4831 59.3004 14.4461 57.9826C15.3584 56.6648 16.5748 56.1073 16.5748 56.1579Z"
      fill="#263238" />
    <path
      d="M27.8214 40.0909C27.9228 38.8238 27.0611 37.7088 26.4529 36.5937C25.3379 34.5157 24.8817 32.0322 25.1858 29.7007L33.2953 32.2349C32.7377 32.9952 32.383 34.8198 32.7377 35.9855C33.0925 37.1513 33.7514 38.2663 33.7007 39.4827C33.6501 41.3074 32.0789 42.7265 31.6227 44.4498C31.0652 46.3758 31.8761 48.4031 32.5857 50.2278C31.0145 50.6839 29.3419 50.7346 27.72 50.4305C26.7063 48.099 25.6927 45.5141 26.605 43.132C27.0104 42.1183 27.7707 41.206 27.8214 40.0909Z"
      fill="#263238" />
    <path
      d="M9.0194 12.7724C9.83034 9.22451 10.692 5.52457 13.6317 3.34515C16.2672 1.41916 19.2069 0.962998 22.4507 1.21642C24.0726 1.31779 25.8465 2.12873 27.215 2.99036C29.0903 4.1561 29.8506 6.33552 30.6615 8.36288C32.3848 12.4176 31.9793 17.7901 30.6615 19.26L13.6823 27.5215C10.7933 25.8996 8.81666 25.0887 8.15777 21.8449C7.70161 19.6148 8.51255 14.9518 9.0194 12.7724Z"
      fill="#263238" />
    <path
      d="M13.8872 6.63955L24.4802 3.90261C27.8761 3.54782 30.1568 7.70392 30.4103 11.0998C30.6637 14.9011 30.8664 19.5133 30.4103 22.3516C29.65 27.2173 26.4062 28.8392 25.4939 29.0926C25.3418 29.1433 25.1898 29.1433 25.1898 29.1433C25.1898 29.3967 25.1898 29.7515 25.1391 30.5625L25.1898 34.3638C23.7706 38.976 19.1077 38.4185 13.279 36.0364L12.1133 8.7176C12.1133 7.65324 12.8735 6.7916 13.8872 6.63955Z"
      fill="#D08979" />
    <path
      d="M28.5284 15.7619C28.5284 16.1674 28.2243 16.4715 27.8189 16.5222C27.4134 16.5222 27.0586 16.2688 27.0586 15.8633C27.0586 15.4578 27.3627 15.1537 27.7682 15.103C28.1736 15.103 28.4777 15.4071 28.5284 15.7619Z"
      fill="#263238" />
    <path
      d="M29.4525 14.4951C29.3512 14.5965 28.7937 14.191 28.0334 14.191C27.2731 14.191 26.6649 14.5965 26.6142 14.4951C26.5635 14.4444 26.6649 14.2924 26.9183 14.0897C27.1718 13.8869 27.5772 13.7349 28.0841 13.7349C28.5909 13.7349 28.9964 13.8869 29.1991 14.0897C29.4019 14.2924 29.4525 14.4444 29.4525 14.4951Z"
      fill="#263238" />
    <path
      d="M21.0323 15.7629C21.0323 16.1684 20.7282 16.4725 20.3228 16.5232C19.9173 16.5232 19.5625 16.2697 19.5625 15.8643C19.5625 15.4588 19.8666 15.1547 20.2721 15.104C20.6776 15.104 21.0323 15.4081 21.0323 15.7629Z"
      fill="#263238" />
    <path
      d="M21.6908 14.3438C21.5895 14.4451 21.0319 14.0397 20.2717 14.0397C19.5114 14.0397 18.9032 14.4451 18.8525 14.3438C18.8018 14.2931 18.9032 14.141 19.1566 13.9383C19.41 13.7355 19.8155 13.5835 20.3224 13.5835C20.8292 13.5835 21.2347 13.7355 21.4374 13.9383C21.6908 14.141 21.7415 14.2931 21.6908 14.3438Z"
      fill="#263238" />
    <path
      d="M24.5883 19.5129C24.5883 19.4622 25.0951 19.3608 25.8554 19.2595C26.0581 19.2595 26.2609 19.2088 26.2609 19.0567C26.3115 18.9047 26.2102 18.7019 26.1088 18.4485C25.9061 17.9417 25.7033 17.4348 25.5006 16.928C24.639 14.7486 24.0308 12.9746 24.1321 12.9239C24.2335 12.8733 24.9938 14.5965 25.8047 16.7759C26.0074 17.3335 26.2102 17.8403 26.3622 18.2965C26.4636 18.4992 26.565 18.8033 26.4636 19.0567C26.4129 19.2088 26.2609 19.3101 26.1595 19.3608C26.0074 19.4115 25.9061 19.4115 25.8047 19.4115C25.0951 19.5636 24.5883 19.5636 24.5883 19.5129Z"
      fill="#263238" />
    <path
      d="M25.1925 29.1432C25.1925 29.1432 21.3912 29.3966 17.5898 27.1665C17.5898 27.1665 19.5158 31.1199 25.1925 30.5623V29.1432Z"
      fill="#A1675B" />
    <path
      d="M21.99 20.9828C22.1927 20.628 22.5982 20.4253 23.0544 20.4253C23.6626 20.4253 24.1694 20.628 24.5749 21.1349C24.7269 21.2869 24.6763 21.7431 24.6256 21.8951C24.5749 21.9965 24.6256 21.9458 24.5242 22.0472C24.1694 22.3513 23.8146 22.6554 23.3585 22.8074C22.9023 22.9088 22.3448 22.7568 22.0407 22.3513C21.7873 21.8951 21.7873 21.3883 21.99 20.9828Z"
      fill="#A1675B" />
    <path
      d="M22.1425 20.1211C22.2946 20.1211 22.2946 20.9827 23.0042 21.5402C23.7644 22.1485 24.626 22.0471 24.6767 22.1485C24.6767 22.1991 24.474 22.3005 24.0685 22.3512C23.7137 22.3512 23.1562 22.2498 22.7001 21.895C22.2439 21.5402 22.0412 21.0334 22.0412 20.6786C21.9905 20.3238 22.0918 20.1211 22.1425 20.1211Z"
      fill="#263238" />
    <path
      d="M22.0916 11.4544C22.0409 11.6571 21.23 11.6064 20.3176 11.8092C19.4053 11.9612 18.6957 12.2653 18.5437 12.1133C18.493 12.0119 18.5944 11.8092 18.8985 11.6064C19.2026 11.4037 19.6587 11.1503 20.1656 11.0489C20.7231 10.9475 21.23 10.9982 21.5847 11.0996C21.9395 11.201 22.1423 11.353 22.0916 11.4544Z"
      fill="#263238" />
    <path
      d="M29.4455 12.3666C29.2427 12.5186 28.6852 12.2145 27.9756 12.1132C27.2661 11.9611 26.6579 12.0118 26.5058 11.809C26.4551 11.7077 26.6072 11.5556 26.8606 11.4543C27.1647 11.3529 27.6209 11.3022 28.077 11.3529C28.5839 11.4543 28.9386 11.7077 29.1921 11.9104C29.4455 12.1132 29.4962 12.3159 29.4455 12.3666Z"
      fill="#263238" />
    <path
      d="M24.5803 3.24388C24.8337 5.52467 24.4283 7.90682 23.4653 9.98487C23.2118 10.5931 22.8571 11.1506 22.3502 11.5561C21.8434 11.9616 21.1845 12.215 20.5763 12.0629C21.59 10.8465 22.1982 9.27529 22.2488 7.70408C21.5393 9.27529 20.779 10.8972 19.6133 12.215C18.4475 13.4821 16.7243 14.4451 15.001 14.2423L15.1531 13.0766C14.8996 13.8876 14.4435 14.6985 13.7339 15.2053C13.0243 15.7122 11.96 15.7629 11.3011 15.2053C11.96 12.367 10.2874 9.22461 11.5038 6.58903C12.3148 4.7644 14.2914 3.70004 16.2174 3.14251C18.9037 2.33156 21.8434 2.33156 24.5803 3.04114"
      fill="#263238" />
    <path
      d="M24.3776 3.39602L24.7324 3.24396C25.7968 2.73712 26.5571 2.12891 28.179 3.64944C29.0406 4.46038 29.8515 5.6768 30.3584 6.94391C30.8652 8.05896 31.3721 9.22469 31.5241 10.4411C31.7268 12.0123 31.7268 13.1274 31.5241 14.7999C30.5611 14.1411 30.105 12.9753 29.8515 11.8603C29.5981 10.7452 29.4461 9.57948 28.8885 8.51511C29.0406 9.47811 29.142 10.4411 28.9899 11.4041C28.9392 11.6575 28.8378 11.911 28.6351 12.1137C28.4324 12.2657 28.0776 12.3164 27.9255 12.1137C28.331 10.9986 28.2803 9.8329 28.0269 8.71785C27.7735 7.6028 27.3173 6.53843 26.8105 5.47407C27.0132 7.40006 26.9119 9.37675 26.4557 11.2521C26.405 11.5055 26.3036 11.8096 26.1009 12.0123C25.7968 12.3164 25.3406 12.3164 24.9352 12.2151C24.5297 12.1644 24.1242 12.0123 23.7188 12.1137C24.6817 9.32606 24.9352 6.28501 24.3776 3.39602Z"
      fill="#263238" />
    <path
      d="M14.8479 12.2148C16.1657 15.2559 14.0876 18.7531 14.5945 21.9969C14.9492 24.3284 16.6725 26.4064 16.6218 28.7886C16.5711 31.2214 14.7465 33.4008 15.0506 35.783C15.2534 37.2528 16.2164 38.4692 16.9766 39.787C18.6492 42.676 19.3081 46.2239 18.6999 49.5184C16.1657 49.5184 13.6315 49.5184 11.1479 49.5184C11.3507 46.9335 10.8945 44.2979 9.83015 41.9158C9.12057 40.3952 8.15757 38.9761 8.00552 37.3035C7.85347 35.783 8.41099 34.3131 8.56305 32.7926C8.86715 30.0557 8.0562 27.3187 7.54936 24.5818C7.04252 21.8448 6.99184 18.8038 8.66441 16.5737"
      fill="#263238" />
  </g>
  <defs>
    <clipPath id="clip0">
      <rect width="212.215" height="177.8" fill="white" />
    </clipPath>
  </defs>
</svg>