<svg width="139" height="170" viewBox="0 0 139 170" fill="none" xmlns="http://www.w3.org/2000/svg">
<path d="M103.918 64.1252L88.7206 52.727V29.5087C88.7206 27.1742 86.8335 25.2871 84.499 25.2871C82.1644 25.2871 80.2773 27.1742 80.2773 29.5087V54.838C80.2773 56.1677 80.9022 57.4217 81.966 58.2153L98.8521 70.88C99.6119 71.4499 100.499 71.7243 101.381 71.7243C102.668 71.7243 103.935 71.1459 104.762 70.0314C106.164 68.1694 105.784 65.5226 103.918 64.1252Z" fill="#EBEBF2"/>
<path d="M84.5 0C54.4469 0 30 24.4469 30 54.5C30 84.5531 54.4469 109 84.5 109C114.553 109 139 84.5531 139 54.5C139 24.4469 114.553 0 84.5 0ZM84.5 100.557C59.1075 100.557 38.443 79.8925 38.443 54.5C38.443 29.1075 59.1075 8.44303 84.5 8.44303C109.897 8.44303 130.557 29.1075 130.557 54.5C130.557 79.8925 109.893 100.557 84.5 100.557Z" fill="#EBEBF2"/>
<g style="mix-blend-mode:multiply">
<path d="M49.393 169.165C76.672 169.165 98.786 166.411 98.786 163.014C98.786 159.616 76.672 156.862 49.393 156.862C22.114 156.862 0 159.616 0 163.014C0 166.411 22.114 169.165 49.393 169.165Z" fill="#DADADB"/>
</g>
<path d="M83.1396 80.7878C83.0317 80.601 82.8763 80.4462 82.689 80.3392C82.5017 80.2322 82.2894 80.1768 82.0738 80.1788C81.9454 80.1776 81.8177 80.1982 81.6961 80.2397C81.4265 80.3228 81.194 80.497 81.0385 80.7325C80.883 80.968 80.814 81.2502 80.8435 81.5308C81.8241 91.8845 79.7046 100.033 74.5521 105.758C66.8478 114.315 54.8132 114.547 54.6731 114.547C54.4405 114.543 54.2116 114.605 54.0134 114.727C53.8152 114.849 53.6561 115.025 53.5549 115.235C53.4537 115.444 53.4146 115.678 53.4422 115.909C53.4699 116.14 53.5631 116.359 53.7109 116.538L68.212 135.071C68.3268 135.22 68.4745 135.341 68.6435 135.423C68.8126 135.506 68.9984 135.548 69.1865 135.546C69.3257 135.546 69.4637 135.521 69.5946 135.473C79.5097 131.947 86.0386 126.094 88.9559 118.079C95.0097 101.452 83.6268 81.6222 83.1396 80.7878Z" fill="url(#paint0_linear)"/>
<path d="M89.408 92.7374C88.0731 88.3967 86.2955 84.2048 84.1033 80.2277C83.8956 79.8742 83.5993 79.5809 83.2436 79.3769C82.888 79.1729 82.4852 79.0652 82.0752 79.0645C81.8315 79.0642 81.5891 79.1012 81.3565 79.1741C80.8527 79.3394 80.4193 79.6698 80.1264 80.1118C79.8336 80.5539 79.6983 81.0818 79.7426 81.6102C80.6866 91.6533 78.6585 99.522 73.7131 105.009C66.295 113.231 54.7781 113.414 54.6624 113.414C54.2247 113.419 53.7972 113.547 53.428 113.782C53.0588 114.017 52.7625 114.351 52.5726 114.745C52.3827 115.139 52.3067 115.579 52.3531 116.014C52.3995 116.449 52.5665 116.863 52.8353 117.209L67.3365 135.76C67.6407 136.147 68.0587 136.43 68.5317 136.567C69.0047 136.705 69.509 136.691 69.9736 136.527C80.2115 132.873 86.9475 126.783 89.9988 118.469C92.642 111.222 92.4471 102.567 89.408 92.7374ZM82.0996 81.4093C82.0996 81.4093 105.462 121.417 69.2123 134.31L54.6868 115.777C54.6868 115.777 85.297 115.515 82.0752 81.4093H82.0996Z" fill="#0E1F74"/>
<g style="mix-blend-mode:multiply">
<path d="M82.0855 81.665C84.9358 91.7385 86.2878 110.107 67.7792 124.821C67.7792 124.821 65.6536 125.303 62.6206 125.93L54.7031 115.777C54.7031 115.777 85.1307 115.509 82.0855 81.665Z" fill="#DADADB"/>
</g>
<path d="M62.3065 140.462C63.3358 137.301 64.2189 134.572 64.499 133.385C65.6623 128.512 72.8916 126.752 73.2022 126.685L73.4823 126.618L73.7686 126.685C77.6542 127.599 84.7678 131.557 83.8908 139.987C83.2452 146.168 78.5739 150.803 74.9197 153.525C76.1377 153.452 77.4532 153.398 78.7505 153.398C82.7032 153.398 87.2405 153.781 87.2405 156.766C87.2405 158.593 87.2405 164.275 82.7336 164.275C81.2902 164.275 79.725 163.666 78.0745 163.057C76.424 162.448 74.7552 161.839 73.2996 161.839C71.0586 161.935 68.8298 162.221 66.6367 162.691C64.7478 163.096 62.8291 163.346 60.8996 163.441C60.1748 163.441 58.0249 163.441 57.2454 161.711C56.3014 159.78 58.0493 153.599 62.3065 140.462Z" fill="url(#paint1_linear)"/>
<g style="mix-blend-mode:multiply">
<path d="M62.1245 157.489L48.543 158.902C50.6076 150.016 56.0341 134.541 56.9721 130.618C58.1901 125.393 66.534 123.401 66.534 123.401C66.534 123.401 79.0314 126.386 77.8073 138.335C76.5953 150.12 62.5265 157.294 62.1245 157.489Z" fill="#DADADB"/>
</g>
<path d="M56.1819 162.186C56.9067 163.775 58.4658 164.567 60.902 164.567C62.8974 164.474 64.8815 164.216 66.834 163.794C68.9634 163.338 71.1267 163.059 73.302 162.959C74.5566 162.959 76.1462 163.568 77.6871 164.123C79.3619 164.732 81.0916 165.383 82.736 165.383C83.6181 165.412 84.4914 165.2 85.2627 164.771C86.0339 164.342 86.6742 163.712 87.115 162.947C87.9615 161.534 88.3331 159.573 88.3331 156.772C88.3331 155.645 87.8093 153.629 84.3073 152.794C83.2039 152.548 82.081 152.4 80.9515 152.35L78.3936 152.21L80.0989 150.297C82.9735 147.076 84.624 143.647 84.9712 140.102C85.9335 130.906 78.2108 126.594 74.0085 125.607C73.8331 125.563 73.6532 125.541 73.4725 125.54C73.2919 125.541 73.112 125.564 72.9366 125.607C72.0961 125.802 64.7085 127.69 63.4112 133.129C63.1372 134.274 62.1931 137.093 61.2552 140.084C56.2428 155.535 55.2075 160.072 56.1819 162.186ZM65.6951 133.671C66.6878 129.481 73.4725 127.885 73.4725 127.885C73.4725 127.885 83.6496 130.278 82.6507 139.852C81.6519 149.427 69.8609 155.218 69.8609 155.218C72.7953 154.854 75.7475 154.651 78.7042 154.609C82.4498 154.609 85.9639 155.06 85.9639 156.741C85.9639 161.613 84.6362 163.014 82.6873 163.014C80.1111 163.014 76.4325 160.578 73.2533 160.578C69.2884 160.578 64.0081 162.186 60.8533 162.186C59.5682 162.186 58.6364 161.918 58.2892 161.169C57.1138 158.611 64.6963 137.861 65.6951 133.671Z" fill="#0E1F74"/>
<path d="M37.0095 140.462C35.9863 137.301 35.1032 134.572 34.817 133.385C33.6598 128.512 26.4244 126.752 26.1199 126.685L25.8397 126.618L25.5535 126.685C21.6678 127.599 14.5543 131.557 15.4313 139.987C16.0769 146.174 20.7543 150.809 24.4207 153.532C23.2026 153.458 21.8871 153.404 20.5837 153.404C16.6311 153.404 12.0938 153.787 12.0938 156.772C12.0938 158.599 12.0938 164.281 16.6067 164.281C18.0441 164.281 19.6093 163.672 21.2659 163.063C22.9224 162.454 24.5851 161.845 26.0346 161.845C28.2878 161.939 30.529 162.225 32.7341 162.698C34.6229 163.103 36.5416 163.353 38.4712 163.447C39.202 163.447 41.3519 163.447 42.1254 161.717C43.0146 159.78 41.2667 153.599 37.0095 140.462Z" fill="url(#paint2_linear)"/>
<g style="mix-blend-mode:multiply">
<path d="M37.1464 157.489L50.7706 158.902C48.7181 150.016 43.2368 134.541 42.3354 130.618C41.1173 125.393 32.7796 123.401 32.7796 123.401C32.7796 123.401 20.2821 126.386 21.5063 138.335C22.7183 150.12 36.787 157.294 37.1464 157.489Z" fill="#DADADB"/>
</g>
<path d="M38.0522 140.078C37.0838 137.088 36.1703 134.268 35.8962 133.123C34.599 127.684 27.2052 125.814 26.3709 125.601C26.0171 125.512 25.6467 125.512 25.2929 125.601C21.0783 126.588 13.3618 130.9 14.3302 140.096C14.7017 143.641 16.3461 147.07 19.2025 150.291L20.92 152.204L18.362 152.344C17.2325 152.393 16.1095 152.542 15.0062 152.789C11.5042 153.623 10.9805 155.639 10.9805 156.766C10.9805 159.567 11.3763 161.528 12.1985 162.941C12.6399 163.707 13.281 164.338 14.0535 164.767C14.8259 165.196 15.7005 165.407 16.5836 165.377C18.2219 165.377 19.9577 164.768 21.6325 164.117C23.1734 163.544 24.763 162.953 26.0115 162.953C28.1946 163.048 30.3661 163.323 32.5039 163.776C34.4563 164.198 36.4405 164.457 38.4359 164.549C40.8172 164.549 42.3947 163.745 43.1255 162.168C44.1 160.073 43.0585 155.535 38.0522 140.078ZM40.9939 161.205C40.6467 161.955 39.721 162.223 38.4359 162.223C35.2811 162.223 30.0007 160.615 26.0298 160.615C22.8506 160.615 19.1781 163.051 16.6019 163.051C14.6469 163.051 13.3253 161.662 13.3253 156.778C13.3253 155.097 16.8394 154.646 20.5789 154.646C23.5356 154.687 26.4878 154.89 29.4221 155.255C29.4221 155.255 17.6494 149.469 16.6323 139.889C15.6152 130.309 25.8166 127.922 25.8166 127.922C25.8166 127.922 32.5952 129.517 33.5941 133.707C34.5929 137.898 42.1937 158.611 40.9939 161.205Z" fill="#0E1F74"/>
<path d="M64.0745 107.573C59.0013 98.5289 60.1341 84.4297 60.1341 84.4297H39.4268C39.4268 84.4297 39.9871 97.7372 35.4437 106.507C34.1099 108.14 26.5273 122.878 26.5273 132.483C26.5273 151.6 36.1928 160.858 49.6708 160.858C63.1488 160.858 72.8142 151.6 72.8142 132.483C72.7777 122.878 64.8419 108.627 64.0745 107.573Z" fill="url(#paint3_linear)"/>
<g style="mix-blend-mode:multiply">
<path d="M60.2901 89.6855H39.2661C39.0194 92.2853 38.5673 94.8615 37.9141 97.3899C40.1919 105.423 60.2292 134.31 71.0214 126.441C72.343 125.929 68.2868 114.059 68.2868 114.059C60.1561 103.103 60.2901 89.6855 60.2901 89.6855Z" fill="#DADADB"/>
</g>
<path d="M50.2891 141.6H50.0272C39.5822 141.472 32.091 133.731 31.7561 133.402C31.6078 133.299 31.4844 133.164 31.3948 133.007C31.3051 132.85 31.2515 132.675 31.2379 132.495C31.2242 132.315 31.2508 132.134 31.3157 131.965C31.3806 131.796 31.4822 131.644 31.6132 131.52C31.7441 131.395 31.9012 131.302 32.0729 131.245C32.2445 131.189 32.4266 131.172 32.6059 131.194C32.7851 131.217 32.9571 131.279 33.1093 131.377C33.2614 131.474 33.39 131.604 33.4857 131.758C33.5527 131.831 40.6236 139.109 50.0516 139.218H50.2586C55.8496 139.218 61.2213 136.703 66.1606 131.739C66.26 131.588 66.3918 131.461 66.5464 131.367C66.701 131.274 66.8746 131.215 67.0545 131.197C67.2344 131.179 67.4162 131.2 67.5866 131.261C67.757 131.322 67.9117 131.419 68.0396 131.547C68.1675 131.675 68.2653 131.83 68.3259 132C68.3865 132.171 68.4084 132.353 68.3901 132.532C68.3717 132.712 68.3135 132.886 68.2196 133.041C68.1258 133.195 67.9988 133.327 67.8476 133.426C62.4455 138.847 56.5317 141.6 50.2891 141.6Z" fill="#0E1F74"/>
<path d="M72.5162 122.97C72.4617 121.63 72.1168 120.319 71.5052 119.127C70.9327 117.909 70.2323 116.453 69.4954 114.936C68.3199 112.24 66.9732 109.622 65.4635 107.098L65.427 107.037C61.2612 99.5156 61.9067 87.7368 61.992 86.4213V86.3786C61.992 86.2995 61.992 86.2203 61.992 86.135C61.9985 85.5146 61.7596 84.9168 61.3272 84.4719C60.8948 84.027 60.3041 83.771 59.6838 83.7598H39.8657C39.5501 83.7604 39.238 83.8245 38.9478 83.9483C38.6575 84.0721 38.3952 84.2531 38.1764 84.4804C37.9576 84.7077 37.7868 84.9768 37.6742 85.2715C37.5616 85.5662 37.5094 85.8806 37.5209 86.1959C37.5209 86.3116 37.9594 98.194 34.0798 105.904L34.0493 105.977L34.0067 106.038C32.6621 108.264 31.4737 110.579 30.4499 112.969C29.3841 115.156 28.3183 117.342 27.5083 119.06C26.7591 120.464 26.4253 122.053 26.546 123.64C25.7475 126.373 25.3053 129.198 25.2305 132.044C25.2305 141.43 27.5205 148.817 32.0334 153.97C36.2967 158.879 42.3871 161.479 49.6955 161.479C57.004 161.479 63.0578 158.879 67.3576 153.97C71.8706 148.787 74.1606 141.399 74.1606 132.044C74.0452 128.957 73.4916 125.901 72.5162 122.97ZM49.6468 159.165C36.7839 159.165 27.5448 150.315 27.5448 132.044C27.5769 130.22 27.7973 128.403 28.2026 126.624C28.5448 126.88 28.9222 127.085 29.3232 127.233C30.173 127.573 31.076 127.76 31.9908 127.787C33.1601 127.787 34.8533 127.458 36.0896 124.62L36.315 124.109C37.259 121.928 39.7621 117.251 41.2421 115.582C41.1644 115.463 41.0724 115.355 40.968 115.259C40.7914 115.099 40.5842 114.977 40.359 114.9L40.0849 114.827C39.7848 114.77 39.4752 114.792 39.186 114.89C38.8968 114.988 38.6379 115.159 38.4344 115.387C36.6987 117.312 35.2309 120.698 34.1711 123.171L33.9519 123.682C33.1845 125.442 32.4963 125.911 30.1515 125.034C29.8949 124.935 29.6608 124.785 29.4631 124.594C29.2654 124.402 29.108 124.173 29.0004 123.92C28.635 123.024 28.8482 121.691 29.6095 120.065C30.3707 118.438 31.4 116.319 32.4293 114.206C33.4453 111.775 34.6678 109.436 36.0835 107.214C40.426 98.8335 39.89 86.1107 39.89 86.1107H59.6838C59.6838 86.1107 58.5997 99.6008 63.4476 108.243C64.8012 110.499 66.0115 112.839 67.0714 115.247C67.9301 117.007 68.7462 118.706 69.404 120.119C70.0618 121.532 70.3237 122.769 70.1166 123.646C70.0942 123.758 70.0616 123.868 70.0191 123.975C69.9455 124.15 69.8471 124.314 69.7268 124.462C69.5784 124.639 69.4039 124.793 69.2091 124.919C69.1009 124.986 68.9867 125.043 68.868 125.089C66.5233 125.96 65.8229 125.497 65.0676 123.737L64.8423 123.225C63.7704 120.753 62.2965 117.36 60.579 115.442C60.3742 115.214 60.1142 115.043 59.8241 114.945C59.534 114.847 59.2235 114.825 58.9225 114.882L58.6545 114.949C58.2948 115.076 57.9853 115.315 57.7714 115.631C59.2513 117.306 61.7606 121.983 62.7046 124.157L62.9299 124.675C64.148 127.513 65.8594 127.842 67.0227 127.842C67.9395 127.816 68.8446 127.628 69.6963 127.288C70.191 127.091 70.6484 126.811 71.0484 126.459C71.5002 128.296 71.7454 130.178 71.7793 132.069C71.7488 150.315 62.5097 159.165 49.6468 159.165Z" fill="#0E1F74"/>
<path d="M70.0048 123.95C69.9308 124.127 69.8319 124.292 69.7109 124.44C69.8319 124.292 69.9308 124.127 70.0048 123.95Z" fill="#0E1F74"/>
<path d="M58.8997 114.857C58.8079 114.873 58.7174 114.896 58.6289 114.925L58.8997 114.857Z" fill="#0E1F74"/>
<path d="M40.3668 114.894C40.2761 114.864 40.1836 114.839 40.0898 114.82L40.3668 114.894Z" fill="#0E1F74"/>
<g style="mix-blend-mode:multiply">
<path d="M40.3668 114.894C40.2761 114.864 40.1836 114.839 40.0898 114.82L40.3668 114.894Z" fill="#DADADB"/>
</g>
<path d="M71.362 49.5007C58.828 46.6138 52.7619 67.4003 52.7619 67.4003H46.3975C46.3975 67.4003 40.3315 46.6138 27.8036 49.5007C27.4077 49.592 23.6256 63.8922 37.3472 73.0704C37.3472 73.0704 30.7878 88.4852 42.0246 95.6414C42.0246 95.6414 43.0173 102.706 49.5828 103.102C56.1421 102.706 57.1409 95.6414 57.1409 95.6414C68.3777 88.4852 61.8123 73.0704 61.8123 73.0704C75.5217 63.8922 71.7578 49.592 71.362 49.5007Z" fill="url(#paint4_linear)"/>
<path d="M72.3791 51.0057C72.0807 49.3735 71.8493 49.0446 71.4778 48.9593C70.6614 48.7669 69.8256 48.6688 68.9868 48.667C64.553 48.667 60.3933 51.5721 56.8852 57.0717C55.1381 59.8852 53.7082 62.8838 52.6219 66.0124L52.3357 66.8468H46.8117L46.5255 66.0124C45.4444 62.8816 44.0143 59.8825 42.2622 57.0717C38.7541 51.5721 34.5761 48.667 30.1606 48.667C29.3219 48.6694 28.4861 48.7675 27.6696 48.9593C27.2981 49.0446 27.0606 49.3735 26.7744 51.0057C26.3663 53.2104 24.9107 64.6299 35.9099 72.7362L36.6408 73.2782L36.3423 74.137C33.9854 80.879 33.8209 90.581 41.1172 95.703L41.5009 95.9771L41.6105 96.4339C41.8724 97.5728 43.5107 103.292 49.528 103.657H49.5889C55.6306 103.292 57.2628 97.5667 57.5064 96.4339L57.616 95.9771L57.9997 95.703C65.3082 90.5688 65.1316 80.879 62.7746 74.137L62.4701 73.2782L63.207 72.7362C74.2367 64.6238 72.7811 53.2104 72.3791 51.0057ZM55.3626 95.3924C55.3261 95.6238 54.5221 100.935 49.5767 101.306C44.7044 100.935 43.8213 95.6117 43.7909 95.3924C43.7527 95.1369 43.6607 94.8925 43.5211 94.6752C43.3814 94.4579 43.1973 94.2726 42.9809 94.1317C38.9247 91.5494 36.994 87.4323 37.2498 81.8535C37.3946 79.0855 37.9764 76.3578 38.9734 73.7715C39.1348 73.3911 39.1625 72.9671 39.0519 72.5689C38.9413 72.1707 38.6989 71.8217 38.3644 71.579C27.4017 64.2827 28.6197 53.8743 29.1679 51.1031C39.2596 49.8851 44.6192 67.7177 44.674 67.9004C44.782 68.2725 45.0079 68.5994 45.3175 68.8322C45.6272 69.0651 46.004 69.1911 46.3915 69.1916H52.7559C53.1436 69.1921 53.5209 69.0664 53.8308 68.8335C54.1407 68.6005 54.3662 68.273 54.4734 67.9004C54.5282 67.7177 59.8512 49.9155 69.9795 51.0788C70.552 53.8743 71.764 64.2827 60.844 71.579C60.498 71.8108 60.2437 72.1559 60.1248 72.555C60.0059 72.9541 60.0297 73.3821 60.1923 73.7655C61.1908 76.3542 61.7786 79.0832 61.9341 81.8535C62.1838 87.4201 60.2532 91.5494 56.2031 94.1317C55.9788 94.267 55.7872 94.4501 55.6419 94.6681C55.4966 94.886 55.4012 95.1333 55.3626 95.3924Z" fill="#0E1F74"/>
<path d="M50.7811 96.3488C50.7811 96.3488 49.9772 96.4523 49.7092 96.4523C49.4412 96.4523 48.6312 96.3488 48.6312 96.3488C47.6628 96.3488 46.8711 95.0089 46.8711 94.3877C46.8711 93.7787 47.6628 93.2549 48.6312 93.2549H50.7811C51.7495 93.2549 52.5412 93.7665 52.5412 94.3877C52.5412 95.0089 51.7678 96.3488 50.7811 96.3488Z" fill="#0E1F74"/>
<defs>
<linearGradient id="paint0_linear" x1="77.171" y1="106.538" x2="61.9329" y2="133.543" gradientUnits="userSpaceOnUse">
<stop stop-color="#00B3D9"/>
<stop offset="1" stop-color="#225ACF"/>
</linearGradient>
<linearGradient id="paint1_linear" x1="3456.16" y1="7161.29" x2="4188.47" y2="5903.06" gradientUnits="userSpaceOnUse">
<stop offset="0.14" stop-color="#00E9CF"/>
<stop offset="1" stop-color="#00B3D9"/>
</linearGradient>
<linearGradient id="paint2_linear" x1="1824.8" y1="5808.82" x2="441.358" y2="6850.59" gradientUnits="userSpaceOnUse">
<stop offset="0.14" stop-color="#00E9CF"/>
<stop offset="1" stop-color="#00B3D9"/>
</linearGradient>
<linearGradient id="paint3_linear" x1="2701.45" y1="11090.1" x2="5525.42" y2="9423.19" gradientUnits="userSpaceOnUse">
<stop offset="0.14" stop-color="#00E9CF"/>
<stop offset="1" stop-color="#00B3D9"/>
</linearGradient>
<linearGradient id="paint4_linear" x1="2761.32" y1="-429.737" x2="5567.28" y2="3196.25" gradientUnits="userSpaceOnUse">
<stop offset="0.14" stop-color="#00E9CF"/>
<stop offset="1" stop-color="#00B3D9"/>
</linearGradient>
</defs>
</svg>
